<?xml version="1.0" standalone="no"?><!-- Generator: Gravit.io --><svg xmlns="http://www.w3.org/2000/svg" xmlns:xlink="http://www.w3.org/1999/xlink" style="isolation:isolate" viewBox="0 0 841.89 595.276" width="841.89" height="595.276"><defs><clipPath id="_clipPath_THleaBmT2o0pJQ4hYs3DeilSH1NX5mQV"><rect width="841.89" height="595.276"/></clipPath></defs><g clip-path="url(#_clipPath_THleaBmT2o0pJQ4hYs3DeilSH1NX5mQV)"><g style="isolation:isolate"><g><rect x="100" y="447" width="90" height="35" transform="matrix(1,0,0,1,0,0)" fill="rgb(221,217,216)"/><path d=" M 135.398 472.259 L 133.68 472.259 L 131.902 467.718 L 126.18 467.718 L 124.422 472.259 L 122.742 472.259 L 128.387 457.923 L 129.783 457.923 L 135.398 472.259 L 135.398 472.259 Z  M 126.766 466.224 L 131.385 466.224 L 129.725 461.8 L 129.725 461.8 Q 129.402 460.96 129.061 459.739 L 129.061 459.739 L 129.061 459.739 Q 128.846 460.677 128.445 461.8 L 128.445 461.8 L 126.766 466.224 L 126.766 466.224 Z  M 138.738 457.063 L 138.738 472.259 L 137.117 472.259 L 137.117 457.063 L 138.738 457.063 L 138.738 457.063 Z  M 143.797 461.556 L 143.797 472.259 L 142.176 472.259 L 142.176 461.556 L 143.797 461.556 L 143.797 461.556 Z  M 142.039 458.655 L 142.039 458.655 L 142.039 458.655 Q 142.039 458.099 142.313 457.84 L 142.313 457.84 L 142.313 457.84 Q 142.586 457.581 142.996 457.581 L 142.996 457.581 L 142.996 457.581 Q 143.387 457.581 143.67 457.845 L 143.67 457.845 L 143.67 457.845 Q 143.953 458.108 143.953 458.655 L 143.953 458.655 L 143.953 458.655 Q 143.953 459.202 143.67 459.471 L 143.67 459.471 L 143.67 459.471 Q 143.387 459.739 142.996 459.739 L 142.996 459.739 L 142.996 459.739 Q 142.586 459.739 142.313 459.471 L 142.313 459.471 L 142.313 459.471 Q 142.039 459.202 142.039 458.655 Z  M 151.512 472.454 L 151.512 472.454 L 151.512 472.454 Q 149.188 472.454 147.913 471.023 L 147.913 471.023 L 147.913 471.023 Q 146.639 469.593 146.639 466.976 L 146.639 466.976 L 146.639 466.976 Q 146.639 464.29 147.933 462.825 L 147.933 462.825 L 147.933 462.825 Q 149.227 461.36 151.619 461.36 L 151.619 461.36 L 151.619 461.36 Q 152.391 461.36 153.162 461.526 L 153.162 461.526 L 153.162 461.526 Q 153.934 461.692 154.373 461.917 L 154.373 461.917 L 153.875 463.294 L 153.875 463.294 Q 153.338 463.079 152.703 462.938 L 152.703 462.938 L 152.703 462.938 Q 152.068 462.796 151.58 462.796 L 151.58 462.796 L 151.58 462.796 Q 148.318 462.796 148.318 466.956 L 148.318 466.956 L 148.318 466.956 Q 148.318 468.929 149.114 469.983 L 149.114 469.983 L 149.114 469.983 Q 149.91 471.038 151.473 471.038 L 151.473 471.038 L 151.473 471.038 Q 152.811 471.038 154.217 470.462 L 154.217 470.462 L 154.217 471.897 L 154.217 471.897 Q 153.143 472.454 151.512 472.454 Z  M 161.277 472.454 L 161.277 472.454 L 161.277 472.454 Q 158.904 472.454 157.532 471.009 L 157.532 471.009 L 157.532 471.009 Q 156.16 469.563 156.16 466.995 L 156.16 466.995 L 156.16 466.995 Q 156.16 464.407 157.435 462.884 L 157.435 462.884 L 157.435 462.884 Q 158.709 461.36 160.857 461.36 L 160.857 461.36 L 160.857 461.36 Q 162.869 461.36 164.041 462.684 L 164.041 462.684 L 164.041 462.684 Q 165.213 464.007 165.213 466.175 L 165.213 466.175 L 165.213 467.2 L 157.84 467.2 L 157.84 467.2 Q 157.889 469.085 158.792 470.062 L 158.792 470.062 L 158.792 470.062 Q 159.695 471.038 161.336 471.038 L 161.336 471.038 L 161.336 471.038 Q 163.064 471.038 164.754 470.315 L 164.754 470.315 L 164.754 471.761 L 164.754 471.761 Q 163.895 472.132 163.128 472.293 L 163.128 472.293 L 163.128 472.293 Q 162.361 472.454 161.277 472.454 Z  M 160.838 462.718 L 160.838 462.718 L 160.838 462.718 Q 159.549 462.718 158.782 463.558 L 158.782 463.558 L 158.782 463.558 Q 158.016 464.397 157.879 465.882 L 157.879 465.882 L 163.475 465.882 L 163.475 465.882 Q 163.475 464.349 162.791 463.533 L 162.791 463.533 L 162.791 463.533 Q 162.107 462.718 160.838 462.718 Z " fill-rule="evenodd" fill="rgb(0,0,0)"/></g><g><rect x="284" y="447" width="90" height="35" transform="matrix(1,0,0,1,0,0)" fill="rgb(221,217,216)"/><path d=" M 311.815 472.259 L 311.815 457.981 L 315.849 457.981 L 315.849 457.981 Q 318.69 457.981 319.96 458.831 L 319.96 458.831 L 319.96 458.831 Q 321.229 459.681 321.229 461.517 L 321.229 461.517 L 321.229 461.517 Q 321.229 462.786 320.521 463.611 L 320.521 463.611 L 320.521 463.611 Q 319.813 464.437 318.456 464.681 L 318.456 464.681 L 318.456 464.778 L 318.456 464.778 Q 321.708 465.335 321.708 468.196 L 321.708 468.196 L 321.708 468.196 Q 321.708 470.11 320.414 471.185 L 320.414 471.185 L 320.414 471.185 Q 319.12 472.259 316.796 472.259 L 316.796 472.259 L 311.815 472.259 L 311.815 472.259 Z  M 313.476 459.417 L 313.476 464.095 L 316.21 464.095 L 316.21 464.095 Q 317.968 464.095 318.739 463.543 L 318.739 463.543 L 318.739 463.543 Q 319.511 462.991 319.511 461.683 L 319.511 461.683 L 319.511 461.683 Q 319.511 460.481 318.651 459.949 L 318.651 459.949 L 318.651 459.949 Q 317.792 459.417 315.917 459.417 L 315.917 459.417 L 313.476 459.417 L 313.476 459.417 Z  M 316.317 465.501 L 313.476 465.501 L 313.476 470.843 L 316.454 470.843 L 316.454 470.843 Q 318.183 470.843 319.057 470.174 L 319.057 470.174 L 319.057 470.174 Q 319.931 469.505 319.931 468.079 L 319.931 468.079 L 319.931 468.079 Q 319.931 466.751 319.037 466.126 L 319.037 466.126 L 319.037 466.126 Q 318.144 465.501 316.317 465.501 L 316.317 465.501 L 316.317 465.501 Z  M 333.769 466.897 L 333.769 466.897 L 333.769 466.897 Q 333.769 469.515 332.45 470.984 L 332.45 470.984 L 332.45 470.984 Q 331.132 472.454 328.808 472.454 L 328.808 472.454 L 328.808 472.454 Q 327.372 472.454 326.259 471.78 L 326.259 471.78 L 326.259 471.78 Q 325.146 471.106 324.54 469.847 L 324.54 469.847 L 324.54 469.847 Q 323.935 468.587 323.935 466.897 L 323.935 466.897 L 323.935 466.897 Q 323.935 464.28 325.243 462.82 L 325.243 462.82 L 325.243 462.82 Q 326.552 461.36 328.876 461.36 L 328.876 461.36 L 328.876 461.36 Q 331.122 461.36 332.445 462.854 L 332.445 462.854 L 332.445 462.854 Q 333.769 464.349 333.769 466.897 Z  M 325.614 466.897 L 325.614 466.897 L 325.614 466.897 Q 325.614 468.948 326.435 470.022 L 326.435 470.022 L 326.435 470.022 Q 327.255 471.097 328.847 471.097 L 328.847 471.097 L 328.847 471.097 Q 330.438 471.097 331.264 470.027 L 331.264 470.027 L 331.264 470.027 Q 332.089 468.958 332.089 466.897 L 332.089 466.897 L 332.089 466.897 Q 332.089 464.856 331.264 463.797 L 331.264 463.797 L 331.264 463.797 Q 330.438 462.737 328.827 462.737 L 328.827 462.737 L 328.827 462.737 Q 327.235 462.737 326.425 463.782 L 326.425 463.782 L 326.425 463.782 Q 325.614 464.827 325.614 466.897 Z  M 341.591 461.38 L 341.591 461.38 L 341.591 461.38 Q 343.7 461.38 344.867 462.82 L 344.867 462.82 L 344.867 462.82 Q 346.034 464.261 346.034 466.897 L 346.034 466.897 L 346.034 466.897 Q 346.034 469.534 344.857 470.994 L 344.857 470.994 L 344.857 470.994 Q 343.681 472.454 341.591 472.454 L 341.591 472.454 L 341.591 472.454 Q 340.546 472.454 339.682 472.068 L 339.682 472.068 L 339.682 472.068 Q 338.817 471.683 338.231 470.882 L 338.231 470.882 L 338.114 470.882 L 337.772 472.259 L 336.61 472.259 L 336.61 457.063 L 338.231 457.063 L 338.231 460.755 L 338.231 460.755 Q 338.231 461.995 338.153 462.981 L 338.153 462.981 L 338.231 462.981 L 338.231 462.981 Q 339.364 461.38 341.591 461.38 Z  M 341.356 462.737 L 341.356 462.737 L 341.356 462.737 Q 339.696 462.737 338.964 463.689 L 338.964 463.689 L 338.964 463.689 Q 338.231 464.642 338.231 466.897 L 338.231 466.897 L 338.231 466.897 Q 338.231 469.153 338.983 470.125 L 338.983 470.125 L 338.983 470.125 Q 339.735 471.097 341.396 471.097 L 341.396 471.097 L 341.396 471.097 Q 342.89 471.097 343.622 470.008 L 343.622 470.008 L 343.622 470.008 Q 344.354 468.919 344.354 466.878 L 344.354 466.878 L 344.354 466.878 Q 344.354 464.788 343.622 463.763 L 343.622 463.763 L 343.622 463.763 Q 342.89 462.737 341.356 462.737 Z " fill-rule="evenodd" fill="rgb(0,0,0)"/></g><g><rect x="467" y="447" width="90" height="35" transform="matrix(1,0,0,1,0,0)" fill="rgb(221,217,216)"/><path d=" M 495.055 459.261 L 495.055 459.261 L 495.055 459.261 Q 492.701 459.261 491.339 460.828 L 491.339 460.828 L 491.339 460.828 Q 489.977 462.396 489.977 465.12 L 489.977 465.12 L 489.977 465.12 Q 489.977 467.923 491.29 469.451 L 491.29 469.451 L 491.29 469.451 Q 492.604 470.979 495.035 470.979 L 495.035 470.979 L 495.035 470.979 Q 496.529 470.979 498.443 470.442 L 498.443 470.442 L 498.443 471.897 L 498.443 471.897 Q 496.959 472.454 494.781 472.454 L 494.781 472.454 L 494.781 472.454 Q 491.627 472.454 489.913 470.54 L 489.913 470.54 L 489.913 470.54 Q 488.199 468.626 488.199 465.101 L 488.199 465.101 L 488.199 465.101 Q 488.199 462.894 489.024 461.233 L 489.024 461.233 L 489.024 461.233 Q 489.85 459.573 491.407 458.675 L 491.407 458.675 L 491.407 458.675 Q 492.965 457.776 495.074 457.776 L 495.074 457.776 L 495.074 457.776 Q 497.32 457.776 499 458.597 L 499 458.597 L 498.297 460.022 L 498.297 460.022 Q 496.676 459.261 495.055 459.261 Z  M 509.098 472.259 L 507.896 472.259 L 507.574 470.735 L 507.496 470.735 L 507.496 470.735 Q 506.695 471.741 505.899 472.098 L 505.899 472.098 L 505.899 472.098 Q 505.104 472.454 503.912 472.454 L 503.912 472.454 L 503.912 472.454 Q 502.32 472.454 501.417 471.634 L 501.417 471.634 L 501.417 471.634 Q 500.514 470.813 500.514 469.3 L 500.514 469.3 L 500.514 469.3 Q 500.514 466.058 505.699 465.901 L 505.699 465.901 L 507.516 465.843 L 507.516 465.179 L 507.516 465.179 Q 507.516 463.919 506.974 463.318 L 506.974 463.318 L 506.974 463.318 Q 506.432 462.718 505.24 462.718 L 505.24 462.718 L 505.24 462.718 Q 503.902 462.718 502.213 463.538 L 502.213 463.538 L 501.715 462.298 L 501.715 462.298 Q 502.506 461.868 503.448 461.624 L 503.448 461.624 L 503.448 461.624 Q 504.391 461.38 505.338 461.38 L 505.338 461.38 L 505.338 461.38 Q 507.252 461.38 508.175 462.229 L 508.175 462.229 L 508.175 462.229 Q 509.098 463.079 509.098 464.954 L 509.098 464.954 L 509.098 472.259 L 509.098 472.259 Z  M 504.234 471.116 L 504.234 471.116 L 504.234 471.116 Q 505.748 471.116 506.612 470.286 L 506.612 470.286 L 506.612 470.286 Q 507.477 469.456 507.477 467.962 L 507.477 467.962 L 507.477 466.995 L 505.855 467.063 L 505.855 467.063 Q 503.922 467.132 503.067 467.664 L 503.067 467.664 L 503.067 467.664 Q 502.213 468.196 502.213 469.319 L 502.213 469.319 L 502.213 469.319 Q 502.213 470.198 502.745 470.657 L 502.745 470.657 L 502.745 470.657 Q 503.277 471.116 504.234 471.116 Z  M 517.32 461.36 L 517.32 461.36 L 517.32 461.36 Q 518.033 461.36 518.6 461.478 L 518.6 461.478 L 518.375 462.981 L 518.375 462.981 Q 517.711 462.835 517.203 462.835 L 517.203 462.835 L 517.203 462.835 Q 515.904 462.835 514.981 463.89 L 514.981 463.89 L 514.981 463.89 Q 514.059 464.944 514.059 466.517 L 514.059 466.517 L 514.059 472.259 L 512.438 472.259 L 512.438 461.556 L 513.775 461.556 L 513.961 463.538 L 514.039 463.538 L 514.039 463.538 Q 514.635 462.493 515.475 461.927 L 515.475 461.927 L 515.475 461.927 Q 516.314 461.36 517.32 461.36 Z  M 529.84 466.897 L 529.84 466.897 L 529.84 466.897 Q 529.84 469.515 528.521 470.984 L 528.521 470.984 L 528.521 470.984 Q 527.203 472.454 524.879 472.454 L 524.879 472.454 L 524.879 472.454 Q 523.443 472.454 522.33 471.78 L 522.33 471.78 L 522.33 471.78 Q 521.217 471.106 520.611 469.847 L 520.611 469.847 L 520.611 469.847 Q 520.006 468.587 520.006 466.897 L 520.006 466.897 L 520.006 466.897 Q 520.006 464.28 521.314 462.82 L 521.314 462.82 L 521.314 462.82 Q 522.623 461.36 524.947 461.36 L 524.947 461.36 L 524.947 461.36 Q 527.193 461.36 528.517 462.854 L 528.517 462.854 L 528.517 462.854 Q 529.84 464.349 529.84 466.897 Z  M 521.686 466.897 L 521.686 466.897 L 521.686 466.897 Q 521.686 468.948 522.506 470.022 L 522.506 470.022 L 522.506 470.022 Q 523.326 471.097 524.918 471.097 L 524.918 471.097 L 524.918 471.097 Q 526.51 471.097 527.335 470.027 L 527.335 470.027 L 527.335 470.027 Q 528.16 468.958 528.16 466.897 L 528.16 466.897 L 528.16 466.897 Q 528.16 464.856 527.335 463.797 L 527.335 463.797 L 527.335 463.797 Q 526.51 462.737 524.898 462.737 L 524.898 462.737 L 524.898 462.737 Q 523.307 462.737 522.496 463.782 L 522.496 463.782 L 522.496 463.782 Q 521.686 464.827 521.686 466.897 Z  M 534.303 457.063 L 534.303 472.259 L 532.682 472.259 L 532.682 457.063 L 534.303 457.063 L 534.303 457.063 Z " fill-rule="evenodd" fill="rgb(0,0,0)"/></g><g><rect x="651" y="447" width="90" height="35" transform="matrix(1,0,0,1,0,0)" fill="rgb(221,217,216)"/><path d=" M 685.388 464.983 L 685.388 464.983 L 685.388 464.983 Q 685.388 468.519 683.469 470.389 L 683.469 470.389 L 683.469 470.389 Q 681.55 472.259 677.946 472.259 L 677.946 472.259 L 673.991 472.259 L 673.991 457.981 L 678.366 457.981 L 678.366 457.981 Q 681.696 457.981 683.542 459.827 L 683.542 459.827 L 683.542 459.827 Q 685.388 461.673 685.388 464.983 Z  M 683.63 465.042 L 683.63 465.042 L 683.63 465.042 Q 683.63 462.249 682.229 460.833 L 682.229 460.833 L 682.229 460.833 Q 680.827 459.417 678.063 459.417 L 678.063 459.417 L 675.651 459.417 L 675.651 470.823 L 677.673 470.823 L 677.673 470.823 Q 680.642 470.823 682.136 469.363 L 682.136 469.363 L 682.136 469.363 Q 683.63 467.903 683.63 465.042 Z  M 696.11 472.259 L 694.909 472.259 L 694.587 470.735 L 694.509 470.735 L 694.509 470.735 Q 693.708 471.741 692.912 472.098 L 692.912 472.098 L 692.912 472.098 Q 692.116 472.454 690.925 472.454 L 690.925 472.454 L 690.925 472.454 Q 689.333 472.454 688.43 471.634 L 688.43 471.634 L 688.43 471.634 Q 687.526 470.813 687.526 469.3 L 687.526 469.3 L 687.526 469.3 Q 687.526 466.058 692.712 465.901 L 692.712 465.901 L 694.528 465.843 L 694.528 465.179 L 694.528 465.179 Q 694.528 463.919 693.986 463.318 L 693.986 463.318 L 693.986 463.318 Q 693.444 462.718 692.253 462.718 L 692.253 462.718 L 692.253 462.718 Q 690.915 462.718 689.226 463.538 L 689.226 463.538 L 688.728 462.298 L 688.728 462.298 Q 689.519 461.868 690.461 461.624 L 690.461 461.624 L 690.461 461.624 Q 691.403 461.38 692.351 461.38 L 692.351 461.38 L 692.351 461.38 Q 694.265 461.38 695.188 462.229 L 695.188 462.229 L 695.188 462.229 Q 696.11 463.079 696.11 464.954 L 696.11 464.954 L 696.11 472.259 L 696.11 472.259 Z  M 691.247 471.116 L 691.247 471.116 L 691.247 471.116 Q 692.761 471.116 693.625 470.286 L 693.625 470.286 L 693.625 470.286 Q 694.489 469.456 694.489 467.962 L 694.489 467.962 L 694.489 466.995 L 692.868 467.063 L 692.868 467.063 Q 690.935 467.132 690.08 467.664 L 690.08 467.664 L 690.08 467.664 Q 689.226 468.196 689.226 469.319 L 689.226 469.319 L 689.226 469.319 Q 689.226 470.198 689.758 470.657 L 689.758 470.657 L 689.758 470.657 Q 690.29 471.116 691.247 471.116 Z  M 703.688 472.259 L 701.794 472.259 L 697.731 461.556 L 699.47 461.556 L 701.774 467.903 L 701.774 467.903 Q 702.556 470.13 702.692 470.794 L 702.692 470.794 L 702.771 470.794 L 702.771 470.794 Q 702.878 470.276 703.449 468.65 L 703.449 468.65 L 703.449 468.65 Q 704.021 467.024 706.013 461.556 L 706.013 461.556 L 707.751 461.556 L 703.688 472.259 L 703.688 472.259 Z  M 713.991 472.454 L 713.991 472.454 L 713.991 472.454 Q 711.618 472.454 710.246 471.009 L 710.246 471.009 L 710.246 471.009 Q 708.874 469.563 708.874 466.995 L 708.874 466.995 L 708.874 466.995 Q 708.874 464.407 710.148 462.884 L 710.148 462.884 L 710.148 462.884 Q 711.423 461.36 713.571 461.36 L 713.571 461.36 L 713.571 461.36 Q 715.583 461.36 716.755 462.684 L 716.755 462.684 L 716.755 462.684 Q 717.927 464.007 717.927 466.175 L 717.927 466.175 L 717.927 467.2 L 710.554 467.2 L 710.554 467.2 Q 710.603 469.085 711.506 470.062 L 711.506 470.062 L 711.506 470.062 Q 712.409 471.038 714.05 471.038 L 714.05 471.038 L 714.05 471.038 Q 715.778 471.038 717.468 470.315 L 717.468 470.315 L 717.468 471.761 L 717.468 471.761 Q 716.608 472.132 715.842 472.293 L 715.842 472.293 L 715.842 472.293 Q 715.075 472.454 713.991 472.454 Z  M 713.552 462.718 L 713.552 462.718 L 713.552 462.718 Q 712.263 462.718 711.496 463.558 L 711.496 463.558 L 711.496 463.558 Q 710.729 464.397 710.593 465.882 L 710.593 465.882 L 716.188 465.882 L 716.188 465.882 Q 716.188 464.349 715.505 463.533 L 715.505 463.533 L 715.505 463.533 Q 714.821 462.718 713.552 462.718 Z " fill-rule="evenodd" fill="rgb(0,0,0)"/></g></g><g style="isolation:isolate"><path d=" M 368.484 88.104 L 362.076 88.104 L 362.076 109.272 L 367.044 109.272 L 367.044 109.272 Q 371.58 109.272 373.272 108.084 L 373.272 108.084 L 373.272 108.084 Q 374.964 106.896 375.036 103.44 L 375.036 103.44 L 375.036 103.44 Q 376.764 102.936 378.492 102.936 L 378.492 102.936 L 378.492 102.936 Q 378.348 105.384 378.348 110.784 L 378.348 110.784 L 378.348 110.784 Q 378.348 116.688 378.492 119.136 L 378.492 119.136 L 378.492 119.136 Q 376.548 119.136 375.18 118.776 L 375.18 118.776 L 375.18 118.776 Q 374.892 115.032 373.2 113.7 L 373.2 113.7 L 373.2 113.7 Q 371.508 112.368 367.044 112.368 L 367.044 112.368 L 362.076 112.368 L 362.076 123.312 L 362.076 123.312 Q 362.076 126.408 362.724 128.028 L 362.724 128.028 L 362.724 128.028 Q 363.372 129.648 364.704 130.26 L 364.704 130.26 L 364.704 130.26 Q 366.036 130.872 368.484 131.016 L 368.484 131.016 L 368.484 131.016 Q 368.844 132.024 368.844 134.112 L 368.844 134.112 L 368.844 134.112 Q 365.532 133.896 359.772 133.896 L 359.772 133.896 L 359.772 133.896 Q 352.788 133.896 349.98 134.112 L 349.98 134.112 L 349.98 134.112 Q 349.98 132.024 350.34 131.016 L 350.34 131.016 L 350.34 131.016 Q 353.22 130.872 354.264 129.612 L 354.264 129.612 L 354.264 129.612 Q 355.308 128.352 355.308 124.752 L 355.308 124.752 L 355.308 94.368 L 355.308 94.368 Q 355.308 90.768 354.264 89.508 L 354.264 89.508 L 354.264 89.508 Q 353.22 88.248 350.34 88.104 L 350.34 88.104 L 350.34 88.104 Q 349.98 87.096 349.98 85.008 L 349.98 85.008 L 349.98 85.008 Q 354.732 85.224 362.004 85.224 L 362.004 85.224 L 362.004 85.224 Q 374.892 85.224 382.02 85.008 L 382.02 85.008 L 382.02 85.008 Q 382.74 92.928 383.532 96.384 L 383.532 96.384 L 383.532 96.384 Q 382.452 97.248 380.292 97.248 L 380.292 97.248 L 380.292 97.248 Q 379.932 93.216 377.376 90.66 L 377.376 90.66 L 377.376 90.66 Q 374.82 88.104 368.484 88.104 L 368.484 88.104 L 368.484 88.104 Z  M 405.492 134.544 L 405.492 134.544 Q 400.596 134.544 396.924 132.42 L 396.924 132.42 L 396.924 132.42 Q 393.252 130.296 391.236 126.408 L 391.236 126.408 L 391.236 126.408 Q 389.22 122.52 389.22 117.408 L 389.22 117.408 L 389.22 117.408 Q 389.22 112.584 391.308 108.66 L 391.308 108.66 L 391.308 108.66 Q 393.396 104.736 397.104 102.504 L 397.104 102.504 L 397.104 102.504 Q 400.812 100.272 405.492 100.272 L 405.492 100.272 L 405.492 100.272 Q 413.052 100.272 417.408 104.952 L 417.408 104.952 L 417.408 104.952 Q 421.764 109.632 421.764 117.408 L 421.764 117.408 L 421.764 117.408 Q 421.764 122.304 419.712 126.192 L 419.712 126.192 L 419.712 126.192 Q 417.66 130.08 413.952 132.312 L 413.952 132.312 L 413.952 132.312 Q 410.244 134.544 405.492 134.544 L 405.492 134.544 L 405.492 134.544 Z  M 406.068 131.088 L 406.068 131.088 Q 410.244 131.088 412.404 127.632 L 412.404 127.632 L 412.404 127.632 Q 414.564 124.176 414.564 118.272 L 414.564 118.272 L 414.564 118.272 Q 414.564 113.952 413.232 110.64 L 413.232 110.64 L 413.232 110.64 Q 411.9 107.328 409.668 105.528 L 409.668 105.528 L 409.668 105.528 Q 407.436 103.728 404.772 103.728 L 404.772 103.728 L 404.772 103.728 Q 400.74 103.728 398.616 107.04 L 398.616 107.04 L 398.616 107.04 Q 396.492 110.352 396.492 115.896 L 396.492 115.896 L 396.492 115.896 Q 396.492 123.096 399.048 127.092 L 399.048 127.092 L 399.048 127.092 Q 401.604 131.088 406.068 131.088 L 406.068 131.088 L 406.068 131.088 Z  M 448.404 100.92 L 448.404 100.92 Q 451.14 100.92 453.372 102.648 L 453.372 102.648 L 453.372 102.648 Q 452.868 105.96 452.868 111.144 L 452.868 111.144 L 452.868 111.144 Q 450.924 111.792 448.764 111.792 L 448.764 111.792 L 448.764 111.792 Q 448.62 108.552 447.72 107.364 L 447.72 107.364 L 447.72 107.364 Q 446.82 106.176 445.236 106.176 L 445.236 106.176 L 445.236 106.176 Q 443.94 106.176 442.5 107.58 L 442.5 107.58 L 442.5 107.58 Q 441.06 108.984 440.088 111.36 L 440.088 111.36 L 440.088 111.36 Q 439.116 113.736 439.116 116.4 L 439.116 116.4 L 439.116 123.312 L 439.116 123.312 Q 439.116 126.408 439.764 128.028 L 439.764 128.028 L 439.764 128.028 Q 440.412 129.648 441.744 130.26 L 441.744 130.26 L 441.744 130.26 Q 443.076 130.872 445.524 131.016 L 445.524 131.016 L 445.524 131.016 Q 445.884 132.024 445.884 134.112 L 445.884 134.112 L 445.884 134.112 Q 442.572 133.896 436.812 133.896 L 436.812 133.896 L 436.812 133.896 Q 430.116 133.896 427.308 134.112 L 427.308 134.112 L 427.308 134.112 Q 427.308 132.024 427.668 131.016 L 427.668 131.016 L 427.668 131.016 Q 430.548 130.872 431.592 129.612 L 431.592 129.612 L 431.592 129.612 Q 432.636 128.352 432.636 124.752 L 432.636 124.752 L 432.636 110.496 L 432.636 110.496 Q 432.636 108.624 432.24 107.58 L 432.24 107.58 L 432.24 107.58 Q 431.844 106.536 430.692 105.996 L 430.692 105.996 L 430.692 105.996 Q 429.54 105.456 427.236 105.384 L 427.236 105.384 L 427.236 105.384 Q 427.236 103.728 427.884 102.72 L 427.884 102.72 L 427.884 102.72 Q 430.116 102.576 432.996 101.856 L 432.996 101.856 L 432.996 101.856 Q 435.876 101.136 437.532 100.272 L 437.532 100.272 L 437.532 100.272 Q 439.116 100.776 439.116 103.44 L 439.116 103.44 L 439.116 103.44 Q 439.116 105.888 438.684 108.012 L 438.684 108.012 L 438.684 108.012 Q 438.252 110.136 438.18 110.496 L 438.18 110.496 L 438.18 110.496 Q 438.324 110.064 438.756 108.768 L 438.756 108.768 L 438.756 108.768 Q 439.188 107.472 439.692 106.752 L 439.692 106.752 L 439.692 106.752 Q 443.364 100.92 448.404 100.92 L 448.404 100.92 L 448.404 100.92 Z  M 485.124 126.264 L 485.124 126.264 Q 487.284 128.856 488.688 129.72 L 488.688 129.72 L 488.688 129.72 Q 490.092 130.584 492.612 130.8 L 492.612 130.8 L 492.612 130.8 Q 492.612 132.888 492.252 133.896 L 492.252 133.896 L 492.252 133.896 Q 487.14 133.896 483.036 134.544 L 483.036 134.544 L 483.036 134.544 Q 480.804 131.16 476.844 126.3 L 476.844 126.3 L 476.844 126.3 Q 472.884 121.44 469.212 117.696 L 469.212 117.696 L 469.212 124.752 L 469.212 124.752 Q 469.212 128.352 470.148 129.684 L 470.148 129.684 L 470.148 129.684 Q 471.084 131.016 473.46 131.016 L 473.46 131.016 L 473.46 131.016 Q 473.82 132.24 473.82 134.112 L 473.82 134.112 L 473.82 134.112 Q 470.076 133.896 465.684 133.896 L 465.684 133.896 L 465.684 133.896 Q 461.004 133.896 457.404 134.112 L 457.404 134.112 L 457.404 134.112 Q 457.404 132.168 457.764 131.016 L 457.764 131.016 L 457.764 131.016 Q 460.644 131.016 461.688 129.684 L 461.688 129.684 L 461.688 129.684 Q 462.732 128.352 462.732 124.752 L 462.732 124.752 L 462.732 92.496 L 462.732 92.496 Q 462.732 90.624 462.372 89.544 L 462.372 89.544 L 462.372 89.544 Q 462.012 88.464 460.86 87.924 L 460.86 87.924 L 460.86 87.924 Q 459.708 87.384 457.332 87.384 L 457.332 87.384 L 457.332 87.384 Q 457.332 85.728 457.98 84.72 L 457.98 84.72 L 457.98 84.72 Q 459.78 84.72 463.092 83.928 L 463.092 83.928 L 463.092 83.928 Q 466.404 83.136 467.628 82.272 L 467.628 82.272 L 467.628 82.272 Q 469.212 82.776 469.212 85.152 L 469.212 85.152 L 469.212 115.464 L 474.54 110.64 L 474.54 110.64 Q 479.148 106.536 479.148 104.88 L 479.148 104.88 L 479.148 104.88 Q 479.148 103.728 477.06 103.728 L 477.06 103.728 L 477.06 103.728 Q 476.628 102.288 476.628 100.776 L 476.628 100.776 L 476.628 100.776 Q 479.724 100.92 484.116 100.92 L 484.116 100.92 L 484.116 100.92 Q 488.292 100.92 490.884 100.776 L 490.884 100.776 L 490.884 100.776 Q 490.884 102.576 490.38 103.8 L 490.38 103.8 L 490.38 103.8 Q 488.22 103.872 486.24 104.844 L 486.24 104.844 L 486.24 104.844 Q 484.26 105.816 481.596 108.192 L 481.596 108.192 L 474.756 114.384 L 474.756 114.384 Q 479.004 118.848 485.124 126.264 L 485.124 126.264 L 485.124 126.264 Z " fill-rule="evenodd" fill="rgb(0,0,0)"/></g><g style="isolation:isolate"><g style="isolation:isolate"><circle vector-effect="non-scaling-stroke" cx="329" cy="411" r="19" fill="rgb(215,211,211)"/><line x1="329" y1="445" x2="329" y2="433" vector-effect="non-scaling-stroke" stroke-width="2" stroke="rgb(154,154,158)" stroke-linejoin="miter" stroke-linecap="square" stroke-miterlimit="3"/></g><g style="isolation:isolate"><line x1="350" y1="412" x2="490" y2="369" vector-effect="non-scaling-stroke" stroke-width="2" stroke="rgb(154,154,158)" stroke-linejoin="miter" stroke-linecap="square" stroke-miterlimit="3"/><circle vector-effect="non-scaling-stroke" cx="512" cy="369" r="19" fill="rgb(215,211,211)"/><line x1="512" y1="445" x2="512" y2="390" vector-effect="non-scaling-stroke" stroke-width="2" stroke="rgb(154,154,158)" stroke-linejoin="miter" stroke-linecap="square" stroke-miterlimit="3"/></g><g style="isolation:isolate"><line x1="145" y1="445" x2="145" y2="390" vector-effect="non-scaling-stroke" stroke-width="2" stroke="rgb(154,154,158)" stroke-linejoin="miter" stroke-linecap="square" stroke-miterlimit="3"/><circle vector-effect="non-scaling-stroke" cx="145" cy="369" r="19" fill="rgb(215,211,211)"/><line x1="166" y1="371" x2="308" y2="412" vector-effect="non-scaling-stroke" stroke-width="2" stroke="rgb(154,154,158)" stroke-linejoin="miter" stroke-linecap="square" stroke-miterlimit="3"/></g><g style="isolation:isolate"><line x1="166" y1="369" x2="308" y2="357" vector-effect="non-scaling-stroke" stroke-width="2" stroke="rgb(154,154,158)" stroke-linejoin="miter" stroke-linecap="square" stroke-miterlimit="3"/><circle vector-effect="non-scaling-stroke" cx="329.00000000000006" cy="358" r="19" fill="rgb(215,211,211)"/><line x1="329" y1="390" x2="329" y2="379" vector-effect="non-scaling-stroke" stroke-width="2" stroke="rgb(154,154,158)" stroke-linejoin="miter" stroke-linecap="square" stroke-miterlimit="3"/></g><g style="isolation:isolate"><line x1="696" y1="445" x2="696" y2="357" vector-effect="non-scaling-stroke" stroke-width="2" stroke="rgb(154,154,158)" stroke-linejoin="miter" stroke-linecap="square" stroke-miterlimit="3"/><line x1="533" y1="367" x2="675" y2="338" vector-effect="non-scaling-stroke" stroke-width="2" stroke="rgb(154,154,158)" stroke-linejoin="miter" stroke-linecap="square" stroke-miterlimit="3"/><circle vector-effect="non-scaling-stroke" cx="696" cy="336" r="19" fill="rgb(215,211,211)"/></g><g style="isolation:isolate"><line x1="490" y1="367" x2="166" y2="285" vector-effect="non-scaling-stroke" stroke-width="2" stroke="rgb(154,154,158)" stroke-linejoin="miter" stroke-linecap="square" stroke-miterlimit="3"/><line x1="145" y1="348" x2="145" y2="303" vector-effect="non-scaling-stroke" stroke-width="2" stroke="rgb(154,154,158)" stroke-linejoin="miter" stroke-linecap="square" stroke-miterlimit="3"/><circle vector-effect="non-scaling-stroke" cx="145" cy="282" r="19" fill="rgb(215,211,211)"/></g><g style="isolation:isolate"><line x1="329" y1="337" x2="329" y2="303" vector-effect="non-scaling-stroke" stroke-width="2" stroke="rgb(154,154,158)" stroke-linejoin="miter" stroke-linecap="square" stroke-miterlimit="3"/><circle vector-effect="non-scaling-stroke" cx="329" cy="282" r="19" fill="rgb(215,211,211)"/></g><g style="isolation:isolate"><line x1="350" y1="357" x2="490" y2="256" vector-effect="non-scaling-stroke" stroke-width="2" stroke="rgb(154,154,158)" stroke-linejoin="miter" stroke-linecap="square" stroke-miterlimit="3"/><circle vector-effect="non-scaling-stroke" cx="512" cy="256" r="19" fill="rgb(215,211,211)"/></g><g style="isolation:isolate"><line x1="166" y1="231" x2="308" y2="284" vector-effect="non-scaling-stroke" stroke-width="2" stroke="rgb(154,154,158)" stroke-linejoin="miter" stroke-linecap="square" stroke-miterlimit="3"/><circle vector-effect="non-scaling-stroke" cx="145" cy="231" r="19" fill="rgb(215,211,211)"/><line x1="145" y1="261" x2="145" y2="252" vector-effect="non-scaling-stroke" stroke-width="2" stroke="rgb(154,154,158)" stroke-linejoin="miter" stroke-linecap="square" stroke-miterlimit="3"/></g><g style="isolation:isolate"><line x1="533" y1="256" x2="673" y2="231" vector-effect="non-scaling-stroke" stroke-width="2" stroke="rgb(154,154,158)" stroke-linejoin="miter" stroke-linecap="square" stroke-miterlimit="3"/><circle vector-effect="non-scaling-stroke" cx="695.0000000000001" cy="231.00000000000003" r="19" fill="rgb(215,211,211)"/></g></g><g style="isolation:isolate"><line x1="509" y1="277" x2="477" y2="288" vector-effect="non-scaling-stroke" stroke-width="2" stroke="rgb(154,154,158)" stroke-linejoin="miter" stroke-linecap="square" stroke-miterlimit="3"/><line x1="509" y1="277" x2="477" y2="288" vector-effect="non-scaling-stroke" stroke-width="3" stroke="rgb(255,0,0)" stroke-linejoin="miter" stroke-linecap="square" stroke-miterlimit="3"/><line x1="509" y1="348" x2="477" y2="330" vector-effect="non-scaling-stroke" stroke-width="2" stroke="rgb(154,154,158)" stroke-linejoin="miter" stroke-linecap="square" stroke-miterlimit="3"/><line x1="533" y1="256" x2="673" y2="231" vector-effect="non-scaling-stroke" stroke-width="3" stroke="rgb(255,0,0)" stroke-linejoin="miter" stroke-linecap="square" stroke-miterlimit="3"/><line x1="571" y1="306" x2="675" y2="284" vector-effect="non-scaling-stroke" stroke-width="2" stroke="rgb(154,154,158)" stroke-linejoin="miter" stroke-linecap="square" stroke-miterlimit="3"/><line x1="571" y1="306" x2="675" y2="284" vector-effect="non-scaling-stroke" stroke-width="3" stroke="rgb(74,134,232)" stroke-linejoin="miter" stroke-linecap="square" stroke-miterlimit="3"/><line x1="571" y1="306" x2="675" y2="284" vector-effect="non-scaling-stroke" stroke-width="3" stroke="rgb(255,0,0)" stroke-linejoin="miter" stroke-linecap="square" stroke-miterlimit="3"/><line x1="696" y1="315" x2="696" y2="303" vector-effect="non-scaling-stroke" stroke-width="2" stroke="rgb(154,154,158)" stroke-linejoin="miter" stroke-linecap="square" stroke-miterlimit="3"/><line x1="696" y1="315" x2="696" y2="303" vector-effect="non-scaling-stroke" stroke-width="2" stroke="rgb(154,154,158)" stroke-linejoin="miter" stroke-linecap="square" stroke-miterlimit="3"/><line x1="696" y1="261" x2="696" y2="252" vector-effect="non-scaling-stroke" stroke-width="2" stroke="rgb(154,154,158)" stroke-linejoin="miter" stroke-linecap="square" stroke-miterlimit="3"/><line x1="696" y1="261" x2="696" y2="252" vector-effect="non-scaling-stroke" stroke-width="4" stroke="rgb(255,0,0)" stroke-linejoin="miter" stroke-linecap="square" stroke-miterlimit="3"/><line x1="512" y1="348" x2="547" y2="329" vector-effect="non-scaling-stroke" stroke-width="2" stroke="rgb(154,154,158)" stroke-linejoin="miter" stroke-linecap="square" stroke-miterlimit="3"/><circle vector-effect="non-scaling-stroke" cx="474" cy="309" r="19" fill="rgb(215,211,211)"/><circle vector-effect="non-scaling-stroke" cx="696" cy="282" r="19" fill="rgb(215,211,211)"/><circle vector-effect="non-scaling-stroke" cx="550" cy="309" r="19" fill="rgb(215,211,211)"/></g><g style="isolation:isolate"><path d=" M 692.373 238.759 L 692.158 237.323 L 692.07 237.323 L 692.07 237.323 Q 690.947 238.954 688.711 238.954 L 688.711 238.954 L 688.711 238.954 Q 686.611 238.954 685.444 237.519 L 685.444 237.519 L 685.444 237.519 Q 684.277 236.083 684.277 233.437 L 684.277 233.437 L 684.277 233.437 Q 684.277 230.79 685.449 229.325 L 685.449 229.325 L 685.449 229.325 Q 686.621 227.86 688.711 227.86 L 688.711 227.86 L 688.711 227.86 Q 690.889 227.86 692.051 229.442 L 692.051 229.442 L 692.178 229.442 L 692.109 228.671 L 692.07 227.919 L 692.07 223.563 L 693.691 223.563 L 693.691 238.759 L 692.373 238.759 L 692.373 238.759 Z  M 688.916 237.597 L 688.916 237.597 L 688.916 237.597 Q 690.576 237.597 691.323 236.693 L 691.323 236.693 L 691.323 236.693 Q 692.07 235.79 692.07 233.778 L 692.07 233.778 L 692.07 233.437 L 692.07 233.437 Q 692.07 231.161 691.313 230.189 L 691.313 230.189 L 691.313 230.189 Q 690.557 229.218 688.896 229.218 L 688.896 229.218 L 688.896 229.218 Q 687.471 229.218 686.714 230.326 L 686.714 230.326 L 686.714 230.326 Q 685.957 231.435 685.957 233.456 L 685.957 233.456 L 685.957 233.456 Q 685.957 235.507 686.709 236.552 L 686.709 236.552 L 686.709 236.552 Q 687.461 237.597 688.916 237.597 Z  M 705.771 237.255 L 705.771 238.759 L 696.387 238.759 L 696.387 237.362 L 700.146 233.583 L 700.146 233.583 Q 701.865 231.845 702.412 231.103 L 702.412 231.103 L 702.412 231.103 Q 702.959 230.36 703.232 229.657 L 703.232 229.657 L 703.232 229.657 Q 703.506 228.954 703.506 228.144 L 703.506 228.144 L 703.506 228.144 Q 703.506 227.001 702.813 226.332 L 702.813 226.332 L 702.813 226.332 Q 702.119 225.663 700.889 225.663 L 700.889 225.663 L 700.889 225.663 Q 700 225.663 699.204 225.956 L 699.204 225.956 L 699.204 225.956 Q 698.408 226.249 697.432 227.021 L 697.432 227.021 L 696.572 225.917 L 696.572 225.917 Q 698.545 224.276 700.869 224.276 L 700.869 224.276 L 700.869 224.276 Q 702.881 224.276 704.023 225.307 L 704.023 225.307 L 704.023 225.307 Q 705.166 226.337 705.166 228.075 L 705.166 228.075 L 705.166 228.075 Q 705.166 229.433 704.404 230.761 L 704.404 230.761 L 704.404 230.761 Q 703.643 232.089 701.553 234.12 L 701.553 234.12 L 698.428 237.177 L 698.428 237.255 L 705.771 237.255 L 705.771 237.255 Z " fill-rule="evenodd" fill="rgb(139,139,139)"/><path d=" M 692.373 290.259 L 692.158 288.823 L 692.07 288.823 L 692.07 288.823 Q 690.947 290.454 688.711 290.454 L 688.711 290.454 L 688.711 290.454 Q 686.611 290.454 685.444 289.019 L 685.444 289.019 L 685.444 289.019 Q 684.277 287.583 684.277 284.937 L 684.277 284.937 L 684.277 284.937 Q 684.277 282.29 685.449 280.825 L 685.449 280.825 L 685.449 280.825 Q 686.621 279.36 688.711 279.36 L 688.711 279.36 L 688.711 279.36 Q 690.889 279.36 692.051 280.942 L 692.051 280.942 L 692.178 280.942 L 692.109 280.171 L 692.07 279.419 L 692.07 275.063 L 693.691 275.063 L 693.691 290.259 L 692.373 290.259 L 692.373 290.259 Z  M 688.916 289.097 L 688.916 289.097 L 688.916 289.097 Q 690.576 289.097 691.323 288.193 L 691.323 288.193 L 691.323 288.193 Q 692.07 287.29 692.07 285.278 L 692.07 285.278 L 692.07 284.937 L 692.07 284.937 Q 692.07 282.661 691.313 281.689 L 691.313 281.689 L 691.313 281.689 Q 690.557 280.718 688.896 280.718 L 688.896 280.718 L 688.896 280.718 Q 687.471 280.718 686.714 281.826 L 686.714 281.826 L 686.714 281.826 Q 685.957 282.935 685.957 284.956 L 685.957 284.956 L 685.957 284.956 Q 685.957 287.007 686.709 288.052 L 686.709 288.052 L 686.709 288.052 Q 687.461 289.097 688.916 289.097 Z  M 702.393 275.981 L 702.393 290.259 L 700.811 290.259 L 700.811 280.083 L 700.811 280.083 Q 700.811 278.813 700.889 277.681 L 700.889 277.681 L 700.889 277.681 Q 700.684 277.886 700.43 278.11 L 700.43 278.11 L 700.43 278.11 Q 700.176 278.335 698.105 280.015 L 698.105 280.015 L 697.246 278.901 L 701.025 275.981 L 702.393 275.981 L 702.393 275.981 Z " fill-rule="evenodd" fill="rgb(139,139,139)"/><path d=" M 692.373 343.759 L 692.158 342.323 L 692.07 342.323 L 692.07 342.323 Q 690.947 343.954 688.711 343.954 L 688.711 343.954 L 688.711 343.954 Q 686.611 343.954 685.444 342.519 L 685.444 342.519 L 685.444 342.519 Q 684.277 341.083 684.277 338.437 L 684.277 338.437 L 684.277 338.437 Q 684.277 335.79 685.449 334.325 L 685.449 334.325 L 685.449 334.325 Q 686.621 332.86 688.711 332.86 L 688.711 332.86 L 688.711 332.86 Q 690.889 332.86 692.051 334.442 L 692.051 334.442 L 692.178 334.442 L 692.109 333.671 L 692.07 332.919 L 692.07 328.563 L 693.691 328.563 L 693.691 343.759 L 692.373 343.759 L 692.373 343.759 Z  M 688.916 342.597 L 688.916 342.597 L 688.916 342.597 Q 690.576 342.597 691.323 341.693 L 691.323 341.693 L 691.323 341.693 Q 692.07 340.79 692.07 338.778 L 692.07 338.778 L 692.07 338.437 L 692.07 338.437 Q 692.07 336.161 691.313 335.189 L 691.313 335.189 L 691.313 335.189 Q 690.557 334.218 688.896 334.218 L 688.896 334.218 L 688.896 334.218 Q 687.471 334.218 686.714 335.326 L 686.714 335.326 L 686.714 335.326 Q 685.957 336.435 685.957 338.456 L 685.957 338.456 L 685.957 338.456 Q 685.957 340.507 686.709 341.552 L 686.709 341.552 L 686.709 341.552 Q 687.461 342.597 688.916 342.597 Z  M 705.85 336.601 L 705.85 336.601 L 705.85 336.601 Q 705.85 340.302 704.683 342.128 L 704.683 342.128 L 704.683 342.128 Q 703.516 343.954 701.113 343.954 L 701.113 343.954 L 701.113 343.954 Q 698.809 343.954 697.607 342.084 L 697.607 342.084 L 697.607 342.084 Q 696.406 340.214 696.406 336.601 L 696.406 336.601 L 696.406 336.601 Q 696.406 332.87 697.568 331.063 L 697.568 331.063 L 697.568 331.063 Q 698.73 329.257 701.113 329.257 L 701.113 329.257 L 701.113 329.257 Q 703.438 329.257 704.644 331.142 L 704.644 331.142 L 704.644 331.142 Q 705.85 333.026 705.85 336.601 Z  M 698.047 336.601 L 698.047 336.601 L 698.047 336.601 Q 698.047 339.716 698.779 341.137 L 698.779 341.137 L 698.779 341.137 Q 699.512 342.558 701.113 342.558 L 701.113 342.558 L 701.113 342.558 Q 702.734 342.558 703.462 341.117 L 703.462 341.117 L 703.462 341.117 Q 704.189 339.677 704.189 336.601 L 704.189 336.601 L 704.189 336.601 Q 704.189 333.524 703.462 332.094 L 703.462 332.094 L 703.462 332.094 Q 702.734 330.663 701.113 330.663 L 701.113 330.663 L 701.113 330.663 Q 699.512 330.663 698.779 332.074 L 698.779 332.074 L 698.779 332.074 Q 698.047 333.485 698.047 336.601 Z " fill-rule="evenodd" fill="rgb(139,139,139)"/><path d=" M 506.518 263.954 L 506.518 263.954 L 506.518 263.954 Q 504.193 263.954 502.919 262.523 L 502.919 262.523 L 502.919 262.523 Q 501.645 261.093 501.645 258.476 L 501.645 258.476 L 501.645 258.476 Q 501.645 255.79 502.938 254.325 L 502.938 254.325 L 502.938 254.325 Q 504.232 252.86 506.625 252.86 L 506.625 252.86 L 506.625 252.86 Q 507.396 252.86 508.168 253.026 L 508.168 253.026 L 508.168 253.026 Q 508.939 253.192 509.379 253.417 L 509.379 253.417 L 508.881 254.794 L 508.881 254.794 Q 508.344 254.579 507.709 254.438 L 507.709 254.438 L 507.709 254.438 Q 507.074 254.296 506.586 254.296 L 506.586 254.296 L 506.586 254.296 Q 503.324 254.296 503.324 258.456 L 503.324 258.456 L 503.324 258.456 Q 503.324 260.429 504.12 261.483 L 504.12 261.483 L 504.12 261.483 Q 504.916 262.538 506.479 262.538 L 506.479 262.538 L 506.479 262.538 Q 507.816 262.538 509.223 261.962 L 509.223 261.962 L 509.223 263.397 L 509.223 263.397 Q 508.148 263.954 506.518 263.954 Z  M 520.404 262.255 L 520.404 263.759 L 511.02 263.759 L 511.02 262.362 L 514.779 258.583 L 514.779 258.583 Q 516.498 256.845 517.045 256.103 L 517.045 256.103 L 517.045 256.103 Q 517.592 255.36 517.865 254.657 L 517.865 254.657 L 517.865 254.657 Q 518.139 253.954 518.139 253.144 L 518.139 253.144 L 518.139 253.144 Q 518.139 252.001 517.445 251.332 L 517.445 251.332 L 517.445 251.332 Q 516.752 250.663 515.521 250.663 L 515.521 250.663 L 515.521 250.663 Q 514.633 250.663 513.837 250.956 L 513.837 250.956 L 513.837 250.956 Q 513.041 251.249 512.064 252.021 L 512.064 252.021 L 511.205 250.917 L 511.205 250.917 Q 513.178 249.276 515.502 249.276 L 515.502 249.276 L 515.502 249.276 Q 517.514 249.276 518.656 250.307 L 518.656 250.307 L 518.656 250.307 Q 519.799 251.337 519.799 253.075 L 519.799 253.075 L 519.799 253.075 Q 519.799 254.433 519.037 255.761 L 519.037 255.761 L 519.037 255.761 Q 518.275 257.089 516.186 259.12 L 516.186 259.12 L 513.061 262.177 L 513.061 262.255 L 520.404 262.255 L 520.404 262.255 Z " fill-rule="evenodd" fill="rgb(139,139,139)"/><path d=" M 542.306 316.954 L 542.306 316.954 L 542.306 316.954 Q 539.981 316.954 538.707 315.523 L 538.707 315.523 L 538.707 315.523 Q 537.433 314.093 537.433 311.476 L 537.433 311.476 L 537.433 311.476 Q 537.433 308.79 538.727 307.325 L 538.727 307.325 L 538.727 307.325 Q 540.021 305.86 542.413 305.86 L 542.413 305.86 L 542.413 305.86 Q 543.185 305.86 543.956 306.026 L 543.956 306.026 L 543.956 306.026 Q 544.728 306.192 545.167 306.417 L 545.167 306.417 L 544.669 307.794 L 544.669 307.794 Q 544.132 307.579 543.497 307.438 L 543.497 307.438 L 543.497 307.438 Q 542.862 307.296 542.374 307.296 L 542.374 307.296 L 542.374 307.296 Q 539.112 307.296 539.112 311.456 L 539.112 311.456 L 539.112 311.456 Q 539.112 313.429 539.908 314.483 L 539.908 314.483 L 539.908 314.483 Q 540.704 315.538 542.267 315.538 L 542.267 315.538 L 542.267 315.538 Q 543.604 315.538 545.011 314.962 L 545.011 314.962 L 545.011 316.397 L 545.011 316.397 Q 543.937 316.954 542.306 316.954 Z  M 552.813 302.481 L 552.813 316.759 L 551.231 316.759 L 551.231 306.583 L 551.231 306.583 Q 551.231 305.313 551.31 304.181 L 551.31 304.181 L 551.31 304.181 Q 551.104 304.386 550.851 304.61 L 550.851 304.61 L 550.851 304.61 Q 550.597 304.835 548.526 306.515 L 548.526 306.515 L 547.667 305.401 L 551.446 302.481 L 552.813 302.481 L 552.813 302.481 Z  M 558.565 302.481 L 560.382 302.481 L 559.991 307.638 L 558.966 307.638 L 558.565 302.481 L 558.565 302.481 Z " fill-rule="evenodd" fill="rgb(139,139,139)"/><path d=" M 468.518 316.954 L 468.518 316.954 L 468.518 316.954 Q 466.193 316.954 464.919 315.523 L 464.919 315.523 L 464.919 315.523 Q 463.645 314.093 463.645 311.476 L 463.645 311.476 L 463.645 311.476 Q 463.645 308.79 464.938 307.325 L 464.938 307.325 L 464.938 307.325 Q 466.232 305.86 468.625 305.86 L 468.625 305.86 L 468.625 305.86 Q 469.396 305.86 470.168 306.026 L 470.168 306.026 L 470.168 306.026 Q 470.939 306.192 471.379 306.417 L 471.379 306.417 L 470.881 307.794 L 470.881 307.794 Q 470.344 307.579 469.709 307.438 L 469.709 307.438 L 469.709 307.438 Q 469.074 307.296 468.586 307.296 L 468.586 307.296 L 468.586 307.296 Q 465.324 307.296 465.324 311.456 L 465.324 311.456 L 465.324 311.456 Q 465.324 313.429 466.12 314.483 L 466.12 314.483 L 466.12 314.483 Q 466.916 315.538 468.479 315.538 L 468.479 315.538 L 468.479 315.538 Q 469.816 315.538 471.223 314.962 L 471.223 314.962 L 471.223 316.397 L 471.223 316.397 Q 470.148 316.954 468.518 316.954 Z  M 479.025 302.481 L 479.025 316.759 L 477.443 316.759 L 477.443 306.583 L 477.443 306.583 Q 477.443 305.313 477.521 304.181 L 477.521 304.181 L 477.521 304.181 Q 477.316 304.386 477.063 304.61 L 477.063 304.61 L 477.063 304.61 Q 476.809 304.835 474.738 306.515 L 474.738 306.515 L 473.879 305.401 L 477.658 302.481 L 479.025 302.481 L 479.025 302.481 Z " fill-rule="evenodd" fill="rgb(139,139,139)"/><path d=" M 506.518 376.954 L 506.518 376.954 L 506.518 376.954 Q 504.193 376.954 502.919 375.523 L 502.919 375.523 L 502.919 375.523 Q 501.645 374.093 501.645 371.476 L 501.645 371.476 L 501.645 371.476 Q 501.645 368.79 502.938 367.325 L 502.938 367.325 L 502.938 367.325 Q 504.232 365.86 506.625 365.86 L 506.625 365.86 L 506.625 365.86 Q 507.396 365.86 508.168 366.026 L 508.168 366.026 L 508.168 366.026 Q 508.939 366.192 509.379 366.417 L 509.379 366.417 L 508.881 367.794 L 508.881 367.794 Q 508.344 367.579 507.709 367.438 L 507.709 367.438 L 507.709 367.438 Q 507.074 367.296 506.586 367.296 L 506.586 367.296 L 506.586 367.296 Q 503.324 367.296 503.324 371.456 L 503.324 371.456 L 503.324 371.456 Q 503.324 373.429 504.12 374.483 L 504.12 374.483 L 504.12 374.483 Q 504.916 375.538 506.479 375.538 L 506.479 375.538 L 506.479 375.538 Q 507.816 375.538 509.223 374.962 L 509.223 374.962 L 509.223 376.397 L 509.223 376.397 Q 508.148 376.954 506.518 376.954 Z  M 520.482 369.601 L 520.482 369.601 L 520.482 369.601 Q 520.482 373.302 519.315 375.128 L 519.315 375.128 L 519.315 375.128 Q 518.148 376.954 515.746 376.954 L 515.746 376.954 L 515.746 376.954 Q 513.441 376.954 512.24 375.084 L 512.24 375.084 L 512.24 375.084 Q 511.039 373.214 511.039 369.601 L 511.039 369.601 L 511.039 369.601 Q 511.039 365.87 512.201 364.063 L 512.201 364.063 L 512.201 364.063 Q 513.363 362.257 515.746 362.257 L 515.746 362.257 L 515.746 362.257 Q 518.07 362.257 519.276 364.142 L 519.276 364.142 L 519.276 364.142 Q 520.482 366.026 520.482 369.601 Z  M 512.68 369.601 L 512.68 369.601 L 512.68 369.601 Q 512.68 372.716 513.412 374.137 L 513.412 374.137 L 513.412 374.137 Q 514.145 375.558 515.746 375.558 L 515.746 375.558 L 515.746 375.558 Q 517.367 375.558 518.095 374.117 L 518.095 374.117 L 518.095 374.117 Q 518.822 372.677 518.822 369.601 L 518.822 369.601 L 518.822 369.601 Q 518.822 366.524 518.095 365.094 L 518.095 365.094 L 518.095 365.094 Q 517.367 363.663 515.746 363.663 L 515.746 363.663 L 515.746 363.663 Q 514.145 363.663 513.412 365.074 L 513.412 365.074 L 513.412 365.074 Q 512.68 366.485 512.68 369.601 Z " fill-rule="evenodd" fill="rgb(139,139,139)"/><path d=" M 322.854 279.38 L 322.854 279.38 L 322.854 279.38 Q 324.963 279.38 326.13 280.82 L 326.13 280.82 L 326.13 280.82 Q 327.297 282.261 327.297 284.897 L 327.297 284.897 L 327.297 284.897 Q 327.297 287.534 326.12 288.994 L 326.12 288.994 L 326.12 288.994 Q 324.943 290.454 322.854 290.454 L 322.854 290.454 L 322.854 290.454 Q 321.809 290.454 320.944 290.068 L 320.944 290.068 L 320.944 290.068 Q 320.08 289.683 319.494 288.882 L 319.494 288.882 L 319.377 288.882 L 319.035 290.259 L 317.873 290.259 L 317.873 275.063 L 319.494 275.063 L 319.494 278.755 L 319.494 278.755 Q 319.494 279.995 319.416 280.981 L 319.416 280.981 L 319.494 280.981 L 319.494 280.981 Q 320.627 279.38 322.854 279.38 Z  M 322.619 280.737 L 322.619 280.737 L 322.619 280.737 Q 320.959 280.737 320.227 281.689 L 320.227 281.689 L 320.227 281.689 Q 319.494 282.642 319.494 284.897 L 319.494 284.897 L 319.494 284.897 Q 319.494 287.153 320.246 288.125 L 320.246 288.125 L 320.246 288.125 Q 320.998 289.097 322.658 289.097 L 322.658 289.097 L 322.658 289.097 Q 324.152 289.097 324.885 288.008 L 324.885 288.008 L 324.885 288.008 Q 325.617 286.919 325.617 284.878 L 325.617 284.878 L 325.617 284.878 Q 325.617 282.788 324.885 281.763 L 324.885 281.763 L 324.885 281.763 Q 324.152 280.737 322.619 280.737 Z  M 338.771 288.755 L 338.771 290.259 L 329.387 290.259 L 329.387 288.862 L 333.146 285.083 L 333.146 285.083 Q 334.865 283.345 335.412 282.603 L 335.412 282.603 L 335.412 282.603 Q 335.959 281.86 336.232 281.157 L 336.232 281.157 L 336.232 281.157 Q 336.506 280.454 336.506 279.644 L 336.506 279.644 L 336.506 279.644 Q 336.506 278.501 335.813 277.832 L 335.813 277.832 L 335.813 277.832 Q 335.119 277.163 333.889 277.163 L 333.889 277.163 L 333.889 277.163 Q 333 277.163 332.204 277.456 L 332.204 277.456 L 332.204 277.456 Q 331.408 277.749 330.432 278.521 L 330.432 278.521 L 329.572 277.417 L 329.572 277.417 Q 331.545 275.776 333.869 275.776 L 333.869 275.776 L 333.869 275.776 Q 335.881 275.776 337.023 276.807 L 337.023 276.807 L 337.023 276.807 Q 338.166 277.837 338.166 279.575 L 338.166 279.575 L 338.166 279.575 Q 338.166 280.933 337.404 282.261 L 337.404 282.261 L 337.404 282.261 Q 336.643 283.589 334.553 285.62 L 334.553 285.62 L 331.428 288.677 L 331.428 288.755 L 338.771 288.755 L 338.771 288.755 Z " fill-rule="evenodd" fill="rgb(139,139,139)"/><path d=" M 322.854 353.88 L 322.854 353.88 L 322.854 353.88 Q 324.963 353.88 326.13 355.32 L 326.13 355.32 L 326.13 355.32 Q 327.297 356.761 327.297 359.397 L 327.297 359.397 L 327.297 359.397 Q 327.297 362.034 326.12 363.494 L 326.12 363.494 L 326.12 363.494 Q 324.943 364.954 322.854 364.954 L 322.854 364.954 L 322.854 364.954 Q 321.809 364.954 320.944 364.568 L 320.944 364.568 L 320.944 364.568 Q 320.08 364.183 319.494 363.382 L 319.494 363.382 L 319.377 363.382 L 319.035 364.759 L 317.873 364.759 L 317.873 349.563 L 319.494 349.563 L 319.494 353.255 L 319.494 353.255 Q 319.494 354.495 319.416 355.481 L 319.416 355.481 L 319.494 355.481 L 319.494 355.481 Q 320.627 353.88 322.854 353.88 Z  M 322.619 355.237 L 322.619 355.237 L 322.619 355.237 Q 320.959 355.237 320.227 356.189 L 320.227 356.189 L 320.227 356.189 Q 319.494 357.142 319.494 359.397 L 319.494 359.397 L 319.494 359.397 Q 319.494 361.653 320.246 362.625 L 320.246 362.625 L 320.246 362.625 Q 320.998 363.597 322.658 363.597 L 322.658 363.597 L 322.658 363.597 Q 324.152 363.597 324.885 362.508 L 324.885 362.508 L 324.885 362.508 Q 325.617 361.419 325.617 359.378 L 325.617 359.378 L 325.617 359.378 Q 325.617 357.288 324.885 356.263 L 324.885 356.263 L 324.885 356.263 Q 324.152 355.237 322.619 355.237 Z  M 335.393 350.481 L 335.393 364.759 L 333.811 364.759 L 333.811 354.583 L 333.811 354.583 Q 333.811 353.313 333.889 352.181 L 333.889 352.181 L 333.889 352.181 Q 333.684 352.386 333.43 352.61 L 333.43 352.61 L 333.43 352.61 Q 333.176 352.835 331.105 354.515 L 331.105 354.515 L 330.246 353.401 L 334.025 350.481 L 335.393 350.481 L 335.393 350.481 Z " fill-rule="evenodd" fill="rgb(139,139,139)"/><path d=" M 322.854 407.88 L 322.854 407.88 L 322.854 407.88 Q 324.963 407.88 326.13 409.32 L 326.13 409.32 L 326.13 409.32 Q 327.297 410.761 327.297 413.397 L 327.297 413.397 L 327.297 413.397 Q 327.297 416.034 326.12 417.494 L 326.12 417.494 L 326.12 417.494 Q 324.943 418.954 322.854 418.954 L 322.854 418.954 L 322.854 418.954 Q 321.809 418.954 320.944 418.568 L 320.944 418.568 L 320.944 418.568 Q 320.08 418.183 319.494 417.382 L 319.494 417.382 L 319.377 417.382 L 319.035 418.759 L 317.873 418.759 L 317.873 403.563 L 319.494 403.563 L 319.494 407.255 L 319.494 407.255 Q 319.494 408.495 319.416 409.481 L 319.416 409.481 L 319.494 409.481 L 319.494 409.481 Q 320.627 407.88 322.854 407.88 Z  M 322.619 409.237 L 322.619 409.237 L 322.619 409.237 Q 320.959 409.237 320.227 410.189 L 320.227 410.189 L 320.227 410.189 Q 319.494 411.142 319.494 413.397 L 319.494 413.397 L 319.494 413.397 Q 319.494 415.653 320.246 416.625 L 320.246 416.625 L 320.246 416.625 Q 320.998 417.597 322.658 417.597 L 322.658 417.597 L 322.658 417.597 Q 324.152 417.597 324.885 416.508 L 324.885 416.508 L 324.885 416.508 Q 325.617 415.419 325.617 413.378 L 325.617 413.378 L 325.617 413.378 Q 325.617 411.288 324.885 410.263 L 324.885 410.263 L 324.885 410.263 Q 324.152 409.237 322.619 409.237 Z  M 338.85 411.601 L 338.85 411.601 L 338.85 411.601 Q 338.85 415.302 337.683 417.128 L 337.683 417.128 L 337.683 417.128 Q 336.516 418.954 334.113 418.954 L 334.113 418.954 L 334.113 418.954 Q 331.809 418.954 330.607 417.084 L 330.607 417.084 L 330.607 417.084 Q 329.406 415.214 329.406 411.601 L 329.406 411.601 L 329.406 411.601 Q 329.406 407.87 330.568 406.063 L 330.568 406.063 L 330.568 406.063 Q 331.73 404.257 334.113 404.257 L 334.113 404.257 L 334.113 404.257 Q 336.438 404.257 337.644 406.142 L 337.644 406.142 L 337.644 406.142 Q 338.85 408.026 338.85 411.601 Z  M 331.047 411.601 L 331.047 411.601 L 331.047 411.601 Q 331.047 414.716 331.779 416.137 L 331.779 416.137 L 331.779 416.137 Q 332.512 417.558 334.113 417.558 L 334.113 417.558 L 334.113 417.558 Q 335.734 417.558 336.462 416.117 L 336.462 416.117 L 336.462 416.117 Q 337.189 414.677 337.189 411.601 L 337.189 411.601 L 337.189 411.601 Q 337.189 408.524 336.462 407.094 L 336.462 407.094 L 336.462 407.094 Q 335.734 405.663 334.113 405.663 L 334.113 405.663 L 334.113 405.663 Q 332.512 405.663 331.779 407.074 L 331.779 407.074 L 331.779 407.074 Q 331.047 408.485 331.047 411.601 Z " fill-rule="evenodd" fill="rgb(139,139,139)"/><path d=" M 142.223 238.759 L 141.021 238.759 L 140.699 237.235 L 140.621 237.235 L 140.621 237.235 Q 139.82 238.241 139.024 238.598 L 139.024 238.598 L 139.024 238.598 Q 138.229 238.954 137.037 238.954 L 137.037 238.954 L 137.037 238.954 Q 135.445 238.954 134.542 238.134 L 134.542 238.134 L 134.542 238.134 Q 133.639 237.313 133.639 235.8 L 133.639 235.8 L 133.639 235.8 Q 133.639 232.558 138.824 232.401 L 138.824 232.401 L 140.641 232.343 L 140.641 231.679 L 140.641 231.679 Q 140.641 230.419 140.099 229.818 L 140.099 229.818 L 140.099 229.818 Q 139.557 229.218 138.365 229.218 L 138.365 229.218 L 138.365 229.218 Q 137.027 229.218 135.338 230.038 L 135.338 230.038 L 134.84 228.798 L 134.84 228.798 Q 135.631 228.368 136.573 228.124 L 136.573 228.124 L 136.573 228.124 Q 137.516 227.88 138.463 227.88 L 138.463 227.88 L 138.463 227.88 Q 140.377 227.88 141.3 228.729 L 141.3 228.729 L 141.3 228.729 Q 142.223 229.579 142.223 231.454 L 142.223 231.454 L 142.223 238.759 L 142.223 238.759 Z  M 137.359 237.616 L 137.359 237.616 L 137.359 237.616 Q 138.873 237.616 139.737 236.786 L 139.737 236.786 L 139.737 236.786 Q 140.602 235.956 140.602 234.462 L 140.602 234.462 L 140.602 233.495 L 138.98 233.563 L 138.98 233.563 Q 137.047 233.632 136.192 234.164 L 136.192 234.164 L 136.192 234.164 Q 135.338 234.696 135.338 235.819 L 135.338 235.819 L 135.338 235.819 Q 135.338 236.698 135.87 237.157 L 135.87 237.157 L 135.87 237.157 Q 136.402 237.616 137.359 237.616 Z  M 154.205 237.255 L 154.205 238.759 L 144.82 238.759 L 144.82 237.362 L 148.58 233.583 L 148.58 233.583 Q 150.299 231.845 150.846 231.103 L 150.846 231.103 L 150.846 231.103 Q 151.393 230.36 151.666 229.657 L 151.666 229.657 L 151.666 229.657 Q 151.939 228.954 151.939 228.144 L 151.939 228.144 L 151.939 228.144 Q 151.939 227.001 151.246 226.332 L 151.246 226.332 L 151.246 226.332 Q 150.553 225.663 149.322 225.663 L 149.322 225.663 L 149.322 225.663 Q 148.434 225.663 147.638 225.956 L 147.638 225.956 L 147.638 225.956 Q 146.842 226.249 145.865 227.021 L 145.865 227.021 L 145.006 225.917 L 145.006 225.917 Q 146.979 224.276 149.303 224.276 L 149.303 224.276 L 149.303 224.276 Q 151.314 224.276 152.457 225.307 L 152.457 225.307 L 152.457 225.307 Q 153.6 226.337 153.6 228.075 L 153.6 228.075 L 153.6 228.075 Q 153.6 229.433 152.838 230.761 L 152.838 230.761 L 152.838 230.761 Q 152.076 232.089 149.986 234.12 L 149.986 234.12 L 146.861 237.177 L 146.861 237.255 L 154.205 237.255 L 154.205 237.255 Z " fill-rule="evenodd" fill="rgb(139,139,139)"/><path d=" M 142.223 289.759 L 141.021 289.759 L 140.699 288.235 L 140.621 288.235 L 140.621 288.235 Q 139.82 289.241 139.024 289.598 L 139.024 289.598 L 139.024 289.598 Q 138.229 289.954 137.037 289.954 L 137.037 289.954 L 137.037 289.954 Q 135.445 289.954 134.542 289.134 L 134.542 289.134 L 134.542 289.134 Q 133.639 288.313 133.639 286.8 L 133.639 286.8 L 133.639 286.8 Q 133.639 283.558 138.824 283.401 L 138.824 283.401 L 140.641 283.343 L 140.641 282.679 L 140.641 282.679 Q 140.641 281.419 140.099 280.818 L 140.099 280.818 L 140.099 280.818 Q 139.557 280.218 138.365 280.218 L 138.365 280.218 L 138.365 280.218 Q 137.027 280.218 135.338 281.038 L 135.338 281.038 L 134.84 279.798 L 134.84 279.798 Q 135.631 279.368 136.573 279.124 L 136.573 279.124 L 136.573 279.124 Q 137.516 278.88 138.463 278.88 L 138.463 278.88 L 138.463 278.88 Q 140.377 278.88 141.3 279.729 L 141.3 279.729 L 141.3 279.729 Q 142.223 280.579 142.223 282.454 L 142.223 282.454 L 142.223 289.759 L 142.223 289.759 Z  M 137.359 288.616 L 137.359 288.616 L 137.359 288.616 Q 138.873 288.616 139.737 287.786 L 139.737 287.786 L 139.737 287.786 Q 140.602 286.956 140.602 285.462 L 140.602 285.462 L 140.602 284.495 L 138.98 284.563 L 138.98 284.563 Q 137.047 284.632 136.192 285.164 L 136.192 285.164 L 136.192 285.164 Q 135.338 285.696 135.338 286.819 L 135.338 286.819 L 135.338 286.819 Q 135.338 287.698 135.87 288.157 L 135.87 288.157 L 135.87 288.157 Q 136.402 288.616 137.359 288.616 Z  M 150.826 275.481 L 150.826 289.759 L 149.244 289.759 L 149.244 279.583 L 149.244 279.583 Q 149.244 278.313 149.322 277.181 L 149.322 277.181 L 149.322 277.181 Q 149.117 277.386 148.863 277.61 L 148.863 277.61 L 148.863 277.61 Q 148.609 277.835 146.539 279.515 L 146.539 279.515 L 145.68 278.401 L 149.459 275.481 L 150.826 275.481 L 150.826 275.481 Z " fill-rule="evenodd" fill="rgb(139,139,139)"/><path d=" M 142.223 376.759 L 141.021 376.759 L 140.699 375.235 L 140.621 375.235 L 140.621 375.235 Q 139.82 376.241 139.024 376.598 L 139.024 376.598 L 139.024 376.598 Q 138.229 376.954 137.037 376.954 L 137.037 376.954 L 137.037 376.954 Q 135.445 376.954 134.542 376.134 L 134.542 376.134 L 134.542 376.134 Q 133.639 375.313 133.639 373.8 L 133.639 373.8 L 133.639 373.8 Q 133.639 370.558 138.824 370.401 L 138.824 370.401 L 140.641 370.343 L 140.641 369.679 L 140.641 369.679 Q 140.641 368.419 140.099 367.818 L 140.099 367.818 L 140.099 367.818 Q 139.557 367.218 138.365 367.218 L 138.365 367.218 L 138.365 367.218 Q 137.027 367.218 135.338 368.038 L 135.338 368.038 L 134.84 366.798 L 134.84 366.798 Q 135.631 366.368 136.573 366.124 L 136.573 366.124 L 136.573 366.124 Q 137.516 365.88 138.463 365.88 L 138.463 365.88 L 138.463 365.88 Q 140.377 365.88 141.3 366.729 L 141.3 366.729 L 141.3 366.729 Q 142.223 367.579 142.223 369.454 L 142.223 369.454 L 142.223 376.759 L 142.223 376.759 Z  M 137.359 375.616 L 137.359 375.616 L 137.359 375.616 Q 138.873 375.616 139.737 374.786 L 139.737 374.786 L 139.737 374.786 Q 140.602 373.956 140.602 372.462 L 140.602 372.462 L 140.602 371.495 L 138.98 371.563 L 138.98 371.563 Q 137.047 371.632 136.192 372.164 L 136.192 372.164 L 136.192 372.164 Q 135.338 372.696 135.338 373.819 L 135.338 373.819 L 135.338 373.819 Q 135.338 374.698 135.87 375.157 L 135.87 375.157 L 135.87 375.157 Q 136.402 375.616 137.359 375.616 Z  M 154.283 369.601 L 154.283 369.601 L 154.283 369.601 Q 154.283 373.302 153.116 375.128 L 153.116 375.128 L 153.116 375.128 Q 151.949 376.954 149.547 376.954 L 149.547 376.954 L 149.547 376.954 Q 147.242 376.954 146.041 375.084 L 146.041 375.084 L 146.041 375.084 Q 144.84 373.214 144.84 369.601 L 144.84 369.601 L 144.84 369.601 Q 144.84 365.87 146.002 364.063 L 146.002 364.063 L 146.002 364.063 Q 147.164 362.257 149.547 362.257 L 149.547 362.257 L 149.547 362.257 Q 151.871 362.257 153.077 364.142 L 153.077 364.142 L 153.077 364.142 Q 154.283 366.026 154.283 369.601 Z  M 146.48 369.601 L 146.48 369.601 L 146.48 369.601 Q 146.48 372.716 147.213 374.137 L 147.213 374.137 L 147.213 374.137 Q 147.945 375.558 149.547 375.558 L 149.547 375.558 L 149.547 375.558 Q 151.168 375.558 151.896 374.117 L 151.896 374.117 L 151.896 374.117 Q 152.623 372.677 152.623 369.601 L 152.623 369.601 L 152.623 369.601 Q 152.623 366.524 151.896 365.094 L 151.896 365.094 L 151.896 365.094 Q 151.168 363.663 149.547 363.663 L 149.547 363.663 L 149.547 363.663 Q 147.945 363.663 147.213 365.074 L 147.213 365.074 L 147.213 365.074 Q 146.48 366.485 146.48 369.601 Z " fill-rule="evenodd" fill="rgb(139,139,139)"/></g></g></svg>