<?xml version="1.0" standalone="no"?><!-- Generator: Gravit.io --><svg xmlns="http://www.w3.org/2000/svg" xmlns:xlink="http://www.w3.org/1999/xlink" style="isolation:isolate" viewBox="0 0 841.89 595.276" width="841.89" height="595.276"><defs><clipPath id="_clipPath_rklv6CCHTHU6aJubCkGymCAggEUKzei9"><rect width="841.89" height="595.276"/></clipPath></defs><g clip-path="url(#_clipPath_rklv6CCHTHU6aJubCkGymCAggEUKzei9)"><g style="isolation:isolate"><g><rect x="100" y="447" width="90" height="35" transform="matrix(1,0,0,1,0,0)" fill="rgb(221,217,216)"/><path d=" M 135.398 472.259 L 133.68 472.259 L 131.902 467.718 L 126.18 467.718 L 124.422 472.259 L 122.742 472.259 L 128.387 457.923 L 129.783 457.923 L 135.398 472.259 L 135.398 472.259 Z  M 126.766 466.224 L 131.385 466.224 L 129.725 461.8 L 129.725 461.8 Q 129.402 460.96 129.061 459.739 L 129.061 459.739 L 129.061 459.739 Q 128.846 460.677 128.445 461.8 L 128.445 461.8 L 126.766 466.224 L 126.766 466.224 Z  M 138.738 457.063 L 138.738 472.259 L 137.117 472.259 L 137.117 457.063 L 138.738 457.063 L 138.738 457.063 Z  M 143.797 461.556 L 143.797 472.259 L 142.176 472.259 L 142.176 461.556 L 143.797 461.556 L 143.797 461.556 Z  M 142.039 458.655 L 142.039 458.655 L 142.039 458.655 Q 142.039 458.099 142.313 457.84 L 142.313 457.84 L 142.313 457.84 Q 142.586 457.581 142.996 457.581 L 142.996 457.581 L 142.996 457.581 Q 143.387 457.581 143.67 457.845 L 143.67 457.845 L 143.67 457.845 Q 143.953 458.108 143.953 458.655 L 143.953 458.655 L 143.953 458.655 Q 143.953 459.202 143.67 459.471 L 143.67 459.471 L 143.67 459.471 Q 143.387 459.739 142.996 459.739 L 142.996 459.739 L 142.996 459.739 Q 142.586 459.739 142.313 459.471 L 142.313 459.471 L 142.313 459.471 Q 142.039 459.202 142.039 458.655 Z  M 151.512 472.454 L 151.512 472.454 L 151.512 472.454 Q 149.188 472.454 147.913 471.023 L 147.913 471.023 L 147.913 471.023 Q 146.639 469.593 146.639 466.976 L 146.639 466.976 L 146.639 466.976 Q 146.639 464.29 147.933 462.825 L 147.933 462.825 L 147.933 462.825 Q 149.227 461.36 151.619 461.36 L 151.619 461.36 L 151.619 461.36 Q 152.391 461.36 153.162 461.526 L 153.162 461.526 L 153.162 461.526 Q 153.934 461.692 154.373 461.917 L 154.373 461.917 L 153.875 463.294 L 153.875 463.294 Q 153.338 463.079 152.703 462.938 L 152.703 462.938 L 152.703 462.938 Q 152.068 462.796 151.58 462.796 L 151.58 462.796 L 151.58 462.796 Q 148.318 462.796 148.318 466.956 L 148.318 466.956 L 148.318 466.956 Q 148.318 468.929 149.114 469.983 L 149.114 469.983 L 149.114 469.983 Q 149.91 471.038 151.473 471.038 L 151.473 471.038 L 151.473 471.038 Q 152.811 471.038 154.217 470.462 L 154.217 470.462 L 154.217 471.897 L 154.217 471.897 Q 153.143 472.454 151.512 472.454 Z  M 161.277 472.454 L 161.277 472.454 L 161.277 472.454 Q 158.904 472.454 157.532 471.009 L 157.532 471.009 L 157.532 471.009 Q 156.16 469.563 156.16 466.995 L 156.16 466.995 L 156.16 466.995 Q 156.16 464.407 157.435 462.884 L 157.435 462.884 L 157.435 462.884 Q 158.709 461.36 160.857 461.36 L 160.857 461.36 L 160.857 461.36 Q 162.869 461.36 164.041 462.684 L 164.041 462.684 L 164.041 462.684 Q 165.213 464.007 165.213 466.175 L 165.213 466.175 L 165.213 467.2 L 157.84 467.2 L 157.84 467.2 Q 157.889 469.085 158.792 470.062 L 158.792 470.062 L 158.792 470.062 Q 159.695 471.038 161.336 471.038 L 161.336 471.038 L 161.336 471.038 Q 163.064 471.038 164.754 470.315 L 164.754 470.315 L 164.754 471.761 L 164.754 471.761 Q 163.895 472.132 163.128 472.293 L 163.128 472.293 L 163.128 472.293 Q 162.361 472.454 161.277 472.454 Z  M 160.838 462.718 L 160.838 462.718 L 160.838 462.718 Q 159.549 462.718 158.782 463.558 L 158.782 463.558 L 158.782 463.558 Q 158.016 464.397 157.879 465.882 L 157.879 465.882 L 163.475 465.882 L 163.475 465.882 Q 163.475 464.349 162.791 463.533 L 162.791 463.533 L 162.791 463.533 Q 162.107 462.718 160.838 462.718 Z " fill-rule="evenodd" fill="rgb(0,0,0)"/></g><g><rect x="284" y="447" width="90" height="35" transform="matrix(1,0,0,1,0,0)" fill="rgb(221,217,216)"/><path d=" M 311.815 472.259 L 311.815 457.981 L 315.849 457.981 L 315.849 457.981 Q 318.69 457.981 319.96 458.831 L 319.96 458.831 L 319.96 458.831 Q 321.229 459.681 321.229 461.517 L 321.229 461.517 L 321.229 461.517 Q 321.229 462.786 320.521 463.611 L 320.521 463.611 L 320.521 463.611 Q 319.813 464.437 318.456 464.681 L 318.456 464.681 L 318.456 464.778 L 318.456 464.778 Q 321.708 465.335 321.708 468.196 L 321.708 468.196 L 321.708 468.196 Q 321.708 470.11 320.414 471.185 L 320.414 471.185 L 320.414 471.185 Q 319.12 472.259 316.796 472.259 L 316.796 472.259 L 311.815 472.259 L 311.815 472.259 Z  M 313.476 459.417 L 313.476 464.095 L 316.21 464.095 L 316.21 464.095 Q 317.968 464.095 318.739 463.543 L 318.739 463.543 L 318.739 463.543 Q 319.511 462.991 319.511 461.683 L 319.511 461.683 L 319.511 461.683 Q 319.511 460.481 318.651 459.949 L 318.651 459.949 L 318.651 459.949 Q 317.792 459.417 315.917 459.417 L 315.917 459.417 L 313.476 459.417 L 313.476 459.417 Z  M 316.317 465.501 L 313.476 465.501 L 313.476 470.843 L 316.454 470.843 L 316.454 470.843 Q 318.183 470.843 319.057 470.174 L 319.057 470.174 L 319.057 470.174 Q 319.931 469.505 319.931 468.079 L 319.931 468.079 L 319.931 468.079 Q 319.931 466.751 319.037 466.126 L 319.037 466.126 L 319.037 466.126 Q 318.144 465.501 316.317 465.501 L 316.317 465.501 L 316.317 465.501 Z  M 333.769 466.897 L 333.769 466.897 L 333.769 466.897 Q 333.769 469.515 332.45 470.984 L 332.45 470.984 L 332.45 470.984 Q 331.132 472.454 328.808 472.454 L 328.808 472.454 L 328.808 472.454 Q 327.372 472.454 326.259 471.78 L 326.259 471.78 L 326.259 471.78 Q 325.146 471.106 324.54 469.847 L 324.54 469.847 L 324.54 469.847 Q 323.935 468.587 323.935 466.897 L 323.935 466.897 L 323.935 466.897 Q 323.935 464.28 325.243 462.82 L 325.243 462.82 L 325.243 462.82 Q 326.552 461.36 328.876 461.36 L 328.876 461.36 L 328.876 461.36 Q 331.122 461.36 332.445 462.854 L 332.445 462.854 L 332.445 462.854 Q 333.769 464.349 333.769 466.897 Z  M 325.614 466.897 L 325.614 466.897 L 325.614 466.897 Q 325.614 468.948 326.435 470.022 L 326.435 470.022 L 326.435 470.022 Q 327.255 471.097 328.847 471.097 L 328.847 471.097 L 328.847 471.097 Q 330.438 471.097 331.264 470.027 L 331.264 470.027 L 331.264 470.027 Q 332.089 468.958 332.089 466.897 L 332.089 466.897 L 332.089 466.897 Q 332.089 464.856 331.264 463.797 L 331.264 463.797 L 331.264 463.797 Q 330.438 462.737 328.827 462.737 L 328.827 462.737 L 328.827 462.737 Q 327.235 462.737 326.425 463.782 L 326.425 463.782 L 326.425 463.782 Q 325.614 464.827 325.614 466.897 Z  M 341.591 461.38 L 341.591 461.38 L 341.591 461.38 Q 343.7 461.38 344.867 462.82 L 344.867 462.82 L 344.867 462.82 Q 346.034 464.261 346.034 466.897 L 346.034 466.897 L 346.034 466.897 Q 346.034 469.534 344.857 470.994 L 344.857 470.994 L 344.857 470.994 Q 343.681 472.454 341.591 472.454 L 341.591 472.454 L 341.591 472.454 Q 340.546 472.454 339.682 472.068 L 339.682 472.068 L 339.682 472.068 Q 338.817 471.683 338.231 470.882 L 338.231 470.882 L 338.114 470.882 L 337.772 472.259 L 336.61 472.259 L 336.61 457.063 L 338.231 457.063 L 338.231 460.755 L 338.231 460.755 Q 338.231 461.995 338.153 462.981 L 338.153 462.981 L 338.231 462.981 L 338.231 462.981 Q 339.364 461.38 341.591 461.38 Z  M 341.356 462.737 L 341.356 462.737 L 341.356 462.737 Q 339.696 462.737 338.964 463.689 L 338.964 463.689 L 338.964 463.689 Q 338.231 464.642 338.231 466.897 L 338.231 466.897 L 338.231 466.897 Q 338.231 469.153 338.983 470.125 L 338.983 470.125 L 338.983 470.125 Q 339.735 471.097 341.396 471.097 L 341.396 471.097 L 341.396 471.097 Q 342.89 471.097 343.622 470.008 L 343.622 470.008 L 343.622 470.008 Q 344.354 468.919 344.354 466.878 L 344.354 466.878 L 344.354 466.878 Q 344.354 464.788 343.622 463.763 L 343.622 463.763 L 343.622 463.763 Q 342.89 462.737 341.356 462.737 Z " fill-rule="evenodd" fill="rgb(0,0,0)"/></g><g><rect x="467" y="447" width="90" height="35" transform="matrix(1,0,0,1,0,0)" fill="rgb(221,217,216)"/><path d=" M 495.055 459.261 L 495.055 459.261 L 495.055 459.261 Q 492.701 459.261 491.339 460.828 L 491.339 460.828 L 491.339 460.828 Q 489.977 462.396 489.977 465.12 L 489.977 465.12 L 489.977 465.12 Q 489.977 467.923 491.29 469.451 L 491.29 469.451 L 491.29 469.451 Q 492.604 470.979 495.035 470.979 L 495.035 470.979 L 495.035 470.979 Q 496.529 470.979 498.443 470.442 L 498.443 470.442 L 498.443 471.897 L 498.443 471.897 Q 496.959 472.454 494.781 472.454 L 494.781 472.454 L 494.781 472.454 Q 491.627 472.454 489.913 470.54 L 489.913 470.54 L 489.913 470.54 Q 488.199 468.626 488.199 465.101 L 488.199 465.101 L 488.199 465.101 Q 488.199 462.894 489.024 461.233 L 489.024 461.233 L 489.024 461.233 Q 489.85 459.573 491.407 458.675 L 491.407 458.675 L 491.407 458.675 Q 492.965 457.776 495.074 457.776 L 495.074 457.776 L 495.074 457.776 Q 497.32 457.776 499 458.597 L 499 458.597 L 498.297 460.022 L 498.297 460.022 Q 496.676 459.261 495.055 459.261 Z  M 509.098 472.259 L 507.896 472.259 L 507.574 470.735 L 507.496 470.735 L 507.496 470.735 Q 506.695 471.741 505.899 472.098 L 505.899 472.098 L 505.899 472.098 Q 505.104 472.454 503.912 472.454 L 503.912 472.454 L 503.912 472.454 Q 502.32 472.454 501.417 471.634 L 501.417 471.634 L 501.417 471.634 Q 500.514 470.813 500.514 469.3 L 500.514 469.3 L 500.514 469.3 Q 500.514 466.058 505.699 465.901 L 505.699 465.901 L 507.516 465.843 L 507.516 465.179 L 507.516 465.179 Q 507.516 463.919 506.974 463.318 L 506.974 463.318 L 506.974 463.318 Q 506.432 462.718 505.24 462.718 L 505.24 462.718 L 505.24 462.718 Q 503.902 462.718 502.213 463.538 L 502.213 463.538 L 501.715 462.298 L 501.715 462.298 Q 502.506 461.868 503.448 461.624 L 503.448 461.624 L 503.448 461.624 Q 504.391 461.38 505.338 461.38 L 505.338 461.38 L 505.338 461.38 Q 507.252 461.38 508.175 462.229 L 508.175 462.229 L 508.175 462.229 Q 509.098 463.079 509.098 464.954 L 509.098 464.954 L 509.098 472.259 L 509.098 472.259 Z  M 504.234 471.116 L 504.234 471.116 L 504.234 471.116 Q 505.748 471.116 506.612 470.286 L 506.612 470.286 L 506.612 470.286 Q 507.477 469.456 507.477 467.962 L 507.477 467.962 L 507.477 466.995 L 505.855 467.063 L 505.855 467.063 Q 503.922 467.132 503.067 467.664 L 503.067 467.664 L 503.067 467.664 Q 502.213 468.196 502.213 469.319 L 502.213 469.319 L 502.213 469.319 Q 502.213 470.198 502.745 470.657 L 502.745 470.657 L 502.745 470.657 Q 503.277 471.116 504.234 471.116 Z  M 517.32 461.36 L 517.32 461.36 L 517.32 461.36 Q 518.033 461.36 518.6 461.478 L 518.6 461.478 L 518.375 462.981 L 518.375 462.981 Q 517.711 462.835 517.203 462.835 L 517.203 462.835 L 517.203 462.835 Q 515.904 462.835 514.981 463.89 L 514.981 463.89 L 514.981 463.89 Q 514.059 464.944 514.059 466.517 L 514.059 466.517 L 514.059 472.259 L 512.438 472.259 L 512.438 461.556 L 513.775 461.556 L 513.961 463.538 L 514.039 463.538 L 514.039 463.538 Q 514.635 462.493 515.475 461.927 L 515.475 461.927 L 515.475 461.927 Q 516.314 461.36 517.32 461.36 Z  M 529.84 466.897 L 529.84 466.897 L 529.84 466.897 Q 529.84 469.515 528.521 470.984 L 528.521 470.984 L 528.521 470.984 Q 527.203 472.454 524.879 472.454 L 524.879 472.454 L 524.879 472.454 Q 523.443 472.454 522.33 471.78 L 522.33 471.78 L 522.33 471.78 Q 521.217 471.106 520.611 469.847 L 520.611 469.847 L 520.611 469.847 Q 520.006 468.587 520.006 466.897 L 520.006 466.897 L 520.006 466.897 Q 520.006 464.28 521.314 462.82 L 521.314 462.82 L 521.314 462.82 Q 522.623 461.36 524.947 461.36 L 524.947 461.36 L 524.947 461.36 Q 527.193 461.36 528.517 462.854 L 528.517 462.854 L 528.517 462.854 Q 529.84 464.349 529.84 466.897 Z  M 521.686 466.897 L 521.686 466.897 L 521.686 466.897 Q 521.686 468.948 522.506 470.022 L 522.506 470.022 L 522.506 470.022 Q 523.326 471.097 524.918 471.097 L 524.918 471.097 L 524.918 471.097 Q 526.51 471.097 527.335 470.027 L 527.335 470.027 L 527.335 470.027 Q 528.16 468.958 528.16 466.897 L 528.16 466.897 L 528.16 466.897 Q 528.16 464.856 527.335 463.797 L 527.335 463.797 L 527.335 463.797 Q 526.51 462.737 524.898 462.737 L 524.898 462.737 L 524.898 462.737 Q 523.307 462.737 522.496 463.782 L 522.496 463.782 L 522.496 463.782 Q 521.686 464.827 521.686 466.897 Z  M 534.303 457.063 L 534.303 472.259 L 532.682 472.259 L 532.682 457.063 L 534.303 457.063 L 534.303 457.063 Z " fill-rule="evenodd" fill="rgb(0,0,0)"/></g><g><rect x="651" y="447" width="90" height="35" transform="matrix(1,0,0,1,0,0)" fill="rgb(221,217,216)"/><path d=" M 685.388 464.983 L 685.388 464.983 L 685.388 464.983 Q 685.388 468.519 683.469 470.389 L 683.469 470.389 L 683.469 470.389 Q 681.55 472.259 677.946 472.259 L 677.946 472.259 L 673.991 472.259 L 673.991 457.981 L 678.366 457.981 L 678.366 457.981 Q 681.696 457.981 683.542 459.827 L 683.542 459.827 L 683.542 459.827 Q 685.388 461.673 685.388 464.983 Z  M 683.63 465.042 L 683.63 465.042 L 683.63 465.042 Q 683.63 462.249 682.229 460.833 L 682.229 460.833 L 682.229 460.833 Q 680.827 459.417 678.063 459.417 L 678.063 459.417 L 675.651 459.417 L 675.651 470.823 L 677.673 470.823 L 677.673 470.823 Q 680.642 470.823 682.136 469.363 L 682.136 469.363 L 682.136 469.363 Q 683.63 467.903 683.63 465.042 Z  M 696.11 472.259 L 694.909 472.259 L 694.587 470.735 L 694.509 470.735 L 694.509 470.735 Q 693.708 471.741 692.912 472.098 L 692.912 472.098 L 692.912 472.098 Q 692.116 472.454 690.925 472.454 L 690.925 472.454 L 690.925 472.454 Q 689.333 472.454 688.43 471.634 L 688.43 471.634 L 688.43 471.634 Q 687.526 470.813 687.526 469.3 L 687.526 469.3 L 687.526 469.3 Q 687.526 466.058 692.712 465.901 L 692.712 465.901 L 694.528 465.843 L 694.528 465.179 L 694.528 465.179 Q 694.528 463.919 693.986 463.318 L 693.986 463.318 L 693.986 463.318 Q 693.444 462.718 692.253 462.718 L 692.253 462.718 L 692.253 462.718 Q 690.915 462.718 689.226 463.538 L 689.226 463.538 L 688.728 462.298 L 688.728 462.298 Q 689.519 461.868 690.461 461.624 L 690.461 461.624 L 690.461 461.624 Q 691.403 461.38 692.351 461.38 L 692.351 461.38 L 692.351 461.38 Q 694.265 461.38 695.188 462.229 L 695.188 462.229 L 695.188 462.229 Q 696.11 463.079 696.11 464.954 L 696.11 464.954 L 696.11 472.259 L 696.11 472.259 Z  M 691.247 471.116 L 691.247 471.116 L 691.247 471.116 Q 692.761 471.116 693.625 470.286 L 693.625 470.286 L 693.625 470.286 Q 694.489 469.456 694.489 467.962 L 694.489 467.962 L 694.489 466.995 L 692.868 467.063 L 692.868 467.063 Q 690.935 467.132 690.08 467.664 L 690.08 467.664 L 690.08 467.664 Q 689.226 468.196 689.226 469.319 L 689.226 469.319 L 689.226 469.319 Q 689.226 470.198 689.758 470.657 L 689.758 470.657 L 689.758 470.657 Q 690.29 471.116 691.247 471.116 Z  M 703.688 472.259 L 701.794 472.259 L 697.731 461.556 L 699.47 461.556 L 701.774 467.903 L 701.774 467.903 Q 702.556 470.13 702.692 470.794 L 702.692 470.794 L 702.771 470.794 L 702.771 470.794 Q 702.878 470.276 703.449 468.65 L 703.449 468.65 L 703.449 468.65 Q 704.021 467.024 706.013 461.556 L 706.013 461.556 L 707.751 461.556 L 703.688 472.259 L 703.688 472.259 Z  M 713.991 472.454 L 713.991 472.454 L 713.991 472.454 Q 711.618 472.454 710.246 471.009 L 710.246 471.009 L 710.246 471.009 Q 708.874 469.563 708.874 466.995 L 708.874 466.995 L 708.874 466.995 Q 708.874 464.407 710.148 462.884 L 710.148 462.884 L 710.148 462.884 Q 711.423 461.36 713.571 461.36 L 713.571 461.36 L 713.571 461.36 Q 715.583 461.36 716.755 462.684 L 716.755 462.684 L 716.755 462.684 Q 717.927 464.007 717.927 466.175 L 717.927 466.175 L 717.927 467.2 L 710.554 467.2 L 710.554 467.2 Q 710.603 469.085 711.506 470.062 L 711.506 470.062 L 711.506 470.062 Q 712.409 471.038 714.05 471.038 L 714.05 471.038 L 714.05 471.038 Q 715.778 471.038 717.468 470.315 L 717.468 470.315 L 717.468 471.761 L 717.468 471.761 Q 716.608 472.132 715.842 472.293 L 715.842 472.293 L 715.842 472.293 Q 715.075 472.454 713.991 472.454 Z  M 713.552 462.718 L 713.552 462.718 L 713.552 462.718 Q 712.263 462.718 711.496 463.558 L 711.496 463.558 L 711.496 463.558 Q 710.729 464.397 710.593 465.882 L 710.593 465.882 L 716.188 465.882 L 716.188 465.882 Q 716.188 464.349 715.505 463.533 L 715.505 463.533 L 715.505 463.533 Q 714.821 462.718 713.552 462.718 Z " fill-rule="evenodd" fill="rgb(0,0,0)"/></g></g><g style="isolation:isolate"><path d=" M 459.744 134.544 L 459.744 134.544 Q 452.688 134.544 447.324 131.376 L 447.324 131.376 L 447.324 131.376 Q 441.96 128.208 439.008 122.376 L 439.008 122.376 L 439.008 122.376 Q 436.056 116.544 436.056 108.912 L 436.056 108.912 L 436.056 108.912 Q 436.056 101.208 439.584 95.7 L 439.584 95.7 L 439.584 95.7 Q 443.112 90.192 448.836 87.384 L 448.836 87.384 L 448.836 87.384 Q 454.56 84.576 461.04 84.576 L 461.04 84.576 L 461.04 84.576 Q 466.08 84.576 470.544 85.476 L 470.544 85.476 L 470.544 85.476 Q 475.008 86.376 478.32 87.96 L 478.32 87.96 L 478.32 87.96 Q 477.528 92.064 477.528 99.12 L 477.528 99.12 L 477.528 99.12 Q 475.8 99.768 473.712 99.768 L 473.712 99.768 L 473.712 99.768 Q 473.496 92.784 470.364 90.156 L 470.364 90.156 L 470.364 90.156 Q 467.232 87.528 461.616 87.528 L 461.616 87.528 L 461.616 87.528 Q 455.712 87.528 451.68 90.264 L 451.68 90.264 L 451.68 90.264 Q 447.648 93 445.668 97.5 L 445.668 97.5 L 445.668 97.5 Q 443.688 102 443.688 107.328 L 443.688 107.328 L 443.688 107.328 Q 443.688 114.024 445.668 119.388 L 445.668 119.388 L 445.668 119.388 Q 447.648 124.752 451.572 127.884 L 451.572 127.884 L 451.572 127.884 Q 455.496 131.016 461.184 131.016 L 461.184 131.016 L 461.184 131.016 Q 463.488 131.016 465.144 130.764 L 465.144 130.764 L 465.144 130.764 Q 466.8 130.512 468.456 129.864 L 468.456 129.864 L 468.456 129.864 Q 469.824 129.288 470.364 128.172 L 470.364 128.172 L 470.364 128.172 Q 470.904 127.056 470.904 124.464 L 470.904 124.464 L 470.904 120.864 L 470.904 120.864 Q 470.904 117.408 470.508 116.004 L 470.508 116.004 L 470.508 116.004 Q 470.112 114.6 468.888 114.168 L 468.888 114.168 L 468.888 114.168 Q 467.664 113.736 464.712 113.664 L 464.712 113.664 L 464.712 113.664 Q 464.28 112.584 464.28 110.352 L 464.28 110.352 L 464.28 110.352 Q 467.016 110.568 473.064 110.568 L 473.064 110.568 L 473.064 110.568 Q 478.464 110.568 481.488 110.424 L 481.488 110.424 L 481.488 110.424 Q 481.488 112.512 481.056 113.664 L 481.056 113.664 L 481.056 113.664 Q 479.472 113.736 478.824 114.204 L 478.824 114.204 L 478.824 114.204 Q 478.176 114.672 477.924 116.112 L 477.924 116.112 L 477.924 116.112 Q 477.672 117.552 477.672 120.864 L 477.672 120.864 L 477.672 124.104 L 477.672 124.104 Q 477.672 125.76 477.852 126.948 L 477.852 126.948 L 477.852 126.948 Q 478.032 128.136 478.608 129.144 L 478.608 129.144 L 478.608 129.144 Q 475.296 131.592 470.436 133.068 L 470.436 133.068 L 470.436 133.068 Q 465.576 134.544 459.744 134.544 L 459.744 134.544 L 459.744 134.544 Z  M 509.928 100.92 L 509.928 100.92 Q 512.664 100.92 514.896 102.648 L 514.896 102.648 L 514.896 102.648 Q 514.392 105.96 514.392 111.144 L 514.392 111.144 L 514.392 111.144 Q 512.448 111.792 510.288 111.792 L 510.288 111.792 L 510.288 111.792 Q 510.144 108.552 509.244 107.364 L 509.244 107.364 L 509.244 107.364 Q 508.344 106.176 506.76 106.176 L 506.76 106.176 L 506.76 106.176 Q 505.464 106.176 504.024 107.58 L 504.024 107.58 L 504.024 107.58 Q 502.584 108.984 501.612 111.36 L 501.612 111.36 L 501.612 111.36 Q 500.64 113.736 500.64 116.4 L 500.64 116.4 L 500.64 123.312 L 500.64 123.312 Q 500.64 126.408 501.288 128.028 L 501.288 128.028 L 501.288 128.028 Q 501.936 129.648 503.268 130.26 L 503.268 130.26 L 503.268 130.26 Q 504.6 130.872 507.048 131.016 L 507.048 131.016 L 507.048 131.016 Q 507.408 132.024 507.408 134.112 L 507.408 134.112 L 507.408 134.112 Q 504.096 133.896 498.336 133.896 L 498.336 133.896 L 498.336 133.896 Q 491.64 133.896 488.832 134.112 L 488.832 134.112 L 488.832 134.112 Q 488.832 132.024 489.192 131.016 L 489.192 131.016 L 489.192 131.016 Q 492.072 130.872 493.116 129.612 L 493.116 129.612 L 493.116 129.612 Q 494.16 128.352 494.16 124.752 L 494.16 124.752 L 494.16 110.496 L 494.16 110.496 Q 494.16 108.624 493.764 107.58 L 493.764 107.58 L 493.764 107.58 Q 493.368 106.536 492.216 105.996 L 492.216 105.996 L 492.216 105.996 Q 491.064 105.456 488.76 105.384 L 488.76 105.384 L 488.76 105.384 Q 488.76 103.728 489.408 102.72 L 489.408 102.72 L 489.408 102.72 Q 491.64 102.576 494.52 101.856 L 494.52 101.856 L 494.52 101.856 Q 497.4 101.136 499.056 100.272 L 499.056 100.272 L 499.056 100.272 Q 500.64 100.776 500.64 103.44 L 500.64 103.44 L 500.64 103.44 Q 500.64 105.888 500.208 108.012 L 500.208 108.012 L 500.208 108.012 Q 499.776 110.136 499.704 110.496 L 499.704 110.496 L 499.704 110.496 Q 499.848 110.064 500.28 108.768 L 500.28 108.768 L 500.28 108.768 Q 500.712 107.472 501.216 106.752 L 501.216 106.752 L 501.216 106.752 Q 504.888 100.92 509.928 100.92 L 509.928 100.92 L 509.928 100.92 Z  M 544.848 123.384 L 544.848 123.384 Q 544.848 125.616 545.172 126.732 L 545.172 126.732 L 545.172 126.732 Q 545.496 127.848 546.432 128.352 L 546.432 128.352 L 546.432 128.352 Q 547.368 128.856 549.312 129 L 549.312 129 L 549.312 129 Q 549.312 131.088 548.88 132.312 L 548.88 132.312 L 548.88 132.312 Q 547.08 132.456 544.884 133.068 L 544.884 133.068 L 544.884 133.068 Q 542.688 133.68 541.032 134.544 L 541.032 134.544 L 541.032 134.544 Q 540.168 134.184 539.736 133.212 L 539.736 133.212 L 539.736 133.212 Q 539.304 132.24 539.304 130.296 L 539.304 130.296 L 539.304 130.296 Q 539.304 129.072 539.376 128.424 L 539.376 128.424 L 539.376 128.424 Q 538.512 130.512 536.856 131.952 L 536.856 131.952 L 536.856 131.952 Q 534.048 134.4 529.224 134.4 L 529.224 134.4 L 529.224 134.4 Q 524.76 134.4 522.348 132.384 L 522.348 132.384 L 522.348 132.384 Q 519.936 130.368 519.936 126.768 L 519.936 126.768 L 519.936 126.768 Q 519.936 122.52 523.032 119.964 L 523.032 119.964 L 523.032 119.964 Q 526.128 117.408 529.944 116.328 L 529.944 116.328 L 529.944 116.328 Q 533.76 115.248 538.368 114.6 L 538.368 114.6 L 538.368 114.6 Q 538.368 110.208 538.08 108.516 L 538.08 108.516 L 538.08 108.516 Q 537.792 106.824 536.856 105.672 L 536.856 105.672 L 536.856 105.672 Q 535.128 103.512 532.392 103.512 L 532.392 103.512 L 532.392 103.512 Q 529.152 103.512 527.676 106.176 L 527.676 106.176 L 527.676 106.176 Q 526.2 108.84 526.056 111.864 L 526.056 111.864 L 526.056 111.864 Q 525.12 111.864 523.968 111.72 L 523.968 111.72 L 523.968 111.72 Q 522.816 111.576 522.312 111.36 L 522.312 111.36 L 522.312 111.36 Q 522.384 110.64 522.384 108.912 L 522.384 108.912 L 522.384 108.912 Q 522.384 105.744 521.952 103.512 L 521.952 103.512 L 521.952 103.512 Q 524.832 102 528.144 101.136 L 528.144 101.136 L 528.144 101.136 Q 531.456 100.272 534.192 100.272 L 534.192 100.272 L 534.192 100.272 Q 539.088 100.272 541.824 103.008 L 541.824 103.008 L 541.824 103.008 Q 543.552 104.736 544.2 107.58 L 544.2 107.58 L 544.2 107.58 Q 544.848 110.424 544.848 115.464 L 544.848 115.464 L 544.848 123.384 L 544.848 123.384 Z  M 538.368 120.288 L 538.368 117.552 L 538.368 117.552 Q 534.912 117.984 532.608 118.596 L 532.608 118.596 L 532.608 118.596 Q 530.304 119.208 528.612 120.828 L 528.612 120.828 L 528.612 120.828 Q 526.92 122.448 526.92 125.328 L 526.92 125.328 L 526.92 125.328 Q 526.92 127.848 528.144 129.144 L 528.144 129.144 L 528.144 129.144 Q 529.368 130.44 531.24 130.44 L 531.24 130.44 L 531.24 130.44 Q 532.968 130.44 534.588 129.36 L 534.588 129.36 L 534.588 129.36 Q 536.208 128.28 537.288 125.976 L 537.288 125.976 L 537.288 125.976 Q 538.368 123.672 538.368 120.288 L 538.368 120.288 L 538.368 120.288 Z  M 572.64 134.544 L 572.64 134.544 Q 569.688 134.544 566.664 133.536 L 566.664 133.536 L 566.664 140.736 L 566.664 140.736 Q 566.664 143.832 567.312 145.452 L 567.312 145.452 L 567.312 145.452 Q 567.96 147.072 569.292 147.684 L 569.292 147.684 L 569.292 147.684 Q 570.624 148.296 573.072 148.44 L 573.072 148.44 L 573.072 148.44 Q 573.432 149.448 573.432 151.536 L 573.432 151.536 L 573.432 151.536 Q 570.12 151.32 564.36 151.32 L 564.36 151.32 L 564.36 151.32 Q 557.664 151.32 554.856 151.536 L 554.856 151.536 L 554.856 151.536 Q 554.856 149.448 555.216 148.44 L 555.216 148.44 L 555.216 148.44 Q 558.096 148.296 559.14 147.036 L 559.14 147.036 L 559.14 147.036 Q 560.184 145.776 560.184 142.176 L 560.184 142.176 L 560.184 110.496 L 560.184 110.496 Q 560.184 108.624 559.788 107.58 L 559.788 107.58 L 559.788 107.58 Q 559.392 106.536 558.24 105.996 L 558.24 105.996 L 558.24 105.996 Q 557.088 105.456 554.784 105.384 L 554.784 105.384 L 554.784 105.384 Q 554.784 103.728 555.432 102.72 L 555.432 102.72 L 555.432 102.72 Q 557.664 102.576 560.544 101.856 L 560.544 101.856 L 560.544 101.856 Q 563.424 101.136 565.08 100.272 L 565.08 100.272 L 565.08 100.272 Q 566.664 100.776 566.664 103.44 L 566.664 103.44 L 566.664 103.44 Q 566.664 104.592 566.412 105.636 L 566.412 105.636 L 566.412 105.636 Q 566.16 106.68 565.584 108.624 L 565.584 108.624 L 565.584 108.624 Q 566.232 107.256 567.24 105.6 L 567.24 105.6 L 567.24 105.6 Q 568.392 103.656 571.092 101.964 L 571.092 101.964 L 571.092 101.964 Q 573.792 100.272 577.104 100.272 L 577.104 100.272 L 577.104 100.272 Q 583.584 100.272 587.076 104.088 L 587.076 104.088 L 587.076 104.088 Q 590.568 107.904 590.568 115.608 L 590.568 115.608 L 590.568 115.608 Q 590.568 120.936 588.336 125.256 L 588.336 125.256 L 588.336 125.256 Q 586.104 129.576 582 132.06 L 582 132.06 L 582 132.06 Q 577.896 134.544 572.64 134.544 L 572.64 134.544 L 572.64 134.544 Z  M 575.376 104.808 L 575.376 104.808 Q 571.776 104.808 569.22 108.192 L 569.22 108.192 L 569.22 108.192 Q 566.664 111.576 566.664 118.56 L 566.664 118.56 L 566.664 128.712 L 566.664 128.712 Q 568.032 129.936 569.508 130.584 L 569.508 130.584 L 569.508 130.584 Q 570.984 131.232 573 131.232 L 573 131.232 L 573 131.232 Q 575.376 131.232 577.752 130.008 L 577.752 130.008 L 577.752 130.008 Q 580.128 128.784 581.784 125.652 L 581.784 125.652 L 581.784 125.652 Q 583.44 122.52 583.44 117.192 L 583.44 117.192 L 583.44 117.192 Q 583.44 111.576 581.172 108.192 L 581.172 108.192 L 581.172 108.192 Q 578.904 104.808 575.376 104.808 L 575.376 104.808 L 575.376 104.808 Z  M 633.408 131.016 L 633.408 131.016 Q 633.768 132.096 633.768 134.112 L 633.768 134.112 L 633.768 134.112 Q 630.672 133.896 625.92 133.896 L 625.92 133.896 L 625.92 133.896 Q 622.968 133.896 618.792 134.04 L 618.792 134.04 L 618.792 134.04 Q 618.288 134.112 617.352 134.112 L 617.352 134.112 L 617.352 134.112 Q 617.352 132.024 617.712 131.016 L 617.712 131.016 L 617.712 131.016 Q 620.376 131.016 621.528 129.648 L 621.528 129.648 L 621.528 129.648 Q 622.68 128.28 622.68 124.752 L 622.68 124.752 L 622.68 113.808 L 622.68 113.808 Q 622.68 109.056 620.916 107.04 L 620.916 107.04 L 620.916 107.04 Q 619.152 105.024 615.984 105.024 L 615.984 105.024 L 615.984 105.024 Q 613.968 105.024 612.096 106.248 L 612.096 106.248 L 612.096 106.248 Q 610.224 107.472 609.036 110.208 L 609.036 110.208 L 609.036 110.208 Q 607.848 112.944 607.848 117.048 L 607.848 117.048 L 607.848 124.752 L 607.848 124.752 Q 607.848 128.352 608.928 129.684 L 608.928 129.684 L 608.928 129.684 Q 610.008 131.016 612.816 131.016 L 612.816 131.016 L 612.816 131.016 Q 613.176 132.096 613.176 134.112 L 613.176 134.112 L 613.176 134.112 Q 607.128 133.896 604.608 133.896 L 604.608 133.896 L 604.608 133.896 Q 599.208 133.896 596.04 134.112 L 596.04 134.112 L 596.04 134.112 Q 596.04 132.024 596.4 131.016 L 596.4 131.016 L 596.4 131.016 Q 599.208 131.016 600.288 129.684 L 600.288 129.684 L 600.288 129.684 Q 601.368 128.352 601.368 124.752 L 601.368 124.752 L 601.368 92.496 L 601.368 92.496 Q 601.368 90.624 601.008 89.544 L 601.008 89.544 L 601.008 89.544 Q 600.648 88.464 599.496 87.924 L 599.496 87.924 L 599.496 87.924 Q 598.344 87.384 595.968 87.384 L 595.968 87.384 L 595.968 87.384 Q 595.968 85.728 596.616 84.72 L 596.616 84.72 L 596.616 84.72 Q 598.416 84.72 601.728 83.928 L 601.728 83.928 L 601.728 83.928 Q 605.04 83.136 606.264 82.272 L 606.264 82.272 L 606.264 82.272 Q 607.848 82.776 607.848 85.152 L 607.848 85.152 L 607.848 103.44 L 607.848 103.44 Q 607.848 105.744 607.344 107.688 L 607.344 107.688 L 607.344 107.688 Q 607.488 107.472 607.74 106.932 L 607.74 106.932 L 607.74 106.932 Q 607.992 106.392 608.424 105.816 L 608.424 105.816 L 608.424 105.816 Q 609.864 103.8 612.636 102.216 L 612.636 102.216 L 612.636 102.216 Q 615.408 100.632 618.864 100.632 L 618.864 100.632 L 618.864 100.632 Q 623.4 100.632 626.28 103.44 L 626.28 103.44 L 626.28 103.44 Q 629.16 106.248 629.16 112.368 L 629.16 112.368 L 629.16 124.752 L 629.16 124.752 Q 629.16 128.352 630.168 129.684 L 630.168 129.684 L 630.168 129.684 Q 631.176 131.016 633.408 131.016 L 633.408 131.016 L 633.408 131.016 Z  M 229.848 134.544 L 229.848 134.544 Q 222.792 134.544 217.428 131.376 L 217.428 131.376 L 217.428 131.376 Q 212.064 128.208 209.112 122.376 L 209.112 122.376 L 209.112 122.376 Q 206.16 116.544 206.16 108.912 L 206.16 108.912 L 206.16 108.912 Q 206.16 101.208 209.688 95.7 L 209.688 95.7 L 209.688 95.7 Q 213.216 90.192 218.94 87.384 L 218.94 87.384 L 218.94 87.384 Q 224.664 84.576 231.144 84.576 L 231.144 84.576 L 231.144 84.576 Q 236.184 84.576 240.648 85.476 L 240.648 85.476 L 240.648 85.476 Q 245.112 86.376 248.424 87.96 L 248.424 87.96 L 248.424 87.96 Q 247.632 92.064 247.632 99.12 L 247.632 99.12 L 247.632 99.12 Q 245.904 99.768 243.816 99.768 L 243.816 99.768 L 243.816 99.768 Q 243.6 92.784 240.468 90.156 L 240.468 90.156 L 240.468 90.156 Q 237.336 87.528 231.72 87.528 L 231.72 87.528 L 231.72 87.528 Q 225.816 87.528 221.784 90.264 L 221.784 90.264 L 221.784 90.264 Q 217.752 93 215.772 97.5 L 215.772 97.5 L 215.772 97.5 Q 213.792 102 213.792 107.328 L 213.792 107.328 L 213.792 107.328 Q 213.792 114.024 215.772 119.388 L 215.772 119.388 L 215.772 119.388 Q 217.752 124.752 221.676 127.884 L 221.676 127.884 L 221.676 127.884 Q 225.6 131.016 231.288 131.016 L 231.288 131.016 L 231.288 131.016 Q 233.592 131.016 235.248 130.764 L 235.248 130.764 L 235.248 130.764 Q 236.904 130.512 238.56 129.864 L 238.56 129.864 L 238.56 129.864 Q 239.928 129.288 240.468 128.172 L 240.468 128.172 L 240.468 128.172 Q 241.008 127.056 241.008 124.464 L 241.008 124.464 L 241.008 120.864 L 241.008 120.864 Q 241.008 117.408 240.612 116.004 L 240.612 116.004 L 240.612 116.004 Q 240.216 114.6 238.992 114.168 L 238.992 114.168 L 238.992 114.168 Q 237.768 113.736 234.816 113.664 L 234.816 113.664 L 234.816 113.664 Q 234.384 112.584 234.384 110.352 L 234.384 110.352 L 234.384 110.352 Q 237.12 110.568 243.168 110.568 L 243.168 110.568 L 243.168 110.568 Q 248.568 110.568 251.592 110.424 L 251.592 110.424 L 251.592 110.424 Q 251.592 112.512 251.16 113.664 L 251.16 113.664 L 251.16 113.664 Q 249.576 113.736 248.928 114.204 L 248.928 114.204 L 248.928 114.204 Q 248.28 114.672 248.028 116.112 L 248.028 116.112 L 248.028 116.112 Q 247.776 117.552 247.776 120.864 L 247.776 120.864 L 247.776 124.104 L 247.776 124.104 Q 247.776 125.76 247.956 126.948 L 247.956 126.948 L 247.956 126.948 Q 248.136 128.136 248.712 129.144 L 248.712 129.144 L 248.712 129.144 Q 245.4 131.592 240.54 133.068 L 240.54 133.068 L 240.54 133.068 Q 235.68 134.544 229.848 134.544 L 229.848 134.544 L 229.848 134.544 Z  M 275.424 134.544 L 275.424 134.544 Q 270.528 134.544 266.856 132.42 L 266.856 132.42 L 266.856 132.42 Q 263.184 130.296 261.168 126.408 L 261.168 126.408 L 261.168 126.408 Q 259.152 122.52 259.152 117.408 L 259.152 117.408 L 259.152 117.408 Q 259.152 112.584 261.24 108.66 L 261.24 108.66 L 261.24 108.66 Q 263.328 104.736 267.036 102.504 L 267.036 102.504 L 267.036 102.504 Q 270.744 100.272 275.424 100.272 L 275.424 100.272 L 275.424 100.272 Q 282.984 100.272 287.34 104.952 L 287.34 104.952 L 287.34 104.952 Q 291.696 109.632 291.696 117.408 L 291.696 117.408 L 291.696 117.408 Q 291.696 122.304 289.644 126.192 L 289.644 126.192 L 289.644 126.192 Q 287.592 130.08 283.884 132.312 L 283.884 132.312 L 283.884 132.312 Q 280.176 134.544 275.424 134.544 L 275.424 134.544 L 275.424 134.544 Z  M 276 131.088 L 276 131.088 Q 280.176 131.088 282.336 127.632 L 282.336 127.632 L 282.336 127.632 Q 284.496 124.176 284.496 118.272 L 284.496 118.272 L 284.496 118.272 Q 284.496 113.952 283.164 110.64 L 283.164 110.64 L 283.164 110.64 Q 281.832 107.328 279.6 105.528 L 279.6 105.528 L 279.6 105.528 Q 277.368 103.728 274.704 103.728 L 274.704 103.728 L 274.704 103.728 Q 270.672 103.728 268.548 107.04 L 268.548 107.04 L 268.548 107.04 Q 266.424 110.352 266.424 115.896 L 266.424 115.896 L 266.424 115.896 Q 266.424 123.096 268.98 127.092 L 268.98 127.092 L 268.98 127.092 Q 271.536 131.088 276 131.088 L 276 131.088 L 276 131.088 Z  M 320.28 110.28 L 320.28 110.28 Q 318.912 111.144 316.68 111.144 L 316.68 111.144 L 316.68 111.144 Q 316.464 107.976 314.232 105.6 L 314.232 105.6 L 314.232 105.6 Q 312 103.224 308.616 103.224 L 308.616 103.224 L 308.616 103.224 Q 306.384 103.224 305.052 104.304 L 305.052 104.304 L 305.052 104.304 Q 303.72 105.384 303.72 107.184 L 303.72 107.184 L 303.72 107.184 Q 303.72 108.552 304.296 109.452 L 304.296 109.452 L 304.296 109.452 Q 304.872 110.352 306.672 111.36 L 306.672 111.36 L 306.672 111.36 Q 308.472 112.368 312.288 113.88 L 312.288 113.88 L 312.288 113.88 Q 316.248 115.392 318.444 116.832 L 318.444 116.832 L 318.444 116.832 Q 320.64 118.272 321.576 120.036 L 321.576 120.036 L 321.576 120.036 Q 322.512 121.8 322.512 124.392 L 322.512 124.392 L 322.512 124.392 Q 322.512 128.928 318.768 131.736 L 318.768 131.736 L 318.768 131.736 Q 315.024 134.544 309.336 134.544 L 309.336 134.544 L 309.336 134.544 Q 305.232 134.544 302.676 133.896 L 302.676 133.896 L 302.676 133.896 Q 300.12 133.248 297.456 131.88 L 297.456 131.88 L 297.456 131.88 Q 297.672 130.008 297.672 127.056 L 297.672 127.056 L 297.672 127.056 Q 297.672 125.112 297.528 122.952 L 297.528 122.952 L 297.528 122.952 Q 298.608 122.16 301.272 122.16 L 301.272 122.16 L 301.272 122.16 Q 301.776 126.624 304.044 128.892 L 304.044 128.892 L 304.044 128.892 Q 306.312 131.16 310.056 131.16 L 310.056 131.16 L 310.056 131.16 Q 312.936 131.16 314.592 129.864 L 314.592 129.864 L 314.592 129.864 Q 316.248 128.568 316.248 126.552 L 316.248 126.552 L 316.248 126.552 Q 316.248 125.256 315.636 124.32 L 315.636 124.32 L 315.636 124.32 Q 315.024 123.384 313.368 122.448 L 313.368 122.448 L 313.368 122.448 Q 311.712 121.512 308.472 120.216 L 308.472 120.216 L 308.472 120.216 Q 304.296 118.56 302.064 117.192 L 302.064 117.192 L 302.064 117.192 Q 299.832 115.824 298.824 113.988 L 298.824 113.988 L 298.824 113.988 Q 297.816 112.152 297.816 109.272 L 297.816 109.272 L 297.816 109.272 Q 297.816 106.392 299.688 104.376 L 299.688 104.376 L 299.688 104.376 Q 301.56 102.36 304.368 101.316 L 304.368 101.316 L 304.368 101.316 Q 307.176 100.272 309.768 100.272 L 309.768 100.272 L 309.768 100.272 Q 312.936 100.272 315.384 100.884 L 315.384 100.884 L 315.384 100.884 Q 317.832 101.496 320.136 102.792 L 320.136 102.792 L 320.136 102.792 Q 319.992 104.952 319.992 106.176 L 319.992 106.176 L 319.992 106.176 Q 319.992 108.48 320.28 110.28 L 320.28 110.28 L 320.28 110.28 Z  M 351.096 110.28 L 351.096 110.28 Q 349.728 111.144 347.496 111.144 L 347.496 111.144 L 347.496 111.144 Q 347.28 107.976 345.048 105.6 L 345.048 105.6 L 345.048 105.6 Q 342.816 103.224 339.432 103.224 L 339.432 103.224 L 339.432 103.224 Q 337.2 103.224 335.868 104.304 L 335.868 104.304 L 335.868 104.304 Q 334.536 105.384 334.536 107.184 L 334.536 107.184 L 334.536 107.184 Q 334.536 108.552 335.112 109.452 L 335.112 109.452 L 335.112 109.452 Q 335.688 110.352 337.488 111.36 L 337.488 111.36 L 337.488 111.36 Q 339.288 112.368 343.104 113.88 L 343.104 113.88 L 343.104 113.88 Q 347.064 115.392 349.26 116.832 L 349.26 116.832 L 349.26 116.832 Q 351.456 118.272 352.392 120.036 L 352.392 120.036 L 352.392 120.036 Q 353.328 121.8 353.328 124.392 L 353.328 124.392 L 353.328 124.392 Q 353.328 128.928 349.584 131.736 L 349.584 131.736 L 349.584 131.736 Q 345.84 134.544 340.152 134.544 L 340.152 134.544 L 340.152 134.544 Q 336.048 134.544 333.492 133.896 L 333.492 133.896 L 333.492 133.896 Q 330.936 133.248 328.272 131.88 L 328.272 131.88 L 328.272 131.88 Q 328.488 130.008 328.488 127.056 L 328.488 127.056 L 328.488 127.056 Q 328.488 125.112 328.344 122.952 L 328.344 122.952 L 328.344 122.952 Q 329.424 122.16 332.088 122.16 L 332.088 122.16 L 332.088 122.16 Q 332.592 126.624 334.86 128.892 L 334.86 128.892 L 334.86 128.892 Q 337.128 131.16 340.872 131.16 L 340.872 131.16 L 340.872 131.16 Q 343.752 131.16 345.408 129.864 L 345.408 129.864 L 345.408 129.864 Q 347.064 128.568 347.064 126.552 L 347.064 126.552 L 347.064 126.552 Q 347.064 125.256 346.452 124.32 L 346.452 124.32 L 346.452 124.32 Q 345.84 123.384 344.184 122.448 L 344.184 122.448 L 344.184 122.448 Q 342.528 121.512 339.288 120.216 L 339.288 120.216 L 339.288 120.216 Q 335.112 118.56 332.88 117.192 L 332.88 117.192 L 332.88 117.192 Q 330.648 115.824 329.64 113.988 L 329.64 113.988 L 329.64 113.988 Q 328.632 112.152 328.632 109.272 L 328.632 109.272 L 328.632 109.272 Q 328.632 106.392 330.504 104.376 L 330.504 104.376 L 330.504 104.376 Q 332.376 102.36 335.184 101.316 L 335.184 101.316 L 335.184 101.316 Q 337.992 100.272 340.584 100.272 L 340.584 100.272 L 340.584 100.272 Q 343.752 100.272 346.2 100.884 L 346.2 100.884 L 346.2 100.884 Q 348.648 101.496 350.952 102.792 L 350.952 102.792 L 350.952 102.792 Q 350.808 104.952 350.808 106.176 L 350.808 106.176 L 350.808 106.176 Q 350.808 108.48 351.096 110.28 L 351.096 110.28 L 351.096 110.28 Z  M 366.864 92.136 L 366.864 92.136 Q 365.064 92.136 363.84 90.912 L 363.84 90.912 L 363.84 90.912 Q 362.616 89.688 362.616 87.96 L 362.616 87.96 L 362.616 87.96 Q 362.616 86.088 363.876 84.828 L 363.876 84.828 L 363.876 84.828 Q 365.136 83.568 366.864 83.568 L 366.864 83.568 L 366.864 83.568 Q 368.808 83.568 369.996 84.792 L 369.996 84.792 L 369.996 84.792 Q 371.184 86.016 371.184 87.96 L 371.184 87.96 L 371.184 87.96 Q 371.184 89.616 369.924 90.876 L 369.924 90.876 L 369.924 90.876 Q 368.664 92.136 366.864 92.136 L 366.864 92.136 L 366.864 92.136 Z  M 358.872 134.112 L 358.872 134.112 Q 358.872 132.168 359.232 131.016 L 359.232 131.016 L 359.232 131.016 Q 362.112 131.016 363.156 129.684 L 363.156 129.684 L 363.156 129.684 Q 364.2 128.352 364.2 124.752 L 364.2 124.752 L 364.2 110.496 L 364.2 110.496 Q 364.2 108.624 363.84 107.544 L 363.84 107.544 L 363.84 107.544 Q 363.48 106.464 362.328 105.924 L 362.328 105.924 L 362.328 105.924 Q 361.176 105.384 358.8 105.384 L 358.8 105.384 L 358.8 105.384 Q 358.8 103.728 359.448 102.72 L 359.448 102.72 L 359.448 102.72 Q 361.248 102.72 364.56 101.928 L 364.56 101.928 L 364.56 101.928 Q 367.872 101.136 369.096 100.272 L 369.096 100.272 L 369.096 100.272 Q 370.68 100.776 370.68 103.152 L 370.68 103.152 L 370.68 124.752 L 370.68 124.752 Q 370.68 128.352 371.616 129.684 L 371.616 129.684 L 371.616 129.684 Q 372.552 131.016 374.928 131.016 L 374.928 131.016 L 374.928 131.016 Q 375.288 132.24 375.288 134.112 L 375.288 134.112 L 375.288 134.112 Q 371.544 133.896 367.152 133.896 L 367.152 133.896 L 367.152 133.896 Q 362.472 133.896 358.872 134.112 L 358.872 134.112 L 358.872 134.112 Z  M 398.328 134.544 L 398.328 134.544 Q 395.376 134.544 392.352 133.536 L 392.352 133.536 L 392.352 140.736 L 392.352 140.736 Q 392.352 143.832 393 145.452 L 393 145.452 L 393 145.452 Q 393.648 147.072 394.98 147.684 L 394.98 147.684 L 394.98 147.684 Q 396.312 148.296 398.76 148.44 L 398.76 148.44 L 398.76 148.44 Q 399.12 149.448 399.12 151.536 L 399.12 151.536 L 399.12 151.536 Q 395.808 151.32 390.048 151.32 L 390.048 151.32 L 390.048 151.32 Q 383.352 151.32 380.544 151.536 L 380.544 151.536 L 380.544 151.536 Q 380.544 149.448 380.904 148.44 L 380.904 148.44 L 380.904 148.44 Q 383.784 148.296 384.828 147.036 L 384.828 147.036 L 384.828 147.036 Q 385.872 145.776 385.872 142.176 L 385.872 142.176 L 385.872 110.496 L 385.872 110.496 Q 385.872 108.624 385.476 107.58 L 385.476 107.58 L 385.476 107.58 Q 385.08 106.536 383.928 105.996 L 383.928 105.996 L 383.928 105.996 Q 382.776 105.456 380.472 105.384 L 380.472 105.384 L 380.472 105.384 Q 380.472 103.728 381.12 102.72 L 381.12 102.72 L 381.12 102.72 Q 383.352 102.576 386.232 101.856 L 386.232 101.856 L 386.232 101.856 Q 389.112 101.136 390.768 100.272 L 390.768 100.272 L 390.768 100.272 Q 392.352 100.776 392.352 103.44 L 392.352 103.44 L 392.352 103.44 Q 392.352 104.592 392.1 105.636 L 392.1 105.636 L 392.1 105.636 Q 391.848 106.68 391.272 108.624 L 391.272 108.624 L 391.272 108.624 Q 391.92 107.256 392.928 105.6 L 392.928 105.6 L 392.928 105.6 Q 394.08 103.656 396.78 101.964 L 396.78 101.964 L 396.78 101.964 Q 399.48 100.272 402.792 100.272 L 402.792 100.272 L 402.792 100.272 Q 409.272 100.272 412.764 104.088 L 412.764 104.088 L 412.764 104.088 Q 416.256 107.904 416.256 115.608 L 416.256 115.608 L 416.256 115.608 Q 416.256 120.936 414.024 125.256 L 414.024 125.256 L 414.024 125.256 Q 411.792 129.576 407.688 132.06 L 407.688 132.06 L 407.688 132.06 Q 403.584 134.544 398.328 134.544 L 398.328 134.544 L 398.328 134.544 Z  M 401.064 104.808 L 401.064 104.808 Q 397.464 104.808 394.908 108.192 L 394.908 108.192 L 394.908 108.192 Q 392.352 111.576 392.352 118.56 L 392.352 118.56 L 392.352 128.712 L 392.352 128.712 Q 393.72 129.936 395.196 130.584 L 395.196 130.584 L 395.196 130.584 Q 396.672 131.232 398.688 131.232 L 398.688 131.232 L 398.688 131.232 Q 401.064 131.232 403.44 130.008 L 403.44 130.008 L 403.44 130.008 Q 405.816 128.784 407.472 125.652 L 407.472 125.652 L 407.472 125.652 Q 409.128 122.52 409.128 117.192 L 409.128 117.192 L 409.128 117.192 Q 409.128 111.576 406.86 108.192 L 406.86 108.192 L 406.86 108.192 Q 404.592 104.808 401.064 104.808 L 401.064 104.808 L 401.064 104.808 Z " fill-rule="evenodd" fill="rgb(0,0,0)"/></g><g style="isolation:isolate"><g style="isolation:isolate"><circle vector-effect="non-scaling-stroke" cx="329" cy="411" r="19" fill="rgb(215,211,211)"/><line x1="329" y1="445" x2="329" y2="433" vector-effect="non-scaling-stroke" stroke-width="2" stroke="rgb(154,154,158)" stroke-linejoin="miter" stroke-linecap="square" stroke-miterlimit="3"/></g><g style="isolation:isolate"><line x1="350" y1="412" x2="490" y2="369" vector-effect="non-scaling-stroke" stroke-width="2" stroke="rgb(154,154,158)" stroke-linejoin="miter" stroke-linecap="square" stroke-miterlimit="3"/><circle vector-effect="non-scaling-stroke" cx="512" cy="369" r="19" fill="rgb(215,211,211)"/><line x1="512" y1="445" x2="512" y2="390" vector-effect="non-scaling-stroke" stroke-width="2" stroke="rgb(154,154,158)" stroke-linejoin="miter" stroke-linecap="square" stroke-miterlimit="3"/></g><g style="isolation:isolate"><line x1="145" y1="445" x2="145" y2="390" vector-effect="non-scaling-stroke" stroke-width="2" stroke="rgb(154,154,158)" stroke-linejoin="miter" stroke-linecap="square" stroke-miterlimit="3"/><circle vector-effect="non-scaling-stroke" cx="145" cy="369" r="19" fill="rgb(215,211,211)"/><line x1="166" y1="371" x2="308" y2="412" vector-effect="non-scaling-stroke" stroke-width="2" stroke="rgb(154,154,158)" stroke-linejoin="miter" stroke-linecap="square" stroke-miterlimit="3"/></g><g style="isolation:isolate"><line x1="166" y1="369" x2="308" y2="357" vector-effect="non-scaling-stroke" stroke-width="2" stroke="rgb(154,154,158)" stroke-linejoin="miter" stroke-linecap="square" stroke-miterlimit="3"/><circle vector-effect="non-scaling-stroke" cx="329.00000000000006" cy="358" r="19" fill="rgb(215,211,211)"/><line x1="329" y1="390" x2="329" y2="379" vector-effect="non-scaling-stroke" stroke-width="2" stroke="rgb(154,154,158)" stroke-linejoin="miter" stroke-linecap="square" stroke-miterlimit="3"/></g><g style="isolation:isolate"><line x1="696" y1="445" x2="696" y2="357" vector-effect="non-scaling-stroke" stroke-width="2" stroke="rgb(154,154,158)" stroke-linejoin="miter" stroke-linecap="square" stroke-miterlimit="3"/><line x1="533" y1="367" x2="675" y2="338" vector-effect="non-scaling-stroke" stroke-width="2" stroke="rgb(154,154,158)" stroke-linejoin="miter" stroke-linecap="square" stroke-miterlimit="3"/><circle vector-effect="non-scaling-stroke" cx="696" cy="336" r="19" fill="rgb(215,211,211)"/></g><g style="isolation:isolate"><line x1="490" y1="367" x2="166" y2="285" vector-effect="non-scaling-stroke" stroke-width="2" stroke="rgb(154,154,158)" stroke-linejoin="miter" stroke-linecap="square" stroke-miterlimit="3"/><line x1="145" y1="348" x2="145" y2="303" vector-effect="non-scaling-stroke" stroke-width="2" stroke="rgb(154,154,158)" stroke-linejoin="miter" stroke-linecap="square" stroke-miterlimit="3"/><circle vector-effect="non-scaling-stroke" cx="145" cy="282" r="19" fill="rgb(215,211,211)"/></g></g></g></svg>