<?xml version="1.0" standalone="no"?><!-- Generator: Gravit.io --><svg xmlns="http://www.w3.org/2000/svg" xmlns:xlink="http://www.w3.org/1999/xlink" style="isolation:isolate" viewBox="0 0 841.89 595.276" width="841.89" height="595.276"><defs><clipPath id="_clipPath_cpiCkyHWSbiiw7zdezJRZDRsjX80boUl"><rect width="841.89" height="595.276"/></clipPath></defs><g clip-path="url(#_clipPath_cpiCkyHWSbiiw7zdezJRZDRsjX80boUl)"><g style="isolation:isolate"><g><rect x="100" y="447" width="90" height="35" transform="matrix(1,0,0,1,0,0)" fill="rgb(221,217,216)"/><path d=" M 135.398 472.259 L 133.68 472.259 L 131.902 467.718 L 126.18 467.718 L 124.422 472.259 L 122.742 472.259 L 128.387 457.923 L 129.783 457.923 L 135.398 472.259 L 135.398 472.259 Z  M 126.766 466.224 L 131.385 466.224 L 129.725 461.8 L 129.725 461.8 Q 129.402 460.96 129.061 459.739 L 129.061 459.739 L 129.061 459.739 Q 128.846 460.677 128.445 461.8 L 128.445 461.8 L 126.766 466.224 L 126.766 466.224 Z  M 138.738 457.063 L 138.738 472.259 L 137.117 472.259 L 137.117 457.063 L 138.738 457.063 L 138.738 457.063 Z  M 143.797 461.556 L 143.797 472.259 L 142.176 472.259 L 142.176 461.556 L 143.797 461.556 L 143.797 461.556 Z  M 142.039 458.655 L 142.039 458.655 L 142.039 458.655 Q 142.039 458.099 142.313 457.84 L 142.313 457.84 L 142.313 457.84 Q 142.586 457.581 142.996 457.581 L 142.996 457.581 L 142.996 457.581 Q 143.387 457.581 143.67 457.845 L 143.67 457.845 L 143.67 457.845 Q 143.953 458.108 143.953 458.655 L 143.953 458.655 L 143.953 458.655 Q 143.953 459.202 143.67 459.471 L 143.67 459.471 L 143.67 459.471 Q 143.387 459.739 142.996 459.739 L 142.996 459.739 L 142.996 459.739 Q 142.586 459.739 142.313 459.471 L 142.313 459.471 L 142.313 459.471 Q 142.039 459.202 142.039 458.655 Z  M 151.512 472.454 L 151.512 472.454 L 151.512 472.454 Q 149.188 472.454 147.913 471.023 L 147.913 471.023 L 147.913 471.023 Q 146.639 469.593 146.639 466.976 L 146.639 466.976 L 146.639 466.976 Q 146.639 464.29 147.933 462.825 L 147.933 462.825 L 147.933 462.825 Q 149.227 461.36 151.619 461.36 L 151.619 461.36 L 151.619 461.36 Q 152.391 461.36 153.162 461.526 L 153.162 461.526 L 153.162 461.526 Q 153.934 461.692 154.373 461.917 L 154.373 461.917 L 153.875 463.294 L 153.875 463.294 Q 153.338 463.079 152.703 462.938 L 152.703 462.938 L 152.703 462.938 Q 152.068 462.796 151.58 462.796 L 151.58 462.796 L 151.58 462.796 Q 148.318 462.796 148.318 466.956 L 148.318 466.956 L 148.318 466.956 Q 148.318 468.929 149.114 469.983 L 149.114 469.983 L 149.114 469.983 Q 149.91 471.038 151.473 471.038 L 151.473 471.038 L 151.473 471.038 Q 152.811 471.038 154.217 470.462 L 154.217 470.462 L 154.217 471.897 L 154.217 471.897 Q 153.143 472.454 151.512 472.454 Z  M 161.277 472.454 L 161.277 472.454 L 161.277 472.454 Q 158.904 472.454 157.532 471.009 L 157.532 471.009 L 157.532 471.009 Q 156.16 469.563 156.16 466.995 L 156.16 466.995 L 156.16 466.995 Q 156.16 464.407 157.435 462.884 L 157.435 462.884 L 157.435 462.884 Q 158.709 461.36 160.857 461.36 L 160.857 461.36 L 160.857 461.36 Q 162.869 461.36 164.041 462.684 L 164.041 462.684 L 164.041 462.684 Q 165.213 464.007 165.213 466.175 L 165.213 466.175 L 165.213 467.2 L 157.84 467.2 L 157.84 467.2 Q 157.889 469.085 158.792 470.062 L 158.792 470.062 L 158.792 470.062 Q 159.695 471.038 161.336 471.038 L 161.336 471.038 L 161.336 471.038 Q 163.064 471.038 164.754 470.315 L 164.754 470.315 L 164.754 471.761 L 164.754 471.761 Q 163.895 472.132 163.128 472.293 L 163.128 472.293 L 163.128 472.293 Q 162.361 472.454 161.277 472.454 Z  M 160.838 462.718 L 160.838 462.718 L 160.838 462.718 Q 159.549 462.718 158.782 463.558 L 158.782 463.558 L 158.782 463.558 Q 158.016 464.397 157.879 465.882 L 157.879 465.882 L 163.475 465.882 L 163.475 465.882 Q 163.475 464.349 162.791 463.533 L 162.791 463.533 L 162.791 463.533 Q 162.107 462.718 160.838 462.718 Z " fill-rule="evenodd" fill="rgb(0,0,0)"/></g><g><rect x="284" y="447" width="90" height="35" transform="matrix(1,0,0,1,0,0)" fill="rgb(221,217,216)"/><path d=" M 311.815 472.259 L 311.815 457.981 L 315.849 457.981 L 315.849 457.981 Q 318.69 457.981 319.96 458.831 L 319.96 458.831 L 319.96 458.831 Q 321.229 459.681 321.229 461.517 L 321.229 461.517 L 321.229 461.517 Q 321.229 462.786 320.521 463.611 L 320.521 463.611 L 320.521 463.611 Q 319.813 464.437 318.456 464.681 L 318.456 464.681 L 318.456 464.778 L 318.456 464.778 Q 321.708 465.335 321.708 468.196 L 321.708 468.196 L 321.708 468.196 Q 321.708 470.11 320.414 471.185 L 320.414 471.185 L 320.414 471.185 Q 319.12 472.259 316.796 472.259 L 316.796 472.259 L 311.815 472.259 L 311.815 472.259 Z  M 313.476 459.417 L 313.476 464.095 L 316.21 464.095 L 316.21 464.095 Q 317.968 464.095 318.739 463.543 L 318.739 463.543 L 318.739 463.543 Q 319.511 462.991 319.511 461.683 L 319.511 461.683 L 319.511 461.683 Q 319.511 460.481 318.651 459.949 L 318.651 459.949 L 318.651 459.949 Q 317.792 459.417 315.917 459.417 L 315.917 459.417 L 313.476 459.417 L 313.476 459.417 Z  M 316.317 465.501 L 313.476 465.501 L 313.476 470.843 L 316.454 470.843 L 316.454 470.843 Q 318.183 470.843 319.057 470.174 L 319.057 470.174 L 319.057 470.174 Q 319.931 469.505 319.931 468.079 L 319.931 468.079 L 319.931 468.079 Q 319.931 466.751 319.037 466.126 L 319.037 466.126 L 319.037 466.126 Q 318.144 465.501 316.317 465.501 L 316.317 465.501 L 316.317 465.501 Z  M 333.769 466.897 L 333.769 466.897 L 333.769 466.897 Q 333.769 469.515 332.45 470.984 L 332.45 470.984 L 332.45 470.984 Q 331.132 472.454 328.808 472.454 L 328.808 472.454 L 328.808 472.454 Q 327.372 472.454 326.259 471.78 L 326.259 471.78 L 326.259 471.78 Q 325.146 471.106 324.54 469.847 L 324.54 469.847 L 324.54 469.847 Q 323.935 468.587 323.935 466.897 L 323.935 466.897 L 323.935 466.897 Q 323.935 464.28 325.243 462.82 L 325.243 462.82 L 325.243 462.82 Q 326.552 461.36 328.876 461.36 L 328.876 461.36 L 328.876 461.36 Q 331.122 461.36 332.445 462.854 L 332.445 462.854 L 332.445 462.854 Q 333.769 464.349 333.769 466.897 Z  M 325.614 466.897 L 325.614 466.897 L 325.614 466.897 Q 325.614 468.948 326.435 470.022 L 326.435 470.022 L 326.435 470.022 Q 327.255 471.097 328.847 471.097 L 328.847 471.097 L 328.847 471.097 Q 330.438 471.097 331.264 470.027 L 331.264 470.027 L 331.264 470.027 Q 332.089 468.958 332.089 466.897 L 332.089 466.897 L 332.089 466.897 Q 332.089 464.856 331.264 463.797 L 331.264 463.797 L 331.264 463.797 Q 330.438 462.737 328.827 462.737 L 328.827 462.737 L 328.827 462.737 Q 327.235 462.737 326.425 463.782 L 326.425 463.782 L 326.425 463.782 Q 325.614 464.827 325.614 466.897 Z  M 341.591 461.38 L 341.591 461.38 L 341.591 461.38 Q 343.7 461.38 344.867 462.82 L 344.867 462.82 L 344.867 462.82 Q 346.034 464.261 346.034 466.897 L 346.034 466.897 L 346.034 466.897 Q 346.034 469.534 344.857 470.994 L 344.857 470.994 L 344.857 470.994 Q 343.681 472.454 341.591 472.454 L 341.591 472.454 L 341.591 472.454 Q 340.546 472.454 339.682 472.068 L 339.682 472.068 L 339.682 472.068 Q 338.817 471.683 338.231 470.882 L 338.231 470.882 L 338.114 470.882 L 337.772 472.259 L 336.61 472.259 L 336.61 457.063 L 338.231 457.063 L 338.231 460.755 L 338.231 460.755 Q 338.231 461.995 338.153 462.981 L 338.153 462.981 L 338.231 462.981 L 338.231 462.981 Q 339.364 461.38 341.591 461.38 Z  M 341.356 462.737 L 341.356 462.737 L 341.356 462.737 Q 339.696 462.737 338.964 463.689 L 338.964 463.689 L 338.964 463.689 Q 338.231 464.642 338.231 466.897 L 338.231 466.897 L 338.231 466.897 Q 338.231 469.153 338.983 470.125 L 338.983 470.125 L 338.983 470.125 Q 339.735 471.097 341.396 471.097 L 341.396 471.097 L 341.396 471.097 Q 342.89 471.097 343.622 470.008 L 343.622 470.008 L 343.622 470.008 Q 344.354 468.919 344.354 466.878 L 344.354 466.878 L 344.354 466.878 Q 344.354 464.788 343.622 463.763 L 343.622 463.763 L 343.622 463.763 Q 342.89 462.737 341.356 462.737 Z " fill-rule="evenodd" fill="rgb(0,0,0)"/></g><g><rect x="467" y="447" width="90" height="35" transform="matrix(1,0,0,1,0,0)" fill="rgb(221,217,216)"/><path d=" M 495.055 459.261 L 495.055 459.261 L 495.055 459.261 Q 492.701 459.261 491.339 460.828 L 491.339 460.828 L 491.339 460.828 Q 489.977 462.396 489.977 465.12 L 489.977 465.12 L 489.977 465.12 Q 489.977 467.923 491.29 469.451 L 491.29 469.451 L 491.29 469.451 Q 492.604 470.979 495.035 470.979 L 495.035 470.979 L 495.035 470.979 Q 496.529 470.979 498.443 470.442 L 498.443 470.442 L 498.443 471.897 L 498.443 471.897 Q 496.959 472.454 494.781 472.454 L 494.781 472.454 L 494.781 472.454 Q 491.627 472.454 489.913 470.54 L 489.913 470.54 L 489.913 470.54 Q 488.199 468.626 488.199 465.101 L 488.199 465.101 L 488.199 465.101 Q 488.199 462.894 489.024 461.233 L 489.024 461.233 L 489.024 461.233 Q 489.85 459.573 491.407 458.675 L 491.407 458.675 L 491.407 458.675 Q 492.965 457.776 495.074 457.776 L 495.074 457.776 L 495.074 457.776 Q 497.32 457.776 499 458.597 L 499 458.597 L 498.297 460.022 L 498.297 460.022 Q 496.676 459.261 495.055 459.261 Z  M 509.098 472.259 L 507.896 472.259 L 507.574 470.735 L 507.496 470.735 L 507.496 470.735 Q 506.695 471.741 505.899 472.098 L 505.899 472.098 L 505.899 472.098 Q 505.104 472.454 503.912 472.454 L 503.912 472.454 L 503.912 472.454 Q 502.32 472.454 501.417 471.634 L 501.417 471.634 L 501.417 471.634 Q 500.514 470.813 500.514 469.3 L 500.514 469.3 L 500.514 469.3 Q 500.514 466.058 505.699 465.901 L 505.699 465.901 L 507.516 465.843 L 507.516 465.179 L 507.516 465.179 Q 507.516 463.919 506.974 463.318 L 506.974 463.318 L 506.974 463.318 Q 506.432 462.718 505.24 462.718 L 505.24 462.718 L 505.24 462.718 Q 503.902 462.718 502.213 463.538 L 502.213 463.538 L 501.715 462.298 L 501.715 462.298 Q 502.506 461.868 503.448 461.624 L 503.448 461.624 L 503.448 461.624 Q 504.391 461.38 505.338 461.38 L 505.338 461.38 L 505.338 461.38 Q 507.252 461.38 508.175 462.229 L 508.175 462.229 L 508.175 462.229 Q 509.098 463.079 509.098 464.954 L 509.098 464.954 L 509.098 472.259 L 509.098 472.259 Z  M 504.234 471.116 L 504.234 471.116 L 504.234 471.116 Q 505.748 471.116 506.612 470.286 L 506.612 470.286 L 506.612 470.286 Q 507.477 469.456 507.477 467.962 L 507.477 467.962 L 507.477 466.995 L 505.855 467.063 L 505.855 467.063 Q 503.922 467.132 503.067 467.664 L 503.067 467.664 L 503.067 467.664 Q 502.213 468.196 502.213 469.319 L 502.213 469.319 L 502.213 469.319 Q 502.213 470.198 502.745 470.657 L 502.745 470.657 L 502.745 470.657 Q 503.277 471.116 504.234 471.116 Z  M 517.32 461.36 L 517.32 461.36 L 517.32 461.36 Q 518.033 461.36 518.6 461.478 L 518.6 461.478 L 518.375 462.981 L 518.375 462.981 Q 517.711 462.835 517.203 462.835 L 517.203 462.835 L 517.203 462.835 Q 515.904 462.835 514.981 463.89 L 514.981 463.89 L 514.981 463.89 Q 514.059 464.944 514.059 466.517 L 514.059 466.517 L 514.059 472.259 L 512.438 472.259 L 512.438 461.556 L 513.775 461.556 L 513.961 463.538 L 514.039 463.538 L 514.039 463.538 Q 514.635 462.493 515.475 461.927 L 515.475 461.927 L 515.475 461.927 Q 516.314 461.36 517.32 461.36 Z  M 529.84 466.897 L 529.84 466.897 L 529.84 466.897 Q 529.84 469.515 528.521 470.984 L 528.521 470.984 L 528.521 470.984 Q 527.203 472.454 524.879 472.454 L 524.879 472.454 L 524.879 472.454 Q 523.443 472.454 522.33 471.78 L 522.33 471.78 L 522.33 471.78 Q 521.217 471.106 520.611 469.847 L 520.611 469.847 L 520.611 469.847 Q 520.006 468.587 520.006 466.897 L 520.006 466.897 L 520.006 466.897 Q 520.006 464.28 521.314 462.82 L 521.314 462.82 L 521.314 462.82 Q 522.623 461.36 524.947 461.36 L 524.947 461.36 L 524.947 461.36 Q 527.193 461.36 528.517 462.854 L 528.517 462.854 L 528.517 462.854 Q 529.84 464.349 529.84 466.897 Z  M 521.686 466.897 L 521.686 466.897 L 521.686 466.897 Q 521.686 468.948 522.506 470.022 L 522.506 470.022 L 522.506 470.022 Q 523.326 471.097 524.918 471.097 L 524.918 471.097 L 524.918 471.097 Q 526.51 471.097 527.335 470.027 L 527.335 470.027 L 527.335 470.027 Q 528.16 468.958 528.16 466.897 L 528.16 466.897 L 528.16 466.897 Q 528.16 464.856 527.335 463.797 L 527.335 463.797 L 527.335 463.797 Q 526.51 462.737 524.898 462.737 L 524.898 462.737 L 524.898 462.737 Q 523.307 462.737 522.496 463.782 L 522.496 463.782 L 522.496 463.782 Q 521.686 464.827 521.686 466.897 Z  M 534.303 457.063 L 534.303 472.259 L 532.682 472.259 L 532.682 457.063 L 534.303 457.063 L 534.303 457.063 Z " fill-rule="evenodd" fill="rgb(0,0,0)"/></g><g><rect x="651" y="447" width="90" height="35" transform="matrix(1,0,0,1,0,0)" fill="rgb(221,217,216)"/><path d=" M 685.388 464.983 L 685.388 464.983 L 685.388 464.983 Q 685.388 468.519 683.469 470.389 L 683.469 470.389 L 683.469 470.389 Q 681.55 472.259 677.946 472.259 L 677.946 472.259 L 673.991 472.259 L 673.991 457.981 L 678.366 457.981 L 678.366 457.981 Q 681.696 457.981 683.542 459.827 L 683.542 459.827 L 683.542 459.827 Q 685.388 461.673 685.388 464.983 Z  M 683.63 465.042 L 683.63 465.042 L 683.63 465.042 Q 683.63 462.249 682.229 460.833 L 682.229 460.833 L 682.229 460.833 Q 680.827 459.417 678.063 459.417 L 678.063 459.417 L 675.651 459.417 L 675.651 470.823 L 677.673 470.823 L 677.673 470.823 Q 680.642 470.823 682.136 469.363 L 682.136 469.363 L 682.136 469.363 Q 683.63 467.903 683.63 465.042 Z  M 696.11 472.259 L 694.909 472.259 L 694.587 470.735 L 694.509 470.735 L 694.509 470.735 Q 693.708 471.741 692.912 472.098 L 692.912 472.098 L 692.912 472.098 Q 692.116 472.454 690.925 472.454 L 690.925 472.454 L 690.925 472.454 Q 689.333 472.454 688.43 471.634 L 688.43 471.634 L 688.43 471.634 Q 687.526 470.813 687.526 469.3 L 687.526 469.3 L 687.526 469.3 Q 687.526 466.058 692.712 465.901 L 692.712 465.901 L 694.528 465.843 L 694.528 465.179 L 694.528 465.179 Q 694.528 463.919 693.986 463.318 L 693.986 463.318 L 693.986 463.318 Q 693.444 462.718 692.253 462.718 L 692.253 462.718 L 692.253 462.718 Q 690.915 462.718 689.226 463.538 L 689.226 463.538 L 688.728 462.298 L 688.728 462.298 Q 689.519 461.868 690.461 461.624 L 690.461 461.624 L 690.461 461.624 Q 691.403 461.38 692.351 461.38 L 692.351 461.38 L 692.351 461.38 Q 694.265 461.38 695.188 462.229 L 695.188 462.229 L 695.188 462.229 Q 696.11 463.079 696.11 464.954 L 696.11 464.954 L 696.11 472.259 L 696.11 472.259 Z  M 691.247 471.116 L 691.247 471.116 L 691.247 471.116 Q 692.761 471.116 693.625 470.286 L 693.625 470.286 L 693.625 470.286 Q 694.489 469.456 694.489 467.962 L 694.489 467.962 L 694.489 466.995 L 692.868 467.063 L 692.868 467.063 Q 690.935 467.132 690.08 467.664 L 690.08 467.664 L 690.08 467.664 Q 689.226 468.196 689.226 469.319 L 689.226 469.319 L 689.226 469.319 Q 689.226 470.198 689.758 470.657 L 689.758 470.657 L 689.758 470.657 Q 690.29 471.116 691.247 471.116 Z  M 703.688 472.259 L 701.794 472.259 L 697.731 461.556 L 699.47 461.556 L 701.774 467.903 L 701.774 467.903 Q 702.556 470.13 702.692 470.794 L 702.692 470.794 L 702.771 470.794 L 702.771 470.794 Q 702.878 470.276 703.449 468.65 L 703.449 468.65 L 703.449 468.65 Q 704.021 467.024 706.013 461.556 L 706.013 461.556 L 707.751 461.556 L 703.688 472.259 L 703.688 472.259 Z  M 713.991 472.454 L 713.991 472.454 L 713.991 472.454 Q 711.618 472.454 710.246 471.009 L 710.246 471.009 L 710.246 471.009 Q 708.874 469.563 708.874 466.995 L 708.874 466.995 L 708.874 466.995 Q 708.874 464.407 710.148 462.884 L 710.148 462.884 L 710.148 462.884 Q 711.423 461.36 713.571 461.36 L 713.571 461.36 L 713.571 461.36 Q 715.583 461.36 716.755 462.684 L 716.755 462.684 L 716.755 462.684 Q 717.927 464.007 717.927 466.175 L 717.927 466.175 L 717.927 467.2 L 710.554 467.2 L 710.554 467.2 Q 710.603 469.085 711.506 470.062 L 711.506 470.062 L 711.506 470.062 Q 712.409 471.038 714.05 471.038 L 714.05 471.038 L 714.05 471.038 Q 715.778 471.038 717.468 470.315 L 717.468 470.315 L 717.468 471.761 L 717.468 471.761 Q 716.608 472.132 715.842 472.293 L 715.842 472.293 L 715.842 472.293 Q 715.075 472.454 713.991 472.454 Z  M 713.552 462.718 L 713.552 462.718 L 713.552 462.718 Q 712.263 462.718 711.496 463.558 L 711.496 463.558 L 711.496 463.558 Q 710.729 464.397 710.593 465.882 L 710.593 465.882 L 716.188 465.882 L 716.188 465.882 Q 716.188 464.349 715.505 463.533 L 715.505 463.533 L 715.505 463.533 Q 714.821 462.718 713.552 462.718 Z " fill-rule="evenodd" fill="rgb(0,0,0)"/></g></g><g style="isolation:isolate"><path d=" M 547.368 121.584 L 547.368 121.584 Q 549.456 122.232 550.536 123.312 L 550.536 123.312 L 550.536 123.312 Q 549.168 127.56 548.304 134.04 L 548.304 134.04 L 548.304 134.04 Q 542.688 133.896 532.896 133.896 L 532.896 133.896 L 532.896 133.896 Q 519.648 133.896 514.248 134.112 L 514.248 134.112 L 514.248 134.112 Q 514.248 132.024 514.608 131.016 L 514.608 131.016 L 514.608 131.016 Q 516.624 130.872 517.668 130.296 L 517.668 130.296 L 517.668 130.296 Q 518.712 129.72 519.144 128.28 L 519.144 128.28 L 519.144 128.28 Q 519.576 126.84 519.576 123.96 L 519.576 123.96 L 519.576 94.368 L 519.576 94.368 Q 519.576 90.768 518.532 89.508 L 518.532 89.508 L 518.532 89.508 Q 517.488 88.248 514.608 88.104 L 514.608 88.104 L 514.608 88.104 Q 514.248 87.096 514.248 85.008 L 514.248 85.008 L 514.248 85.008 Q 518.496 85.224 526.344 85.224 L 526.344 85.224 L 526.344 85.224 Q 539.448 85.224 546.576 85.008 L 546.576 85.008 L 546.576 85.008 Q 547.296 92.928 548.088 96.384 L 548.088 96.384 L 548.088 96.384 Q 547.008 97.248 544.848 97.248 L 544.848 97.248 L 544.848 97.248 Q 544.488 93.216 541.932 90.66 L 541.932 90.66 L 541.932 90.66 Q 539.376 88.104 533.04 88.104 L 533.04 88.104 L 526.344 88.104 L 526.344 107.832 L 530.88 107.832 L 530.88 107.832 Q 535.416 107.832 537.108 106.644 L 537.108 106.644 L 537.108 106.644 Q 538.8 105.456 538.872 102 L 538.872 102 L 538.872 102 Q 540.6 101.496 542.328 101.496 L 542.328 101.496 L 542.328 101.496 Q 542.184 103.944 542.184 109.344 L 542.184 109.344 L 542.184 109.344 Q 542.184 115.248 542.328 117.696 L 542.328 117.696 L 542.328 117.696 Q 540.384 117.696 539.016 117.336 L 539.016 117.336 L 539.016 117.336 Q 538.728 113.592 537.036 112.26 L 537.036 112.26 L 537.036 112.26 Q 535.344 110.928 530.88 110.928 L 530.88 110.928 L 526.344 110.928 L 526.344 123.96 L 526.344 123.96 Q 526.344 126.696 526.848 128.1 L 526.848 128.1 L 526.848 128.1 Q 527.352 129.504 528.756 130.08 L 528.756 130.08 L 528.756 130.08 Q 530.16 130.656 532.896 130.656 L 532.896 130.656 L 533.328 130.656 L 533.328 130.656 Q 538.296 130.656 540.96 129.648 L 540.96 129.648 L 540.96 129.648 Q 543.624 128.64 544.884 126.84 L 544.884 126.84 L 544.884 126.84 Q 546.144 125.04 547.368 121.584 L 547.368 121.584 L 547.368 121.584 Z  M 583.728 100.92 L 583.728 100.92 Q 587.832 100.92 590.424 100.704 L 590.424 100.704 L 590.424 100.704 Q 590.424 102.504 589.776 103.8 L 589.776 103.8 L 589.776 103.8 Q 588.048 104.16 586.968 105.708 L 586.968 105.708 L 586.968 105.708 Q 585.888 107.256 584.016 111.648 L 584.016 111.648 L 574.296 133.896 L 574.296 133.896 Q 573 134.544 570.984 134.544 L 570.984 134.544 L 570.984 134.544 Q 569.76 131.376 565.692 122.232 L 565.692 122.232 L 565.692 122.232 Q 561.624 113.088 559.464 108.336 L 559.464 108.336 L 559.464 108.336 Q 558.096 105.528 557.304 104.736 L 557.304 104.736 L 557.304 104.736 Q 556.512 103.944 555 103.8 L 555 103.8 L 555 103.8 Q 554.784 103.008 554.676 102.288 L 554.676 102.288 L 554.676 102.288 Q 554.568 101.568 554.568 100.704 L 554.568 100.704 L 554.568 100.704 Q 557.592 100.92 562.128 100.92 L 562.128 100.92 L 562.128 100.92 Q 567.528 100.92 570.984 100.704 L 570.984 100.704 L 570.984 100.704 Q 570.984 102.144 570.48 103.656 L 570.48 103.656 L 570.48 103.656 Q 568.032 103.8 567.024 104.232 L 567.024 104.232 L 567.024 104.232 Q 566.016 104.664 566.016 105.672 L 566.016 105.672 L 566.016 105.672 Q 566.016 106.752 566.952 108.624 L 566.952 108.624 L 566.952 108.624 Q 568.32 111.648 570.552 117.048 L 570.552 117.048 L 570.552 117.048 Q 572.784 122.448 574.44 126.696 L 574.44 126.696 L 580.2 112.296 L 580.2 112.296 Q 581.496 108.912 581.496 107.04 L 581.496 107.04 L 581.496 107.04 Q 581.496 105.456 580.596 104.664 L 580.596 104.664 L 580.596 104.664 Q 579.696 103.872 577.824 103.728 L 577.824 103.728 L 577.824 103.728 Q 577.032 102.288 577.032 100.704 L 577.032 100.704 L 577.032 100.704 Q 579.84 100.92 583.728 100.92 L 583.728 100.92 L 583.728 100.92 Z  M 620.736 126.336 L 620.736 126.336 Q 621.312 126.696 621.852 127.344 L 621.852 127.344 L 621.852 127.344 Q 622.392 127.992 622.464 128.568 L 622.464 128.568 L 622.464 128.568 Q 620.016 131.736 616.884 133.14 L 616.884 133.14 L 616.884 133.14 Q 613.752 134.544 609.648 134.544 L 609.648 134.544 L 609.648 134.544 Q 604.68 134.544 601.26 132.276 L 601.26 132.276 L 601.26 132.276 Q 597.84 130.008 596.112 126.12 L 596.112 126.12 L 596.112 126.12 Q 594.384 122.232 594.384 117.408 L 594.384 117.408 L 594.384 117.408 Q 594.384 112.728 596.22 108.84 L 596.22 108.84 L 596.22 108.84 Q 598.056 104.952 601.44 102.612 L 601.44 102.612 L 601.44 102.612 Q 604.824 100.272 609.288 100.272 L 609.288 100.272 L 609.288 100.272 Q 615.84 100.272 619.044 104.34 L 619.044 104.34 L 619.044 104.34 Q 622.248 108.408 622.752 115.176 L 622.752 115.176 L 622.752 115.176 Q 622.464 116.616 621.672 117.624 L 621.672 117.624 L 621.672 117.624 Q 609 117.624 601.512 117.984 L 601.512 117.984 L 601.512 117.984 Q 601.872 123.528 604.284 127.02 L 604.284 127.02 L 604.284 127.02 Q 606.696 130.512 611.952 130.512 L 611.952 130.512 L 611.952 130.512 Q 614.4 130.512 616.704 129.432 L 616.704 129.432 L 616.704 129.432 Q 619.008 128.352 620.736 126.336 L 620.736 126.336 L 620.736 126.336 Z  M 608.64 103.728 L 608.64 103.728 Q 605.76 103.728 603.744 106.176 L 603.744 106.176 L 603.744 106.176 Q 601.728 108.624 601.44 114.384 L 601.44 114.384 L 615.264 114.384 L 615.264 114.384 Q 615.264 109.56 613.5 106.644 L 613.5 106.644 L 613.5 106.644 Q 611.736 103.728 608.64 103.728 L 608.64 103.728 L 608.64 103.728 Z  M 665.664 131.016 L 665.664 131.016 Q 666.024 132.096 666.024 134.112 L 666.024 134.112 L 666.024 134.112 Q 662.928 133.896 658.176 133.896 L 658.176 133.896 L 658.176 133.896 Q 655.224 133.896 651.048 134.04 L 651.048 134.04 L 651.048 134.04 Q 650.544 134.112 649.608 134.112 L 649.608 134.112 L 649.608 134.112 Q 649.608 132.024 649.968 131.016 L 649.968 131.016 L 649.968 131.016 Q 652.632 131.016 653.784 129.648 L 653.784 129.648 L 653.784 129.648 Q 654.936 128.28 654.936 124.752 L 654.936 124.752 L 654.936 113.808 L 654.936 113.808 Q 654.936 109.056 653.172 107.04 L 653.172 107.04 L 653.172 107.04 Q 651.408 105.024 648.24 105.024 L 648.24 105.024 L 648.24 105.024 Q 646.224 105.024 644.352 106.248 L 644.352 106.248 L 644.352 106.248 Q 642.48 107.472 641.292 110.208 L 641.292 110.208 L 641.292 110.208 Q 640.104 112.944 640.104 117.048 L 640.104 117.048 L 640.104 124.752 L 640.104 124.752 Q 640.104 128.352 641.184 129.684 L 641.184 129.684 L 641.184 129.684 Q 642.264 131.016 645.072 131.016 L 645.072 131.016 L 645.072 131.016 Q 645.432 132.096 645.432 134.112 L 645.432 134.112 L 645.432 134.112 Q 639.384 133.896 636.864 133.896 L 636.864 133.896 L 636.864 133.896 Q 631.392 133.896 628.296 134.112 L 628.296 134.112 L 628.296 134.112 Q 628.296 132.024 628.656 131.016 L 628.656 131.016 L 628.656 131.016 Q 631.464 131.016 632.544 129.684 L 632.544 129.684 L 632.544 129.684 Q 633.624 128.352 633.624 124.752 L 633.624 124.752 L 633.624 110.496 L 633.624 110.496 Q 633.624 108.624 633.228 107.58 L 633.228 107.58 L 633.228 107.58 Q 632.832 106.536 631.68 105.996 L 631.68 105.996 L 631.68 105.996 Q 630.528 105.456 628.224 105.384 L 628.224 105.384 L 628.224 105.384 Q 628.224 103.728 628.872 102.72 L 628.872 102.72 L 628.872 102.72 Q 631.104 102.576 633.984 101.856 L 633.984 101.856 L 633.984 101.856 Q 636.864 101.136 638.52 100.272 L 638.52 100.272 L 638.52 100.272 Q 640.104 100.776 640.104 103.44 L 640.104 103.44 L 640.104 103.44 Q 640.104 105.744 639.6 107.688 L 639.6 107.688 L 639.6 107.688 Q 639.744 107.472 639.996 106.932 L 639.996 106.932 L 639.996 106.932 Q 640.248 106.392 640.68 105.816 L 640.68 105.816 L 640.68 105.816 Q 642.12 103.8 644.892 102.216 L 644.892 102.216 L 644.892 102.216 Q 647.664 100.632 651.12 100.632 L 651.12 100.632 L 651.12 100.632 Q 655.656 100.632 658.536 103.44 L 658.536 103.44 L 658.536 103.44 Q 661.416 106.248 661.416 112.368 L 661.416 112.368 L 661.416 124.752 L 661.416 124.752 Q 661.416 128.352 662.424 129.684 L 662.424 129.684 L 662.424 129.684 Q 663.432 131.016 665.664 131.016 L 665.664 131.016 L 665.664 131.016 Z  M 683.592 134.544 L 683.592 134.544 Q 679.272 134.544 677.256 132.348 L 677.256 132.348 L 677.256 132.348 Q 675.24 130.152 675.24 125.256 L 675.24 125.256 L 675.24 105.744 L 675.24 105.744 Q 673.08 105.024 670.056 104.808 L 670.056 104.808 L 670.056 104.808 Q 670.056 103.152 670.704 101.64 L 670.704 101.64 L 675.24 101.64 L 675.24 92.136 L 675.24 92.136 Q 678.048 91.344 680.568 89.256 L 680.568 89.256 L 680.568 89.256 Q 681.288 89.616 681.504 90.228 L 681.504 90.228 L 681.504 90.228 Q 681.72 90.84 681.72 93 L 681.72 93 L 681.72 101.64 L 691.08 101.64 L 691.08 101.64 Q 691.08 103.152 690.432 104.808 L 690.432 104.808 L 690.432 104.808 Q 685.104 105.024 681.72 105.744 L 681.72 105.744 L 681.72 123.744 L 681.72 123.744 Q 681.72 130.656 685.896 130.656 L 685.896 130.656 L 685.896 130.656 Q 687.336 130.656 688.452 130.224 L 688.452 130.224 L 688.452 130.224 Q 689.568 129.792 690.648 128.928 L 690.648 128.928 L 690.648 128.928 Q 691.584 130.008 691.728 131.304 L 691.728 131.304 L 691.728 131.304 Q 690.504 132.672 688.164 133.608 L 688.164 133.608 L 688.164 133.608 Q 685.824 134.544 683.592 134.544 L 683.592 134.544 L 683.592 134.544 Z  M 155.472 94.368 L 155.472 94.368 Q 155.472 90.768 154.428 89.508 L 154.428 89.508 L 154.428 89.508 Q 153.384 88.248 150.504 88.104 L 150.504 88.104 L 150.504 88.104 Q 150.144 87.096 150.144 85.008 L 150.144 85.008 L 150.144 85.008 Q 154.104 85.224 158.856 85.224 L 158.856 85.224 L 158.856 85.224 Q 163.248 85.224 167.568 85.008 L 167.568 85.008 L 167.568 85.008 Q 167.568 87.096 167.208 88.104 L 167.208 88.104 L 167.208 88.104 Q 164.328 88.248 163.284 89.508 L 163.284 89.508 L 163.284 89.508 Q 162.24 90.768 162.24 94.368 L 162.24 94.368 L 162.24 124.752 L 162.24 124.752 Q 162.24 128.352 163.284 129.612 L 163.284 129.612 L 163.284 129.612 Q 164.328 130.872 167.208 131.016 L 167.208 131.016 L 167.208 131.016 Q 167.568 132.024 167.568 134.112 L 167.568 134.112 L 167.568 134.112 Q 163.248 133.896 158.856 133.896 L 158.856 133.896 L 158.856 133.896 Q 153.816 133.896 150.144 134.112 L 150.144 134.112 L 150.144 134.112 Q 150.144 132.024 150.504 131.016 L 150.504 131.016 L 150.504 131.016 Q 153.384 130.872 154.428 129.612 L 154.428 129.612 L 154.428 129.612 Q 155.472 128.352 155.472 124.752 L 155.472 124.752 L 155.472 94.368 L 155.472 94.368 Z  M 211.632 131.016 L 211.632 131.016 Q 211.992 132.096 211.992 134.112 L 211.992 134.112 L 211.992 134.112 Q 208.896 133.896 204.144 133.896 L 204.144 133.896 L 204.144 133.896 Q 201.192 133.896 197.016 134.04 L 197.016 134.04 L 197.016 134.04 Q 196.512 134.112 195.576 134.112 L 195.576 134.112 L 195.576 134.112 Q 195.576 132.024 195.936 131.016 L 195.936 131.016 L 195.936 131.016 Q 198.6 131.016 199.752 129.648 L 199.752 129.648 L 199.752 129.648 Q 200.904 128.28 200.904 124.752 L 200.904 124.752 L 200.904 113.808 L 200.904 113.808 Q 200.904 109.056 199.14 107.04 L 199.14 107.04 L 199.14 107.04 Q 197.376 105.024 194.208 105.024 L 194.208 105.024 L 194.208 105.024 Q 192.192 105.024 190.32 106.248 L 190.32 106.248 L 190.32 106.248 Q 188.448 107.472 187.26 110.208 L 187.26 110.208 L 187.26 110.208 Q 186.072 112.944 186.072 117.048 L 186.072 117.048 L 186.072 124.752 L 186.072 124.752 Q 186.072 128.352 187.152 129.684 L 187.152 129.684 L 187.152 129.684 Q 188.232 131.016 191.04 131.016 L 191.04 131.016 L 191.04 131.016 Q 191.4 132.096 191.4 134.112 L 191.4 134.112 L 191.4 134.112 Q 185.352 133.896 182.832 133.896 L 182.832 133.896 L 182.832 133.896 Q 177.36 133.896 174.264 134.112 L 174.264 134.112 L 174.264 134.112 Q 174.264 132.024 174.624 131.016 L 174.624 131.016 L 174.624 131.016 Q 177.432 131.016 178.512 129.684 L 178.512 129.684 L 178.512 129.684 Q 179.592 128.352 179.592 124.752 L 179.592 124.752 L 179.592 110.496 L 179.592 110.496 Q 179.592 108.624 179.196 107.58 L 179.196 107.58 L 179.196 107.58 Q 178.8 106.536 177.648 105.996 L 177.648 105.996 L 177.648 105.996 Q 176.496 105.456 174.192 105.384 L 174.192 105.384 L 174.192 105.384 Q 174.192 103.728 174.84 102.72 L 174.84 102.72 L 174.84 102.72 Q 177.072 102.576 179.952 101.856 L 179.952 101.856 L 179.952 101.856 Q 182.832 101.136 184.488 100.272 L 184.488 100.272 L 184.488 100.272 Q 186.072 100.776 186.072 103.44 L 186.072 103.44 L 186.072 103.44 Q 186.072 105.744 185.568 107.688 L 185.568 107.688 L 185.568 107.688 Q 185.712 107.472 185.964 106.932 L 185.964 106.932 L 185.964 106.932 Q 186.216 106.392 186.648 105.816 L 186.648 105.816 L 186.648 105.816 Q 188.088 103.8 190.86 102.216 L 190.86 102.216 L 190.86 102.216 Q 193.632 100.632 197.088 100.632 L 197.088 100.632 L 197.088 100.632 Q 201.624 100.632 204.504 103.44 L 204.504 103.44 L 204.504 103.44 Q 207.384 106.248 207.384 112.368 L 207.384 112.368 L 207.384 124.752 L 207.384 124.752 Q 207.384 128.352 208.392 129.684 L 208.392 129.684 L 208.392 129.684 Q 209.4 131.016 211.632 131.016 L 211.632 131.016 L 211.632 131.016 Z  M 229.56 134.544 L 229.56 134.544 Q 225.24 134.544 223.224 132.348 L 223.224 132.348 L 223.224 132.348 Q 221.208 130.152 221.208 125.256 L 221.208 125.256 L 221.208 105.744 L 221.208 105.744 Q 219.048 105.024 216.024 104.808 L 216.024 104.808 L 216.024 104.808 Q 216.024 103.152 216.672 101.64 L 216.672 101.64 L 221.208 101.64 L 221.208 92.136 L 221.208 92.136 Q 224.016 91.344 226.536 89.256 L 226.536 89.256 L 226.536 89.256 Q 227.256 89.616 227.472 90.228 L 227.472 90.228 L 227.472 90.228 Q 227.688 90.84 227.688 93 L 227.688 93 L 227.688 101.64 L 237.048 101.64 L 237.048 101.64 Q 237.048 103.152 236.4 104.808 L 236.4 104.808 L 236.4 104.808 Q 231.072 105.024 227.688 105.744 L 227.688 105.744 L 227.688 123.744 L 227.688 123.744 Q 227.688 130.656 231.864 130.656 L 231.864 130.656 L 231.864 130.656 Q 233.304 130.656 234.42 130.224 L 234.42 130.224 L 234.42 130.224 Q 235.536 129.792 236.616 128.928 L 236.616 128.928 L 236.616 128.928 Q 237.552 130.008 237.696 131.304 L 237.696 131.304 L 237.696 131.304 Q 236.472 132.672 234.132 133.608 L 234.132 133.608 L 234.132 133.608 Q 231.792 134.544 229.56 134.544 L 229.56 134.544 L 229.56 134.544 Z  M 269.088 126.336 L 269.088 126.336 Q 269.664 126.696 270.204 127.344 L 270.204 127.344 L 270.204 127.344 Q 270.744 127.992 270.816 128.568 L 270.816 128.568 L 270.816 128.568 Q 268.368 131.736 265.236 133.14 L 265.236 133.14 L 265.236 133.14 Q 262.104 134.544 258 134.544 L 258 134.544 L 258 134.544 Q 253.032 134.544 249.612 132.276 L 249.612 132.276 L 249.612 132.276 Q 246.192 130.008 244.464 126.12 L 244.464 126.12 L 244.464 126.12 Q 242.736 122.232 242.736 117.408 L 242.736 117.408 L 242.736 117.408 Q 242.736 112.728 244.572 108.84 L 244.572 108.84 L 244.572 108.84 Q 246.408 104.952 249.792 102.612 L 249.792 102.612 L 249.792 102.612 Q 253.176 100.272 257.64 100.272 L 257.64 100.272 L 257.64 100.272 Q 264.192 100.272 267.396 104.34 L 267.396 104.34 L 267.396 104.34 Q 270.6 108.408 271.104 115.176 L 271.104 115.176 L 271.104 115.176 Q 270.816 116.616 270.024 117.624 L 270.024 117.624 L 270.024 117.624 Q 257.352 117.624 249.864 117.984 L 249.864 117.984 L 249.864 117.984 Q 250.224 123.528 252.636 127.02 L 252.636 127.02 L 252.636 127.02 Q 255.048 130.512 260.304 130.512 L 260.304 130.512 L 260.304 130.512 Q 262.752 130.512 265.056 129.432 L 265.056 129.432 L 265.056 129.432 Q 267.36 128.352 269.088 126.336 L 269.088 126.336 L 269.088 126.336 Z  M 256.992 103.728 L 256.992 103.728 Q 254.112 103.728 252.096 106.176 L 252.096 106.176 L 252.096 106.176 Q 250.08 108.624 249.792 114.384 L 249.792 114.384 L 263.616 114.384 L 263.616 114.384 Q 263.616 109.56 261.852 106.644 L 261.852 106.644 L 261.852 106.644 Q 260.088 103.728 256.992 103.728 L 256.992 103.728 L 256.992 103.728 Z  M 297.744 100.92 L 297.744 100.92 Q 300.48 100.92 302.712 102.648 L 302.712 102.648 L 302.712 102.648 Q 302.208 105.96 302.208 111.144 L 302.208 111.144 L 302.208 111.144 Q 300.264 111.792 298.104 111.792 L 298.104 111.792 L 298.104 111.792 Q 297.96 108.552 297.06 107.364 L 297.06 107.364 L 297.06 107.364 Q 296.16 106.176 294.576 106.176 L 294.576 106.176 L 294.576 106.176 Q 293.28 106.176 291.84 107.58 L 291.84 107.58 L 291.84 107.58 Q 290.4 108.984 289.428 111.36 L 289.428 111.36 L 289.428 111.36 Q 288.456 113.736 288.456 116.4 L 288.456 116.4 L 288.456 123.312 L 288.456 123.312 Q 288.456 126.408 289.104 128.028 L 289.104 128.028 L 289.104 128.028 Q 289.752 129.648 291.084 130.26 L 291.084 130.26 L 291.084 130.26 Q 292.416 130.872 294.864 131.016 L 294.864 131.016 L 294.864 131.016 Q 295.224 132.024 295.224 134.112 L 295.224 134.112 L 295.224 134.112 Q 291.912 133.896 286.152 133.896 L 286.152 133.896 L 286.152 133.896 Q 279.456 133.896 276.648 134.112 L 276.648 134.112 L 276.648 134.112 Q 276.648 132.024 277.008 131.016 L 277.008 131.016 L 277.008 131.016 Q 279.888 130.872 280.932 129.612 L 280.932 129.612 L 280.932 129.612 Q 281.976 128.352 281.976 124.752 L 281.976 124.752 L 281.976 110.496 L 281.976 110.496 Q 281.976 108.624 281.58 107.58 L 281.58 107.58 L 281.58 107.58 Q 281.184 106.536 280.032 105.996 L 280.032 105.996 L 280.032 105.996 Q 278.88 105.456 276.576 105.384 L 276.576 105.384 L 276.576 105.384 Q 276.576 103.728 277.224 102.72 L 277.224 102.72 L 277.224 102.72 Q 279.456 102.576 282.336 101.856 L 282.336 101.856 L 282.336 101.856 Q 285.216 101.136 286.872 100.272 L 286.872 100.272 L 286.872 100.272 Q 288.456 100.776 288.456 103.44 L 288.456 103.44 L 288.456 103.44 Q 288.456 105.888 288.024 108.012 L 288.024 108.012 L 288.024 108.012 Q 287.592 110.136 287.52 110.496 L 287.52 110.496 L 287.52 110.496 Q 287.664 110.064 288.096 108.768 L 288.096 108.768 L 288.096 108.768 Q 288.528 107.472 289.032 106.752 L 289.032 106.752 L 289.032 106.752 Q 292.704 100.92 297.744 100.92 L 297.744 100.92 L 297.744 100.92 Z  M 333.384 126.336 L 333.384 126.336 Q 333.96 126.696 334.5 127.344 L 334.5 127.344 L 334.5 127.344 Q 335.04 127.992 335.112 128.568 L 335.112 128.568 L 335.112 128.568 Q 332.664 131.736 329.532 133.14 L 329.532 133.14 L 329.532 133.14 Q 326.4 134.544 322.296 134.544 L 322.296 134.544 L 322.296 134.544 Q 317.328 134.544 313.908 132.276 L 313.908 132.276 L 313.908 132.276 Q 310.488 130.008 308.76 126.12 L 308.76 126.12 L 308.76 126.12 Q 307.032 122.232 307.032 117.408 L 307.032 117.408 L 307.032 117.408 Q 307.032 112.728 308.868 108.84 L 308.868 108.84 L 308.868 108.84 Q 310.704 104.952 314.088 102.612 L 314.088 102.612 L 314.088 102.612 Q 317.472 100.272 321.936 100.272 L 321.936 100.272 L 321.936 100.272 Q 328.488 100.272 331.692 104.34 L 331.692 104.34 L 331.692 104.34 Q 334.896 108.408 335.4 115.176 L 335.4 115.176 L 335.4 115.176 Q 335.112 116.616 334.32 117.624 L 334.32 117.624 L 334.32 117.624 Q 321.648 117.624 314.16 117.984 L 314.16 117.984 L 314.16 117.984 Q 314.52 123.528 316.932 127.02 L 316.932 127.02 L 316.932 127.02 Q 319.344 130.512 324.6 130.512 L 324.6 130.512 L 324.6 130.512 Q 327.048 130.512 329.352 129.432 L 329.352 129.432 L 329.352 129.432 Q 331.656 128.352 333.384 126.336 L 333.384 126.336 L 333.384 126.336 Z  M 321.288 103.728 L 321.288 103.728 Q 318.408 103.728 316.392 106.176 L 316.392 106.176 L 316.392 106.176 Q 314.376 108.624 314.088 114.384 L 314.088 114.384 L 327.912 114.384 L 327.912 114.384 Q 327.912 109.56 326.148 106.644 L 326.148 106.644 L 326.148 106.644 Q 324.384 103.728 321.288 103.728 L 321.288 103.728 L 321.288 103.728 Z  M 363.984 110.28 L 363.984 110.28 Q 362.616 111.144 360.384 111.144 L 360.384 111.144 L 360.384 111.144 Q 360.168 107.976 357.936 105.6 L 357.936 105.6 L 357.936 105.6 Q 355.704 103.224 352.32 103.224 L 352.32 103.224 L 352.32 103.224 Q 350.088 103.224 348.756 104.304 L 348.756 104.304 L 348.756 104.304 Q 347.424 105.384 347.424 107.184 L 347.424 107.184 L 347.424 107.184 Q 347.424 108.552 348 109.452 L 348 109.452 L 348 109.452 Q 348.576 110.352 350.376 111.36 L 350.376 111.36 L 350.376 111.36 Q 352.176 112.368 355.992 113.88 L 355.992 113.88 L 355.992 113.88 Q 359.952 115.392 362.148 116.832 L 362.148 116.832 L 362.148 116.832 Q 364.344 118.272 365.28 120.036 L 365.28 120.036 L 365.28 120.036 Q 366.216 121.8 366.216 124.392 L 366.216 124.392 L 366.216 124.392 Q 366.216 128.928 362.472 131.736 L 362.472 131.736 L 362.472 131.736 Q 358.728 134.544 353.04 134.544 L 353.04 134.544 L 353.04 134.544 Q 348.936 134.544 346.38 133.896 L 346.38 133.896 L 346.38 133.896 Q 343.824 133.248 341.16 131.88 L 341.16 131.88 L 341.16 131.88 Q 341.376 130.008 341.376 127.056 L 341.376 127.056 L 341.376 127.056 Q 341.376 125.112 341.232 122.952 L 341.232 122.952 L 341.232 122.952 Q 342.312 122.16 344.976 122.16 L 344.976 122.16 L 344.976 122.16 Q 345.48 126.624 347.748 128.892 L 347.748 128.892 L 347.748 128.892 Q 350.016 131.16 353.76 131.16 L 353.76 131.16 L 353.76 131.16 Q 356.64 131.16 358.296 129.864 L 358.296 129.864 L 358.296 129.864 Q 359.952 128.568 359.952 126.552 L 359.952 126.552 L 359.952 126.552 Q 359.952 125.256 359.34 124.32 L 359.34 124.32 L 359.34 124.32 Q 358.728 123.384 357.072 122.448 L 357.072 122.448 L 357.072 122.448 Q 355.416 121.512 352.176 120.216 L 352.176 120.216 L 352.176 120.216 Q 348 118.56 345.768 117.192 L 345.768 117.192 L 345.768 117.192 Q 343.536 115.824 342.528 113.988 L 342.528 113.988 L 342.528 113.988 Q 341.52 112.152 341.52 109.272 L 341.52 109.272 L 341.52 109.272 Q 341.52 106.392 343.392 104.376 L 343.392 104.376 L 343.392 104.376 Q 345.264 102.36 348.072 101.316 L 348.072 101.316 L 348.072 101.316 Q 350.88 100.272 353.472 100.272 L 353.472 100.272 L 353.472 100.272 Q 356.64 100.272 359.088 100.884 L 359.088 100.884 L 359.088 100.884 Q 361.536 101.496 363.84 102.792 L 363.84 102.792 L 363.84 102.792 Q 363.696 104.952 363.696 106.176 L 363.696 106.176 L 363.696 106.176 Q 363.696 108.48 363.984 110.28 L 363.984 110.28 L 363.984 110.28 Z  M 384.072 134.544 L 384.072 134.544 Q 379.752 134.544 377.736 132.348 L 377.736 132.348 L 377.736 132.348 Q 375.72 130.152 375.72 125.256 L 375.72 125.256 L 375.72 105.744 L 375.72 105.744 Q 373.56 105.024 370.536 104.808 L 370.536 104.808 L 370.536 104.808 Q 370.536 103.152 371.184 101.64 L 371.184 101.64 L 375.72 101.64 L 375.72 92.136 L 375.72 92.136 Q 378.528 91.344 381.048 89.256 L 381.048 89.256 L 381.048 89.256 Q 381.768 89.616 381.984 90.228 L 381.984 90.228 L 381.984 90.228 Q 382.2 90.84 382.2 93 L 382.2 93 L 382.2 101.64 L 391.56 101.64 L 391.56 101.64 Q 391.56 103.152 390.912 104.808 L 390.912 104.808 L 390.912 104.808 Q 385.584 105.024 382.2 105.744 L 382.2 105.744 L 382.2 123.744 L 382.2 123.744 Q 382.2 130.656 386.376 130.656 L 386.376 130.656 L 386.376 130.656 Q 387.816 130.656 388.932 130.224 L 388.932 130.224 L 388.932 130.224 Q 390.048 129.792 391.128 128.928 L 391.128 128.928 L 391.128 128.928 Q 392.064 130.008 392.208 131.304 L 392.208 131.304 L 392.208 131.304 Q 390.984 132.672 388.644 133.608 L 388.644 133.608 L 388.644 133.608 Q 386.304 134.544 384.072 134.544 L 384.072 134.544 L 384.072 134.544 Z  M 405.024 92.136 L 405.024 92.136 Q 403.224 92.136 402 90.912 L 402 90.912 L 402 90.912 Q 400.776 89.688 400.776 87.96 L 400.776 87.96 L 400.776 87.96 Q 400.776 86.088 402.036 84.828 L 402.036 84.828 L 402.036 84.828 Q 403.296 83.568 405.024 83.568 L 405.024 83.568 L 405.024 83.568 Q 406.968 83.568 408.156 84.792 L 408.156 84.792 L 408.156 84.792 Q 409.344 86.016 409.344 87.96 L 409.344 87.96 L 409.344 87.96 Q 409.344 89.616 408.084 90.876 L 408.084 90.876 L 408.084 90.876 Q 406.824 92.136 405.024 92.136 L 405.024 92.136 L 405.024 92.136 Z  M 397.032 134.112 L 397.032 134.112 Q 397.032 132.168 397.392 131.016 L 397.392 131.016 L 397.392 131.016 Q 400.272 131.016 401.316 129.684 L 401.316 129.684 L 401.316 129.684 Q 402.36 128.352 402.36 124.752 L 402.36 124.752 L 402.36 110.496 L 402.36 110.496 Q 402.36 108.624 402 107.544 L 402 107.544 L 402 107.544 Q 401.64 106.464 400.488 105.924 L 400.488 105.924 L 400.488 105.924 Q 399.336 105.384 396.96 105.384 L 396.96 105.384 L 396.96 105.384 Q 396.96 103.728 397.608 102.72 L 397.608 102.72 L 397.608 102.72 Q 399.408 102.72 402.72 101.928 L 402.72 101.928 L 402.72 101.928 Q 406.032 101.136 407.256 100.272 L 407.256 100.272 L 407.256 100.272 Q 408.84 100.776 408.84 103.152 L 408.84 103.152 L 408.84 124.752 L 408.84 124.752 Q 408.84 128.352 409.776 129.684 L 409.776 129.684 L 409.776 129.684 Q 410.712 131.016 413.088 131.016 L 413.088 131.016 L 413.088 131.016 Q 413.448 132.24 413.448 134.112 L 413.448 134.112 L 413.448 134.112 Q 409.704 133.896 405.312 133.896 L 405.312 133.896 L 405.312 133.896 Q 400.632 133.896 397.032 134.112 L 397.032 134.112 L 397.032 134.112 Z  M 456.072 131.016 L 456.072 131.016 Q 456.432 132.096 456.432 134.112 L 456.432 134.112 L 456.432 134.112 Q 453.336 133.896 448.584 133.896 L 448.584 133.896 L 448.584 133.896 Q 445.632 133.896 441.456 134.04 L 441.456 134.04 L 441.456 134.04 Q 440.952 134.112 440.016 134.112 L 440.016 134.112 L 440.016 134.112 Q 440.016 132.024 440.376 131.016 L 440.376 131.016 L 440.376 131.016 Q 443.04 131.016 444.192 129.648 L 444.192 129.648 L 444.192 129.648 Q 445.344 128.28 445.344 124.752 L 445.344 124.752 L 445.344 113.808 L 445.344 113.808 Q 445.344 109.056 443.58 107.04 L 443.58 107.04 L 443.58 107.04 Q 441.816 105.024 438.648 105.024 L 438.648 105.024 L 438.648 105.024 Q 436.632 105.024 434.76 106.248 L 434.76 106.248 L 434.76 106.248 Q 432.888 107.472 431.7 110.208 L 431.7 110.208 L 431.7 110.208 Q 430.512 112.944 430.512 117.048 L 430.512 117.048 L 430.512 124.752 L 430.512 124.752 Q 430.512 128.352 431.592 129.684 L 431.592 129.684 L 431.592 129.684 Q 432.672 131.016 435.48 131.016 L 435.48 131.016 L 435.48 131.016 Q 435.84 132.096 435.84 134.112 L 435.84 134.112 L 435.84 134.112 Q 429.792 133.896 427.272 133.896 L 427.272 133.896 L 427.272 133.896 Q 421.8 133.896 418.704 134.112 L 418.704 134.112 L 418.704 134.112 Q 418.704 132.024 419.064 131.016 L 419.064 131.016 L 419.064 131.016 Q 421.872 131.016 422.952 129.684 L 422.952 129.684 L 422.952 129.684 Q 424.032 128.352 424.032 124.752 L 424.032 124.752 L 424.032 110.496 L 424.032 110.496 Q 424.032 108.624 423.636 107.58 L 423.636 107.58 L 423.636 107.58 Q 423.24 106.536 422.088 105.996 L 422.088 105.996 L 422.088 105.996 Q 420.936 105.456 418.632 105.384 L 418.632 105.384 L 418.632 105.384 Q 418.632 103.728 419.28 102.72 L 419.28 102.72 L 419.28 102.72 Q 421.512 102.576 424.392 101.856 L 424.392 101.856 L 424.392 101.856 Q 427.272 101.136 428.928 100.272 L 428.928 100.272 L 428.928 100.272 Q 430.512 100.776 430.512 103.44 L 430.512 103.44 L 430.512 103.44 Q 430.512 105.744 430.008 107.688 L 430.008 107.688 L 430.008 107.688 Q 430.152 107.472 430.404 106.932 L 430.404 106.932 L 430.404 106.932 Q 430.656 106.392 431.088 105.816 L 431.088 105.816 L 431.088 105.816 Q 432.528 103.8 435.3 102.216 L 435.3 102.216 L 435.3 102.216 Q 438.072 100.632 441.528 100.632 L 441.528 100.632 L 441.528 100.632 Q 446.064 100.632 448.944 103.44 L 448.944 103.44 L 448.944 103.44 Q 451.824 106.248 451.824 112.368 L 451.824 112.368 L 451.824 124.752 L 451.824 124.752 Q 451.824 128.352 452.832 129.684 L 452.832 129.684 L 452.832 129.684 Q 453.84 131.016 456.072 131.016 L 456.072 131.016 L 456.072 131.016 Z  M 479.328 129.36 L 479.328 129.36 Q 484.224 129.36 487.032 130.152 L 487.032 130.152 L 487.032 130.152 Q 489.84 130.944 491.1 132.672 L 491.1 132.672 L 491.1 132.672 Q 492.36 134.4 492.36 137.352 L 492.36 137.352 L 492.36 137.352 Q 492.36 140.664 490.02 144.048 L 490.02 144.048 L 490.02 144.048 Q 487.68 147.432 483.576 149.628 L 483.576 149.628 L 483.576 149.628 Q 479.472 151.824 474.504 151.824 L 474.504 151.824 L 474.504 151.824 Q 468.024 151.824 465 149.376 L 465 149.376 L 465 149.376 Q 461.976 146.928 461.976 142.104 L 461.976 142.104 L 461.976 142.104 Q 461.976 136.776 467.304 134.328 L 467.304 134.328 L 467.304 134.328 Q 465.36 133.68 464.604 132.42 L 464.604 132.42 L 464.604 132.42 Q 463.848 131.16 463.848 129 L 463.848 129 L 463.848 129 Q 463.848 125.04 467.664 121.368 L 467.664 121.368 L 467.664 121.368 Q 465.504 119.856 464.316 117.516 L 464.316 117.516 L 464.316 117.516 Q 463.128 115.176 463.128 112.224 L 463.128 112.224 L 463.128 112.224 Q 463.128 107.04 466.512 103.656 L 466.512 103.656 L 466.512 103.656 Q 469.896 100.272 476.088 100.272 L 476.088 100.272 L 476.088 100.272 Q 478.68 100.272 480.624 100.92 L 480.624 100.92 L 492.432 100.92 L 492.432 100.92 Q 492.936 102.648 492.936 105.384 L 492.936 105.384 L 492.936 105.384 Q 489.624 104.592 485.952 104.232 L 485.952 104.232 L 485.952 104.232 Q 487.608 105.888 488.436 107.976 L 488.436 107.976 L 488.436 107.976 Q 489.264 110.064 489.264 111.792 L 489.264 111.792 L 489.264 111.792 Q 489.264 117.048 485.808 120.468 L 485.808 120.468 L 485.808 120.468 Q 482.352 123.888 476.232 123.888 L 476.232 123.888 L 476.232 123.888 Q 473.208 123.888 470.688 122.952 L 470.688 122.952 L 470.688 122.952 Q 468.888 124.752 468.888 126.336 L 468.888 126.336 L 468.888 126.336 Q 468.888 127.704 469.608 128.316 L 469.608 128.316 L 469.608 128.316 Q 470.328 128.928 472.416 129.144 L 472.416 129.144 L 472.416 129.144 Q 474.504 129.36 479.328 129.36 L 479.328 129.36 L 479.328 129.36 Z  M 475.368 103.512 L 475.368 103.512 Q 472.632 103.512 471.192 105.78 L 471.192 105.78 L 471.192 105.78 Q 469.752 108.048 469.752 111.288 L 469.752 111.288 L 469.752 111.288 Q 469.752 115.752 471.696 118.164 L 471.696 118.164 L 471.696 118.164 Q 473.64 120.576 477.096 120.576 L 477.096 120.576 L 477.096 120.576 Q 479.544 120.576 481.02 118.56 L 481.02 118.56 L 481.02 118.56 Q 482.496 116.544 482.496 112.872 L 482.496 112.872 L 482.496 112.872 Q 482.496 108.912 480.588 106.212 L 480.588 106.212 L 480.588 106.212 Q 478.68 103.512 475.368 103.512 L 475.368 103.512 L 475.368 103.512 Z  M 476.232 148.008 L 476.232 148.008 Q 479.256 148.008 481.596 146.928 L 481.596 146.928 L 481.596 146.928 Q 483.936 145.848 485.16 144.048 L 485.16 144.048 L 485.16 144.048 Q 486.384 142.248 486.384 140.16 L 486.384 140.16 L 486.384 140.16 Q 486.384 138.216 485.448 137.172 L 485.448 137.172 L 485.448 137.172 Q 484.512 136.128 481.956 135.624 L 481.956 135.624 L 481.956 135.624 Q 479.4 135.12 474.504 135.12 L 474.504 135.12 L 474.504 135.12 Q 472.776 135.12 470.616 134.976 L 470.616 134.976 L 470.616 134.976 Q 469.248 136.128 468.708 137.424 L 468.708 137.424 L 468.708 137.424 Q 468.168 138.72 468.168 140.592 L 468.168 140.592 L 468.168 140.592 Q 468.168 144.336 470.04 146.172 L 470.04 146.172 L 470.04 146.172 Q 471.912 148.008 476.232 148.008 L 476.232 148.008 L 476.232 148.008 Z " fill-rule="evenodd" fill="rgb(0,0,0)"/></g><g style="isolation:isolate"><g style="isolation:isolate"><circle vector-effect="non-scaling-stroke" cx="329" cy="411" r="19" fill="rgb(215,211,211)"/><line x1="329" y1="445" x2="329" y2="433" vector-effect="non-scaling-stroke" stroke-width="2" stroke="rgb(154,154,158)" stroke-linejoin="miter" stroke-linecap="square" stroke-miterlimit="3"/></g><g style="isolation:isolate"><line x1="350" y1="412" x2="490" y2="369" vector-effect="non-scaling-stroke" stroke-width="2" stroke="rgb(154,154,158)" stroke-linejoin="miter" stroke-linecap="square" stroke-miterlimit="3"/><circle vector-effect="non-scaling-stroke" cx="512" cy="369" r="19" fill="rgb(215,211,211)"/><line x1="512" y1="445" x2="512" y2="390" vector-effect="non-scaling-stroke" stroke-width="2" stroke="rgb(154,154,158)" stroke-linejoin="miter" stroke-linecap="square" stroke-miterlimit="3"/></g><g style="isolation:isolate"><line x1="145" y1="445" x2="145" y2="390" vector-effect="non-scaling-stroke" stroke-width="2" stroke="rgb(154,154,158)" stroke-linejoin="miter" stroke-linecap="square" stroke-miterlimit="3"/><circle vector-effect="non-scaling-stroke" cx="145" cy="369" r="19" fill="rgb(215,211,211)"/><line x1="166" y1="371" x2="308" y2="412" vector-effect="non-scaling-stroke" stroke-width="2" stroke="rgb(154,154,158)" stroke-linejoin="miter" stroke-linecap="square" stroke-miterlimit="3"/></g><g style="isolation:isolate"><line x1="166" y1="369" x2="308" y2="357" vector-effect="non-scaling-stroke" stroke-width="2" stroke="rgb(154,154,158)" stroke-linejoin="miter" stroke-linecap="square" stroke-miterlimit="3"/><circle vector-effect="non-scaling-stroke" cx="329.00000000000006" cy="358" r="19" fill="rgb(215,211,211)"/><line x1="329" y1="390" x2="329" y2="379" vector-effect="non-scaling-stroke" stroke-width="2" stroke="rgb(154,154,158)" stroke-linejoin="miter" stroke-linecap="square" stroke-miterlimit="3"/></g><g style="isolation:isolate"><line x1="696" y1="445" x2="696" y2="357" vector-effect="non-scaling-stroke" stroke-width="2" stroke="rgb(154,154,158)" stroke-linejoin="miter" stroke-linecap="square" stroke-miterlimit="3"/><line x1="533" y1="367" x2="675" y2="338" vector-effect="non-scaling-stroke" stroke-width="2" stroke="rgb(154,154,158)" stroke-linejoin="miter" stroke-linecap="square" stroke-miterlimit="3"/><circle vector-effect="non-scaling-stroke" cx="696" cy="336" r="19" fill="rgb(215,211,211)"/></g><g style="isolation:isolate"><line x1="490" y1="367" x2="166" y2="285" vector-effect="non-scaling-stroke" stroke-width="2" stroke="rgb(154,154,158)" stroke-linejoin="miter" stroke-linecap="square" stroke-miterlimit="3"/><line x1="145" y1="348" x2="145" y2="303" vector-effect="non-scaling-stroke" stroke-width="2" stroke="rgb(154,154,158)" stroke-linejoin="miter" stroke-linecap="square" stroke-miterlimit="3"/><circle vector-effect="non-scaling-stroke" cx="145" cy="282" r="19" fill="rgb(215,211,211)"/></g><g style="isolation:isolate"><line x1="512" y1="348" x2="512" y2="330" vector-effect="non-scaling-stroke" stroke-width="2" stroke="rgb(154,154,158)" stroke-linejoin="miter" stroke-linecap="square" stroke-miterlimit="3"/><circle vector-effect="non-scaling-stroke" cx="512" cy="309" r="19" fill="rgb(215,211,211)"/><line x1="533" y1="307" x2="675" y2="336" vector-effect="non-scaling-stroke" stroke-width="2" stroke="rgb(154,154,158)" stroke-linejoin="miter" stroke-linecap="square" stroke-miterlimit="3"/></g><g style="isolation:isolate"><line x1="329" y1="337" x2="329" y2="303" vector-effect="non-scaling-stroke" stroke-width="2" stroke="rgb(154,154,158)" stroke-linejoin="miter" stroke-linecap="square" stroke-miterlimit="3"/><line x1="350" y1="284" x2="491" y2="307" vector-effect="non-scaling-stroke" stroke-width="2" stroke="rgb(154,154,158)" stroke-linejoin="miter" stroke-linecap="square" stroke-miterlimit="3"/><circle vector-effect="non-scaling-stroke" cx="329" cy="282" r="19" fill="rgb(215,211,211)"/></g><g style="isolation:isolate"><line x1="350" y1="357" x2="490" y2="256" vector-effect="non-scaling-stroke" stroke-width="2" stroke="rgb(154,154,158)" stroke-linejoin="miter" stroke-linecap="square" stroke-miterlimit="3"/><line x1="512" y1="288" x2="512" y2="277" vector-effect="non-scaling-stroke" stroke-width="2" stroke="rgb(154,154,158)" stroke-linejoin="miter" stroke-linecap="square" stroke-miterlimit="3"/><circle vector-effect="non-scaling-stroke" cx="512" cy="256" r="19" fill="rgb(215,211,211)"/></g><g style="isolation:isolate"><line x1="166" y1="231" x2="308" y2="284" vector-effect="non-scaling-stroke" stroke-width="2" stroke="rgb(154,154,158)" stroke-linejoin="miter" stroke-linecap="square" stroke-miterlimit="3"/><circle vector-effect="non-scaling-stroke" cx="145" cy="231" r="19" fill="rgb(215,211,211)"/><line x1="145" y1="261" x2="145" y2="252" vector-effect="non-scaling-stroke" stroke-width="2" stroke="rgb(154,154,158)" stroke-linejoin="miter" stroke-linecap="square" stroke-miterlimit="3"/></g><g style="isolation:isolate"><line x1="695" y1="315" x2="695" y2="252" vector-effect="non-scaling-stroke" stroke-width="2" stroke="rgb(154,154,158)" stroke-linejoin="miter" stroke-linecap="square" stroke-miterlimit="3"/><line x1="533" y1="256" x2="673" y2="231" vector-effect="non-scaling-stroke" stroke-width="2" stroke="rgb(154,154,158)" stroke-linejoin="miter" stroke-linecap="square" stroke-miterlimit="3"/><circle vector-effect="non-scaling-stroke" cx="695.0000000000001" cy="231.00000000000003" r="19" fill="rgb(215,211,211)"/></g></g><g style="isolation:isolate"><path d=" M 692.373 238.759 L 692.158 237.323 L 692.07 237.323 L 692.07 237.323 Q 690.947 238.954 688.711 238.954 L 688.711 238.954 L 688.711 238.954 Q 686.611 238.954 685.444 237.519 L 685.444 237.519 L 685.444 237.519 Q 684.277 236.083 684.277 233.437 L 684.277 233.437 L 684.277 233.437 Q 684.277 230.79 685.449 229.325 L 685.449 229.325 L 685.449 229.325 Q 686.621 227.86 688.711 227.86 L 688.711 227.86 L 688.711 227.86 Q 690.889 227.86 692.051 229.442 L 692.051 229.442 L 692.178 229.442 L 692.109 228.671 L 692.07 227.919 L 692.07 223.563 L 693.691 223.563 L 693.691 238.759 L 692.373 238.759 L 692.373 238.759 Z  M 688.916 237.597 L 688.916 237.597 L 688.916 237.597 Q 690.576 237.597 691.323 236.693 L 691.323 236.693 L 691.323 236.693 Q 692.07 235.79 692.07 233.778 L 692.07 233.778 L 692.07 233.437 L 692.07 233.437 Q 692.07 231.161 691.313 230.189 L 691.313 230.189 L 691.313 230.189 Q 690.557 229.218 688.896 229.218 L 688.896 229.218 L 688.896 229.218 Q 687.471 229.218 686.714 230.326 L 686.714 230.326 L 686.714 230.326 Q 685.957 231.435 685.957 233.456 L 685.957 233.456 L 685.957 233.456 Q 685.957 235.507 686.709 236.552 L 686.709 236.552 L 686.709 236.552 Q 687.461 237.597 688.916 237.597 Z  M 702.393 224.481 L 702.393 238.759 L 700.811 238.759 L 700.811 228.583 L 700.811 228.583 Q 700.811 227.313 700.889 226.181 L 700.889 226.181 L 700.889 226.181 Q 700.684 226.386 700.43 226.61 L 700.43 226.61 L 700.43 226.61 Q 700.176 226.835 698.105 228.515 L 698.105 228.515 L 697.246 227.401 L 701.025 224.481 L 702.393 224.481 L 702.393 224.481 Z " fill-rule="evenodd" fill="rgb(139,139,139)"/><path d=" M 506.518 263.954 L 506.518 263.954 L 506.518 263.954 Q 504.193 263.954 502.919 262.523 L 502.919 262.523 L 502.919 262.523 Q 501.645 261.093 501.645 258.476 L 501.645 258.476 L 501.645 258.476 Q 501.645 255.79 502.938 254.325 L 502.938 254.325 L 502.938 254.325 Q 504.232 252.86 506.625 252.86 L 506.625 252.86 L 506.625 252.86 Q 507.396 252.86 508.168 253.026 L 508.168 253.026 L 508.168 253.026 Q 508.939 253.192 509.379 253.417 L 509.379 253.417 L 508.881 254.794 L 508.881 254.794 Q 508.344 254.579 507.709 254.438 L 507.709 254.438 L 507.709 254.438 Q 507.074 254.296 506.586 254.296 L 506.586 254.296 L 506.586 254.296 Q 503.324 254.296 503.324 258.456 L 503.324 258.456 L 503.324 258.456 Q 503.324 260.429 504.12 261.483 L 504.12 261.483 L 504.12 261.483 Q 504.916 262.538 506.479 262.538 L 506.479 262.538 L 506.479 262.538 Q 507.816 262.538 509.223 261.962 L 509.223 261.962 L 509.223 263.397 L 509.223 263.397 Q 508.148 263.954 506.518 263.954 Z  M 520.404 262.255 L 520.404 263.759 L 511.02 263.759 L 511.02 262.362 L 514.779 258.583 L 514.779 258.583 Q 516.498 256.845 517.045 256.103 L 517.045 256.103 L 517.045 256.103 Q 517.592 255.36 517.865 254.657 L 517.865 254.657 L 517.865 254.657 Q 518.139 253.954 518.139 253.144 L 518.139 253.144 L 518.139 253.144 Q 518.139 252.001 517.445 251.332 L 517.445 251.332 L 517.445 251.332 Q 516.752 250.663 515.521 250.663 L 515.521 250.663 L 515.521 250.663 Q 514.633 250.663 513.837 250.956 L 513.837 250.956 L 513.837 250.956 Q 513.041 251.249 512.064 252.021 L 512.064 252.021 L 511.205 250.917 L 511.205 250.917 Q 513.178 249.276 515.502 249.276 L 515.502 249.276 L 515.502 249.276 Q 517.514 249.276 518.656 250.307 L 518.656 250.307 L 518.656 250.307 Q 519.799 251.337 519.799 253.075 L 519.799 253.075 L 519.799 253.075 Q 519.799 254.433 519.037 255.761 L 519.037 255.761 L 519.037 255.761 Q 518.275 257.089 516.186 259.12 L 516.186 259.12 L 513.061 262.177 L 513.061 262.255 L 520.404 262.255 L 520.404 262.255 Z " fill-rule="evenodd" fill="rgb(139,139,139)"/><path d=" M 506.518 316.954 L 506.518 316.954 L 506.518 316.954 Q 504.193 316.954 502.919 315.523 L 502.919 315.523 L 502.919 315.523 Q 501.645 314.093 501.645 311.476 L 501.645 311.476 L 501.645 311.476 Q 501.645 308.79 502.938 307.325 L 502.938 307.325 L 502.938 307.325 Q 504.232 305.86 506.625 305.86 L 506.625 305.86 L 506.625 305.86 Q 507.396 305.86 508.168 306.026 L 508.168 306.026 L 508.168 306.026 Q 508.939 306.192 509.379 306.417 L 509.379 306.417 L 508.881 307.794 L 508.881 307.794 Q 508.344 307.579 507.709 307.438 L 507.709 307.438 L 507.709 307.438 Q 507.074 307.296 506.586 307.296 L 506.586 307.296 L 506.586 307.296 Q 503.324 307.296 503.324 311.456 L 503.324 311.456 L 503.324 311.456 Q 503.324 313.429 504.12 314.483 L 504.12 314.483 L 504.12 314.483 Q 504.916 315.538 506.479 315.538 L 506.479 315.538 L 506.479 315.538 Q 507.816 315.538 509.223 314.962 L 509.223 314.962 L 509.223 316.397 L 509.223 316.397 Q 508.148 316.954 506.518 316.954 Z  M 517.025 302.481 L 517.025 316.759 L 515.443 316.759 L 515.443 306.583 L 515.443 306.583 Q 515.443 305.313 515.521 304.181 L 515.521 304.181 L 515.521 304.181 Q 515.316 304.386 515.063 304.61 L 515.063 304.61 L 515.063 304.61 Q 514.809 304.835 512.738 306.515 L 512.738 306.515 L 511.879 305.401 L 515.658 302.481 L 517.025 302.481 L 517.025 302.481 Z " fill-rule="evenodd" fill="rgb(139,139,139)"/><path d=" M 322.854 279.38 L 322.854 279.38 L 322.854 279.38 Q 324.963 279.38 326.13 280.82 L 326.13 280.82 L 326.13 280.82 Q 327.297 282.261 327.297 284.897 L 327.297 284.897 L 327.297 284.897 Q 327.297 287.534 326.12 288.994 L 326.12 288.994 L 326.12 288.994 Q 324.943 290.454 322.854 290.454 L 322.854 290.454 L 322.854 290.454 Q 321.809 290.454 320.944 290.068 L 320.944 290.068 L 320.944 290.068 Q 320.08 289.683 319.494 288.882 L 319.494 288.882 L 319.377 288.882 L 319.035 290.259 L 317.873 290.259 L 317.873 275.063 L 319.494 275.063 L 319.494 278.755 L 319.494 278.755 Q 319.494 279.995 319.416 280.981 L 319.416 280.981 L 319.494 280.981 L 319.494 280.981 Q 320.627 279.38 322.854 279.38 Z  M 322.619 280.737 L 322.619 280.737 L 322.619 280.737 Q 320.959 280.737 320.227 281.689 L 320.227 281.689 L 320.227 281.689 Q 319.494 282.642 319.494 284.897 L 319.494 284.897 L 319.494 284.897 Q 319.494 287.153 320.246 288.125 L 320.246 288.125 L 320.246 288.125 Q 320.998 289.097 322.658 289.097 L 322.658 289.097 L 322.658 289.097 Q 324.152 289.097 324.885 288.008 L 324.885 288.008 L 324.885 288.008 Q 325.617 286.919 325.617 284.878 L 325.617 284.878 L 325.617 284.878 Q 325.617 282.788 324.885 281.763 L 324.885 281.763 L 324.885 281.763 Q 324.152 280.737 322.619 280.737 Z  M 338.771 288.755 L 338.771 290.259 L 329.387 290.259 L 329.387 288.862 L 333.146 285.083 L 333.146 285.083 Q 334.865 283.345 335.412 282.603 L 335.412 282.603 L 335.412 282.603 Q 335.959 281.86 336.232 281.157 L 336.232 281.157 L 336.232 281.157 Q 336.506 280.454 336.506 279.644 L 336.506 279.644 L 336.506 279.644 Q 336.506 278.501 335.813 277.832 L 335.813 277.832 L 335.813 277.832 Q 335.119 277.163 333.889 277.163 L 333.889 277.163 L 333.889 277.163 Q 333 277.163 332.204 277.456 L 332.204 277.456 L 332.204 277.456 Q 331.408 277.749 330.432 278.521 L 330.432 278.521 L 329.572 277.417 L 329.572 277.417 Q 331.545 275.776 333.869 275.776 L 333.869 275.776 L 333.869 275.776 Q 335.881 275.776 337.023 276.807 L 337.023 276.807 L 337.023 276.807 Q 338.166 277.837 338.166 279.575 L 338.166 279.575 L 338.166 279.575 Q 338.166 280.933 337.404 282.261 L 337.404 282.261 L 337.404 282.261 Q 336.643 283.589 334.553 285.62 L 334.553 285.62 L 331.428 288.677 L 331.428 288.755 L 338.771 288.755 L 338.771 288.755 Z " fill-rule="evenodd" fill="rgb(139,139,139)"/><path d=" M 322.854 353.88 L 322.854 353.88 L 322.854 353.88 Q 324.963 353.88 326.13 355.32 L 326.13 355.32 L 326.13 355.32 Q 327.297 356.761 327.297 359.397 L 327.297 359.397 L 327.297 359.397 Q 327.297 362.034 326.12 363.494 L 326.12 363.494 L 326.12 363.494 Q 324.943 364.954 322.854 364.954 L 322.854 364.954 L 322.854 364.954 Q 321.809 364.954 320.944 364.568 L 320.944 364.568 L 320.944 364.568 Q 320.08 364.183 319.494 363.382 L 319.494 363.382 L 319.377 363.382 L 319.035 364.759 L 317.873 364.759 L 317.873 349.563 L 319.494 349.563 L 319.494 353.255 L 319.494 353.255 Q 319.494 354.495 319.416 355.481 L 319.416 355.481 L 319.494 355.481 L 319.494 355.481 Q 320.627 353.88 322.854 353.88 Z  M 322.619 355.237 L 322.619 355.237 L 322.619 355.237 Q 320.959 355.237 320.227 356.189 L 320.227 356.189 L 320.227 356.189 Q 319.494 357.142 319.494 359.397 L 319.494 359.397 L 319.494 359.397 Q 319.494 361.653 320.246 362.625 L 320.246 362.625 L 320.246 362.625 Q 320.998 363.597 322.658 363.597 L 322.658 363.597 L 322.658 363.597 Q 324.152 363.597 324.885 362.508 L 324.885 362.508 L 324.885 362.508 Q 325.617 361.419 325.617 359.378 L 325.617 359.378 L 325.617 359.378 Q 325.617 357.288 324.885 356.263 L 324.885 356.263 L 324.885 356.263 Q 324.152 355.237 322.619 355.237 Z  M 335.393 350.481 L 335.393 364.759 L 333.811 364.759 L 333.811 354.583 L 333.811 354.583 Q 333.811 353.313 333.889 352.181 L 333.889 352.181 L 333.889 352.181 Q 333.684 352.386 333.43 352.61 L 333.43 352.61 L 333.43 352.61 Q 333.176 352.835 331.105 354.515 L 331.105 354.515 L 330.246 353.401 L 334.025 350.481 L 335.393 350.481 L 335.393 350.481 Z " fill-rule="evenodd" fill="rgb(139,139,139)"/><path d=" M 142.223 238.759 L 141.021 238.759 L 140.699 237.235 L 140.621 237.235 L 140.621 237.235 Q 139.82 238.241 139.024 238.598 L 139.024 238.598 L 139.024 238.598 Q 138.229 238.954 137.037 238.954 L 137.037 238.954 L 137.037 238.954 Q 135.445 238.954 134.542 238.134 L 134.542 238.134 L 134.542 238.134 Q 133.639 237.313 133.639 235.8 L 133.639 235.8 L 133.639 235.8 Q 133.639 232.558 138.824 232.401 L 138.824 232.401 L 140.641 232.343 L 140.641 231.679 L 140.641 231.679 Q 140.641 230.419 140.099 229.818 L 140.099 229.818 L 140.099 229.818 Q 139.557 229.218 138.365 229.218 L 138.365 229.218 L 138.365 229.218 Q 137.027 229.218 135.338 230.038 L 135.338 230.038 L 134.84 228.798 L 134.84 228.798 Q 135.631 228.368 136.573 228.124 L 136.573 228.124 L 136.573 228.124 Q 137.516 227.88 138.463 227.88 L 138.463 227.88 L 138.463 227.88 Q 140.377 227.88 141.3 228.729 L 141.3 228.729 L 141.3 228.729 Q 142.223 229.579 142.223 231.454 L 142.223 231.454 L 142.223 238.759 L 142.223 238.759 Z  M 137.359 237.616 L 137.359 237.616 L 137.359 237.616 Q 138.873 237.616 139.737 236.786 L 139.737 236.786 L 139.737 236.786 Q 140.602 235.956 140.602 234.462 L 140.602 234.462 L 140.602 233.495 L 138.98 233.563 L 138.98 233.563 Q 137.047 233.632 136.192 234.164 L 136.192 234.164 L 136.192 234.164 Q 135.338 234.696 135.338 235.819 L 135.338 235.819 L 135.338 235.819 Q 135.338 236.698 135.87 237.157 L 135.87 237.157 L 135.87 237.157 Q 136.402 237.616 137.359 237.616 Z  M 154.205 237.255 L 154.205 238.759 L 144.82 238.759 L 144.82 237.362 L 148.58 233.583 L 148.58 233.583 Q 150.299 231.845 150.846 231.103 L 150.846 231.103 L 150.846 231.103 Q 151.393 230.36 151.666 229.657 L 151.666 229.657 L 151.666 229.657 Q 151.939 228.954 151.939 228.144 L 151.939 228.144 L 151.939 228.144 Q 151.939 227.001 151.246 226.332 L 151.246 226.332 L 151.246 226.332 Q 150.553 225.663 149.322 225.663 L 149.322 225.663 L 149.322 225.663 Q 148.434 225.663 147.638 225.956 L 147.638 225.956 L 147.638 225.956 Q 146.842 226.249 145.865 227.021 L 145.865 227.021 L 145.006 225.917 L 145.006 225.917 Q 146.979 224.276 149.303 224.276 L 149.303 224.276 L 149.303 224.276 Q 151.314 224.276 152.457 225.307 L 152.457 225.307 L 152.457 225.307 Q 153.6 226.337 153.6 228.075 L 153.6 228.075 L 153.6 228.075 Q 153.6 229.433 152.838 230.761 L 152.838 230.761 L 152.838 230.761 Q 152.076 232.089 149.986 234.12 L 149.986 234.12 L 146.861 237.177 L 146.861 237.255 L 154.205 237.255 L 154.205 237.255 Z " fill-rule="evenodd" fill="rgb(139,139,139)"/><path d=" M 142.223 289.759 L 141.021 289.759 L 140.699 288.235 L 140.621 288.235 L 140.621 288.235 Q 139.82 289.241 139.024 289.598 L 139.024 289.598 L 139.024 289.598 Q 138.229 289.954 137.037 289.954 L 137.037 289.954 L 137.037 289.954 Q 135.445 289.954 134.542 289.134 L 134.542 289.134 L 134.542 289.134 Q 133.639 288.313 133.639 286.8 L 133.639 286.8 L 133.639 286.8 Q 133.639 283.558 138.824 283.401 L 138.824 283.401 L 140.641 283.343 L 140.641 282.679 L 140.641 282.679 Q 140.641 281.419 140.099 280.818 L 140.099 280.818 L 140.099 280.818 Q 139.557 280.218 138.365 280.218 L 138.365 280.218 L 138.365 280.218 Q 137.027 280.218 135.338 281.038 L 135.338 281.038 L 134.84 279.798 L 134.84 279.798 Q 135.631 279.368 136.573 279.124 L 136.573 279.124 L 136.573 279.124 Q 137.516 278.88 138.463 278.88 L 138.463 278.88 L 138.463 278.88 Q 140.377 278.88 141.3 279.729 L 141.3 279.729 L 141.3 279.729 Q 142.223 280.579 142.223 282.454 L 142.223 282.454 L 142.223 289.759 L 142.223 289.759 Z  M 137.359 288.616 L 137.359 288.616 L 137.359 288.616 Q 138.873 288.616 139.737 287.786 L 139.737 287.786 L 139.737 287.786 Q 140.602 286.956 140.602 285.462 L 140.602 285.462 L 140.602 284.495 L 138.98 284.563 L 138.98 284.563 Q 137.047 284.632 136.192 285.164 L 136.192 285.164 L 136.192 285.164 Q 135.338 285.696 135.338 286.819 L 135.338 286.819 L 135.338 286.819 Q 135.338 287.698 135.87 288.157 L 135.87 288.157 L 135.87 288.157 Q 136.402 288.616 137.359 288.616 Z  M 150.826 275.481 L 150.826 289.759 L 149.244 289.759 L 149.244 279.583 L 149.244 279.583 Q 149.244 278.313 149.322 277.181 L 149.322 277.181 L 149.322 277.181 Q 149.117 277.386 148.863 277.61 L 148.863 277.61 L 148.863 277.61 Q 148.609 277.835 146.539 279.515 L 146.539 279.515 L 145.68 278.401 L 149.459 275.481 L 150.826 275.481 L 150.826 275.481 Z " fill-rule="evenodd" fill="rgb(139,139,139)"/></g><g style="isolation:isolate"><path d=" M 695.986 321.5 C 689.867 321.5 684.972 326.167 684.972 332 C 684.972 339 692.44 346 695.986 349.5 C 699.657 346 707 339 707 332 C 707 326.167 702.105 321.5 695.986 321.5 Z  M 693.92 327.333 L 698.204 327.333 C 698.448 327.333 698.692 327.465 698.815 327.699 L 699.045 328.5 L 700.881 328.5 C 701.618 328.5 702.105 328.964 702.105 329.667 L 702.105 335.5 C 702.105 336.202 701.618 336.667 700.881 336.667 L 691.091 336.667 C 690.354 336.667 689.867 336.202 689.867 335.5 L 689.867 329.667 C 689.867 328.964 690.354 328.5 691.091 328.5 L 692.927 328.5 L 693.31 327.697 C 693.426 327.476 693.662 327.335 693.922 327.333 L 693.92 327.333 Z  M 695.986 330.25 C 694.634 330.25 693.539 331.295 693.539 332.583 C 693.539 333.872 694.634 334.917 695.986 334.917 C 697.338 334.917 698.434 333.872 698.434 332.583 C 698.434 331.295 697.338 330.25 695.986 330.25 Z " fill="none" vector-effect="non-scaling-stroke" stroke-width="1" stroke="rgb(0,0,0)" stroke-linejoin="miter" stroke-linecap="butt" stroke-miterlimit="4"/><path d=" M 510.986 356 C 504.867 356 499.972 360.667 499.972 366.5 C 499.972 373.5 507.44 380.5 510.986 384 C 514.657 380.5 522 373.5 522 366.5 C 522 360.667 517.105 356 510.986 356 Z  M 508.92 361.833 L 513.204 361.833 C 513.448 361.833 513.692 361.965 513.815 362.199 L 514.045 363 L 515.881 363 C 516.618 363 517.105 363.464 517.105 364.167 L 517.105 370 C 517.105 370.702 516.618 371.167 515.881 371.167 L 506.091 371.167 C 505.354 371.167 504.867 370.702 504.867 370 L 504.867 364.167 C 504.867 363.464 505.354 363 506.091 363 L 507.927 363 L 508.31 362.197 C 508.426 361.976 508.662 361.835 508.922 361.833 L 508.92 361.833 Z  M 510.986 364.75 C 509.634 364.75 508.539 365.795 508.539 367.083 C 508.539 368.372 509.634 369.417 510.986 369.417 C 512.338 369.417 513.434 368.372 513.434 367.083 C 513.434 365.795 512.338 364.75 510.986 364.75 Z " fill="none" vector-effect="non-scaling-stroke" stroke-width="1" stroke="rgb(0,0,0)" stroke-linejoin="miter" stroke-linecap="butt" stroke-miterlimit="4"/><path d=" M 329.014 398 C 322.895 398 318 402.667 318 408.5 C 318 415.5 325.467 422.5 329.014 426 C 332.685 422.5 340.028 415.5 340.028 408.5 C 340.028 402.667 335.133 398 329.014 398 Z  M 326.948 403.833 L 331.231 403.833 C 331.476 403.833 331.72 403.965 331.843 404.199 L 332.073 405 L 333.909 405 C 334.646 405 335.133 405.464 335.133 406.167 L 335.133 412 C 335.133 412.702 334.646 413.167 333.909 413.167 L 324.119 413.167 C 323.382 413.167 322.895 412.702 322.895 412 L 322.895 406.167 C 322.895 405.464 323.382 405 324.119 405 L 325.955 405 L 326.338 404.197 C 326.454 403.976 326.69 403.835 326.949 403.833 L 326.948 403.833 Z  M 329.014 406.75 C 327.662 406.75 326.566 407.795 326.566 409.083 C 326.566 410.372 327.662 411.417 329.014 411.417 C 330.366 411.417 331.461 410.372 331.461 409.083 C 331.461 407.795 330.366 406.75 329.014 406.75 Z " fill="none" vector-effect="non-scaling-stroke" stroke-width="1" stroke="rgb(0,0,0)" stroke-linejoin="miter" stroke-linecap="butt" stroke-miterlimit="4"/><path d=" M 145.151 356 C 139.032 356 134.137 360.667 134.137 366.5 C 134.137 373.5 141.604 380.5 145.151 384 C 148.822 380.5 156.165 373.5 156.165 366.5 C 156.165 360.667 151.27 356 145.151 356 Z  M 143.085 361.833 L 147.368 361.833 C 147.613 361.833 147.857 361.965 147.98 362.199 L 148.21 363 L 150.046 363 C 150.783 363 151.27 363.464 151.27 364.167 L 151.27 370 C 151.27 370.702 150.783 371.167 150.046 371.167 L 140.256 371.167 C 139.519 371.167 139.032 370.702 139.032 370 L 139.032 364.167 C 139.032 363.464 139.519 363 140.256 363 L 142.091 363 L 142.474 362.197 C 142.59 361.976 142.827 361.835 143.086 361.833 L 143.085 361.833 Z  M 145.151 364.75 C 143.799 364.75 142.703 365.795 142.703 367.083 C 142.703 368.372 143.799 369.417 145.151 369.417 C 146.503 369.417 147.598 368.372 147.598 367.083 C 147.598 365.795 146.503 364.75 145.151 364.75 Z " fill="none" vector-effect="non-scaling-stroke" stroke-width="1" stroke="rgb(0,0,0)" stroke-linejoin="miter" stroke-linecap="butt" stroke-miterlimit="4"/></g></g></svg>