<?xml version="1.0" standalone="no"?><!-- Generator: Gravit.io --><svg xmlns="http://www.w3.org/2000/svg" xmlns:xlink="http://www.w3.org/1999/xlink" style="isolation:isolate" viewBox="0 0 841.89 595.276" width="841.89" height="595.276"><defs><clipPath id="_clipPath_bdhoSalLGa5dkcOWEa94m46Md2yZLSyU"><rect width="841.89" height="595.276"/></clipPath></defs><g clip-path="url(#_clipPath_bdhoSalLGa5dkcOWEa94m46Md2yZLSyU)"><g style="isolation:isolate"><g><rect x="100" y="447" width="90" height="35" transform="matrix(1,0,0,1,0,0)" fill="rgb(221,217,216)"/><path d=" M 135.398 472.259 L 133.68 472.259 L 131.902 467.718 L 126.18 467.718 L 124.422 472.259 L 122.742 472.259 L 128.387 457.923 L 129.783 457.923 L 135.398 472.259 L 135.398 472.259 Z  M 126.766 466.224 L 131.385 466.224 L 129.725 461.8 L 129.725 461.8 Q 129.402 460.96 129.061 459.739 L 129.061 459.739 L 129.061 459.739 Q 128.846 460.677 128.445 461.8 L 128.445 461.8 L 126.766 466.224 L 126.766 466.224 Z  M 138.738 457.063 L 138.738 472.259 L 137.117 472.259 L 137.117 457.063 L 138.738 457.063 L 138.738 457.063 Z  M 143.797 461.556 L 143.797 472.259 L 142.176 472.259 L 142.176 461.556 L 143.797 461.556 L 143.797 461.556 Z  M 142.039 458.655 L 142.039 458.655 L 142.039 458.655 Q 142.039 458.099 142.313 457.84 L 142.313 457.84 L 142.313 457.84 Q 142.586 457.581 142.996 457.581 L 142.996 457.581 L 142.996 457.581 Q 143.387 457.581 143.67 457.845 L 143.67 457.845 L 143.67 457.845 Q 143.953 458.108 143.953 458.655 L 143.953 458.655 L 143.953 458.655 Q 143.953 459.202 143.67 459.471 L 143.67 459.471 L 143.67 459.471 Q 143.387 459.739 142.996 459.739 L 142.996 459.739 L 142.996 459.739 Q 142.586 459.739 142.313 459.471 L 142.313 459.471 L 142.313 459.471 Q 142.039 459.202 142.039 458.655 Z  M 151.512 472.454 L 151.512 472.454 L 151.512 472.454 Q 149.188 472.454 147.913 471.023 L 147.913 471.023 L 147.913 471.023 Q 146.639 469.593 146.639 466.976 L 146.639 466.976 L 146.639 466.976 Q 146.639 464.29 147.933 462.825 L 147.933 462.825 L 147.933 462.825 Q 149.227 461.36 151.619 461.36 L 151.619 461.36 L 151.619 461.36 Q 152.391 461.36 153.162 461.526 L 153.162 461.526 L 153.162 461.526 Q 153.934 461.692 154.373 461.917 L 154.373 461.917 L 153.875 463.294 L 153.875 463.294 Q 153.338 463.079 152.703 462.938 L 152.703 462.938 L 152.703 462.938 Q 152.068 462.796 151.58 462.796 L 151.58 462.796 L 151.58 462.796 Q 148.318 462.796 148.318 466.956 L 148.318 466.956 L 148.318 466.956 Q 148.318 468.929 149.114 469.983 L 149.114 469.983 L 149.114 469.983 Q 149.91 471.038 151.473 471.038 L 151.473 471.038 L 151.473 471.038 Q 152.811 471.038 154.217 470.462 L 154.217 470.462 L 154.217 471.897 L 154.217 471.897 Q 153.143 472.454 151.512 472.454 Z  M 161.277 472.454 L 161.277 472.454 L 161.277 472.454 Q 158.904 472.454 157.532 471.009 L 157.532 471.009 L 157.532 471.009 Q 156.16 469.563 156.16 466.995 L 156.16 466.995 L 156.16 466.995 Q 156.16 464.407 157.435 462.884 L 157.435 462.884 L 157.435 462.884 Q 158.709 461.36 160.857 461.36 L 160.857 461.36 L 160.857 461.36 Q 162.869 461.36 164.041 462.684 L 164.041 462.684 L 164.041 462.684 Q 165.213 464.007 165.213 466.175 L 165.213 466.175 L 165.213 467.2 L 157.84 467.2 L 157.84 467.2 Q 157.889 469.085 158.792 470.062 L 158.792 470.062 L 158.792 470.062 Q 159.695 471.038 161.336 471.038 L 161.336 471.038 L 161.336 471.038 Q 163.064 471.038 164.754 470.315 L 164.754 470.315 L 164.754 471.761 L 164.754 471.761 Q 163.895 472.132 163.128 472.293 L 163.128 472.293 L 163.128 472.293 Q 162.361 472.454 161.277 472.454 Z  M 160.838 462.718 L 160.838 462.718 L 160.838 462.718 Q 159.549 462.718 158.782 463.558 L 158.782 463.558 L 158.782 463.558 Q 158.016 464.397 157.879 465.882 L 157.879 465.882 L 163.475 465.882 L 163.475 465.882 Q 163.475 464.349 162.791 463.533 L 162.791 463.533 L 162.791 463.533 Q 162.107 462.718 160.838 462.718 Z " fill-rule="evenodd" fill="rgb(0,0,0)"/></g><g><rect x="284" y="447" width="90" height="35" transform="matrix(1,0,0,1,0,0)" fill="rgb(221,217,216)"/><path d=" M 311.815 472.259 L 311.815 457.981 L 315.849 457.981 L 315.849 457.981 Q 318.69 457.981 319.96 458.831 L 319.96 458.831 L 319.96 458.831 Q 321.229 459.681 321.229 461.517 L 321.229 461.517 L 321.229 461.517 Q 321.229 462.786 320.521 463.611 L 320.521 463.611 L 320.521 463.611 Q 319.813 464.437 318.456 464.681 L 318.456 464.681 L 318.456 464.778 L 318.456 464.778 Q 321.708 465.335 321.708 468.196 L 321.708 468.196 L 321.708 468.196 Q 321.708 470.11 320.414 471.185 L 320.414 471.185 L 320.414 471.185 Q 319.12 472.259 316.796 472.259 L 316.796 472.259 L 311.815 472.259 L 311.815 472.259 Z  M 313.476 459.417 L 313.476 464.095 L 316.21 464.095 L 316.21 464.095 Q 317.968 464.095 318.739 463.543 L 318.739 463.543 L 318.739 463.543 Q 319.511 462.991 319.511 461.683 L 319.511 461.683 L 319.511 461.683 Q 319.511 460.481 318.651 459.949 L 318.651 459.949 L 318.651 459.949 Q 317.792 459.417 315.917 459.417 L 315.917 459.417 L 313.476 459.417 L 313.476 459.417 Z  M 316.317 465.501 L 313.476 465.501 L 313.476 470.843 L 316.454 470.843 L 316.454 470.843 Q 318.183 470.843 319.057 470.174 L 319.057 470.174 L 319.057 470.174 Q 319.931 469.505 319.931 468.079 L 319.931 468.079 L 319.931 468.079 Q 319.931 466.751 319.037 466.126 L 319.037 466.126 L 319.037 466.126 Q 318.144 465.501 316.317 465.501 L 316.317 465.501 L 316.317 465.501 Z  M 333.769 466.897 L 333.769 466.897 L 333.769 466.897 Q 333.769 469.515 332.45 470.984 L 332.45 470.984 L 332.45 470.984 Q 331.132 472.454 328.808 472.454 L 328.808 472.454 L 328.808 472.454 Q 327.372 472.454 326.259 471.78 L 326.259 471.78 L 326.259 471.78 Q 325.146 471.106 324.54 469.847 L 324.54 469.847 L 324.54 469.847 Q 323.935 468.587 323.935 466.897 L 323.935 466.897 L 323.935 466.897 Q 323.935 464.28 325.243 462.82 L 325.243 462.82 L 325.243 462.82 Q 326.552 461.36 328.876 461.36 L 328.876 461.36 L 328.876 461.36 Q 331.122 461.36 332.445 462.854 L 332.445 462.854 L 332.445 462.854 Q 333.769 464.349 333.769 466.897 Z  M 325.614 466.897 L 325.614 466.897 L 325.614 466.897 Q 325.614 468.948 326.435 470.022 L 326.435 470.022 L 326.435 470.022 Q 327.255 471.097 328.847 471.097 L 328.847 471.097 L 328.847 471.097 Q 330.438 471.097 331.264 470.027 L 331.264 470.027 L 331.264 470.027 Q 332.089 468.958 332.089 466.897 L 332.089 466.897 L 332.089 466.897 Q 332.089 464.856 331.264 463.797 L 331.264 463.797 L 331.264 463.797 Q 330.438 462.737 328.827 462.737 L 328.827 462.737 L 328.827 462.737 Q 327.235 462.737 326.425 463.782 L 326.425 463.782 L 326.425 463.782 Q 325.614 464.827 325.614 466.897 Z  M 341.591 461.38 L 341.591 461.38 L 341.591 461.38 Q 343.7 461.38 344.867 462.82 L 344.867 462.82 L 344.867 462.82 Q 346.034 464.261 346.034 466.897 L 346.034 466.897 L 346.034 466.897 Q 346.034 469.534 344.857 470.994 L 344.857 470.994 L 344.857 470.994 Q 343.681 472.454 341.591 472.454 L 341.591 472.454 L 341.591 472.454 Q 340.546 472.454 339.682 472.068 L 339.682 472.068 L 339.682 472.068 Q 338.817 471.683 338.231 470.882 L 338.231 470.882 L 338.114 470.882 L 337.772 472.259 L 336.61 472.259 L 336.61 457.063 L 338.231 457.063 L 338.231 460.755 L 338.231 460.755 Q 338.231 461.995 338.153 462.981 L 338.153 462.981 L 338.231 462.981 L 338.231 462.981 Q 339.364 461.38 341.591 461.38 Z  M 341.356 462.737 L 341.356 462.737 L 341.356 462.737 Q 339.696 462.737 338.964 463.689 L 338.964 463.689 L 338.964 463.689 Q 338.231 464.642 338.231 466.897 L 338.231 466.897 L 338.231 466.897 Q 338.231 469.153 338.983 470.125 L 338.983 470.125 L 338.983 470.125 Q 339.735 471.097 341.396 471.097 L 341.396 471.097 L 341.396 471.097 Q 342.89 471.097 343.622 470.008 L 343.622 470.008 L 343.622 470.008 Q 344.354 468.919 344.354 466.878 L 344.354 466.878 L 344.354 466.878 Q 344.354 464.788 343.622 463.763 L 343.622 463.763 L 343.622 463.763 Q 342.89 462.737 341.356 462.737 Z " fill-rule="evenodd" fill="rgb(0,0,0)"/></g><g><rect x="467" y="447" width="90" height="35" transform="matrix(1,0,0,1,0,0)" fill="rgb(221,217,216)"/><path d=" M 495.055 459.261 L 495.055 459.261 L 495.055 459.261 Q 492.701 459.261 491.339 460.828 L 491.339 460.828 L 491.339 460.828 Q 489.977 462.396 489.977 465.12 L 489.977 465.12 L 489.977 465.12 Q 489.977 467.923 491.29 469.451 L 491.29 469.451 L 491.29 469.451 Q 492.604 470.979 495.035 470.979 L 495.035 470.979 L 495.035 470.979 Q 496.529 470.979 498.443 470.442 L 498.443 470.442 L 498.443 471.897 L 498.443 471.897 Q 496.959 472.454 494.781 472.454 L 494.781 472.454 L 494.781 472.454 Q 491.627 472.454 489.913 470.54 L 489.913 470.54 L 489.913 470.54 Q 488.199 468.626 488.199 465.101 L 488.199 465.101 L 488.199 465.101 Q 488.199 462.894 489.024 461.233 L 489.024 461.233 L 489.024 461.233 Q 489.85 459.573 491.407 458.675 L 491.407 458.675 L 491.407 458.675 Q 492.965 457.776 495.074 457.776 L 495.074 457.776 L 495.074 457.776 Q 497.32 457.776 499 458.597 L 499 458.597 L 498.297 460.022 L 498.297 460.022 Q 496.676 459.261 495.055 459.261 Z  M 509.098 472.259 L 507.896 472.259 L 507.574 470.735 L 507.496 470.735 L 507.496 470.735 Q 506.695 471.741 505.899 472.098 L 505.899 472.098 L 505.899 472.098 Q 505.104 472.454 503.912 472.454 L 503.912 472.454 L 503.912 472.454 Q 502.32 472.454 501.417 471.634 L 501.417 471.634 L 501.417 471.634 Q 500.514 470.813 500.514 469.3 L 500.514 469.3 L 500.514 469.3 Q 500.514 466.058 505.699 465.901 L 505.699 465.901 L 507.516 465.843 L 507.516 465.179 L 507.516 465.179 Q 507.516 463.919 506.974 463.318 L 506.974 463.318 L 506.974 463.318 Q 506.432 462.718 505.24 462.718 L 505.24 462.718 L 505.24 462.718 Q 503.902 462.718 502.213 463.538 L 502.213 463.538 L 501.715 462.298 L 501.715 462.298 Q 502.506 461.868 503.448 461.624 L 503.448 461.624 L 503.448 461.624 Q 504.391 461.38 505.338 461.38 L 505.338 461.38 L 505.338 461.38 Q 507.252 461.38 508.175 462.229 L 508.175 462.229 L 508.175 462.229 Q 509.098 463.079 509.098 464.954 L 509.098 464.954 L 509.098 472.259 L 509.098 472.259 Z  M 504.234 471.116 L 504.234 471.116 L 504.234 471.116 Q 505.748 471.116 506.612 470.286 L 506.612 470.286 L 506.612 470.286 Q 507.477 469.456 507.477 467.962 L 507.477 467.962 L 507.477 466.995 L 505.855 467.063 L 505.855 467.063 Q 503.922 467.132 503.067 467.664 L 503.067 467.664 L 503.067 467.664 Q 502.213 468.196 502.213 469.319 L 502.213 469.319 L 502.213 469.319 Q 502.213 470.198 502.745 470.657 L 502.745 470.657 L 502.745 470.657 Q 503.277 471.116 504.234 471.116 Z  M 517.32 461.36 L 517.32 461.36 L 517.32 461.36 Q 518.033 461.36 518.6 461.478 L 518.6 461.478 L 518.375 462.981 L 518.375 462.981 Q 517.711 462.835 517.203 462.835 L 517.203 462.835 L 517.203 462.835 Q 515.904 462.835 514.981 463.89 L 514.981 463.89 L 514.981 463.89 Q 514.059 464.944 514.059 466.517 L 514.059 466.517 L 514.059 472.259 L 512.438 472.259 L 512.438 461.556 L 513.775 461.556 L 513.961 463.538 L 514.039 463.538 L 514.039 463.538 Q 514.635 462.493 515.475 461.927 L 515.475 461.927 L 515.475 461.927 Q 516.314 461.36 517.32 461.36 Z  M 529.84 466.897 L 529.84 466.897 L 529.84 466.897 Q 529.84 469.515 528.521 470.984 L 528.521 470.984 L 528.521 470.984 Q 527.203 472.454 524.879 472.454 L 524.879 472.454 L 524.879 472.454 Q 523.443 472.454 522.33 471.78 L 522.33 471.78 L 522.33 471.78 Q 521.217 471.106 520.611 469.847 L 520.611 469.847 L 520.611 469.847 Q 520.006 468.587 520.006 466.897 L 520.006 466.897 L 520.006 466.897 Q 520.006 464.28 521.314 462.82 L 521.314 462.82 L 521.314 462.82 Q 522.623 461.36 524.947 461.36 L 524.947 461.36 L 524.947 461.36 Q 527.193 461.36 528.517 462.854 L 528.517 462.854 L 528.517 462.854 Q 529.84 464.349 529.84 466.897 Z  M 521.686 466.897 L 521.686 466.897 L 521.686 466.897 Q 521.686 468.948 522.506 470.022 L 522.506 470.022 L 522.506 470.022 Q 523.326 471.097 524.918 471.097 L 524.918 471.097 L 524.918 471.097 Q 526.51 471.097 527.335 470.027 L 527.335 470.027 L 527.335 470.027 Q 528.16 468.958 528.16 466.897 L 528.16 466.897 L 528.16 466.897 Q 528.16 464.856 527.335 463.797 L 527.335 463.797 L 527.335 463.797 Q 526.51 462.737 524.898 462.737 L 524.898 462.737 L 524.898 462.737 Q 523.307 462.737 522.496 463.782 L 522.496 463.782 L 522.496 463.782 Q 521.686 464.827 521.686 466.897 Z  M 534.303 457.063 L 534.303 472.259 L 532.682 472.259 L 532.682 457.063 L 534.303 457.063 L 534.303 457.063 Z " fill-rule="evenodd" fill="rgb(0,0,0)"/></g><g><rect x="651" y="447" width="90" height="35" transform="matrix(1,0,0,1,0,0)" fill="rgb(221,217,216)"/><path d=" M 685.388 464.983 L 685.388 464.983 L 685.388 464.983 Q 685.388 468.519 683.469 470.389 L 683.469 470.389 L 683.469 470.389 Q 681.55 472.259 677.946 472.259 L 677.946 472.259 L 673.991 472.259 L 673.991 457.981 L 678.366 457.981 L 678.366 457.981 Q 681.696 457.981 683.542 459.827 L 683.542 459.827 L 683.542 459.827 Q 685.388 461.673 685.388 464.983 Z  M 683.63 465.042 L 683.63 465.042 L 683.63 465.042 Q 683.63 462.249 682.229 460.833 L 682.229 460.833 L 682.229 460.833 Q 680.827 459.417 678.063 459.417 L 678.063 459.417 L 675.651 459.417 L 675.651 470.823 L 677.673 470.823 L 677.673 470.823 Q 680.642 470.823 682.136 469.363 L 682.136 469.363 L 682.136 469.363 Q 683.63 467.903 683.63 465.042 Z  M 696.11 472.259 L 694.909 472.259 L 694.587 470.735 L 694.509 470.735 L 694.509 470.735 Q 693.708 471.741 692.912 472.098 L 692.912 472.098 L 692.912 472.098 Q 692.116 472.454 690.925 472.454 L 690.925 472.454 L 690.925 472.454 Q 689.333 472.454 688.43 471.634 L 688.43 471.634 L 688.43 471.634 Q 687.526 470.813 687.526 469.3 L 687.526 469.3 L 687.526 469.3 Q 687.526 466.058 692.712 465.901 L 692.712 465.901 L 694.528 465.843 L 694.528 465.179 L 694.528 465.179 Q 694.528 463.919 693.986 463.318 L 693.986 463.318 L 693.986 463.318 Q 693.444 462.718 692.253 462.718 L 692.253 462.718 L 692.253 462.718 Q 690.915 462.718 689.226 463.538 L 689.226 463.538 L 688.728 462.298 L 688.728 462.298 Q 689.519 461.868 690.461 461.624 L 690.461 461.624 L 690.461 461.624 Q 691.403 461.38 692.351 461.38 L 692.351 461.38 L 692.351 461.38 Q 694.265 461.38 695.188 462.229 L 695.188 462.229 L 695.188 462.229 Q 696.11 463.079 696.11 464.954 L 696.11 464.954 L 696.11 472.259 L 696.11 472.259 Z  M 691.247 471.116 L 691.247 471.116 L 691.247 471.116 Q 692.761 471.116 693.625 470.286 L 693.625 470.286 L 693.625 470.286 Q 694.489 469.456 694.489 467.962 L 694.489 467.962 L 694.489 466.995 L 692.868 467.063 L 692.868 467.063 Q 690.935 467.132 690.08 467.664 L 690.08 467.664 L 690.08 467.664 Q 689.226 468.196 689.226 469.319 L 689.226 469.319 L 689.226 469.319 Q 689.226 470.198 689.758 470.657 L 689.758 470.657 L 689.758 470.657 Q 690.29 471.116 691.247 471.116 Z  M 703.688 472.259 L 701.794 472.259 L 697.731 461.556 L 699.47 461.556 L 701.774 467.903 L 701.774 467.903 Q 702.556 470.13 702.692 470.794 L 702.692 470.794 L 702.771 470.794 L 702.771 470.794 Q 702.878 470.276 703.449 468.65 L 703.449 468.65 L 703.449 468.65 Q 704.021 467.024 706.013 461.556 L 706.013 461.556 L 707.751 461.556 L 703.688 472.259 L 703.688 472.259 Z  M 713.991 472.454 L 713.991 472.454 L 713.991 472.454 Q 711.618 472.454 710.246 471.009 L 710.246 471.009 L 710.246 471.009 Q 708.874 469.563 708.874 466.995 L 708.874 466.995 L 708.874 466.995 Q 708.874 464.407 710.148 462.884 L 710.148 462.884 L 710.148 462.884 Q 711.423 461.36 713.571 461.36 L 713.571 461.36 L 713.571 461.36 Q 715.583 461.36 716.755 462.684 L 716.755 462.684 L 716.755 462.684 Q 717.927 464.007 717.927 466.175 L 717.927 466.175 L 717.927 467.2 L 710.554 467.2 L 710.554 467.2 Q 710.603 469.085 711.506 470.062 L 711.506 470.062 L 711.506 470.062 Q 712.409 471.038 714.05 471.038 L 714.05 471.038 L 714.05 471.038 Q 715.778 471.038 717.468 470.315 L 717.468 470.315 L 717.468 471.761 L 717.468 471.761 Q 716.608 472.132 715.842 472.293 L 715.842 472.293 L 715.842 472.293 Q 715.075 472.454 713.991 472.454 Z  M 713.552 462.718 L 713.552 462.718 L 713.552 462.718 Q 712.263 462.718 711.496 463.558 L 711.496 463.558 L 711.496 463.558 Q 710.729 464.397 710.593 465.882 L 710.593 465.882 L 716.188 465.882 L 716.188 465.882 Q 716.188 464.349 715.505 463.533 L 715.505 463.533 L 715.505 463.533 Q 714.821 462.718 713.552 462.718 Z " fill-rule="evenodd" fill="rgb(0,0,0)"/></g></g><g style="isolation:isolate"><path d=" M 262.824 130.944 L 262.824 130.944 Q 263.184 132.168 263.184 134.112 L 263.184 134.112 L 263.184 134.112 Q 259.872 133.896 254.544 133.896 L 254.544 133.896 L 254.544 133.896 Q 249.432 133.896 245.76 134.112 L 245.76 134.112 L 245.76 134.112 Q 245.76 132.384 246.192 131.016 L 246.192 131.016 L 246.192 131.016 Q 248.928 130.728 249.864 129.792 L 249.864 129.792 L 249.864 129.792 Q 250.8 128.856 250.8 126.336 L 250.8 126.336 L 250.8 126.336 Q 250.8 124.896 250.584 122.736 L 250.584 122.736 L 247.992 98.04 L 233.088 134.04 L 233.088 134.04 Q 231.864 134.544 230.136 134.544 L 230.136 134.544 L 213.36 98.112 L 211.056 121.224 L 211.056 121.224 Q 210.84 123.384 210.84 124.968 L 210.84 124.968 L 210.84 124.968 Q 210.84 128.28 211.956 129.54 L 211.956 129.54 L 211.956 129.54 Q 213.072 130.8 215.736 131.016 L 215.736 131.016 L 215.736 131.016 Q 216.096 132.24 216.096 134.112 L 216.096 134.112 L 216.096 134.112 Q 212.64 133.896 208.392 133.896 L 208.392 133.896 L 208.392 133.896 Q 204.144 133.896 201.192 134.112 L 201.192 134.112 L 201.192 134.112 Q 201.192 132.24 201.552 131.016 L 201.552 131.016 L 201.552 131.016 Q 203.568 130.8 204.648 130.008 L 204.648 130.008 L 204.648 130.008 Q 205.728 129.216 206.34 127.092 L 206.34 127.092 L 206.34 127.092 Q 206.952 124.968 207.384 120.576 L 207.384 120.576 L 209.688 94.944 L 209.688 94.944 Q 209.76 94.296 209.76 93.216 L 209.76 93.216 L 209.76 93.216 Q 209.76 90.408 208.608 89.256 L 208.608 89.256 L 208.608 89.256 Q 207.456 88.104 204.864 88.104 L 204.864 88.104 L 204.864 88.104 Q 204.504 86.952 204.504 85.008 L 204.504 85.008 L 204.504 85.008 Q 206.664 85.224 209.976 85.224 L 209.976 85.224 L 209.976 85.224 Q 212.64 85.224 215.448 85.008 L 215.448 85.008 L 233.448 124.824 L 249.144 85.008 L 249.144 85.008 Q 251.592 85.224 254.76 85.224 L 254.76 85.224 L 254.76 85.224 Q 257.352 85.224 260.232 85.008 L 260.232 85.008 L 260.232 85.008 Q 260.232 86.736 259.872 88.104 L 259.872 88.104 L 259.872 88.104 Q 257.424 88.104 256.164 89.328 L 256.164 89.328 L 256.164 89.328 Q 254.904 90.552 254.904 93.576 L 254.904 93.576 L 254.904 93.576 Q 254.904 94.728 254.976 95.376 L 254.976 95.376 L 257.568 121.8 L 257.568 121.8 Q 257.928 125.4 258.504 127.308 L 258.504 127.308 L 258.504 127.308 Q 259.08 129.216 260.088 130.008 L 260.088 130.008 L 260.088 130.008 Q 261.096 130.8 262.824 130.944 L 262.824 130.944 L 262.824 130.944 Z  M 294.936 126.336 L 294.936 126.336 Q 295.512 126.696 296.052 127.344 L 296.052 127.344 L 296.052 127.344 Q 296.592 127.992 296.664 128.568 L 296.664 128.568 L 296.664 128.568 Q 294.216 131.736 291.084 133.14 L 291.084 133.14 L 291.084 133.14 Q 287.952 134.544 283.848 134.544 L 283.848 134.544 L 283.848 134.544 Q 278.88 134.544 275.46 132.276 L 275.46 132.276 L 275.46 132.276 Q 272.04 130.008 270.312 126.12 L 270.312 126.12 L 270.312 126.12 Q 268.584 122.232 268.584 117.408 L 268.584 117.408 L 268.584 117.408 Q 268.584 112.728 270.42 108.84 L 270.42 108.84 L 270.42 108.84 Q 272.256 104.952 275.64 102.612 L 275.64 102.612 L 275.64 102.612 Q 279.024 100.272 283.488 100.272 L 283.488 100.272 L 283.488 100.272 Q 290.04 100.272 293.244 104.34 L 293.244 104.34 L 293.244 104.34 Q 296.448 108.408 296.952 115.176 L 296.952 115.176 L 296.952 115.176 Q 296.664 116.616 295.872 117.624 L 295.872 117.624 L 295.872 117.624 Q 283.2 117.624 275.712 117.984 L 275.712 117.984 L 275.712 117.984 Q 276.072 123.528 278.484 127.02 L 278.484 127.02 L 278.484 127.02 Q 280.896 130.512 286.152 130.512 L 286.152 130.512 L 286.152 130.512 Q 288.6 130.512 290.904 129.432 L 290.904 129.432 L 290.904 129.432 Q 293.208 128.352 294.936 126.336 L 294.936 126.336 L 294.936 126.336 Z  M 282.84 103.728 L 282.84 103.728 Q 279.96 103.728 277.944 106.176 L 277.944 106.176 L 277.944 106.176 Q 275.928 108.624 275.64 114.384 L 275.64 114.384 L 289.464 114.384 L 289.464 114.384 Q 289.464 109.56 287.7 106.644 L 287.7 106.644 L 287.7 106.644 Q 285.936 103.728 282.84 103.728 L 282.84 103.728 L 282.84 103.728 Z  M 314.808 134.544 L 314.808 134.544 Q 310.488 134.544 308.472 132.348 L 308.472 132.348 L 308.472 132.348 Q 306.456 130.152 306.456 125.256 L 306.456 125.256 L 306.456 105.744 L 306.456 105.744 Q 304.296 105.024 301.272 104.808 L 301.272 104.808 L 301.272 104.808 Q 301.272 103.152 301.92 101.64 L 301.92 101.64 L 306.456 101.64 L 306.456 92.136 L 306.456 92.136 Q 309.264 91.344 311.784 89.256 L 311.784 89.256 L 311.784 89.256 Q 312.504 89.616 312.72 90.228 L 312.72 90.228 L 312.72 90.228 Q 312.936 90.84 312.936 93 L 312.936 93 L 312.936 101.64 L 322.296 101.64 L 322.296 101.64 Q 322.296 103.152 321.648 104.808 L 321.648 104.808 L 321.648 104.808 Q 316.32 105.024 312.936 105.744 L 312.936 105.744 L 312.936 123.744 L 312.936 123.744 Q 312.936 130.656 317.112 130.656 L 317.112 130.656 L 317.112 130.656 Q 318.552 130.656 319.668 130.224 L 319.668 130.224 L 319.668 130.224 Q 320.784 129.792 321.864 128.928 L 321.864 128.928 L 321.864 128.928 Q 322.8 130.008 322.944 131.304 L 322.944 131.304 L 322.944 131.304 Q 321.72 132.672 319.38 133.608 L 319.38 133.608 L 319.38 133.608 Q 317.04 134.544 314.808 134.544 L 314.808 134.544 L 314.808 134.544 Z  M 353.616 123.384 L 353.616 123.384 Q 353.616 125.616 353.94 126.732 L 353.94 126.732 L 353.94 126.732 Q 354.264 127.848 355.2 128.352 L 355.2 128.352 L 355.2 128.352 Q 356.136 128.856 358.08 129 L 358.08 129 L 358.08 129 Q 358.08 131.088 357.648 132.312 L 357.648 132.312 L 357.648 132.312 Q 355.848 132.456 353.652 133.068 L 353.652 133.068 L 353.652 133.068 Q 351.456 133.68 349.8 134.544 L 349.8 134.544 L 349.8 134.544 Q 348.936 134.184 348.504 133.212 L 348.504 133.212 L 348.504 133.212 Q 348.072 132.24 348.072 130.296 L 348.072 130.296 L 348.072 130.296 Q 348.072 129.072 348.144 128.424 L 348.144 128.424 L 348.144 128.424 Q 347.28 130.512 345.624 131.952 L 345.624 131.952 L 345.624 131.952 Q 342.816 134.4 337.992 134.4 L 337.992 134.4 L 337.992 134.4 Q 333.528 134.4 331.116 132.384 L 331.116 132.384 L 331.116 132.384 Q 328.704 130.368 328.704 126.768 L 328.704 126.768 L 328.704 126.768 Q 328.704 122.52 331.8 119.964 L 331.8 119.964 L 331.8 119.964 Q 334.896 117.408 338.712 116.328 L 338.712 116.328 L 338.712 116.328 Q 342.528 115.248 347.136 114.6 L 347.136 114.6 L 347.136 114.6 Q 347.136 110.208 346.848 108.516 L 346.848 108.516 L 346.848 108.516 Q 346.56 106.824 345.624 105.672 L 345.624 105.672 L 345.624 105.672 Q 343.896 103.512 341.16 103.512 L 341.16 103.512 L 341.16 103.512 Q 337.92 103.512 336.444 106.176 L 336.444 106.176 L 336.444 106.176 Q 334.968 108.84 334.824 111.864 L 334.824 111.864 L 334.824 111.864 Q 333.888 111.864 332.736 111.72 L 332.736 111.72 L 332.736 111.72 Q 331.584 111.576 331.08 111.36 L 331.08 111.36 L 331.08 111.36 Q 331.152 110.64 331.152 108.912 L 331.152 108.912 L 331.152 108.912 Q 331.152 105.744 330.72 103.512 L 330.72 103.512 L 330.72 103.512 Q 333.6 102 336.912 101.136 L 336.912 101.136 L 336.912 101.136 Q 340.224 100.272 342.96 100.272 L 342.96 100.272 L 342.96 100.272 Q 347.856 100.272 350.592 103.008 L 350.592 103.008 L 350.592 103.008 Q 352.32 104.736 352.968 107.58 L 352.968 107.58 L 352.968 107.58 Q 353.616 110.424 353.616 115.464 L 353.616 115.464 L 353.616 123.384 L 353.616 123.384 Z  M 347.136 120.288 L 347.136 117.552 L 347.136 117.552 Q 343.68 117.984 341.376 118.596 L 341.376 118.596 L 341.376 118.596 Q 339.072 119.208 337.38 120.828 L 337.38 120.828 L 337.38 120.828 Q 335.688 122.448 335.688 125.328 L 335.688 125.328 L 335.688 125.328 Q 335.688 127.848 336.912 129.144 L 336.912 129.144 L 336.912 129.144 Q 338.136 130.44 340.008 130.44 L 340.008 130.44 L 340.008 130.44 Q 341.736 130.44 343.356 129.36 L 343.356 129.36 L 343.356 129.36 Q 344.976 128.28 346.056 125.976 L 346.056 125.976 L 346.056 125.976 Q 347.136 123.672 347.136 120.288 L 347.136 120.288 L 347.136 120.288 Z  M 386.808 112.728 L 386.808 112.728 Q 386.808 115.536 385.872 117.408 L 385.872 117.408 L 385.872 117.408 Q 375.504 117.408 365.28 117.696 L 365.28 117.696 L 365.28 117.696 Q 365.28 116.472 365.604 115.068 L 365.604 115.068 L 365.604 115.068 Q 365.928 113.664 366.432 112.728 L 366.432 112.728 L 386.808 112.728 L 386.808 112.728 Z  M 420.36 126.336 L 420.36 126.336 Q 420.936 126.696 421.476 127.344 L 421.476 127.344 L 421.476 127.344 Q 422.016 127.992 422.088 128.568 L 422.088 128.568 L 422.088 128.568 Q 419.64 131.736 416.508 133.14 L 416.508 133.14 L 416.508 133.14 Q 413.376 134.544 409.272 134.544 L 409.272 134.544 L 409.272 134.544 Q 404.304 134.544 400.884 132.276 L 400.884 132.276 L 400.884 132.276 Q 397.464 130.008 395.736 126.12 L 395.736 126.12 L 395.736 126.12 Q 394.008 122.232 394.008 117.408 L 394.008 117.408 L 394.008 117.408 Q 394.008 112.728 395.844 108.84 L 395.844 108.84 L 395.844 108.84 Q 397.68 104.952 401.064 102.612 L 401.064 102.612 L 401.064 102.612 Q 404.448 100.272 408.912 100.272 L 408.912 100.272 L 408.912 100.272 Q 415.464 100.272 418.668 104.34 L 418.668 104.34 L 418.668 104.34 Q 421.872 108.408 422.376 115.176 L 422.376 115.176 L 422.376 115.176 Q 422.088 116.616 421.296 117.624 L 421.296 117.624 L 421.296 117.624 Q 408.624 117.624 401.136 117.984 L 401.136 117.984 L 401.136 117.984 Q 401.496 123.528 403.908 127.02 L 403.908 127.02 L 403.908 127.02 Q 406.32 130.512 411.576 130.512 L 411.576 130.512 L 411.576 130.512 Q 414.024 130.512 416.328 129.432 L 416.328 129.432 L 416.328 129.432 Q 418.632 128.352 420.36 126.336 L 420.36 126.336 L 420.36 126.336 Z  M 408.264 103.728 L 408.264 103.728 Q 405.384 103.728 403.368 106.176 L 403.368 106.176 L 403.368 106.176 Q 401.352 108.624 401.064 114.384 L 401.064 114.384 L 414.888 114.384 L 414.888 114.384 Q 414.888 109.56 413.124 106.644 L 413.124 106.644 L 413.124 106.644 Q 411.36 103.728 408.264 103.728 L 408.264 103.728 L 408.264 103.728 Z  M 427.848 134.112 L 427.848 134.112 Q 427.848 132.168 428.208 131.016 L 428.208 131.016 L 428.208 131.016 Q 431.088 131.016 432.132 129.684 L 432.132 129.684 L 432.132 129.684 Q 433.176 128.352 433.176 124.752 L 433.176 124.752 L 433.176 92.496 L 433.176 92.496 Q 433.176 90.624 432.816 89.544 L 432.816 89.544 L 432.816 89.544 Q 432.456 88.464 431.304 87.924 L 431.304 87.924 L 431.304 87.924 Q 430.152 87.384 427.776 87.384 L 427.776 87.384 L 427.776 87.384 Q 427.776 85.728 428.424 84.72 L 428.424 84.72 L 428.424 84.72 Q 430.224 84.72 433.536 83.928 L 433.536 83.928 L 433.536 83.928 Q 436.848 83.136 438.072 82.272 L 438.072 82.272 L 438.072 82.272 Q 439.656 82.776 439.656 85.152 L 439.656 85.152 L 439.656 124.752 L 439.656 124.752 Q 439.656 128.352 440.592 129.684 L 440.592 129.684 L 440.592 129.684 Q 441.528 131.016 443.904 131.016 L 443.904 131.016 L 443.904 131.016 Q 444.264 132.24 444.264 134.112 L 444.264 134.112 L 444.264 134.112 Q 440.52 133.896 436.128 133.896 L 436.128 133.896 L 436.128 133.896 Q 431.448 133.896 427.848 134.112 L 427.848 134.112 L 427.848 134.112 Z  M 476.016 126.336 L 476.016 126.336 Q 476.592 126.696 477.132 127.344 L 477.132 127.344 L 477.132 127.344 Q 477.672 127.992 477.744 128.568 L 477.744 128.568 L 477.744 128.568 Q 475.296 131.736 472.164 133.14 L 472.164 133.14 L 472.164 133.14 Q 469.032 134.544 464.928 134.544 L 464.928 134.544 L 464.928 134.544 Q 459.96 134.544 456.54 132.276 L 456.54 132.276 L 456.54 132.276 Q 453.12 130.008 451.392 126.12 L 451.392 126.12 L 451.392 126.12 Q 449.664 122.232 449.664 117.408 L 449.664 117.408 L 449.664 117.408 Q 449.664 112.728 451.5 108.84 L 451.5 108.84 L 451.5 108.84 Q 453.336 104.952 456.72 102.612 L 456.72 102.612 L 456.72 102.612 Q 460.104 100.272 464.568 100.272 L 464.568 100.272 L 464.568 100.272 Q 471.12 100.272 474.324 104.34 L 474.324 104.34 L 474.324 104.34 Q 477.528 108.408 478.032 115.176 L 478.032 115.176 L 478.032 115.176 Q 477.744 116.616 476.952 117.624 L 476.952 117.624 L 476.952 117.624 Q 464.28 117.624 456.792 117.984 L 456.792 117.984 L 456.792 117.984 Q 457.152 123.528 459.564 127.02 L 459.564 127.02 L 459.564 127.02 Q 461.976 130.512 467.232 130.512 L 467.232 130.512 L 467.232 130.512 Q 469.68 130.512 471.984 129.432 L 471.984 129.432 L 471.984 129.432 Q 474.288 128.352 476.016 126.336 L 476.016 126.336 L 476.016 126.336 Z  M 463.92 103.728 L 463.92 103.728 Q 461.04 103.728 459.024 106.176 L 459.024 106.176 L 459.024 106.176 Q 457.008 108.624 456.72 114.384 L 456.72 114.384 L 470.544 114.384 L 470.544 114.384 Q 470.544 109.56 468.78 106.644 L 468.78 106.644 L 468.78 106.644 Q 467.016 103.728 463.92 103.728 L 463.92 103.728 L 463.92 103.728 Z  M 498.768 134.544 L 498.768 134.544 Q 494.952 134.544 491.532 132.6 L 491.532 132.6 L 491.532 132.6 Q 488.112 130.656 485.952 126.804 L 485.952 126.804 L 485.952 126.804 Q 483.792 122.952 483.792 117.552 L 483.792 117.552 L 483.792 117.552 Q 483.792 113.088 485.556 109.128 L 485.556 109.128 L 485.556 109.128 Q 487.32 105.168 490.704 102.72 L 490.704 102.72 L 490.704 102.72 Q 494.088 100.272 498.768 100.272 L 498.768 100.272 L 498.768 100.272 Q 505.536 100.272 509.64 103.512 L 509.64 103.512 L 509.64 103.512 Q 509.136 106.752 509.136 111.72 L 509.136 111.72 L 509.136 111.72 Q 508.056 112.296 505.824 112.296 L 505.824 112.296 L 505.824 112.296 Q 505.392 108.192 503.376 105.924 L 503.376 105.924 L 503.376 105.924 Q 501.36 103.656 498.192 103.656 L 498.192 103.656 L 498.192 103.656 Q 494.592 103.656 492.54 107.004 L 492.54 107.004 L 492.54 107.004 Q 490.488 110.352 490.488 116.472 L 490.488 116.472 L 490.488 116.472 Q 490.488 120.144 491.712 123.348 L 491.712 123.348 L 491.712 123.348 Q 492.936 126.552 495.24 128.496 L 495.24 128.496 L 495.24 128.496 Q 497.544 130.44 500.784 130.44 L 500.784 130.44 L 500.784 130.44 Q 503.088 130.44 505.14 129.36 L 505.14 129.36 L 505.14 129.36 Q 507.192 128.28 508.776 126.264 L 508.776 126.264 L 508.776 126.264 Q 509.352 126.552 509.856 127.092 L 509.856 127.092 L 509.856 127.092 Q 510.36 127.632 510.576 128.28 L 510.576 128.28 L 510.576 128.28 Q 506.616 134.544 498.768 134.544 L 498.768 134.544 L 498.768 134.544 Z  M 528.072 134.544 L 528.072 134.544 Q 523.752 134.544 521.736 132.348 L 521.736 132.348 L 521.736 132.348 Q 519.72 130.152 519.72 125.256 L 519.72 125.256 L 519.72 105.744 L 519.72 105.744 Q 517.56 105.024 514.536 104.808 L 514.536 104.808 L 514.536 104.808 Q 514.536 103.152 515.184 101.64 L 515.184 101.64 L 519.72 101.64 L 519.72 92.136 L 519.72 92.136 Q 522.528 91.344 525.048 89.256 L 525.048 89.256 L 525.048 89.256 Q 525.768 89.616 525.984 90.228 L 525.984 90.228 L 525.984 90.228 Q 526.2 90.84 526.2 93 L 526.2 93 L 526.2 101.64 L 535.56 101.64 L 535.56 101.64 Q 535.56 103.152 534.912 104.808 L 534.912 104.808 L 534.912 104.808 Q 529.584 105.024 526.2 105.744 L 526.2 105.744 L 526.2 123.744 L 526.2 123.744 Q 526.2 130.656 530.376 130.656 L 530.376 130.656 L 530.376 130.656 Q 531.816 130.656 532.932 130.224 L 532.932 130.224 L 532.932 130.224 Q 534.048 129.792 535.128 128.928 L 535.128 128.928 L 535.128 128.928 Q 536.064 130.008 536.208 131.304 L 536.208 131.304 L 536.208 131.304 Q 534.984 132.672 532.644 133.608 L 532.644 133.608 L 532.644 133.608 Q 530.304 134.544 528.072 134.544 L 528.072 134.544 L 528.072 134.544 Z  M 549.024 92.136 L 549.024 92.136 Q 547.224 92.136 546 90.912 L 546 90.912 L 546 90.912 Q 544.776 89.688 544.776 87.96 L 544.776 87.96 L 544.776 87.96 Q 544.776 86.088 546.036 84.828 L 546.036 84.828 L 546.036 84.828 Q 547.296 83.568 549.024 83.568 L 549.024 83.568 L 549.024 83.568 Q 550.968 83.568 552.156 84.792 L 552.156 84.792 L 552.156 84.792 Q 553.344 86.016 553.344 87.96 L 553.344 87.96 L 553.344 87.96 Q 553.344 89.616 552.084 90.876 L 552.084 90.876 L 552.084 90.876 Q 550.824 92.136 549.024 92.136 L 549.024 92.136 L 549.024 92.136 Z  M 541.032 134.112 L 541.032 134.112 Q 541.032 132.168 541.392 131.016 L 541.392 131.016 L 541.392 131.016 Q 544.272 131.016 545.316 129.684 L 545.316 129.684 L 545.316 129.684 Q 546.36 128.352 546.36 124.752 L 546.36 124.752 L 546.36 110.496 L 546.36 110.496 Q 546.36 108.624 546 107.544 L 546 107.544 L 546 107.544 Q 545.64 106.464 544.488 105.924 L 544.488 105.924 L 544.488 105.924 Q 543.336 105.384 540.96 105.384 L 540.96 105.384 L 540.96 105.384 Q 540.96 103.728 541.608 102.72 L 541.608 102.72 L 541.608 102.72 Q 543.408 102.72 546.72 101.928 L 546.72 101.928 L 546.72 101.928 Q 550.032 101.136 551.256 100.272 L 551.256 100.272 L 551.256 100.272 Q 552.84 100.776 552.84 103.152 L 552.84 103.152 L 552.84 124.752 L 552.84 124.752 Q 552.84 128.352 553.776 129.684 L 553.776 129.684 L 553.776 129.684 Q 554.712 131.016 557.088 131.016 L 557.088 131.016 L 557.088 131.016 Q 557.448 132.24 557.448 134.112 L 557.448 134.112 L 557.448 134.112 Q 553.704 133.896 549.312 133.896 L 549.312 133.896 L 549.312 133.896 Q 544.632 133.896 541.032 134.112 L 541.032 134.112 L 541.032 134.112 Z  M 579.192 134.544 L 579.192 134.544 Q 574.296 134.544 570.624 132.42 L 570.624 132.42 L 570.624 132.42 Q 566.952 130.296 564.936 126.408 L 564.936 126.408 L 564.936 126.408 Q 562.92 122.52 562.92 117.408 L 562.92 117.408 L 562.92 117.408 Q 562.92 112.584 565.008 108.66 L 565.008 108.66 L 565.008 108.66 Q 567.096 104.736 570.804 102.504 L 570.804 102.504 L 570.804 102.504 Q 574.512 100.272 579.192 100.272 L 579.192 100.272 L 579.192 100.272 Q 586.752 100.272 591.108 104.952 L 591.108 104.952 L 591.108 104.952 Q 595.464 109.632 595.464 117.408 L 595.464 117.408 L 595.464 117.408 Q 595.464 122.304 593.412 126.192 L 593.412 126.192 L 593.412 126.192 Q 591.36 130.08 587.652 132.312 L 587.652 132.312 L 587.652 132.312 Q 583.944 134.544 579.192 134.544 L 579.192 134.544 L 579.192 134.544 Z  M 579.768 131.088 L 579.768 131.088 Q 583.944 131.088 586.104 127.632 L 586.104 127.632 L 586.104 127.632 Q 588.264 124.176 588.264 118.272 L 588.264 118.272 L 588.264 118.272 Q 588.264 113.952 586.932 110.64 L 586.932 110.64 L 586.932 110.64 Q 585.6 107.328 583.368 105.528 L 583.368 105.528 L 583.368 105.528 Q 581.136 103.728 578.472 103.728 L 578.472 103.728 L 578.472 103.728 Q 574.44 103.728 572.316 107.04 L 572.316 107.04 L 572.316 107.04 Q 570.192 110.352 570.192 115.896 L 570.192 115.896 L 570.192 115.896 Q 570.192 123.096 572.748 127.092 L 572.748 127.092 L 572.748 127.092 Q 575.304 131.088 579.768 131.088 L 579.768 131.088 L 579.768 131.088 Z  M 638.376 131.016 L 638.376 131.016 Q 638.736 132.096 638.736 134.112 L 638.736 134.112 L 638.736 134.112 Q 635.64 133.896 630.888 133.896 L 630.888 133.896 L 630.888 133.896 Q 627.936 133.896 623.76 134.04 L 623.76 134.04 L 623.76 134.04 Q 623.256 134.112 622.32 134.112 L 622.32 134.112 L 622.32 134.112 Q 622.32 132.024 622.68 131.016 L 622.68 131.016 L 622.68 131.016 Q 625.344 131.016 626.496 129.648 L 626.496 129.648 L 626.496 129.648 Q 627.648 128.28 627.648 124.752 L 627.648 124.752 L 627.648 113.808 L 627.648 113.808 Q 627.648 109.056 625.884 107.04 L 625.884 107.04 L 625.884 107.04 Q 624.12 105.024 620.952 105.024 L 620.952 105.024 L 620.952 105.024 Q 618.936 105.024 617.064 106.248 L 617.064 106.248 L 617.064 106.248 Q 615.192 107.472 614.004 110.208 L 614.004 110.208 L 614.004 110.208 Q 612.816 112.944 612.816 117.048 L 612.816 117.048 L 612.816 124.752 L 612.816 124.752 Q 612.816 128.352 613.896 129.684 L 613.896 129.684 L 613.896 129.684 Q 614.976 131.016 617.784 131.016 L 617.784 131.016 L 617.784 131.016 Q 618.144 132.096 618.144 134.112 L 618.144 134.112 L 618.144 134.112 Q 612.096 133.896 609.576 133.896 L 609.576 133.896 L 609.576 133.896 Q 604.104 133.896 601.008 134.112 L 601.008 134.112 L 601.008 134.112 Q 601.008 132.024 601.368 131.016 L 601.368 131.016 L 601.368 131.016 Q 604.176 131.016 605.256 129.684 L 605.256 129.684 L 605.256 129.684 Q 606.336 128.352 606.336 124.752 L 606.336 124.752 L 606.336 110.496 L 606.336 110.496 Q 606.336 108.624 605.94 107.58 L 605.94 107.58 L 605.94 107.58 Q 605.544 106.536 604.392 105.996 L 604.392 105.996 L 604.392 105.996 Q 603.24 105.456 600.936 105.384 L 600.936 105.384 L 600.936 105.384 Q 600.936 103.728 601.584 102.72 L 601.584 102.72 L 601.584 102.72 Q 603.816 102.576 606.696 101.856 L 606.696 101.856 L 606.696 101.856 Q 609.576 101.136 611.232 100.272 L 611.232 100.272 L 611.232 100.272 Q 612.816 100.776 612.816 103.44 L 612.816 103.44 L 612.816 103.44 Q 612.816 105.744 612.312 107.688 L 612.312 107.688 L 612.312 107.688 Q 612.456 107.472 612.708 106.932 L 612.708 106.932 L 612.708 106.932 Q 612.96 106.392 613.392 105.816 L 613.392 105.816 L 613.392 105.816 Q 614.832 103.8 617.604 102.216 L 617.604 102.216 L 617.604 102.216 Q 620.376 100.632 623.832 100.632 L 623.832 100.632 L 623.832 100.632 Q 628.368 100.632 631.248 103.44 L 631.248 103.44 L 631.248 103.44 Q 634.128 106.248 634.128 112.368 L 634.128 112.368 L 634.128 124.752 L 634.128 124.752 Q 634.128 128.352 635.136 129.684 L 635.136 129.684 L 635.136 129.684 Q 636.144 131.016 638.376 131.016 L 638.376 131.016 L 638.376 131.016 Z " fill-rule="evenodd" fill="rgb(0,0,0)"/></g><g style="isolation:isolate"><g style="isolation:isolate"><circle vector-effect="non-scaling-stroke" cx="329" cy="411" r="19" fill="rgb(215,211,211)"/><line x1="329" y1="445" x2="329" y2="433" vector-effect="non-scaling-stroke" stroke-width="2" stroke="rgb(154,154,158)" stroke-linejoin="miter" stroke-linecap="square" stroke-miterlimit="3"/></g><g style="isolation:isolate"><line x1="350" y1="412" x2="490" y2="369" vector-effect="non-scaling-stroke" stroke-width="2" stroke="rgb(154,154,158)" stroke-linejoin="miter" stroke-linecap="square" stroke-miterlimit="3"/><circle vector-effect="non-scaling-stroke" cx="512" cy="369" r="19" fill="rgb(215,211,211)"/><line x1="512" y1="445" x2="512" y2="390" vector-effect="non-scaling-stroke" stroke-width="2" stroke="rgb(154,154,158)" stroke-linejoin="miter" stroke-linecap="square" stroke-miterlimit="3"/></g><g style="isolation:isolate"><line x1="145" y1="445" x2="145" y2="390" vector-effect="non-scaling-stroke" stroke-width="2" stroke="rgb(154,154,158)" stroke-linejoin="miter" stroke-linecap="square" stroke-miterlimit="3"/><circle vector-effect="non-scaling-stroke" cx="145" cy="369" r="19" fill="rgb(215,211,211)"/><line x1="166" y1="371" x2="308" y2="412" vector-effect="non-scaling-stroke" stroke-width="2" stroke="rgb(154,154,158)" stroke-linejoin="miter" stroke-linecap="square" stroke-miterlimit="3"/></g><g style="isolation:isolate"><line x1="166" y1="369" x2="308" y2="357" vector-effect="non-scaling-stroke" stroke-width="2" stroke="rgb(154,154,158)" stroke-linejoin="miter" stroke-linecap="square" stroke-miterlimit="3"/><circle vector-effect="non-scaling-stroke" cx="329.00000000000006" cy="358" r="19" fill="rgb(215,211,211)"/><line x1="329" y1="390" x2="329" y2="379" vector-effect="non-scaling-stroke" stroke-width="2" stroke="rgb(154,154,158)" stroke-linejoin="miter" stroke-linecap="square" stroke-miterlimit="3"/></g><g style="isolation:isolate"><line x1="696" y1="445" x2="696" y2="357" vector-effect="non-scaling-stroke" stroke-width="2" stroke="rgb(154,154,158)" stroke-linejoin="miter" stroke-linecap="square" stroke-miterlimit="3"/><line x1="533" y1="367" x2="675" y2="338" vector-effect="non-scaling-stroke" stroke-width="2" stroke="rgb(154,154,158)" stroke-linejoin="miter" stroke-linecap="square" stroke-miterlimit="3"/><circle vector-effect="non-scaling-stroke" cx="696" cy="336" r="19" fill="rgb(215,211,211)"/></g><g style="isolation:isolate"><line x1="490" y1="367" x2="166" y2="285" vector-effect="non-scaling-stroke" stroke-width="2" stroke="rgb(154,154,158)" stroke-linejoin="miter" stroke-linecap="square" stroke-miterlimit="3"/><line x1="145" y1="348" x2="145" y2="303" vector-effect="non-scaling-stroke" stroke-width="2" stroke="rgb(154,154,158)" stroke-linejoin="miter" stroke-linecap="square" stroke-miterlimit="3"/><circle vector-effect="non-scaling-stroke" cx="145" cy="282" r="19" fill="rgb(215,211,211)"/></g><g style="isolation:isolate"><line x1="512" y1="348" x2="512" y2="330" vector-effect="non-scaling-stroke" stroke-width="2" stroke="rgb(154,154,158)" stroke-linejoin="miter" stroke-linecap="square" stroke-miterlimit="3"/><circle vector-effect="non-scaling-stroke" cx="512" cy="309" r="19" fill="rgb(215,211,211)"/><line x1="533" y1="307" x2="675" y2="336" vector-effect="non-scaling-stroke" stroke-width="2" stroke="rgb(154,154,158)" stroke-linejoin="miter" stroke-linecap="square" stroke-miterlimit="3"/></g><g style="isolation:isolate"><line x1="329" y1="337" x2="329" y2="303" vector-effect="non-scaling-stroke" stroke-width="2" stroke="rgb(154,154,158)" stroke-linejoin="miter" stroke-linecap="square" stroke-miterlimit="3"/><line x1="350" y1="284" x2="491" y2="307" vector-effect="non-scaling-stroke" stroke-width="2" stroke="rgb(154,154,158)" stroke-linejoin="miter" stroke-linecap="square" stroke-miterlimit="3"/><circle vector-effect="non-scaling-stroke" cx="329" cy="282" r="19" fill="rgb(215,211,211)"/></g><g style="isolation:isolate"><line x1="350" y1="357" x2="490" y2="256" vector-effect="non-scaling-stroke" stroke-width="2" stroke="rgb(154,154,158)" stroke-linejoin="miter" stroke-linecap="square" stroke-miterlimit="3"/><line x1="512" y1="288" x2="512" y2="277" vector-effect="non-scaling-stroke" stroke-width="2" stroke="rgb(154,154,158)" stroke-linejoin="miter" stroke-linecap="square" stroke-miterlimit="3"/><circle vector-effect="non-scaling-stroke" cx="512" cy="256" r="19" fill="rgb(215,211,211)"/></g><g style="isolation:isolate"><line x1="166" y1="231" x2="308" y2="284" vector-effect="non-scaling-stroke" stroke-width="2" stroke="rgb(154,154,158)" stroke-linejoin="miter" stroke-linecap="square" stroke-miterlimit="3"/><circle vector-effect="non-scaling-stroke" cx="145" cy="231" r="19" fill="rgb(215,211,211)"/><line x1="145" y1="261" x2="145" y2="252" vector-effect="non-scaling-stroke" stroke-width="2" stroke="rgb(154,154,158)" stroke-linejoin="miter" stroke-linecap="square" stroke-miterlimit="3"/></g><g style="isolation:isolate"><line x1="695" y1="315" x2="695" y2="252" vector-effect="non-scaling-stroke" stroke-width="2" stroke="rgb(154,154,158)" stroke-linejoin="miter" stroke-linecap="square" stroke-miterlimit="3"/><line x1="533" y1="256" x2="673" y2="231" vector-effect="non-scaling-stroke" stroke-width="2" stroke="rgb(154,154,158)" stroke-linejoin="miter" stroke-linecap="square" stroke-miterlimit="3"/><circle vector-effect="non-scaling-stroke" cx="695.0000000000001" cy="231.00000000000003" r="19" fill="rgb(215,211,211)"/></g></g><g style="isolation:isolate"><path d=" M 692.373 238.759 L 692.158 237.323 L 692.07 237.323 L 692.07 237.323 Q 690.947 238.954 688.711 238.954 L 688.711 238.954 L 688.711 238.954 Q 686.611 238.954 685.444 237.519 L 685.444 237.519 L 685.444 237.519 Q 684.277 236.083 684.277 233.437 L 684.277 233.437 L 684.277 233.437 Q 684.277 230.79 685.449 229.325 L 685.449 229.325 L 685.449 229.325 Q 686.621 227.86 688.711 227.86 L 688.711 227.86 L 688.711 227.86 Q 690.889 227.86 692.051 229.442 L 692.051 229.442 L 692.178 229.442 L 692.109 228.671 L 692.07 227.919 L 692.07 223.563 L 693.691 223.563 L 693.691 238.759 L 692.373 238.759 L 692.373 238.759 Z  M 688.916 237.597 L 688.916 237.597 L 688.916 237.597 Q 690.576 237.597 691.323 236.693 L 691.323 236.693 L 691.323 236.693 Q 692.07 235.79 692.07 233.778 L 692.07 233.778 L 692.07 233.437 L 692.07 233.437 Q 692.07 231.161 691.313 230.189 L 691.313 230.189 L 691.313 230.189 Q 690.557 229.218 688.896 229.218 L 688.896 229.218 L 688.896 229.218 Q 687.471 229.218 686.714 230.326 L 686.714 230.326 L 686.714 230.326 Q 685.957 231.435 685.957 233.456 L 685.957 233.456 L 685.957 233.456 Q 685.957 235.507 686.709 236.552 L 686.709 236.552 L 686.709 236.552 Q 687.461 237.597 688.916 237.597 Z  M 702.393 224.481 L 702.393 238.759 L 700.811 238.759 L 700.811 228.583 L 700.811 228.583 Q 700.811 227.313 700.889 226.181 L 700.889 226.181 L 700.889 226.181 Q 700.684 226.386 700.43 226.61 L 700.43 226.61 L 700.43 226.61 Q 700.176 226.835 698.105 228.515 L 698.105 228.515 L 697.246 227.401 L 701.025 224.481 L 702.393 224.481 L 702.393 224.481 Z " fill-rule="evenodd" fill="rgb(139,139,139)"/><path d=" M 506.518 263.954 L 506.518 263.954 L 506.518 263.954 Q 504.193 263.954 502.919 262.523 L 502.919 262.523 L 502.919 262.523 Q 501.645 261.093 501.645 258.476 L 501.645 258.476 L 501.645 258.476 Q 501.645 255.79 502.938 254.325 L 502.938 254.325 L 502.938 254.325 Q 504.232 252.86 506.625 252.86 L 506.625 252.86 L 506.625 252.86 Q 507.396 252.86 508.168 253.026 L 508.168 253.026 L 508.168 253.026 Q 508.939 253.192 509.379 253.417 L 509.379 253.417 L 508.881 254.794 L 508.881 254.794 Q 508.344 254.579 507.709 254.438 L 507.709 254.438 L 507.709 254.438 Q 507.074 254.296 506.586 254.296 L 506.586 254.296 L 506.586 254.296 Q 503.324 254.296 503.324 258.456 L 503.324 258.456 L 503.324 258.456 Q 503.324 260.429 504.12 261.483 L 504.12 261.483 L 504.12 261.483 Q 504.916 262.538 506.479 262.538 L 506.479 262.538 L 506.479 262.538 Q 507.816 262.538 509.223 261.962 L 509.223 261.962 L 509.223 263.397 L 509.223 263.397 Q 508.148 263.954 506.518 263.954 Z  M 520.404 262.255 L 520.404 263.759 L 511.02 263.759 L 511.02 262.362 L 514.779 258.583 L 514.779 258.583 Q 516.498 256.845 517.045 256.103 L 517.045 256.103 L 517.045 256.103 Q 517.592 255.36 517.865 254.657 L 517.865 254.657 L 517.865 254.657 Q 518.139 253.954 518.139 253.144 L 518.139 253.144 L 518.139 253.144 Q 518.139 252.001 517.445 251.332 L 517.445 251.332 L 517.445 251.332 Q 516.752 250.663 515.521 250.663 L 515.521 250.663 L 515.521 250.663 Q 514.633 250.663 513.837 250.956 L 513.837 250.956 L 513.837 250.956 Q 513.041 251.249 512.064 252.021 L 512.064 252.021 L 511.205 250.917 L 511.205 250.917 Q 513.178 249.276 515.502 249.276 L 515.502 249.276 L 515.502 249.276 Q 517.514 249.276 518.656 250.307 L 518.656 250.307 L 518.656 250.307 Q 519.799 251.337 519.799 253.075 L 519.799 253.075 L 519.799 253.075 Q 519.799 254.433 519.037 255.761 L 519.037 255.761 L 519.037 255.761 Q 518.275 257.089 516.186 259.12 L 516.186 259.12 L 513.061 262.177 L 513.061 262.255 L 520.404 262.255 L 520.404 262.255 Z " fill-rule="evenodd" fill="rgb(139,139,139)"/><path d=" M 506.518 316.954 L 506.518 316.954 L 506.518 316.954 Q 504.193 316.954 502.919 315.523 L 502.919 315.523 L 502.919 315.523 Q 501.645 314.093 501.645 311.476 L 501.645 311.476 L 501.645 311.476 Q 501.645 308.79 502.938 307.325 L 502.938 307.325 L 502.938 307.325 Q 504.232 305.86 506.625 305.86 L 506.625 305.86 L 506.625 305.86 Q 507.396 305.86 508.168 306.026 L 508.168 306.026 L 508.168 306.026 Q 508.939 306.192 509.379 306.417 L 509.379 306.417 L 508.881 307.794 L 508.881 307.794 Q 508.344 307.579 507.709 307.438 L 507.709 307.438 L 507.709 307.438 Q 507.074 307.296 506.586 307.296 L 506.586 307.296 L 506.586 307.296 Q 503.324 307.296 503.324 311.456 L 503.324 311.456 L 503.324 311.456 Q 503.324 313.429 504.12 314.483 L 504.12 314.483 L 504.12 314.483 Q 504.916 315.538 506.479 315.538 L 506.479 315.538 L 506.479 315.538 Q 507.816 315.538 509.223 314.962 L 509.223 314.962 L 509.223 316.397 L 509.223 316.397 Q 508.148 316.954 506.518 316.954 Z  M 517.025 302.481 L 517.025 316.759 L 515.443 316.759 L 515.443 306.583 L 515.443 306.583 Q 515.443 305.313 515.521 304.181 L 515.521 304.181 L 515.521 304.181 Q 515.316 304.386 515.063 304.61 L 515.063 304.61 L 515.063 304.61 Q 514.809 304.835 512.738 306.515 L 512.738 306.515 L 511.879 305.401 L 515.658 302.481 L 517.025 302.481 L 517.025 302.481 Z " fill-rule="evenodd" fill="rgb(139,139,139)"/><path d=" M 322.854 279.38 L 322.854 279.38 L 322.854 279.38 Q 324.963 279.38 326.13 280.82 L 326.13 280.82 L 326.13 280.82 Q 327.297 282.261 327.297 284.897 L 327.297 284.897 L 327.297 284.897 Q 327.297 287.534 326.12 288.994 L 326.12 288.994 L 326.12 288.994 Q 324.943 290.454 322.854 290.454 L 322.854 290.454 L 322.854 290.454 Q 321.809 290.454 320.944 290.068 L 320.944 290.068 L 320.944 290.068 Q 320.08 289.683 319.494 288.882 L 319.494 288.882 L 319.377 288.882 L 319.035 290.259 L 317.873 290.259 L 317.873 275.063 L 319.494 275.063 L 319.494 278.755 L 319.494 278.755 Q 319.494 279.995 319.416 280.981 L 319.416 280.981 L 319.494 280.981 L 319.494 280.981 Q 320.627 279.38 322.854 279.38 Z  M 322.619 280.737 L 322.619 280.737 L 322.619 280.737 Q 320.959 280.737 320.227 281.689 L 320.227 281.689 L 320.227 281.689 Q 319.494 282.642 319.494 284.897 L 319.494 284.897 L 319.494 284.897 Q 319.494 287.153 320.246 288.125 L 320.246 288.125 L 320.246 288.125 Q 320.998 289.097 322.658 289.097 L 322.658 289.097 L 322.658 289.097 Q 324.152 289.097 324.885 288.008 L 324.885 288.008 L 324.885 288.008 Q 325.617 286.919 325.617 284.878 L 325.617 284.878 L 325.617 284.878 Q 325.617 282.788 324.885 281.763 L 324.885 281.763 L 324.885 281.763 Q 324.152 280.737 322.619 280.737 Z  M 338.771 288.755 L 338.771 290.259 L 329.387 290.259 L 329.387 288.862 L 333.146 285.083 L 333.146 285.083 Q 334.865 283.345 335.412 282.603 L 335.412 282.603 L 335.412 282.603 Q 335.959 281.86 336.232 281.157 L 336.232 281.157 L 336.232 281.157 Q 336.506 280.454 336.506 279.644 L 336.506 279.644 L 336.506 279.644 Q 336.506 278.501 335.813 277.832 L 335.813 277.832 L 335.813 277.832 Q 335.119 277.163 333.889 277.163 L 333.889 277.163 L 333.889 277.163 Q 333 277.163 332.204 277.456 L 332.204 277.456 L 332.204 277.456 Q 331.408 277.749 330.432 278.521 L 330.432 278.521 L 329.572 277.417 L 329.572 277.417 Q 331.545 275.776 333.869 275.776 L 333.869 275.776 L 333.869 275.776 Q 335.881 275.776 337.023 276.807 L 337.023 276.807 L 337.023 276.807 Q 338.166 277.837 338.166 279.575 L 338.166 279.575 L 338.166 279.575 Q 338.166 280.933 337.404 282.261 L 337.404 282.261 L 337.404 282.261 Q 336.643 283.589 334.553 285.62 L 334.553 285.62 L 331.428 288.677 L 331.428 288.755 L 338.771 288.755 L 338.771 288.755 Z " fill-rule="evenodd" fill="rgb(139,139,139)"/><path d=" M 322.854 353.88 L 322.854 353.88 L 322.854 353.88 Q 324.963 353.88 326.13 355.32 L 326.13 355.32 L 326.13 355.32 Q 327.297 356.761 327.297 359.397 L 327.297 359.397 L 327.297 359.397 Q 327.297 362.034 326.12 363.494 L 326.12 363.494 L 326.12 363.494 Q 324.943 364.954 322.854 364.954 L 322.854 364.954 L 322.854 364.954 Q 321.809 364.954 320.944 364.568 L 320.944 364.568 L 320.944 364.568 Q 320.08 364.183 319.494 363.382 L 319.494 363.382 L 319.377 363.382 L 319.035 364.759 L 317.873 364.759 L 317.873 349.563 L 319.494 349.563 L 319.494 353.255 L 319.494 353.255 Q 319.494 354.495 319.416 355.481 L 319.416 355.481 L 319.494 355.481 L 319.494 355.481 Q 320.627 353.88 322.854 353.88 Z  M 322.619 355.237 L 322.619 355.237 L 322.619 355.237 Q 320.959 355.237 320.227 356.189 L 320.227 356.189 L 320.227 356.189 Q 319.494 357.142 319.494 359.397 L 319.494 359.397 L 319.494 359.397 Q 319.494 361.653 320.246 362.625 L 320.246 362.625 L 320.246 362.625 Q 320.998 363.597 322.658 363.597 L 322.658 363.597 L 322.658 363.597 Q 324.152 363.597 324.885 362.508 L 324.885 362.508 L 324.885 362.508 Q 325.617 361.419 325.617 359.378 L 325.617 359.378 L 325.617 359.378 Q 325.617 357.288 324.885 356.263 L 324.885 356.263 L 324.885 356.263 Q 324.152 355.237 322.619 355.237 Z  M 335.393 350.481 L 335.393 364.759 L 333.811 364.759 L 333.811 354.583 L 333.811 354.583 Q 333.811 353.313 333.889 352.181 L 333.889 352.181 L 333.889 352.181 Q 333.684 352.386 333.43 352.61 L 333.43 352.61 L 333.43 352.61 Q 333.176 352.835 331.105 354.515 L 331.105 354.515 L 330.246 353.401 L 334.025 350.481 L 335.393 350.481 L 335.393 350.481 Z " fill-rule="evenodd" fill="rgb(139,139,139)"/><path d=" M 142.223 238.759 L 141.021 238.759 L 140.699 237.235 L 140.621 237.235 L 140.621 237.235 Q 139.82 238.241 139.024 238.598 L 139.024 238.598 L 139.024 238.598 Q 138.229 238.954 137.037 238.954 L 137.037 238.954 L 137.037 238.954 Q 135.445 238.954 134.542 238.134 L 134.542 238.134 L 134.542 238.134 Q 133.639 237.313 133.639 235.8 L 133.639 235.8 L 133.639 235.8 Q 133.639 232.558 138.824 232.401 L 138.824 232.401 L 140.641 232.343 L 140.641 231.679 L 140.641 231.679 Q 140.641 230.419 140.099 229.818 L 140.099 229.818 L 140.099 229.818 Q 139.557 229.218 138.365 229.218 L 138.365 229.218 L 138.365 229.218 Q 137.027 229.218 135.338 230.038 L 135.338 230.038 L 134.84 228.798 L 134.84 228.798 Q 135.631 228.368 136.573 228.124 L 136.573 228.124 L 136.573 228.124 Q 137.516 227.88 138.463 227.88 L 138.463 227.88 L 138.463 227.88 Q 140.377 227.88 141.3 228.729 L 141.3 228.729 L 141.3 228.729 Q 142.223 229.579 142.223 231.454 L 142.223 231.454 L 142.223 238.759 L 142.223 238.759 Z  M 137.359 237.616 L 137.359 237.616 L 137.359 237.616 Q 138.873 237.616 139.737 236.786 L 139.737 236.786 L 139.737 236.786 Q 140.602 235.956 140.602 234.462 L 140.602 234.462 L 140.602 233.495 L 138.98 233.563 L 138.98 233.563 Q 137.047 233.632 136.192 234.164 L 136.192 234.164 L 136.192 234.164 Q 135.338 234.696 135.338 235.819 L 135.338 235.819 L 135.338 235.819 Q 135.338 236.698 135.87 237.157 L 135.87 237.157 L 135.87 237.157 Q 136.402 237.616 137.359 237.616 Z  M 154.205 237.255 L 154.205 238.759 L 144.82 238.759 L 144.82 237.362 L 148.58 233.583 L 148.58 233.583 Q 150.299 231.845 150.846 231.103 L 150.846 231.103 L 150.846 231.103 Q 151.393 230.36 151.666 229.657 L 151.666 229.657 L 151.666 229.657 Q 151.939 228.954 151.939 228.144 L 151.939 228.144 L 151.939 228.144 Q 151.939 227.001 151.246 226.332 L 151.246 226.332 L 151.246 226.332 Q 150.553 225.663 149.322 225.663 L 149.322 225.663 L 149.322 225.663 Q 148.434 225.663 147.638 225.956 L 147.638 225.956 L 147.638 225.956 Q 146.842 226.249 145.865 227.021 L 145.865 227.021 L 145.006 225.917 L 145.006 225.917 Q 146.979 224.276 149.303 224.276 L 149.303 224.276 L 149.303 224.276 Q 151.314 224.276 152.457 225.307 L 152.457 225.307 L 152.457 225.307 Q 153.6 226.337 153.6 228.075 L 153.6 228.075 L 153.6 228.075 Q 153.6 229.433 152.838 230.761 L 152.838 230.761 L 152.838 230.761 Q 152.076 232.089 149.986 234.12 L 149.986 234.12 L 146.861 237.177 L 146.861 237.255 L 154.205 237.255 L 154.205 237.255 Z " fill-rule="evenodd" fill="rgb(139,139,139)"/><path d=" M 142.223 289.759 L 141.021 289.759 L 140.699 288.235 L 140.621 288.235 L 140.621 288.235 Q 139.82 289.241 139.024 289.598 L 139.024 289.598 L 139.024 289.598 Q 138.229 289.954 137.037 289.954 L 137.037 289.954 L 137.037 289.954 Q 135.445 289.954 134.542 289.134 L 134.542 289.134 L 134.542 289.134 Q 133.639 288.313 133.639 286.8 L 133.639 286.8 L 133.639 286.8 Q 133.639 283.558 138.824 283.401 L 138.824 283.401 L 140.641 283.343 L 140.641 282.679 L 140.641 282.679 Q 140.641 281.419 140.099 280.818 L 140.099 280.818 L 140.099 280.818 Q 139.557 280.218 138.365 280.218 L 138.365 280.218 L 138.365 280.218 Q 137.027 280.218 135.338 281.038 L 135.338 281.038 L 134.84 279.798 L 134.84 279.798 Q 135.631 279.368 136.573 279.124 L 136.573 279.124 L 136.573 279.124 Q 137.516 278.88 138.463 278.88 L 138.463 278.88 L 138.463 278.88 Q 140.377 278.88 141.3 279.729 L 141.3 279.729 L 141.3 279.729 Q 142.223 280.579 142.223 282.454 L 142.223 282.454 L 142.223 289.759 L 142.223 289.759 Z  M 137.359 288.616 L 137.359 288.616 L 137.359 288.616 Q 138.873 288.616 139.737 287.786 L 139.737 287.786 L 139.737 287.786 Q 140.602 286.956 140.602 285.462 L 140.602 285.462 L 140.602 284.495 L 138.98 284.563 L 138.98 284.563 Q 137.047 284.632 136.192 285.164 L 136.192 285.164 L 136.192 285.164 Q 135.338 285.696 135.338 286.819 L 135.338 286.819 L 135.338 286.819 Q 135.338 287.698 135.87 288.157 L 135.87 288.157 L 135.87 288.157 Q 136.402 288.616 137.359 288.616 Z  M 150.826 275.481 L 150.826 289.759 L 149.244 289.759 L 149.244 279.583 L 149.244 279.583 Q 149.244 278.313 149.322 277.181 L 149.322 277.181 L 149.322 277.181 Q 149.117 277.386 148.863 277.61 L 148.863 277.61 L 148.863 277.61 Q 148.609 277.835 146.539 279.515 L 146.539 279.515 L 145.68 278.401 L 149.459 275.481 L 150.826 275.481 L 150.826 275.481 Z " fill-rule="evenodd" fill="rgb(139,139,139)"/></g><g style="isolation:isolate"><path d=" M 692.648 337.935 C 690.661 337.935 688.674 337.219 687.166 335.795 C 684.141 332.939 684.141 328.297 687.166 325.441 C 690.19 322.585 695.106 322.585 698.13 325.441 C 701.154 328.297 701.154 332.939 698.13 335.795 C 696.676 337.167 694.703 337.937 692.648 337.935 L 692.648 337.935 Z  M 692.648 324.424 C 690.964 324.424 689.288 325.027 688.011 326.232 C 685.45 328.651 685.45 332.577 688.011 334.996 C 690.573 337.415 694.73 337.415 697.292 334.996 C 699.854 332.577 699.854 328.651 697.292 326.232 C 696.058 325.073 694.388 324.422 692.648 324.424 Z  M 697.97 330.128 C 697.704 330.128 697.47 329.962 697.396 329.721 C 697.284 329.337 697.108 328.96 696.893 328.613 C 696.725 328.35 696.821 328.003 697.1 327.845 C 697.38 327.687 697.747 327.777 697.914 328.041 C 698.186 328.47 698.393 328.938 698.537 329.42 C 698.625 329.721 698.441 330.03 698.122 330.113 C 698.082 330.121 698.026 330.128 697.97 330.128 L 697.97 330.128 Z  M 688.722 327.845 C 688.57 327.845 688.418 327.792 688.299 327.679 C 688.187 327.574 688.125 327.432 688.125 327.283 C 688.125 327.135 688.187 326.993 688.299 326.888 C 690.4 324.898 693.712 324.621 696.151 326.232 C 696.422 326.413 696.486 326.76 696.295 327.016 C 696.103 327.272 695.736 327.332 695.465 327.152 C 693.499 325.854 690.831 326.076 689.137 327.679 C 689.029 327.787 688.878 327.847 688.722 327.845 L 688.722 327.845 Z  M 709.39 343.632 L 703.109 337.701 C 702.457 337.085 701.452 336.95 700.644 337.37 L 699.885 336.654 C 703.237 333.074 703.101 327.589 699.478 324.168 C 695.712 320.611 689.591 320.611 685.825 324.168 C 682.058 327.724 682.058 333.504 685.825 337.061 C 687.652 338.786 690.07 339.728 692.656 339.728 C 695.034 339.728 697.284 338.922 699.048 337.445 L 699.806 338.161 C 699.375 338.907 699.486 339.864 700.157 340.489 L 706.437 346.42 C 706.844 346.804 707.379 347 707.913 347 C 708.448 347 708.983 346.804 709.39 346.42 C 710.203 345.659 710.203 344.4 709.39 343.632 L 709.39 343.632 Z  M 686.663 336.27 C 683.359 333.15 683.359 328.078 686.663 324.966 C 688.259 323.459 690.389 322.623 692.648 322.623 C 694.906 322.623 697.037 323.452 698.633 324.966 C 701.936 328.086 701.936 333.157 698.633 336.27 C 697.037 337.777 694.906 338.613 692.648 338.613 C 690.381 338.613 688.259 337.777 686.663 336.27 Z  M 708.544 345.629 C 708.193 345.96 707.618 345.96 707.267 345.629 L 700.995 339.698 C 700.644 339.367 700.644 338.824 700.995 338.492 C 701.17 338.327 701.402 338.244 701.633 338.244 C 701.864 338.244 702.096 338.327 702.271 338.492 L 708.552 344.423 C 708.895 344.762 708.895 345.297 708.544 345.629 L 708.544 345.629 Z " fill="rgb(0,0,255)" vector-effect="non-scaling-stroke" stroke-width="0.472" stroke="rgb(74,134,232)" stroke-linejoin="miter" stroke-linecap="butt" stroke-miterlimit="4"/><path d=" M 508.648 370.935 C 506.661 370.935 504.674 370.219 503.166 368.795 C 500.141 365.939 500.141 361.297 503.166 358.441 C 506.19 355.585 511.106 355.585 514.13 358.441 C 517.154 361.297 517.154 365.939 514.13 368.795 C 512.676 370.167 510.703 370.937 508.648 370.935 L 508.648 370.935 Z  M 508.648 357.424 C 506.964 357.424 505.288 358.027 504.011 359.232 C 501.45 361.651 501.45 365.577 504.011 367.996 C 506.573 370.415 510.73 370.415 513.292 367.996 C 515.854 365.577 515.854 361.651 513.292 359.232 C 512.058 358.073 510.388 357.422 508.648 357.424 Z  M 513.97 363.128 C 513.704 363.128 513.47 362.962 513.396 362.721 C 513.284 362.337 513.108 361.96 512.893 361.613 C 512.725 361.35 512.821 361.003 513.1 360.845 C 513.38 360.687 513.747 360.777 513.914 361.041 C 514.186 361.47 514.393 361.938 514.537 362.42 C 514.625 362.721 514.441 363.03 514.122 363.113 C 514.082 363.121 514.026 363.128 513.97 363.128 L 513.97 363.128 Z  M 504.722 360.845 C 504.57 360.845 504.418 360.792 504.299 360.679 C 504.187 360.574 504.125 360.432 504.125 360.283 C 504.125 360.135 504.187 359.993 504.299 359.888 C 506.4 357.898 509.712 357.621 512.151 359.232 C 512.422 359.413 512.486 359.76 512.295 360.016 C 512.103 360.272 511.736 360.332 511.465 360.152 C 509.499 358.854 506.831 359.076 505.137 360.679 C 505.029 360.787 504.878 360.847 504.722 360.845 L 504.722 360.845 Z  M 525.39 376.632 L 519.109 370.701 C 518.457 370.085 517.452 369.95 516.644 370.37 L 515.885 369.654 C 519.237 366.074 519.101 360.589 515.478 357.168 C 511.712 353.611 505.591 353.611 501.825 357.168 C 498.058 360.724 498.058 366.504 501.825 370.061 C 503.652 371.786 506.07 372.728 508.656 372.728 C 511.034 372.728 513.284 371.922 515.048 370.445 L 515.806 371.161 C 515.375 371.907 515.486 372.864 516.157 373.489 L 522.437 379.42 C 522.844 379.804 523.379 380 523.913 380 C 524.448 380 524.983 379.804 525.39 379.42 C 526.203 378.659 526.203 377.4 525.39 376.632 L 525.39 376.632 Z  M 502.663 369.27 C 499.359 366.15 499.359 361.078 502.663 357.966 C 504.259 356.459 506.389 355.623 508.648 355.623 C 510.906 355.623 513.037 356.452 514.633 357.966 C 517.936 361.086 517.936 366.157 514.633 369.27 C 513.037 370.777 510.906 371.613 508.648 371.613 C 506.381 371.613 504.259 370.777 502.663 369.27 Z  M 524.544 378.629 C 524.193 378.96 523.618 378.96 523.267 378.629 L 516.995 372.698 C 516.644 372.367 516.644 371.824 516.995 371.492 C 517.17 371.327 517.402 371.244 517.633 371.244 C 517.864 371.244 518.096 371.327 518.271 371.492 L 524.552 377.423 C 524.895 377.762 524.895 378.297 524.544 378.629 L 524.544 378.629 Z " fill="rgb(0,0,255)" vector-effect="non-scaling-stroke" stroke-width="0.472" stroke="rgb(74,134,232)" stroke-linejoin="miter" stroke-linecap="butt" stroke-miterlimit="4"/><path d=" M 325.648 414.935 C 323.661 414.935 321.674 414.219 320.166 412.795 C 317.141 409.939 317.141 405.297 320.166 402.441 C 323.19 399.585 328.106 399.585 331.13 402.441 C 334.154 405.297 334.154 409.939 331.13 412.795 C 329.676 414.167 327.703 414.937 325.648 414.935 L 325.648 414.935 Z  M 325.648 401.424 C 323.964 401.424 322.288 402.027 321.011 403.232 C 318.45 405.651 318.45 409.577 321.011 411.996 C 323.573 414.415 327.73 414.415 330.292 411.996 C 332.854 409.577 332.854 405.651 330.292 403.232 C 329.058 402.073 327.388 401.422 325.648 401.424 Z  M 330.97 407.128 C 330.704 407.128 330.47 406.962 330.396 406.721 C 330.284 406.337 330.108 405.96 329.893 405.613 C 329.725 405.35 329.821 405.003 330.1 404.845 C 330.38 404.687 330.747 404.777 330.914 405.041 C 331.186 405.47 331.393 405.938 331.537 406.42 C 331.625 406.721 331.441 407.03 331.122 407.113 C 331.082 407.121 331.026 407.128 330.97 407.128 L 330.97 407.128 Z  M 321.722 404.845 C 321.57 404.845 321.418 404.792 321.299 404.679 C 321.187 404.574 321.125 404.432 321.125 404.283 C 321.125 404.135 321.187 403.993 321.299 403.888 C 323.4 401.898 326.712 401.621 329.151 403.232 C 329.422 403.413 329.486 403.76 329.295 404.016 C 329.103 404.272 328.736 404.332 328.465 404.152 C 326.499 402.854 323.831 403.076 322.137 404.679 C 322.029 404.787 321.878 404.847 321.722 404.845 L 321.722 404.845 Z  M 342.39 420.632 L 336.109 414.701 C 335.457 414.085 334.452 413.95 333.644 414.37 L 332.885 413.654 C 336.237 410.074 336.101 404.589 332.478 401.168 C 328.712 397.611 322.591 397.611 318.825 401.168 C 315.058 404.724 315.058 410.504 318.825 414.061 C 320.652 415.786 323.07 416.728 325.656 416.728 C 328.034 416.728 330.284 415.922 332.048 414.445 L 332.806 415.161 C 332.375 415.907 332.486 416.864 333.157 417.489 L 339.437 423.42 C 339.844 423.804 340.379 424 340.913 424 C 341.448 424 341.983 423.804 342.39 423.42 C 343.203 422.659 343.203 421.4 342.39 420.632 L 342.39 420.632 Z  M 319.663 413.27 C 316.359 410.15 316.359 405.078 319.663 401.966 C 321.259 400.459 323.389 399.623 325.648 399.623 C 327.906 399.623 330.037 400.452 331.633 401.966 C 334.936 405.086 334.936 410.157 331.633 413.27 C 330.037 414.777 327.906 415.613 325.648 415.613 C 323.381 415.613 321.259 414.777 319.663 413.27 Z  M 341.544 422.629 C 341.193 422.96 340.618 422.96 340.267 422.629 L 333.995 416.698 C 333.644 416.367 333.644 415.824 333.995 415.492 C 334.17 415.327 334.402 415.244 334.633 415.244 C 334.864 415.244 335.096 415.327 335.271 415.492 L 341.552 421.423 C 341.895 421.762 341.895 422.297 341.544 422.629 L 341.544 422.629 Z " fill="rgb(0,0,255)" vector-effect="non-scaling-stroke" stroke-width="0.472" stroke="rgb(74,134,232)" stroke-linejoin="miter" stroke-linecap="butt" stroke-miterlimit="4"/><path d=" M 139.648 370.935 C 137.661 370.935 135.674 370.219 134.166 368.795 C 131.141 365.939 131.141 361.297 134.166 358.441 C 137.19 355.585 142.106 355.585 145.13 358.441 C 148.154 361.297 148.154 365.939 145.13 368.795 C 143.676 370.167 141.703 370.937 139.648 370.935 L 139.648 370.935 Z  M 139.648 357.424 C 137.964 357.424 136.288 358.027 135.011 359.232 C 132.45 361.651 132.45 365.577 135.011 367.996 C 137.573 370.415 141.73 370.415 144.292 367.996 C 146.854 365.577 146.854 361.651 144.292 359.232 C 143.058 358.073 141.388 357.422 139.648 357.424 Z  M 144.97 363.128 C 144.704 363.128 144.47 362.962 144.396 362.721 C 144.284 362.337 144.108 361.96 143.893 361.613 C 143.725 361.35 143.821 361.003 144.1 360.845 C 144.38 360.687 144.747 360.777 144.914 361.041 C 145.186 361.47 145.393 361.938 145.537 362.42 C 145.625 362.721 145.441 363.03 145.122 363.113 C 145.082 363.121 145.026 363.128 144.97 363.128 L 144.97 363.128 Z  M 135.722 360.845 C 135.57 360.845 135.418 360.792 135.299 360.679 C 135.187 360.574 135.125 360.432 135.125 360.283 C 135.125 360.135 135.187 359.993 135.299 359.888 C 137.4 357.898 140.712 357.621 143.151 359.232 C 143.422 359.413 143.486 359.76 143.295 360.016 C 143.103 360.272 142.736 360.332 142.465 360.152 C 140.499 358.854 137.831 359.076 136.137 360.679 C 136.029 360.787 135.878 360.847 135.722 360.845 L 135.722 360.845 Z  M 156.39 376.632 L 150.109 370.701 C 149.457 370.085 148.452 369.95 147.644 370.37 L 146.885 369.654 C 150.237 366.074 150.101 360.589 146.478 357.168 C 142.712 353.611 136.591 353.611 132.825 357.168 C 129.058 360.724 129.058 366.504 132.825 370.061 C 134.652 371.786 137.07 372.728 139.656 372.728 C 142.034 372.728 144.284 371.922 146.048 370.445 L 146.806 371.161 C 146.375 371.907 146.486 372.864 147.157 373.489 L 153.437 379.42 C 153.844 379.804 154.379 380 154.913 380 C 155.448 380 155.983 379.804 156.39 379.42 C 157.203 378.659 157.203 377.4 156.39 376.632 L 156.39 376.632 Z  M 133.663 369.27 C 130.359 366.15 130.359 361.078 133.663 357.966 C 135.259 356.459 137.389 355.623 139.648 355.623 C 141.906 355.623 144.037 356.452 145.633 357.966 C 148.936 361.086 148.936 366.157 145.633 369.27 C 144.037 370.777 141.906 371.613 139.648 371.613 C 137.381 371.613 135.259 370.777 133.663 369.27 Z  M 155.544 378.629 C 155.193 378.96 154.618 378.96 154.267 378.629 L 147.995 372.698 C 147.644 372.367 147.644 371.824 147.995 371.492 C 148.17 371.327 148.402 371.244 148.633 371.244 C 148.864 371.244 149.096 371.327 149.271 371.492 L 155.552 377.423 C 155.895 377.762 155.895 378.297 155.544 378.629 L 155.544 378.629 Z " fill="rgb(0,0,255)" vector-effect="non-scaling-stroke" stroke-width="0.472" stroke="rgb(74,134,232)" stroke-linejoin="miter" stroke-linecap="butt" stroke-miterlimit="4"/></g></g></svg>