<?xml version="1.0" standalone="no"?><!-- Generator: Gravit.io --><svg xmlns="http://www.w3.org/2000/svg" xmlns:xlink="http://www.w3.org/1999/xlink" style="isolation:isolate" viewBox="0 0 841.89 595.276" width="841.89" height="595.276"><defs><clipPath id="_clipPath_SHIYnCUUe36gOZd70ethTubnUI655dJ2"><rect width="841.89" height="595.276"/></clipPath></defs><g clip-path="url(#_clipPath_SHIYnCUUe36gOZd70ethTubnUI655dJ2)"><g style="isolation:isolate"><g><rect x="100" y="447" width="90" height="35" transform="matrix(1,0,0,1,0,0)" fill="rgb(221,217,216)"/><path d=" M 135.398 472.259 L 133.68 472.259 L 131.902 467.718 L 126.18 467.718 L 124.422 472.259 L 122.742 472.259 L 128.387 457.923 L 129.783 457.923 L 135.398 472.259 L 135.398 472.259 Z  M 126.766 466.224 L 131.385 466.224 L 129.725 461.8 L 129.725 461.8 Q 129.402 460.96 129.061 459.739 L 129.061 459.739 L 129.061 459.739 Q 128.846 460.677 128.445 461.8 L 128.445 461.8 L 126.766 466.224 L 126.766 466.224 Z  M 138.738 457.063 L 138.738 472.259 L 137.117 472.259 L 137.117 457.063 L 138.738 457.063 L 138.738 457.063 Z  M 143.797 461.556 L 143.797 472.259 L 142.176 472.259 L 142.176 461.556 L 143.797 461.556 L 143.797 461.556 Z  M 142.039 458.655 L 142.039 458.655 L 142.039 458.655 Q 142.039 458.099 142.313 457.84 L 142.313 457.84 L 142.313 457.84 Q 142.586 457.581 142.996 457.581 L 142.996 457.581 L 142.996 457.581 Q 143.387 457.581 143.67 457.845 L 143.67 457.845 L 143.67 457.845 Q 143.953 458.108 143.953 458.655 L 143.953 458.655 L 143.953 458.655 Q 143.953 459.202 143.67 459.471 L 143.67 459.471 L 143.67 459.471 Q 143.387 459.739 142.996 459.739 L 142.996 459.739 L 142.996 459.739 Q 142.586 459.739 142.313 459.471 L 142.313 459.471 L 142.313 459.471 Q 142.039 459.202 142.039 458.655 Z  M 151.512 472.454 L 151.512 472.454 L 151.512 472.454 Q 149.188 472.454 147.913 471.023 L 147.913 471.023 L 147.913 471.023 Q 146.639 469.593 146.639 466.976 L 146.639 466.976 L 146.639 466.976 Q 146.639 464.29 147.933 462.825 L 147.933 462.825 L 147.933 462.825 Q 149.227 461.36 151.619 461.36 L 151.619 461.36 L 151.619 461.36 Q 152.391 461.36 153.162 461.526 L 153.162 461.526 L 153.162 461.526 Q 153.934 461.692 154.373 461.917 L 154.373 461.917 L 153.875 463.294 L 153.875 463.294 Q 153.338 463.079 152.703 462.938 L 152.703 462.938 L 152.703 462.938 Q 152.068 462.796 151.58 462.796 L 151.58 462.796 L 151.58 462.796 Q 148.318 462.796 148.318 466.956 L 148.318 466.956 L 148.318 466.956 Q 148.318 468.929 149.114 469.983 L 149.114 469.983 L 149.114 469.983 Q 149.91 471.038 151.473 471.038 L 151.473 471.038 L 151.473 471.038 Q 152.811 471.038 154.217 470.462 L 154.217 470.462 L 154.217 471.897 L 154.217 471.897 Q 153.143 472.454 151.512 472.454 Z  M 161.277 472.454 L 161.277 472.454 L 161.277 472.454 Q 158.904 472.454 157.532 471.009 L 157.532 471.009 L 157.532 471.009 Q 156.16 469.563 156.16 466.995 L 156.16 466.995 L 156.16 466.995 Q 156.16 464.407 157.435 462.884 L 157.435 462.884 L 157.435 462.884 Q 158.709 461.36 160.857 461.36 L 160.857 461.36 L 160.857 461.36 Q 162.869 461.36 164.041 462.684 L 164.041 462.684 L 164.041 462.684 Q 165.213 464.007 165.213 466.175 L 165.213 466.175 L 165.213 467.2 L 157.84 467.2 L 157.84 467.2 Q 157.889 469.085 158.792 470.062 L 158.792 470.062 L 158.792 470.062 Q 159.695 471.038 161.336 471.038 L 161.336 471.038 L 161.336 471.038 Q 163.064 471.038 164.754 470.315 L 164.754 470.315 L 164.754 471.761 L 164.754 471.761 Q 163.895 472.132 163.128 472.293 L 163.128 472.293 L 163.128 472.293 Q 162.361 472.454 161.277 472.454 Z  M 160.838 462.718 L 160.838 462.718 L 160.838 462.718 Q 159.549 462.718 158.782 463.558 L 158.782 463.558 L 158.782 463.558 Q 158.016 464.397 157.879 465.882 L 157.879 465.882 L 163.475 465.882 L 163.475 465.882 Q 163.475 464.349 162.791 463.533 L 162.791 463.533 L 162.791 463.533 Q 162.107 462.718 160.838 462.718 Z " fill-rule="evenodd" fill="rgb(0,0,0)"/><rect x="100" y="447" width="91" height="35" transform="matrix(1,0,0,1,0,0)" fill="none" vector-effect="non-scaling-stroke" stroke-width="2" stroke="rgb(74,134,232)" stroke-linejoin="miter" stroke-linecap="square" stroke-miterlimit="2"/></g><g><rect x="284" y="447" width="90" height="35" transform="matrix(1,0,0,1,0,0)" fill="rgb(221,217,216)"/><path d=" M 311.815 472.259 L 311.815 457.981 L 315.849 457.981 L 315.849 457.981 Q 318.69 457.981 319.96 458.831 L 319.96 458.831 L 319.96 458.831 Q 321.229 459.681 321.229 461.517 L 321.229 461.517 L 321.229 461.517 Q 321.229 462.786 320.521 463.611 L 320.521 463.611 L 320.521 463.611 Q 319.813 464.437 318.456 464.681 L 318.456 464.681 L 318.456 464.778 L 318.456 464.778 Q 321.708 465.335 321.708 468.196 L 321.708 468.196 L 321.708 468.196 Q 321.708 470.11 320.414 471.185 L 320.414 471.185 L 320.414 471.185 Q 319.12 472.259 316.796 472.259 L 316.796 472.259 L 311.815 472.259 L 311.815 472.259 Z  M 313.476 459.417 L 313.476 464.095 L 316.21 464.095 L 316.21 464.095 Q 317.968 464.095 318.739 463.543 L 318.739 463.543 L 318.739 463.543 Q 319.511 462.991 319.511 461.683 L 319.511 461.683 L 319.511 461.683 Q 319.511 460.481 318.651 459.949 L 318.651 459.949 L 318.651 459.949 Q 317.792 459.417 315.917 459.417 L 315.917 459.417 L 313.476 459.417 L 313.476 459.417 Z  M 316.317 465.501 L 313.476 465.501 L 313.476 470.843 L 316.454 470.843 L 316.454 470.843 Q 318.183 470.843 319.057 470.174 L 319.057 470.174 L 319.057 470.174 Q 319.931 469.505 319.931 468.079 L 319.931 468.079 L 319.931 468.079 Q 319.931 466.751 319.037 466.126 L 319.037 466.126 L 319.037 466.126 Q 318.144 465.501 316.317 465.501 L 316.317 465.501 L 316.317 465.501 Z  M 333.769 466.897 L 333.769 466.897 L 333.769 466.897 Q 333.769 469.515 332.45 470.984 L 332.45 470.984 L 332.45 470.984 Q 331.132 472.454 328.808 472.454 L 328.808 472.454 L 328.808 472.454 Q 327.372 472.454 326.259 471.78 L 326.259 471.78 L 326.259 471.78 Q 325.146 471.106 324.54 469.847 L 324.54 469.847 L 324.54 469.847 Q 323.935 468.587 323.935 466.897 L 323.935 466.897 L 323.935 466.897 Q 323.935 464.28 325.243 462.82 L 325.243 462.82 L 325.243 462.82 Q 326.552 461.36 328.876 461.36 L 328.876 461.36 L 328.876 461.36 Q 331.122 461.36 332.445 462.854 L 332.445 462.854 L 332.445 462.854 Q 333.769 464.349 333.769 466.897 Z  M 325.614 466.897 L 325.614 466.897 L 325.614 466.897 Q 325.614 468.948 326.435 470.022 L 326.435 470.022 L 326.435 470.022 Q 327.255 471.097 328.847 471.097 L 328.847 471.097 L 328.847 471.097 Q 330.438 471.097 331.264 470.027 L 331.264 470.027 L 331.264 470.027 Q 332.089 468.958 332.089 466.897 L 332.089 466.897 L 332.089 466.897 Q 332.089 464.856 331.264 463.797 L 331.264 463.797 L 331.264 463.797 Q 330.438 462.737 328.827 462.737 L 328.827 462.737 L 328.827 462.737 Q 327.235 462.737 326.425 463.782 L 326.425 463.782 L 326.425 463.782 Q 325.614 464.827 325.614 466.897 Z  M 341.591 461.38 L 341.591 461.38 L 341.591 461.38 Q 343.7 461.38 344.867 462.82 L 344.867 462.82 L 344.867 462.82 Q 346.034 464.261 346.034 466.897 L 346.034 466.897 L 346.034 466.897 Q 346.034 469.534 344.857 470.994 L 344.857 470.994 L 344.857 470.994 Q 343.681 472.454 341.591 472.454 L 341.591 472.454 L 341.591 472.454 Q 340.546 472.454 339.682 472.068 L 339.682 472.068 L 339.682 472.068 Q 338.817 471.683 338.231 470.882 L 338.231 470.882 L 338.114 470.882 L 337.772 472.259 L 336.61 472.259 L 336.61 457.063 L 338.231 457.063 L 338.231 460.755 L 338.231 460.755 Q 338.231 461.995 338.153 462.981 L 338.153 462.981 L 338.231 462.981 L 338.231 462.981 Q 339.364 461.38 341.591 461.38 Z  M 341.356 462.737 L 341.356 462.737 L 341.356 462.737 Q 339.696 462.737 338.964 463.689 L 338.964 463.689 L 338.964 463.689 Q 338.231 464.642 338.231 466.897 L 338.231 466.897 L 338.231 466.897 Q 338.231 469.153 338.983 470.125 L 338.983 470.125 L 338.983 470.125 Q 339.735 471.097 341.396 471.097 L 341.396 471.097 L 341.396 471.097 Q 342.89 471.097 343.622 470.008 L 343.622 470.008 L 343.622 470.008 Q 344.354 468.919 344.354 466.878 L 344.354 466.878 L 344.354 466.878 Q 344.354 464.788 343.622 463.763 L 343.622 463.763 L 343.622 463.763 Q 342.89 462.737 341.356 462.737 Z " fill-rule="evenodd" fill="rgb(0,0,0)"/><rect x="284" y="447" width="91" height="35" transform="matrix(1,0,0,1,0,0)" fill="none" vector-effect="non-scaling-stroke" stroke-width="2" stroke="rgb(74,134,232)" stroke-linejoin="miter" stroke-linecap="square" stroke-miterlimit="2"/></g><g><rect x="467" y="447" width="90" height="35" transform="matrix(1,0,0,1,0,0)" fill="rgb(221,217,216)"/><path d=" M 495.055 459.261 L 495.055 459.261 L 495.055 459.261 Q 492.701 459.261 491.339 460.828 L 491.339 460.828 L 491.339 460.828 Q 489.977 462.396 489.977 465.12 L 489.977 465.12 L 489.977 465.12 Q 489.977 467.923 491.29 469.451 L 491.29 469.451 L 491.29 469.451 Q 492.604 470.979 495.035 470.979 L 495.035 470.979 L 495.035 470.979 Q 496.529 470.979 498.443 470.442 L 498.443 470.442 L 498.443 471.897 L 498.443 471.897 Q 496.959 472.454 494.781 472.454 L 494.781 472.454 L 494.781 472.454 Q 491.627 472.454 489.913 470.54 L 489.913 470.54 L 489.913 470.54 Q 488.199 468.626 488.199 465.101 L 488.199 465.101 L 488.199 465.101 Q 488.199 462.894 489.024 461.233 L 489.024 461.233 L 489.024 461.233 Q 489.85 459.573 491.407 458.675 L 491.407 458.675 L 491.407 458.675 Q 492.965 457.776 495.074 457.776 L 495.074 457.776 L 495.074 457.776 Q 497.32 457.776 499 458.597 L 499 458.597 L 498.297 460.022 L 498.297 460.022 Q 496.676 459.261 495.055 459.261 Z  M 509.098 472.259 L 507.896 472.259 L 507.574 470.735 L 507.496 470.735 L 507.496 470.735 Q 506.695 471.741 505.899 472.098 L 505.899 472.098 L 505.899 472.098 Q 505.104 472.454 503.912 472.454 L 503.912 472.454 L 503.912 472.454 Q 502.32 472.454 501.417 471.634 L 501.417 471.634 L 501.417 471.634 Q 500.514 470.813 500.514 469.3 L 500.514 469.3 L 500.514 469.3 Q 500.514 466.058 505.699 465.901 L 505.699 465.901 L 507.516 465.843 L 507.516 465.179 L 507.516 465.179 Q 507.516 463.919 506.974 463.318 L 506.974 463.318 L 506.974 463.318 Q 506.432 462.718 505.24 462.718 L 505.24 462.718 L 505.24 462.718 Q 503.902 462.718 502.213 463.538 L 502.213 463.538 L 501.715 462.298 L 501.715 462.298 Q 502.506 461.868 503.448 461.624 L 503.448 461.624 L 503.448 461.624 Q 504.391 461.38 505.338 461.38 L 505.338 461.38 L 505.338 461.38 Q 507.252 461.38 508.175 462.229 L 508.175 462.229 L 508.175 462.229 Q 509.098 463.079 509.098 464.954 L 509.098 464.954 L 509.098 472.259 L 509.098 472.259 Z  M 504.234 471.116 L 504.234 471.116 L 504.234 471.116 Q 505.748 471.116 506.612 470.286 L 506.612 470.286 L 506.612 470.286 Q 507.477 469.456 507.477 467.962 L 507.477 467.962 L 507.477 466.995 L 505.855 467.063 L 505.855 467.063 Q 503.922 467.132 503.067 467.664 L 503.067 467.664 L 503.067 467.664 Q 502.213 468.196 502.213 469.319 L 502.213 469.319 L 502.213 469.319 Q 502.213 470.198 502.745 470.657 L 502.745 470.657 L 502.745 470.657 Q 503.277 471.116 504.234 471.116 Z  M 517.32 461.36 L 517.32 461.36 L 517.32 461.36 Q 518.033 461.36 518.6 461.478 L 518.6 461.478 L 518.375 462.981 L 518.375 462.981 Q 517.711 462.835 517.203 462.835 L 517.203 462.835 L 517.203 462.835 Q 515.904 462.835 514.981 463.89 L 514.981 463.89 L 514.981 463.89 Q 514.059 464.944 514.059 466.517 L 514.059 466.517 L 514.059 472.259 L 512.438 472.259 L 512.438 461.556 L 513.775 461.556 L 513.961 463.538 L 514.039 463.538 L 514.039 463.538 Q 514.635 462.493 515.475 461.927 L 515.475 461.927 L 515.475 461.927 Q 516.314 461.36 517.32 461.36 Z  M 529.84 466.897 L 529.84 466.897 L 529.84 466.897 Q 529.84 469.515 528.521 470.984 L 528.521 470.984 L 528.521 470.984 Q 527.203 472.454 524.879 472.454 L 524.879 472.454 L 524.879 472.454 Q 523.443 472.454 522.33 471.78 L 522.33 471.78 L 522.33 471.78 Q 521.217 471.106 520.611 469.847 L 520.611 469.847 L 520.611 469.847 Q 520.006 468.587 520.006 466.897 L 520.006 466.897 L 520.006 466.897 Q 520.006 464.28 521.314 462.82 L 521.314 462.82 L 521.314 462.82 Q 522.623 461.36 524.947 461.36 L 524.947 461.36 L 524.947 461.36 Q 527.193 461.36 528.517 462.854 L 528.517 462.854 L 528.517 462.854 Q 529.84 464.349 529.84 466.897 Z  M 521.686 466.897 L 521.686 466.897 L 521.686 466.897 Q 521.686 468.948 522.506 470.022 L 522.506 470.022 L 522.506 470.022 Q 523.326 471.097 524.918 471.097 L 524.918 471.097 L 524.918 471.097 Q 526.51 471.097 527.335 470.027 L 527.335 470.027 L 527.335 470.027 Q 528.16 468.958 528.16 466.897 L 528.16 466.897 L 528.16 466.897 Q 528.16 464.856 527.335 463.797 L 527.335 463.797 L 527.335 463.797 Q 526.51 462.737 524.898 462.737 L 524.898 462.737 L 524.898 462.737 Q 523.307 462.737 522.496 463.782 L 522.496 463.782 L 522.496 463.782 Q 521.686 464.827 521.686 466.897 Z  M 534.303 457.063 L 534.303 472.259 L 532.682 472.259 L 532.682 457.063 L 534.303 457.063 L 534.303 457.063 Z " fill-rule="evenodd" fill="rgb(0,0,0)"/></g><g><rect x="651" y="447" width="90" height="35" transform="matrix(1,0,0,1,0,0)" fill="rgb(221,217,216)"/><path d=" M 685.388 464.983 L 685.388 464.983 L 685.388 464.983 Q 685.388 468.519 683.469 470.389 L 683.469 470.389 L 683.469 470.389 Q 681.55 472.259 677.946 472.259 L 677.946 472.259 L 673.991 472.259 L 673.991 457.981 L 678.366 457.981 L 678.366 457.981 Q 681.696 457.981 683.542 459.827 L 683.542 459.827 L 683.542 459.827 Q 685.388 461.673 685.388 464.983 Z  M 683.63 465.042 L 683.63 465.042 L 683.63 465.042 Q 683.63 462.249 682.229 460.833 L 682.229 460.833 L 682.229 460.833 Q 680.827 459.417 678.063 459.417 L 678.063 459.417 L 675.651 459.417 L 675.651 470.823 L 677.673 470.823 L 677.673 470.823 Q 680.642 470.823 682.136 469.363 L 682.136 469.363 L 682.136 469.363 Q 683.63 467.903 683.63 465.042 Z  M 696.11 472.259 L 694.909 472.259 L 694.587 470.735 L 694.509 470.735 L 694.509 470.735 Q 693.708 471.741 692.912 472.098 L 692.912 472.098 L 692.912 472.098 Q 692.116 472.454 690.925 472.454 L 690.925 472.454 L 690.925 472.454 Q 689.333 472.454 688.43 471.634 L 688.43 471.634 L 688.43 471.634 Q 687.526 470.813 687.526 469.3 L 687.526 469.3 L 687.526 469.3 Q 687.526 466.058 692.712 465.901 L 692.712 465.901 L 694.528 465.843 L 694.528 465.179 L 694.528 465.179 Q 694.528 463.919 693.986 463.318 L 693.986 463.318 L 693.986 463.318 Q 693.444 462.718 692.253 462.718 L 692.253 462.718 L 692.253 462.718 Q 690.915 462.718 689.226 463.538 L 689.226 463.538 L 688.728 462.298 L 688.728 462.298 Q 689.519 461.868 690.461 461.624 L 690.461 461.624 L 690.461 461.624 Q 691.403 461.38 692.351 461.38 L 692.351 461.38 L 692.351 461.38 Q 694.265 461.38 695.188 462.229 L 695.188 462.229 L 695.188 462.229 Q 696.11 463.079 696.11 464.954 L 696.11 464.954 L 696.11 472.259 L 696.11 472.259 Z  M 691.247 471.116 L 691.247 471.116 L 691.247 471.116 Q 692.761 471.116 693.625 470.286 L 693.625 470.286 L 693.625 470.286 Q 694.489 469.456 694.489 467.962 L 694.489 467.962 L 694.489 466.995 L 692.868 467.063 L 692.868 467.063 Q 690.935 467.132 690.08 467.664 L 690.08 467.664 L 690.08 467.664 Q 689.226 468.196 689.226 469.319 L 689.226 469.319 L 689.226 469.319 Q 689.226 470.198 689.758 470.657 L 689.758 470.657 L 689.758 470.657 Q 690.29 471.116 691.247 471.116 Z  M 703.688 472.259 L 701.794 472.259 L 697.731 461.556 L 699.47 461.556 L 701.774 467.903 L 701.774 467.903 Q 702.556 470.13 702.692 470.794 L 702.692 470.794 L 702.771 470.794 L 702.771 470.794 Q 702.878 470.276 703.449 468.65 L 703.449 468.65 L 703.449 468.65 Q 704.021 467.024 706.013 461.556 L 706.013 461.556 L 707.751 461.556 L 703.688 472.259 L 703.688 472.259 Z  M 713.991 472.454 L 713.991 472.454 L 713.991 472.454 Q 711.618 472.454 710.246 471.009 L 710.246 471.009 L 710.246 471.009 Q 708.874 469.563 708.874 466.995 L 708.874 466.995 L 708.874 466.995 Q 708.874 464.407 710.148 462.884 L 710.148 462.884 L 710.148 462.884 Q 711.423 461.36 713.571 461.36 L 713.571 461.36 L 713.571 461.36 Q 715.583 461.36 716.755 462.684 L 716.755 462.684 L 716.755 462.684 Q 717.927 464.007 717.927 466.175 L 717.927 466.175 L 717.927 467.2 L 710.554 467.2 L 710.554 467.2 Q 710.603 469.085 711.506 470.062 L 711.506 470.062 L 711.506 470.062 Q 712.409 471.038 714.05 471.038 L 714.05 471.038 L 714.05 471.038 Q 715.778 471.038 717.468 470.315 L 717.468 470.315 L 717.468 471.761 L 717.468 471.761 Q 716.608 472.132 715.842 472.293 L 715.842 472.293 L 715.842 472.293 Q 715.075 472.454 713.991 472.454 Z  M 713.552 462.718 L 713.552 462.718 L 713.552 462.718 Q 712.263 462.718 711.496 463.558 L 711.496 463.558 L 711.496 463.558 Q 710.729 464.397 710.593 465.882 L 710.593 465.882 L 716.188 465.882 L 716.188 465.882 Q 716.188 464.349 715.505 463.533 L 715.505 463.533 L 715.505 463.533 Q 714.821 462.718 713.552 462.718 Z " fill-rule="evenodd" fill="rgb(0,0,0)"/></g></g><g style="isolation:isolate"><path d=" M 301.56 134.544 L 301.56 134.544 Q 294.576 134.544 289.176 131.268 L 289.176 131.268 L 289.176 131.268 Q 283.776 127.992 280.788 122.268 L 280.788 122.268 L 280.788 122.268 Q 277.8 116.544 277.8 109.416 L 277.8 109.416 L 277.8 109.416 Q 277.8 102.216 280.932 96.564 L 280.932 96.564 L 280.932 96.564 Q 284.064 90.912 289.5 87.744 L 289.5 87.744 L 289.5 87.744 Q 294.936 84.576 301.56 84.576 L 301.56 84.576 L 301.56 84.576 Q 308.4 84.576 313.836 87.708 L 313.836 87.708 L 313.836 87.708 Q 319.272 90.84 322.332 96.492 L 322.332 96.492 L 322.332 96.492 Q 325.392 102.144 325.392 109.416 L 325.392 109.416 L 325.392 109.416 Q 325.392 116.472 322.332 122.196 L 322.332 122.196 L 322.332 122.196 Q 319.272 127.92 313.836 131.232 L 313.836 131.232 L 313.836 131.232 Q 308.4 134.544 301.56 134.544 L 301.56 134.544 L 301.56 134.544 Z  M 303 131.016 L 303 131.016 Q 307.536 131.016 310.956 128.424 L 310.956 128.424 L 310.956 128.424 Q 314.376 125.832 316.176 121.332 L 316.176 121.332 L 316.176 121.332 Q 317.976 116.832 317.976 111.288 L 317.976 111.288 L 317.976 111.288 Q 317.976 104.88 315.636 99.552 L 315.636 99.552 L 315.636 99.552 Q 313.296 94.224 309.192 91.128 L 309.192 91.128 L 309.192 91.128 Q 305.088 88.032 300.048 88.032 L 300.048 88.032 L 300.048 88.032 Q 295.8 88.032 292.416 90.48 L 292.416 90.48 L 292.416 90.48 Q 289.032 92.928 287.124 97.32 L 287.124 97.32 L 287.124 97.32 Q 285.216 101.712 285.216 107.472 L 285.216 107.472 L 285.216 107.472 Q 285.216 113.664 287.34 119.064 L 287.34 119.064 L 287.34 119.064 Q 289.464 124.464 293.496 127.74 L 293.496 127.74 L 293.496 127.74 Q 297.528 131.016 303 131.016 L 303 131.016 L 303 131.016 Z  M 350.952 100.272 L 350.952 100.272 Q 357.432 100.272 360.924 104.196 L 360.924 104.196 L 360.924 104.196 Q 364.416 108.12 364.416 116.256 L 364.416 116.256 L 364.416 116.256 Q 364.416 121.296 362.184 125.472 L 362.184 125.472 L 362.184 125.472 Q 359.952 129.648 355.848 132.096 L 355.848 132.096 L 355.848 132.096 Q 351.744 134.544 346.488 134.544 L 346.488 134.544 L 346.488 134.544 Q 341.88 134.544 338.352 133.212 L 338.352 133.212 L 338.352 133.212 Q 334.824 131.88 332.448 129.648 L 332.448 129.648 L 332.448 129.648 Q 333.24 128.64 333.636 126.588 L 333.636 126.588 L 333.636 126.588 Q 334.032 124.536 334.032 120.504 L 334.032 120.504 L 334.032 92.496 L 334.032 92.496 Q 334.032 90.624 333.672 89.544 L 333.672 89.544 L 333.672 89.544 Q 333.312 88.464 332.16 87.924 L 332.16 87.924 L 332.16 87.924 Q 331.008 87.384 328.632 87.384 L 328.632 87.384 L 328.632 87.384 Q 328.632 85.728 329.28 84.72 L 329.28 84.72 L 329.28 84.72 Q 331.08 84.72 334.392 83.928 L 334.392 83.928 L 334.392 83.928 Q 337.704 83.136 338.928 82.272 L 338.928 82.272 L 338.928 82.272 Q 340.512 82.776 340.512 85.152 L 340.512 85.152 L 340.512 103.944 L 340.512 103.944 Q 340.512 105.312 340.224 107.04 L 340.224 107.04 L 341.088 105.6 L 341.088 105.6 Q 342.24 103.656 344.94 101.964 L 344.94 101.964 L 344.94 101.964 Q 347.64 100.272 350.952 100.272 L 350.952 100.272 L 350.952 100.272 Z  M 346.848 131.232 L 346.848 131.232 Q 349.224 131.232 351.6 130.008 L 351.6 130.008 L 351.6 130.008 Q 353.976 128.784 355.632 125.652 L 355.632 125.652 L 355.632 125.652 Q 357.288 122.52 357.288 117.192 L 357.288 117.192 L 357.288 117.192 Q 357.288 112.872 355.992 110.1 L 355.992 110.1 L 355.992 110.1 Q 354.696 107.328 352.86 106.068 L 352.86 106.068 L 352.86 106.068 Q 351.024 104.808 349.224 104.808 L 349.224 104.808 L 349.224 104.808 Q 345.624 104.808 343.068 108.192 L 343.068 108.192 L 343.068 108.192 Q 340.512 111.576 340.512 118.56 L 340.512 118.56 L 340.512 128.712 L 340.512 128.712 Q 341.88 129.936 343.356 130.584 L 343.356 130.584 L 343.356 130.584 Q 344.832 131.232 346.848 131.232 L 346.848 131.232 L 346.848 131.232 Z  M 393 110.28 L 393 110.28 Q 391.632 111.144 389.4 111.144 L 389.4 111.144 L 389.4 111.144 Q 389.184 107.976 386.952 105.6 L 386.952 105.6 L 386.952 105.6 Q 384.72 103.224 381.336 103.224 L 381.336 103.224 L 381.336 103.224 Q 379.104 103.224 377.772 104.304 L 377.772 104.304 L 377.772 104.304 Q 376.44 105.384 376.44 107.184 L 376.44 107.184 L 376.44 107.184 Q 376.44 108.552 377.016 109.452 L 377.016 109.452 L 377.016 109.452 Q 377.592 110.352 379.392 111.36 L 379.392 111.36 L 379.392 111.36 Q 381.192 112.368 385.008 113.88 L 385.008 113.88 L 385.008 113.88 Q 388.968 115.392 391.164 116.832 L 391.164 116.832 L 391.164 116.832 Q 393.36 118.272 394.296 120.036 L 394.296 120.036 L 394.296 120.036 Q 395.232 121.8 395.232 124.392 L 395.232 124.392 L 395.232 124.392 Q 395.232 128.928 391.488 131.736 L 391.488 131.736 L 391.488 131.736 Q 387.744 134.544 382.056 134.544 L 382.056 134.544 L 382.056 134.544 Q 377.952 134.544 375.396 133.896 L 375.396 133.896 L 375.396 133.896 Q 372.84 133.248 370.176 131.88 L 370.176 131.88 L 370.176 131.88 Q 370.392 130.008 370.392 127.056 L 370.392 127.056 L 370.392 127.056 Q 370.392 125.112 370.248 122.952 L 370.248 122.952 L 370.248 122.952 Q 371.328 122.16 373.992 122.16 L 373.992 122.16 L 373.992 122.16 Q 374.496 126.624 376.764 128.892 L 376.764 128.892 L 376.764 128.892 Q 379.032 131.16 382.776 131.16 L 382.776 131.16 L 382.776 131.16 Q 385.656 131.16 387.312 129.864 L 387.312 129.864 L 387.312 129.864 Q 388.968 128.568 388.968 126.552 L 388.968 126.552 L 388.968 126.552 Q 388.968 125.256 388.356 124.32 L 388.356 124.32 L 388.356 124.32 Q 387.744 123.384 386.088 122.448 L 386.088 122.448 L 386.088 122.448 Q 384.432 121.512 381.192 120.216 L 381.192 120.216 L 381.192 120.216 Q 377.016 118.56 374.784 117.192 L 374.784 117.192 L 374.784 117.192 Q 372.552 115.824 371.544 113.988 L 371.544 113.988 L 371.544 113.988 Q 370.536 112.152 370.536 109.272 L 370.536 109.272 L 370.536 109.272 Q 370.536 106.392 372.408 104.376 L 372.408 104.376 L 372.408 104.376 Q 374.28 102.36 377.088 101.316 L 377.088 101.316 L 377.088 101.316 Q 379.896 100.272 382.488 100.272 L 382.488 100.272 L 382.488 100.272 Q 385.656 100.272 388.104 100.884 L 388.104 100.884 L 388.104 100.884 Q 390.552 101.496 392.856 102.792 L 392.856 102.792 L 392.856 102.792 Q 392.712 104.952 392.712 106.176 L 392.712 106.176 L 392.712 106.176 Q 392.712 108.48 393 110.28 L 393 110.28 L 393 110.28 Z  M 427.344 126.336 L 427.344 126.336 Q 427.92 126.696 428.46 127.344 L 428.46 127.344 L 428.46 127.344 Q 429 127.992 429.072 128.568 L 429.072 128.568 L 429.072 128.568 Q 426.624 131.736 423.492 133.14 L 423.492 133.14 L 423.492 133.14 Q 420.36 134.544 416.256 134.544 L 416.256 134.544 L 416.256 134.544 Q 411.288 134.544 407.868 132.276 L 407.868 132.276 L 407.868 132.276 Q 404.448 130.008 402.72 126.12 L 402.72 126.12 L 402.72 126.12 Q 400.992 122.232 400.992 117.408 L 400.992 117.408 L 400.992 117.408 Q 400.992 112.728 402.828 108.84 L 402.828 108.84 L 402.828 108.84 Q 404.664 104.952 408.048 102.612 L 408.048 102.612 L 408.048 102.612 Q 411.432 100.272 415.896 100.272 L 415.896 100.272 L 415.896 100.272 Q 422.448 100.272 425.652 104.34 L 425.652 104.34 L 425.652 104.34 Q 428.856 108.408 429.36 115.176 L 429.36 115.176 L 429.36 115.176 Q 429.072 116.616 428.28 117.624 L 428.28 117.624 L 428.28 117.624 Q 415.608 117.624 408.12 117.984 L 408.12 117.984 L 408.12 117.984 Q 408.48 123.528 410.892 127.02 L 410.892 127.02 L 410.892 127.02 Q 413.304 130.512 418.56 130.512 L 418.56 130.512 L 418.56 130.512 Q 421.008 130.512 423.312 129.432 L 423.312 129.432 L 423.312 129.432 Q 425.616 128.352 427.344 126.336 L 427.344 126.336 L 427.344 126.336 Z  M 415.248 103.728 L 415.248 103.728 Q 412.368 103.728 410.352 106.176 L 410.352 106.176 L 410.352 106.176 Q 408.336 108.624 408.048 114.384 L 408.048 114.384 L 421.872 114.384 L 421.872 114.384 Q 421.872 109.56 420.108 106.644 L 420.108 106.644 L 420.108 106.644 Q 418.344 103.728 415.248 103.728 L 415.248 103.728 L 415.248 103.728 Z  M 456 100.92 L 456 100.92 Q 458.736 100.92 460.968 102.648 L 460.968 102.648 L 460.968 102.648 Q 460.464 105.96 460.464 111.144 L 460.464 111.144 L 460.464 111.144 Q 458.52 111.792 456.36 111.792 L 456.36 111.792 L 456.36 111.792 Q 456.216 108.552 455.316 107.364 L 455.316 107.364 L 455.316 107.364 Q 454.416 106.176 452.832 106.176 L 452.832 106.176 L 452.832 106.176 Q 451.536 106.176 450.096 107.58 L 450.096 107.58 L 450.096 107.58 Q 448.656 108.984 447.684 111.36 L 447.684 111.36 L 447.684 111.36 Q 446.712 113.736 446.712 116.4 L 446.712 116.4 L 446.712 123.312 L 446.712 123.312 Q 446.712 126.408 447.36 128.028 L 447.36 128.028 L 447.36 128.028 Q 448.008 129.648 449.34 130.26 L 449.34 130.26 L 449.34 130.26 Q 450.672 130.872 453.12 131.016 L 453.12 131.016 L 453.12 131.016 Q 453.48 132.024 453.48 134.112 L 453.48 134.112 L 453.48 134.112 Q 450.168 133.896 444.408 133.896 L 444.408 133.896 L 444.408 133.896 Q 437.712 133.896 434.904 134.112 L 434.904 134.112 L 434.904 134.112 Q 434.904 132.024 435.264 131.016 L 435.264 131.016 L 435.264 131.016 Q 438.144 130.872 439.188 129.612 L 439.188 129.612 L 439.188 129.612 Q 440.232 128.352 440.232 124.752 L 440.232 124.752 L 440.232 110.496 L 440.232 110.496 Q 440.232 108.624 439.836 107.58 L 439.836 107.58 L 439.836 107.58 Q 439.44 106.536 438.288 105.996 L 438.288 105.996 L 438.288 105.996 Q 437.136 105.456 434.832 105.384 L 434.832 105.384 L 434.832 105.384 Q 434.832 103.728 435.48 102.72 L 435.48 102.72 L 435.48 102.72 Q 437.712 102.576 440.592 101.856 L 440.592 101.856 L 440.592 101.856 Q 443.472 101.136 445.128 100.272 L 445.128 100.272 L 445.128 100.272 Q 446.712 100.776 446.712 103.44 L 446.712 103.44 L 446.712 103.44 Q 446.712 105.888 446.28 108.012 L 446.28 108.012 L 446.28 108.012 Q 445.848 110.136 445.776 110.496 L 445.776 110.496 L 445.776 110.496 Q 445.92 110.064 446.352 108.768 L 446.352 108.768 L 446.352 108.768 Q 446.784 107.472 447.288 106.752 L 447.288 106.752 L 447.288 106.752 Q 450.96 100.92 456 100.92 L 456 100.92 L 456 100.92 Z  M 492.648 100.92 L 492.648 100.92 Q 496.752 100.92 499.344 100.704 L 499.344 100.704 L 499.344 100.704 Q 499.344 102.504 498.696 103.8 L 498.696 103.8 L 498.696 103.8 Q 496.968 104.16 495.888 105.708 L 495.888 105.708 L 495.888 105.708 Q 494.808 107.256 492.936 111.648 L 492.936 111.648 L 483.216 133.896 L 483.216 133.896 Q 481.92 134.544 479.904 134.544 L 479.904 134.544 L 479.904 134.544 Q 478.68 131.376 474.612 122.232 L 474.612 122.232 L 474.612 122.232 Q 470.544 113.088 468.384 108.336 L 468.384 108.336 L 468.384 108.336 Q 467.016 105.528 466.224 104.736 L 466.224 104.736 L 466.224 104.736 Q 465.432 103.944 463.92 103.8 L 463.92 103.8 L 463.92 103.8 Q 463.704 103.008 463.596 102.288 L 463.596 102.288 L 463.596 102.288 Q 463.488 101.568 463.488 100.704 L 463.488 100.704 L 463.488 100.704 Q 466.512 100.92 471.048 100.92 L 471.048 100.92 L 471.048 100.92 Q 476.448 100.92 479.904 100.704 L 479.904 100.704 L 479.904 100.704 Q 479.904 102.144 479.4 103.656 L 479.4 103.656 L 479.4 103.656 Q 476.952 103.8 475.944 104.232 L 475.944 104.232 L 475.944 104.232 Q 474.936 104.664 474.936 105.672 L 474.936 105.672 L 474.936 105.672 Q 474.936 106.752 475.872 108.624 L 475.872 108.624 L 475.872 108.624 Q 477.24 111.648 479.472 117.048 L 479.472 117.048 L 479.472 117.048 Q 481.704 122.448 483.36 126.696 L 483.36 126.696 L 489.12 112.296 L 489.12 112.296 Q 490.416 108.912 490.416 107.04 L 490.416 107.04 L 490.416 107.04 Q 490.416 105.456 489.516 104.664 L 489.516 104.664 L 489.516 104.664 Q 488.616 103.872 486.744 103.728 L 486.744 103.728 L 486.744 103.728 Q 485.952 102.288 485.952 100.704 L 485.952 100.704 L 485.952 100.704 Q 488.76 100.92 492.648 100.92 L 492.648 100.92 L 492.648 100.92 Z  M 529.656 126.336 L 529.656 126.336 Q 530.232 126.696 530.772 127.344 L 530.772 127.344 L 530.772 127.344 Q 531.312 127.992 531.384 128.568 L 531.384 128.568 L 531.384 128.568 Q 528.936 131.736 525.804 133.14 L 525.804 133.14 L 525.804 133.14 Q 522.672 134.544 518.568 134.544 L 518.568 134.544 L 518.568 134.544 Q 513.6 134.544 510.18 132.276 L 510.18 132.276 L 510.18 132.276 Q 506.76 130.008 505.032 126.12 L 505.032 126.12 L 505.032 126.12 Q 503.304 122.232 503.304 117.408 L 503.304 117.408 L 503.304 117.408 Q 503.304 112.728 505.14 108.84 L 505.14 108.84 L 505.14 108.84 Q 506.976 104.952 510.36 102.612 L 510.36 102.612 L 510.36 102.612 Q 513.744 100.272 518.208 100.272 L 518.208 100.272 L 518.208 100.272 Q 524.76 100.272 527.964 104.34 L 527.964 104.34 L 527.964 104.34 Q 531.168 108.408 531.672 115.176 L 531.672 115.176 L 531.672 115.176 Q 531.384 116.616 530.592 117.624 L 530.592 117.624 L 530.592 117.624 Q 517.92 117.624 510.432 117.984 L 510.432 117.984 L 510.432 117.984 Q 510.792 123.528 513.204 127.02 L 513.204 127.02 L 513.204 127.02 Q 515.616 130.512 520.872 130.512 L 520.872 130.512 L 520.872 130.512 Q 523.32 130.512 525.624 129.432 L 525.624 129.432 L 525.624 129.432 Q 527.928 128.352 529.656 126.336 L 529.656 126.336 L 529.656 126.336 Z  M 517.56 103.728 L 517.56 103.728 Q 514.68 103.728 512.664 106.176 L 512.664 106.176 L 512.664 106.176 Q 510.648 108.624 510.36 114.384 L 510.36 114.384 L 524.184 114.384 L 524.184 114.384 Q 524.184 109.56 522.42 106.644 L 522.42 106.644 L 522.42 106.644 Q 520.656 103.728 517.56 103.728 L 517.56 103.728 L 517.56 103.728 Z  M 558.312 100.92 L 558.312 100.92 Q 561.048 100.92 563.28 102.648 L 563.28 102.648 L 563.28 102.648 Q 562.776 105.96 562.776 111.144 L 562.776 111.144 L 562.776 111.144 Q 560.832 111.792 558.672 111.792 L 558.672 111.792 L 558.672 111.792 Q 558.528 108.552 557.628 107.364 L 557.628 107.364 L 557.628 107.364 Q 556.728 106.176 555.144 106.176 L 555.144 106.176 L 555.144 106.176 Q 553.848 106.176 552.408 107.58 L 552.408 107.58 L 552.408 107.58 Q 550.968 108.984 549.996 111.36 L 549.996 111.36 L 549.996 111.36 Q 549.024 113.736 549.024 116.4 L 549.024 116.4 L 549.024 123.312 L 549.024 123.312 Q 549.024 126.408 549.672 128.028 L 549.672 128.028 L 549.672 128.028 Q 550.32 129.648 551.652 130.26 L 551.652 130.26 L 551.652 130.26 Q 552.984 130.872 555.432 131.016 L 555.432 131.016 L 555.432 131.016 Q 555.792 132.024 555.792 134.112 L 555.792 134.112 L 555.792 134.112 Q 552.48 133.896 546.72 133.896 L 546.72 133.896 L 546.72 133.896 Q 540.024 133.896 537.216 134.112 L 537.216 134.112 L 537.216 134.112 Q 537.216 132.024 537.576 131.016 L 537.576 131.016 L 537.576 131.016 Q 540.456 130.872 541.5 129.612 L 541.5 129.612 L 541.5 129.612 Q 542.544 128.352 542.544 124.752 L 542.544 124.752 L 542.544 110.496 L 542.544 110.496 Q 542.544 108.624 542.148 107.58 L 542.148 107.58 L 542.148 107.58 Q 541.752 106.536 540.6 105.996 L 540.6 105.996 L 540.6 105.996 Q 539.448 105.456 537.144 105.384 L 537.144 105.384 L 537.144 105.384 Q 537.144 103.728 537.792 102.72 L 537.792 102.72 L 537.792 102.72 Q 540.024 102.576 542.904 101.856 L 542.904 101.856 L 542.904 101.856 Q 545.784 101.136 547.44 100.272 L 547.44 100.272 L 547.44 100.272 Q 549.024 100.776 549.024 103.44 L 549.024 103.44 L 549.024 103.44 Q 549.024 105.888 548.592 108.012 L 548.592 108.012 L 548.592 108.012 Q 548.16 110.136 548.088 110.496 L 548.088 110.496 L 548.088 110.496 Q 548.232 110.064 548.664 108.768 L 548.664 108.768 L 548.664 108.768 Q 549.096 107.472 549.6 106.752 L 549.6 106.752 L 549.6 106.752 Q 553.272 100.92 558.312 100.92 L 558.312 100.92 L 558.312 100.92 Z " fill-rule="evenodd" fill="rgb(0,0,0)"/></g><g style="isolation:isolate"><g style="isolation:isolate"><circle vector-effect="non-scaling-stroke" cx="329" cy="411" r="19" fill="rgb(215,211,211)"/><line x1="329" y1="445" x2="329" y2="433" vector-effect="non-scaling-stroke" stroke-width="2" stroke="rgb(154,154,158)" stroke-linejoin="miter" stroke-linecap="square" stroke-miterlimit="3"/></g><g style="isolation:isolate"><line x1="350" y1="412" x2="490" y2="369" vector-effect="non-scaling-stroke" stroke-width="2" stroke="rgb(154,154,158)" stroke-linejoin="miter" stroke-linecap="square" stroke-miterlimit="3"/><circle vector-effect="non-scaling-stroke" cx="512" cy="369" r="19" fill="rgb(215,211,211)"/><line x1="512" y1="445" x2="512" y2="390" vector-effect="non-scaling-stroke" stroke-width="2" stroke="rgb(154,154,158)" stroke-linejoin="miter" stroke-linecap="square" stroke-miterlimit="3"/></g><g style="isolation:isolate"><line x1="145" y1="445" x2="145" y2="390" vector-effect="non-scaling-stroke" stroke-width="2" stroke="rgb(154,154,158)" stroke-linejoin="miter" stroke-linecap="square" stroke-miterlimit="3"/><circle vector-effect="non-scaling-stroke" cx="145" cy="369" r="19" fill="rgb(215,211,211)"/><line x1="166" y1="371" x2="308" y2="412" vector-effect="non-scaling-stroke" stroke-width="2" stroke="rgb(154,154,158)" stroke-linejoin="miter" stroke-linecap="square" stroke-miterlimit="3"/></g><g style="isolation:isolate"><line x1="166" y1="369" x2="308" y2="357" vector-effect="non-scaling-stroke" stroke-width="2" stroke="rgb(154,154,158)" stroke-linejoin="miter" stroke-linecap="square" stroke-miterlimit="3"/><circle vector-effect="non-scaling-stroke" cx="329.00000000000006" cy="358" r="19" fill="rgb(215,211,211)"/><line x1="329" y1="390" x2="329" y2="379" vector-effect="non-scaling-stroke" stroke-width="2" stroke="rgb(154,154,158)" stroke-linejoin="miter" stroke-linecap="square" stroke-miterlimit="3"/></g><g style="isolation:isolate"><line x1="696" y1="445" x2="696" y2="357" vector-effect="non-scaling-stroke" stroke-width="2" stroke="rgb(154,154,158)" stroke-linejoin="miter" stroke-linecap="square" stroke-miterlimit="3"/><line x1="533" y1="367" x2="675" y2="338" vector-effect="non-scaling-stroke" stroke-width="2" stroke="rgb(154,154,158)" stroke-linejoin="miter" stroke-linecap="square" stroke-miterlimit="3"/><circle vector-effect="non-scaling-stroke" cx="696" cy="336" r="19" fill="rgb(215,211,211)"/></g><g style="isolation:isolate"><line x1="490" y1="367" x2="166" y2="285" vector-effect="non-scaling-stroke" stroke-width="2" stroke="rgb(154,154,158)" stroke-linejoin="miter" stroke-linecap="square" stroke-miterlimit="3"/><line x1="145" y1="348" x2="145" y2="303" vector-effect="non-scaling-stroke" stroke-width="2" stroke="rgb(154,154,158)" stroke-linejoin="miter" stroke-linecap="square" stroke-miterlimit="3"/><circle vector-effect="non-scaling-stroke" cx="145" cy="282" r="19" fill="rgb(215,211,211)"/></g><g style="isolation:isolate"><line x1="512" y1="348" x2="512" y2="330" vector-effect="non-scaling-stroke" stroke-width="2" stroke="rgb(154,154,158)" stroke-linejoin="miter" stroke-linecap="square" stroke-miterlimit="3"/><circle vector-effect="non-scaling-stroke" cx="512" cy="309" r="19" fill="rgb(215,211,211)"/><line x1="533" y1="307" x2="675" y2="336" vector-effect="non-scaling-stroke" stroke-width="2" stroke="rgb(154,154,158)" stroke-linejoin="miter" stroke-linecap="square" stroke-miterlimit="3"/></g><g style="isolation:isolate"><line x1="329" y1="337" x2="329" y2="303" vector-effect="non-scaling-stroke" stroke-width="2" stroke="rgb(154,154,158)" stroke-linejoin="miter" stroke-linecap="square" stroke-miterlimit="3"/><line x1="350" y1="284" x2="491" y2="307" vector-effect="non-scaling-stroke" stroke-width="2" stroke="rgb(154,154,158)" stroke-linejoin="miter" stroke-linecap="square" stroke-miterlimit="3"/><circle vector-effect="non-scaling-stroke" cx="329" cy="282" r="19" fill="rgb(215,211,211)"/></g><g style="isolation:isolate"><line x1="350" y1="357" x2="490" y2="256" vector-effect="non-scaling-stroke" stroke-width="2" stroke="rgb(154,154,158)" stroke-linejoin="miter" stroke-linecap="square" stroke-miterlimit="3"/><line x1="512" y1="288" x2="512" y2="277" vector-effect="non-scaling-stroke" stroke-width="2" stroke="rgb(154,154,158)" stroke-linejoin="miter" stroke-linecap="square" stroke-miterlimit="3"/><circle vector-effect="non-scaling-stroke" cx="512" cy="256" r="19" fill="rgb(215,211,211)"/></g><g style="isolation:isolate"><line x1="166" y1="231" x2="308" y2="284" vector-effect="non-scaling-stroke" stroke-width="2" stroke="rgb(154,154,158)" stroke-linejoin="miter" stroke-linecap="square" stroke-miterlimit="3"/><circle vector-effect="non-scaling-stroke" cx="145" cy="231" r="19" fill="rgb(215,211,211)"/><line x1="145" y1="261" x2="145" y2="252" vector-effect="non-scaling-stroke" stroke-width="2" stroke="rgb(154,154,158)" stroke-linejoin="miter" stroke-linecap="square" stroke-miterlimit="3"/></g><g style="isolation:isolate"><line x1="695" y1="315" x2="695" y2="252" vector-effect="non-scaling-stroke" stroke-width="2" stroke="rgb(154,154,158)" stroke-linejoin="miter" stroke-linecap="square" stroke-miterlimit="3"/><line x1="533" y1="256" x2="673" y2="231" vector-effect="non-scaling-stroke" stroke-width="2" stroke="rgb(154,154,158)" stroke-linejoin="miter" stroke-linecap="square" stroke-miterlimit="3"/><circle vector-effect="non-scaling-stroke" cx="695.0000000000001" cy="231.00000000000003" r="19" fill="rgb(215,211,211)"/></g></g><g style="isolation:isolate"><path d=" M 692.373 238.759 L 692.158 237.323 L 692.07 237.323 L 692.07 237.323 Q 690.947 238.954 688.711 238.954 L 688.711 238.954 L 688.711 238.954 Q 686.611 238.954 685.444 237.519 L 685.444 237.519 L 685.444 237.519 Q 684.277 236.083 684.277 233.437 L 684.277 233.437 L 684.277 233.437 Q 684.277 230.79 685.449 229.325 L 685.449 229.325 L 685.449 229.325 Q 686.621 227.86 688.711 227.86 L 688.711 227.86 L 688.711 227.86 Q 690.889 227.86 692.051 229.442 L 692.051 229.442 L 692.178 229.442 L 692.109 228.671 L 692.07 227.919 L 692.07 223.563 L 693.691 223.563 L 693.691 238.759 L 692.373 238.759 L 692.373 238.759 Z  M 688.916 237.597 L 688.916 237.597 L 688.916 237.597 Q 690.576 237.597 691.323 236.693 L 691.323 236.693 L 691.323 236.693 Q 692.07 235.79 692.07 233.778 L 692.07 233.778 L 692.07 233.437 L 692.07 233.437 Q 692.07 231.161 691.313 230.189 L 691.313 230.189 L 691.313 230.189 Q 690.557 229.218 688.896 229.218 L 688.896 229.218 L 688.896 229.218 Q 687.471 229.218 686.714 230.326 L 686.714 230.326 L 686.714 230.326 Q 685.957 231.435 685.957 233.456 L 685.957 233.456 L 685.957 233.456 Q 685.957 235.507 686.709 236.552 L 686.709 236.552 L 686.709 236.552 Q 687.461 237.597 688.916 237.597 Z  M 702.393 224.481 L 702.393 238.759 L 700.811 238.759 L 700.811 228.583 L 700.811 228.583 Q 700.811 227.313 700.889 226.181 L 700.889 226.181 L 700.889 226.181 Q 700.684 226.386 700.43 226.61 L 700.43 226.61 L 700.43 226.61 Q 700.176 226.835 698.105 228.515 L 698.105 228.515 L 697.246 227.401 L 701.025 224.481 L 702.393 224.481 L 702.393 224.481 Z " fill-rule="evenodd" fill="rgb(139,139,139)"/><path d=" M 506.518 263.954 L 506.518 263.954 L 506.518 263.954 Q 504.193 263.954 502.919 262.523 L 502.919 262.523 L 502.919 262.523 Q 501.645 261.093 501.645 258.476 L 501.645 258.476 L 501.645 258.476 Q 501.645 255.79 502.938 254.325 L 502.938 254.325 L 502.938 254.325 Q 504.232 252.86 506.625 252.86 L 506.625 252.86 L 506.625 252.86 Q 507.396 252.86 508.168 253.026 L 508.168 253.026 L 508.168 253.026 Q 508.939 253.192 509.379 253.417 L 509.379 253.417 L 508.881 254.794 L 508.881 254.794 Q 508.344 254.579 507.709 254.438 L 507.709 254.438 L 507.709 254.438 Q 507.074 254.296 506.586 254.296 L 506.586 254.296 L 506.586 254.296 Q 503.324 254.296 503.324 258.456 L 503.324 258.456 L 503.324 258.456 Q 503.324 260.429 504.12 261.483 L 504.12 261.483 L 504.12 261.483 Q 504.916 262.538 506.479 262.538 L 506.479 262.538 L 506.479 262.538 Q 507.816 262.538 509.223 261.962 L 509.223 261.962 L 509.223 263.397 L 509.223 263.397 Q 508.148 263.954 506.518 263.954 Z  M 520.404 262.255 L 520.404 263.759 L 511.02 263.759 L 511.02 262.362 L 514.779 258.583 L 514.779 258.583 Q 516.498 256.845 517.045 256.103 L 517.045 256.103 L 517.045 256.103 Q 517.592 255.36 517.865 254.657 L 517.865 254.657 L 517.865 254.657 Q 518.139 253.954 518.139 253.144 L 518.139 253.144 L 518.139 253.144 Q 518.139 252.001 517.445 251.332 L 517.445 251.332 L 517.445 251.332 Q 516.752 250.663 515.521 250.663 L 515.521 250.663 L 515.521 250.663 Q 514.633 250.663 513.837 250.956 L 513.837 250.956 L 513.837 250.956 Q 513.041 251.249 512.064 252.021 L 512.064 252.021 L 511.205 250.917 L 511.205 250.917 Q 513.178 249.276 515.502 249.276 L 515.502 249.276 L 515.502 249.276 Q 517.514 249.276 518.656 250.307 L 518.656 250.307 L 518.656 250.307 Q 519.799 251.337 519.799 253.075 L 519.799 253.075 L 519.799 253.075 Q 519.799 254.433 519.037 255.761 L 519.037 255.761 L 519.037 255.761 Q 518.275 257.089 516.186 259.12 L 516.186 259.12 L 513.061 262.177 L 513.061 262.255 L 520.404 262.255 L 520.404 262.255 Z " fill-rule="evenodd" fill="rgb(139,139,139)"/><path d=" M 506.518 316.954 L 506.518 316.954 L 506.518 316.954 Q 504.193 316.954 502.919 315.523 L 502.919 315.523 L 502.919 315.523 Q 501.645 314.093 501.645 311.476 L 501.645 311.476 L 501.645 311.476 Q 501.645 308.79 502.938 307.325 L 502.938 307.325 L 502.938 307.325 Q 504.232 305.86 506.625 305.86 L 506.625 305.86 L 506.625 305.86 Q 507.396 305.86 508.168 306.026 L 508.168 306.026 L 508.168 306.026 Q 508.939 306.192 509.379 306.417 L 509.379 306.417 L 508.881 307.794 L 508.881 307.794 Q 508.344 307.579 507.709 307.438 L 507.709 307.438 L 507.709 307.438 Q 507.074 307.296 506.586 307.296 L 506.586 307.296 L 506.586 307.296 Q 503.324 307.296 503.324 311.456 L 503.324 311.456 L 503.324 311.456 Q 503.324 313.429 504.12 314.483 L 504.12 314.483 L 504.12 314.483 Q 504.916 315.538 506.479 315.538 L 506.479 315.538 L 506.479 315.538 Q 507.816 315.538 509.223 314.962 L 509.223 314.962 L 509.223 316.397 L 509.223 316.397 Q 508.148 316.954 506.518 316.954 Z  M 517.025 302.481 L 517.025 316.759 L 515.443 316.759 L 515.443 306.583 L 515.443 306.583 Q 515.443 305.313 515.521 304.181 L 515.521 304.181 L 515.521 304.181 Q 515.316 304.386 515.063 304.61 L 515.063 304.61 L 515.063 304.61 Q 514.809 304.835 512.738 306.515 L 512.738 306.515 L 511.879 305.401 L 515.658 302.481 L 517.025 302.481 L 517.025 302.481 Z " fill-rule="evenodd" fill="rgb(139,139,139)"/><path d=" M 322.854 279.38 L 322.854 279.38 L 322.854 279.38 Q 324.963 279.38 326.13 280.82 L 326.13 280.82 L 326.13 280.82 Q 327.297 282.261 327.297 284.897 L 327.297 284.897 L 327.297 284.897 Q 327.297 287.534 326.12 288.994 L 326.12 288.994 L 326.12 288.994 Q 324.943 290.454 322.854 290.454 L 322.854 290.454 L 322.854 290.454 Q 321.809 290.454 320.944 290.068 L 320.944 290.068 L 320.944 290.068 Q 320.08 289.683 319.494 288.882 L 319.494 288.882 L 319.377 288.882 L 319.035 290.259 L 317.873 290.259 L 317.873 275.063 L 319.494 275.063 L 319.494 278.755 L 319.494 278.755 Q 319.494 279.995 319.416 280.981 L 319.416 280.981 L 319.494 280.981 L 319.494 280.981 Q 320.627 279.38 322.854 279.38 Z  M 322.619 280.737 L 322.619 280.737 L 322.619 280.737 Q 320.959 280.737 320.227 281.689 L 320.227 281.689 L 320.227 281.689 Q 319.494 282.642 319.494 284.897 L 319.494 284.897 L 319.494 284.897 Q 319.494 287.153 320.246 288.125 L 320.246 288.125 L 320.246 288.125 Q 320.998 289.097 322.658 289.097 L 322.658 289.097 L 322.658 289.097 Q 324.152 289.097 324.885 288.008 L 324.885 288.008 L 324.885 288.008 Q 325.617 286.919 325.617 284.878 L 325.617 284.878 L 325.617 284.878 Q 325.617 282.788 324.885 281.763 L 324.885 281.763 L 324.885 281.763 Q 324.152 280.737 322.619 280.737 Z  M 338.771 288.755 L 338.771 290.259 L 329.387 290.259 L 329.387 288.862 L 333.146 285.083 L 333.146 285.083 Q 334.865 283.345 335.412 282.603 L 335.412 282.603 L 335.412 282.603 Q 335.959 281.86 336.232 281.157 L 336.232 281.157 L 336.232 281.157 Q 336.506 280.454 336.506 279.644 L 336.506 279.644 L 336.506 279.644 Q 336.506 278.501 335.813 277.832 L 335.813 277.832 L 335.813 277.832 Q 335.119 277.163 333.889 277.163 L 333.889 277.163 L 333.889 277.163 Q 333 277.163 332.204 277.456 L 332.204 277.456 L 332.204 277.456 Q 331.408 277.749 330.432 278.521 L 330.432 278.521 L 329.572 277.417 L 329.572 277.417 Q 331.545 275.776 333.869 275.776 L 333.869 275.776 L 333.869 275.776 Q 335.881 275.776 337.023 276.807 L 337.023 276.807 L 337.023 276.807 Q 338.166 277.837 338.166 279.575 L 338.166 279.575 L 338.166 279.575 Q 338.166 280.933 337.404 282.261 L 337.404 282.261 L 337.404 282.261 Q 336.643 283.589 334.553 285.62 L 334.553 285.62 L 331.428 288.677 L 331.428 288.755 L 338.771 288.755 L 338.771 288.755 Z " fill-rule="evenodd" fill="rgb(139,139,139)"/><path d=" M 322.854 353.88 L 322.854 353.88 L 322.854 353.88 Q 324.963 353.88 326.13 355.32 L 326.13 355.32 L 326.13 355.32 Q 327.297 356.761 327.297 359.397 L 327.297 359.397 L 327.297 359.397 Q 327.297 362.034 326.12 363.494 L 326.12 363.494 L 326.12 363.494 Q 324.943 364.954 322.854 364.954 L 322.854 364.954 L 322.854 364.954 Q 321.809 364.954 320.944 364.568 L 320.944 364.568 L 320.944 364.568 Q 320.08 364.183 319.494 363.382 L 319.494 363.382 L 319.377 363.382 L 319.035 364.759 L 317.873 364.759 L 317.873 349.563 L 319.494 349.563 L 319.494 353.255 L 319.494 353.255 Q 319.494 354.495 319.416 355.481 L 319.416 355.481 L 319.494 355.481 L 319.494 355.481 Q 320.627 353.88 322.854 353.88 Z  M 322.619 355.237 L 322.619 355.237 L 322.619 355.237 Q 320.959 355.237 320.227 356.189 L 320.227 356.189 L 320.227 356.189 Q 319.494 357.142 319.494 359.397 L 319.494 359.397 L 319.494 359.397 Q 319.494 361.653 320.246 362.625 L 320.246 362.625 L 320.246 362.625 Q 320.998 363.597 322.658 363.597 L 322.658 363.597 L 322.658 363.597 Q 324.152 363.597 324.885 362.508 L 324.885 362.508 L 324.885 362.508 Q 325.617 361.419 325.617 359.378 L 325.617 359.378 L 325.617 359.378 Q 325.617 357.288 324.885 356.263 L 324.885 356.263 L 324.885 356.263 Q 324.152 355.237 322.619 355.237 Z  M 335.393 350.481 L 335.393 364.759 L 333.811 364.759 L 333.811 354.583 L 333.811 354.583 Q 333.811 353.313 333.889 352.181 L 333.889 352.181 L 333.889 352.181 Q 333.684 352.386 333.43 352.61 L 333.43 352.61 L 333.43 352.61 Q 333.176 352.835 331.105 354.515 L 331.105 354.515 L 330.246 353.401 L 334.025 350.481 L 335.393 350.481 L 335.393 350.481 Z " fill-rule="evenodd" fill="rgb(139,139,139)"/><path d=" M 142.223 238.759 L 141.021 238.759 L 140.699 237.235 L 140.621 237.235 L 140.621 237.235 Q 139.82 238.241 139.024 238.598 L 139.024 238.598 L 139.024 238.598 Q 138.229 238.954 137.037 238.954 L 137.037 238.954 L 137.037 238.954 Q 135.445 238.954 134.542 238.134 L 134.542 238.134 L 134.542 238.134 Q 133.639 237.313 133.639 235.8 L 133.639 235.8 L 133.639 235.8 Q 133.639 232.558 138.824 232.401 L 138.824 232.401 L 140.641 232.343 L 140.641 231.679 L 140.641 231.679 Q 140.641 230.419 140.099 229.818 L 140.099 229.818 L 140.099 229.818 Q 139.557 229.218 138.365 229.218 L 138.365 229.218 L 138.365 229.218 Q 137.027 229.218 135.338 230.038 L 135.338 230.038 L 134.84 228.798 L 134.84 228.798 Q 135.631 228.368 136.573 228.124 L 136.573 228.124 L 136.573 228.124 Q 137.516 227.88 138.463 227.88 L 138.463 227.88 L 138.463 227.88 Q 140.377 227.88 141.3 228.729 L 141.3 228.729 L 141.3 228.729 Q 142.223 229.579 142.223 231.454 L 142.223 231.454 L 142.223 238.759 L 142.223 238.759 Z  M 137.359 237.616 L 137.359 237.616 L 137.359 237.616 Q 138.873 237.616 139.737 236.786 L 139.737 236.786 L 139.737 236.786 Q 140.602 235.956 140.602 234.462 L 140.602 234.462 L 140.602 233.495 L 138.98 233.563 L 138.98 233.563 Q 137.047 233.632 136.192 234.164 L 136.192 234.164 L 136.192 234.164 Q 135.338 234.696 135.338 235.819 L 135.338 235.819 L 135.338 235.819 Q 135.338 236.698 135.87 237.157 L 135.87 237.157 L 135.87 237.157 Q 136.402 237.616 137.359 237.616 Z  M 154.205 237.255 L 154.205 238.759 L 144.82 238.759 L 144.82 237.362 L 148.58 233.583 L 148.58 233.583 Q 150.299 231.845 150.846 231.103 L 150.846 231.103 L 150.846 231.103 Q 151.393 230.36 151.666 229.657 L 151.666 229.657 L 151.666 229.657 Q 151.939 228.954 151.939 228.144 L 151.939 228.144 L 151.939 228.144 Q 151.939 227.001 151.246 226.332 L 151.246 226.332 L 151.246 226.332 Q 150.553 225.663 149.322 225.663 L 149.322 225.663 L 149.322 225.663 Q 148.434 225.663 147.638 225.956 L 147.638 225.956 L 147.638 225.956 Q 146.842 226.249 145.865 227.021 L 145.865 227.021 L 145.006 225.917 L 145.006 225.917 Q 146.979 224.276 149.303 224.276 L 149.303 224.276 L 149.303 224.276 Q 151.314 224.276 152.457 225.307 L 152.457 225.307 L 152.457 225.307 Q 153.6 226.337 153.6 228.075 L 153.6 228.075 L 153.6 228.075 Q 153.6 229.433 152.838 230.761 L 152.838 230.761 L 152.838 230.761 Q 152.076 232.089 149.986 234.12 L 149.986 234.12 L 146.861 237.177 L 146.861 237.255 L 154.205 237.255 L 154.205 237.255 Z " fill-rule="evenodd" fill="rgb(139,139,139)"/><path d=" M 142.223 289.759 L 141.021 289.759 L 140.699 288.235 L 140.621 288.235 L 140.621 288.235 Q 139.82 289.241 139.024 289.598 L 139.024 289.598 L 139.024 289.598 Q 138.229 289.954 137.037 289.954 L 137.037 289.954 L 137.037 289.954 Q 135.445 289.954 134.542 289.134 L 134.542 289.134 L 134.542 289.134 Q 133.639 288.313 133.639 286.8 L 133.639 286.8 L 133.639 286.8 Q 133.639 283.558 138.824 283.401 L 138.824 283.401 L 140.641 283.343 L 140.641 282.679 L 140.641 282.679 Q 140.641 281.419 140.099 280.818 L 140.099 280.818 L 140.099 280.818 Q 139.557 280.218 138.365 280.218 L 138.365 280.218 L 138.365 280.218 Q 137.027 280.218 135.338 281.038 L 135.338 281.038 L 134.84 279.798 L 134.84 279.798 Q 135.631 279.368 136.573 279.124 L 136.573 279.124 L 136.573 279.124 Q 137.516 278.88 138.463 278.88 L 138.463 278.88 L 138.463 278.88 Q 140.377 278.88 141.3 279.729 L 141.3 279.729 L 141.3 279.729 Q 142.223 280.579 142.223 282.454 L 142.223 282.454 L 142.223 289.759 L 142.223 289.759 Z  M 137.359 288.616 L 137.359 288.616 L 137.359 288.616 Q 138.873 288.616 139.737 287.786 L 139.737 287.786 L 139.737 287.786 Q 140.602 286.956 140.602 285.462 L 140.602 285.462 L 140.602 284.495 L 138.98 284.563 L 138.98 284.563 Q 137.047 284.632 136.192 285.164 L 136.192 285.164 L 136.192 285.164 Q 135.338 285.696 135.338 286.819 L 135.338 286.819 L 135.338 286.819 Q 135.338 287.698 135.87 288.157 L 135.87 288.157 L 135.87 288.157 Q 136.402 288.616 137.359 288.616 Z  M 150.826 275.481 L 150.826 289.759 L 149.244 289.759 L 149.244 279.583 L 149.244 279.583 Q 149.244 278.313 149.322 277.181 L 149.322 277.181 L 149.322 277.181 Q 149.117 277.386 148.863 277.61 L 148.863 277.61 L 148.863 277.61 Q 148.609 277.835 146.539 279.515 L 146.539 279.515 L 145.68 278.401 L 149.459 275.481 L 150.826 275.481 L 150.826 275.481 Z " fill-rule="evenodd" fill="rgb(139,139,139)"/></g><g style="isolation:isolate"><path d=" M 695.986 321.5 C 689.867 321.5 684.972 326.167 684.972 332 C 684.972 339 692.44 346 695.986 349.5 C 699.657 346 707 339 707 332 C 707 326.167 702.105 321.5 695.986 321.5 Z  M 693.92 327.333 L 698.204 327.333 C 698.448 327.333 698.692 327.465 698.815 327.699 L 699.045 328.5 L 700.881 328.5 C 701.618 328.5 702.105 328.964 702.105 329.667 L 702.105 335.5 C 702.105 336.202 701.618 336.667 700.881 336.667 L 691.091 336.667 C 690.354 336.667 689.867 336.202 689.867 335.5 L 689.867 329.667 C 689.867 328.964 690.354 328.5 691.091 328.5 L 692.927 328.5 L 693.31 327.697 C 693.426 327.476 693.662 327.335 693.922 327.333 L 693.92 327.333 Z  M 695.986 330.25 C 694.634 330.25 693.539 331.295 693.539 332.583 C 693.539 333.872 694.634 334.917 695.986 334.917 C 697.338 334.917 698.434 333.872 698.434 332.583 C 698.434 331.295 697.338 330.25 695.986 330.25 Z " fill="none" vector-effect="non-scaling-stroke" stroke-width="1" stroke="rgb(0,0,0)" stroke-linejoin="miter" stroke-linecap="butt" stroke-miterlimit="4"/><path d=" M 510.986 356 C 504.867 356 499.972 360.667 499.972 366.5 C 499.972 373.5 507.44 380.5 510.986 384 C 514.657 380.5 522 373.5 522 366.5 C 522 360.667 517.105 356 510.986 356 Z  M 508.92 361.833 L 513.204 361.833 C 513.448 361.833 513.692 361.965 513.815 362.199 L 514.045 363 L 515.881 363 C 516.618 363 517.105 363.464 517.105 364.167 L 517.105 370 C 517.105 370.702 516.618 371.167 515.881 371.167 L 506.091 371.167 C 505.354 371.167 504.867 370.702 504.867 370 L 504.867 364.167 C 504.867 363.464 505.354 363 506.091 363 L 507.927 363 L 508.31 362.197 C 508.426 361.976 508.662 361.835 508.922 361.833 L 508.92 361.833 Z  M 510.986 364.75 C 509.634 364.75 508.539 365.795 508.539 367.083 C 508.539 368.372 509.634 369.417 510.986 369.417 C 512.338 369.417 513.434 368.372 513.434 367.083 C 513.434 365.795 512.338 364.75 510.986 364.75 Z " fill="none" vector-effect="non-scaling-stroke" stroke-width="1" stroke="rgb(0,0,0)" stroke-linejoin="miter" stroke-linecap="butt" stroke-miterlimit="4"/><path d=" M 329.014 398 C 322.895 398 318 402.667 318 408.5 C 318 415.5 325.467 422.5 329.014 426 C 332.685 422.5 340.028 415.5 340.028 408.5 C 340.028 402.667 335.133 398 329.014 398 Z  M 326.948 403.833 L 331.231 403.833 C 331.476 403.833 331.72 403.965 331.843 404.199 L 332.073 405 L 333.909 405 C 334.646 405 335.133 405.464 335.133 406.167 L 335.133 412 C 335.133 412.702 334.646 413.167 333.909 413.167 L 324.119 413.167 C 323.382 413.167 322.895 412.702 322.895 412 L 322.895 406.167 C 322.895 405.464 323.382 405 324.119 405 L 325.955 405 L 326.338 404.197 C 326.454 403.976 326.69 403.835 326.949 403.833 L 326.948 403.833 Z  M 329.014 406.75 C 327.662 406.75 326.566 407.795 326.566 409.083 C 326.566 410.372 327.662 411.417 329.014 411.417 C 330.366 411.417 331.461 410.372 331.461 409.083 C 331.461 407.795 330.366 406.75 329.014 406.75 Z " fill="none" vector-effect="non-scaling-stroke" stroke-width="1" stroke="rgb(0,0,0)" stroke-linejoin="miter" stroke-linecap="butt" stroke-miterlimit="4"/><path d=" M 145.151 356 C 139.032 356 134.137 360.667 134.137 366.5 C 134.137 373.5 141.604 380.5 145.151 384 C 148.822 380.5 156.165 373.5 156.165 366.5 C 156.165 360.667 151.27 356 145.151 356 Z  M 143.085 361.833 L 147.368 361.833 C 147.613 361.833 147.857 361.965 147.98 362.198 L 148.21 363 L 150.046 363 C 150.783 363 151.27 363.464 151.27 364.167 L 151.27 370 C 151.27 370.702 150.783 371.167 150.046 371.167 L 140.256 371.167 C 139.519 371.167 139.032 370.702 139.032 370 L 139.032 364.167 C 139.032 363.464 139.519 363 140.256 363 L 142.091 363 L 142.474 362.197 C 142.59 361.976 142.827 361.835 143.086 361.833 L 143.085 361.833 Z  M 145.151 364.75 C 143.799 364.75 142.703 365.795 142.703 367.083 C 142.703 368.372 143.799 369.417 145.151 369.417 C 146.503 369.417 147.598 368.372 147.598 367.083 C 147.598 365.795 146.503 364.75 145.151 364.75 Z " fill="rgb(240,183,93)" vector-effect="non-scaling-stroke" stroke-width="1" stroke="rgb(255,0,0)" stroke-linejoin="miter" stroke-linecap="butt" stroke-miterlimit="4"/><path d=" M 145.151 356 C 139.032 356 134.137 360.667 134.137 366.5 C 134.137 373.5 141.604 380.5 145.151 384 C 148.822 380.5 156.165 373.5 156.165 366.5 C 156.165 360.667 151.27 356 145.151 356 Z  M 143.085 361.833 L 147.368 361.833 C 147.613 361.833 147.857 361.965 147.98 362.199 L 148.21 363 L 150.046 363 C 150.783 363 151.27 363.464 151.27 364.167 L 151.27 370 C 151.27 370.702 150.783 371.167 150.046 371.167 L 140.256 371.167 C 139.519 371.167 139.032 370.702 139.032 370 L 139.032 364.167 C 139.032 363.464 139.519 363 140.256 363 L 142.091 363 L 142.474 362.197 C 142.59 361.976 142.827 361.835 143.086 361.833 L 143.085 361.833 Z  M 145.151 364.75 C 143.799 364.75 142.703 365.795 142.703 367.083 C 142.703 368.372 143.799 369.417 145.151 369.417 C 146.503 369.417 147.598 368.372 147.598 367.083 C 147.598 365.795 146.503 364.75 145.151 364.75 Z " fill="none" vector-effect="non-scaling-stroke" stroke-width="1" stroke="rgb(0,0,0)" stroke-linejoin="miter" stroke-linecap="butt" stroke-miterlimit="4"/><g style="isolation:isolate"><line x1="166" y1="369" x2="308" y2="357" vector-effect="non-scaling-stroke" stroke-width="3" stroke="rgb(74,134,232)" stroke-linejoin="miter" stroke-linecap="square" stroke-miterlimit="3"/><line x1="145" y1="261" x2="145" y2="252" vector-effect="non-scaling-stroke" stroke-width="3" stroke="rgb(74,134,232)" stroke-linejoin="miter" stroke-linecap="square" stroke-miterlimit="3"/><line x1="329" y1="337" x2="329" y2="303" vector-effect="non-scaling-stroke" stroke-width="3" stroke="rgb(74,134,232)" stroke-linejoin="miter" stroke-linecap="square" stroke-miterlimit="3"/><line x1="145" y1="348" x2="145" y2="303" vector-effect="non-scaling-stroke" stroke-width="3" stroke="rgb(74,134,232)" stroke-linejoin="miter" stroke-linecap="square" stroke-miterlimit="3"/><line x1="166" y1="231" x2="308" y2="284" vector-effect="non-scaling-stroke" stroke-width="3" stroke="rgb(74,134,232)" stroke-linejoin="miter" stroke-linecap="square" stroke-miterlimit="3"/></g></g></g></svg>