<?xml version="1.0" standalone="no"?><!-- Generator: Gravit.io --><svg xmlns="http://www.w3.org/2000/svg" xmlns:xlink="http://www.w3.org/1999/xlink" style="isolation:isolate" viewBox="0 0 841.89 595.276" width="841.89" height="595.276"><defs><clipPath id="_clipPath_ElTmhBNnTcxlRrBisoLLDgZ8AaSPCWwV"><rect width="841.89" height="595.276"/></clipPath></defs><g clip-path="url(#_clipPath_ElTmhBNnTcxlRrBisoLLDgZ8AaSPCWwV)"><g style="isolation:isolate"><g><rect x="100" y="447" width="90" height="35" transform="matrix(1,0,0,1,0,0)" fill="rgb(221,217,216)"/><path d=" M 135.398 472.259 L 133.68 472.259 L 131.902 467.718 L 126.18 467.718 L 124.422 472.259 L 122.742 472.259 L 128.387 457.923 L 129.783 457.923 L 135.398 472.259 L 135.398 472.259 Z  M 126.766 466.224 L 131.385 466.224 L 129.725 461.8 L 129.725 461.8 Q 129.402 460.96 129.061 459.739 L 129.061 459.739 L 129.061 459.739 Q 128.846 460.677 128.445 461.8 L 128.445 461.8 L 126.766 466.224 L 126.766 466.224 Z  M 138.738 457.063 L 138.738 472.259 L 137.117 472.259 L 137.117 457.063 L 138.738 457.063 L 138.738 457.063 Z  M 143.797 461.556 L 143.797 472.259 L 142.176 472.259 L 142.176 461.556 L 143.797 461.556 L 143.797 461.556 Z  M 142.039 458.655 L 142.039 458.655 L 142.039 458.655 Q 142.039 458.099 142.313 457.84 L 142.313 457.84 L 142.313 457.84 Q 142.586 457.581 142.996 457.581 L 142.996 457.581 L 142.996 457.581 Q 143.387 457.581 143.67 457.845 L 143.67 457.845 L 143.67 457.845 Q 143.953 458.108 143.953 458.655 L 143.953 458.655 L 143.953 458.655 Q 143.953 459.202 143.67 459.471 L 143.67 459.471 L 143.67 459.471 Q 143.387 459.739 142.996 459.739 L 142.996 459.739 L 142.996 459.739 Q 142.586 459.739 142.313 459.471 L 142.313 459.471 L 142.313 459.471 Q 142.039 459.202 142.039 458.655 Z  M 151.512 472.454 L 151.512 472.454 L 151.512 472.454 Q 149.188 472.454 147.913 471.023 L 147.913 471.023 L 147.913 471.023 Q 146.639 469.593 146.639 466.976 L 146.639 466.976 L 146.639 466.976 Q 146.639 464.29 147.933 462.825 L 147.933 462.825 L 147.933 462.825 Q 149.227 461.36 151.619 461.36 L 151.619 461.36 L 151.619 461.36 Q 152.391 461.36 153.162 461.526 L 153.162 461.526 L 153.162 461.526 Q 153.934 461.692 154.373 461.917 L 154.373 461.917 L 153.875 463.294 L 153.875 463.294 Q 153.338 463.079 152.703 462.938 L 152.703 462.938 L 152.703 462.938 Q 152.068 462.796 151.58 462.796 L 151.58 462.796 L 151.58 462.796 Q 148.318 462.796 148.318 466.956 L 148.318 466.956 L 148.318 466.956 Q 148.318 468.929 149.114 469.983 L 149.114 469.983 L 149.114 469.983 Q 149.91 471.038 151.473 471.038 L 151.473 471.038 L 151.473 471.038 Q 152.811 471.038 154.217 470.462 L 154.217 470.462 L 154.217 471.897 L 154.217 471.897 Q 153.143 472.454 151.512 472.454 Z  M 161.277 472.454 L 161.277 472.454 L 161.277 472.454 Q 158.904 472.454 157.532 471.009 L 157.532 471.009 L 157.532 471.009 Q 156.16 469.563 156.16 466.995 L 156.16 466.995 L 156.16 466.995 Q 156.16 464.407 157.435 462.884 L 157.435 462.884 L 157.435 462.884 Q 158.709 461.36 160.857 461.36 L 160.857 461.36 L 160.857 461.36 Q 162.869 461.36 164.041 462.684 L 164.041 462.684 L 164.041 462.684 Q 165.213 464.007 165.213 466.175 L 165.213 466.175 L 165.213 467.2 L 157.84 467.2 L 157.84 467.2 Q 157.889 469.085 158.792 470.062 L 158.792 470.062 L 158.792 470.062 Q 159.695 471.038 161.336 471.038 L 161.336 471.038 L 161.336 471.038 Q 163.064 471.038 164.754 470.315 L 164.754 470.315 L 164.754 471.761 L 164.754 471.761 Q 163.895 472.132 163.128 472.293 L 163.128 472.293 L 163.128 472.293 Q 162.361 472.454 161.277 472.454 Z  M 160.838 462.718 L 160.838 462.718 L 160.838 462.718 Q 159.549 462.718 158.782 463.558 L 158.782 463.558 L 158.782 463.558 Q 158.016 464.397 157.879 465.882 L 157.879 465.882 L 163.475 465.882 L 163.475 465.882 Q 163.475 464.349 162.791 463.533 L 162.791 463.533 L 162.791 463.533 Q 162.107 462.718 160.838 462.718 Z " fill-rule="evenodd" fill="rgb(0,0,0)"/></g><g><rect x="284" y="447" width="90" height="35" transform="matrix(1,0,0,1,0,0)" fill="rgb(221,217,216)"/><path d=" M 311.815 472.259 L 311.815 457.981 L 315.849 457.981 L 315.849 457.981 Q 318.69 457.981 319.96 458.831 L 319.96 458.831 L 319.96 458.831 Q 321.229 459.681 321.229 461.517 L 321.229 461.517 L 321.229 461.517 Q 321.229 462.786 320.521 463.611 L 320.521 463.611 L 320.521 463.611 Q 319.813 464.437 318.456 464.681 L 318.456 464.681 L 318.456 464.778 L 318.456 464.778 Q 321.708 465.335 321.708 468.196 L 321.708 468.196 L 321.708 468.196 Q 321.708 470.11 320.414 471.185 L 320.414 471.185 L 320.414 471.185 Q 319.12 472.259 316.796 472.259 L 316.796 472.259 L 311.815 472.259 L 311.815 472.259 Z  M 313.476 459.417 L 313.476 464.095 L 316.21 464.095 L 316.21 464.095 Q 317.968 464.095 318.739 463.543 L 318.739 463.543 L 318.739 463.543 Q 319.511 462.991 319.511 461.683 L 319.511 461.683 L 319.511 461.683 Q 319.511 460.481 318.651 459.949 L 318.651 459.949 L 318.651 459.949 Q 317.792 459.417 315.917 459.417 L 315.917 459.417 L 313.476 459.417 L 313.476 459.417 Z  M 316.317 465.501 L 313.476 465.501 L 313.476 470.843 L 316.454 470.843 L 316.454 470.843 Q 318.183 470.843 319.057 470.174 L 319.057 470.174 L 319.057 470.174 Q 319.931 469.505 319.931 468.079 L 319.931 468.079 L 319.931 468.079 Q 319.931 466.751 319.037 466.126 L 319.037 466.126 L 319.037 466.126 Q 318.144 465.501 316.317 465.501 L 316.317 465.501 L 316.317 465.501 Z  M 333.769 466.897 L 333.769 466.897 L 333.769 466.897 Q 333.769 469.515 332.45 470.984 L 332.45 470.984 L 332.45 470.984 Q 331.132 472.454 328.808 472.454 L 328.808 472.454 L 328.808 472.454 Q 327.372 472.454 326.259 471.78 L 326.259 471.78 L 326.259 471.78 Q 325.146 471.106 324.54 469.847 L 324.54 469.847 L 324.54 469.847 Q 323.935 468.587 323.935 466.897 L 323.935 466.897 L 323.935 466.897 Q 323.935 464.28 325.243 462.82 L 325.243 462.82 L 325.243 462.82 Q 326.552 461.36 328.876 461.36 L 328.876 461.36 L 328.876 461.36 Q 331.122 461.36 332.445 462.854 L 332.445 462.854 L 332.445 462.854 Q 333.769 464.349 333.769 466.897 Z  M 325.614 466.897 L 325.614 466.897 L 325.614 466.897 Q 325.614 468.948 326.435 470.022 L 326.435 470.022 L 326.435 470.022 Q 327.255 471.097 328.847 471.097 L 328.847 471.097 L 328.847 471.097 Q 330.438 471.097 331.264 470.027 L 331.264 470.027 L 331.264 470.027 Q 332.089 468.958 332.089 466.897 L 332.089 466.897 L 332.089 466.897 Q 332.089 464.856 331.264 463.797 L 331.264 463.797 L 331.264 463.797 Q 330.438 462.737 328.827 462.737 L 328.827 462.737 L 328.827 462.737 Q 327.235 462.737 326.425 463.782 L 326.425 463.782 L 326.425 463.782 Q 325.614 464.827 325.614 466.897 Z  M 341.591 461.38 L 341.591 461.38 L 341.591 461.38 Q 343.7 461.38 344.867 462.82 L 344.867 462.82 L 344.867 462.82 Q 346.034 464.261 346.034 466.897 L 346.034 466.897 L 346.034 466.897 Q 346.034 469.534 344.857 470.994 L 344.857 470.994 L 344.857 470.994 Q 343.681 472.454 341.591 472.454 L 341.591 472.454 L 341.591 472.454 Q 340.546 472.454 339.682 472.068 L 339.682 472.068 L 339.682 472.068 Q 338.817 471.683 338.231 470.882 L 338.231 470.882 L 338.114 470.882 L 337.772 472.259 L 336.61 472.259 L 336.61 457.063 L 338.231 457.063 L 338.231 460.755 L 338.231 460.755 Q 338.231 461.995 338.153 462.981 L 338.153 462.981 L 338.231 462.981 L 338.231 462.981 Q 339.364 461.38 341.591 461.38 Z  M 341.356 462.737 L 341.356 462.737 L 341.356 462.737 Q 339.696 462.737 338.964 463.689 L 338.964 463.689 L 338.964 463.689 Q 338.231 464.642 338.231 466.897 L 338.231 466.897 L 338.231 466.897 Q 338.231 469.153 338.983 470.125 L 338.983 470.125 L 338.983 470.125 Q 339.735 471.097 341.396 471.097 L 341.396 471.097 L 341.396 471.097 Q 342.89 471.097 343.622 470.008 L 343.622 470.008 L 343.622 470.008 Q 344.354 468.919 344.354 466.878 L 344.354 466.878 L 344.354 466.878 Q 344.354 464.788 343.622 463.763 L 343.622 463.763 L 343.622 463.763 Q 342.89 462.737 341.356 462.737 Z " fill-rule="evenodd" fill="rgb(0,0,0)"/></g><g><rect x="467" y="447" width="90" height="35" transform="matrix(1,0,0,1,0,0)" fill="rgb(221,217,216)"/><path d=" M 495.055 459.261 L 495.055 459.261 L 495.055 459.261 Q 492.701 459.261 491.339 460.828 L 491.339 460.828 L 491.339 460.828 Q 489.977 462.396 489.977 465.12 L 489.977 465.12 L 489.977 465.12 Q 489.977 467.923 491.29 469.451 L 491.29 469.451 L 491.29 469.451 Q 492.604 470.979 495.035 470.979 L 495.035 470.979 L 495.035 470.979 Q 496.529 470.979 498.443 470.442 L 498.443 470.442 L 498.443 471.897 L 498.443 471.897 Q 496.959 472.454 494.781 472.454 L 494.781 472.454 L 494.781 472.454 Q 491.627 472.454 489.913 470.54 L 489.913 470.54 L 489.913 470.54 Q 488.199 468.626 488.199 465.101 L 488.199 465.101 L 488.199 465.101 Q 488.199 462.894 489.024 461.233 L 489.024 461.233 L 489.024 461.233 Q 489.85 459.573 491.407 458.675 L 491.407 458.675 L 491.407 458.675 Q 492.965 457.776 495.074 457.776 L 495.074 457.776 L 495.074 457.776 Q 497.32 457.776 499 458.597 L 499 458.597 L 498.297 460.022 L 498.297 460.022 Q 496.676 459.261 495.055 459.261 Z  M 509.098 472.259 L 507.896 472.259 L 507.574 470.735 L 507.496 470.735 L 507.496 470.735 Q 506.695 471.741 505.899 472.098 L 505.899 472.098 L 505.899 472.098 Q 505.104 472.454 503.912 472.454 L 503.912 472.454 L 503.912 472.454 Q 502.32 472.454 501.417 471.634 L 501.417 471.634 L 501.417 471.634 Q 500.514 470.813 500.514 469.3 L 500.514 469.3 L 500.514 469.3 Q 500.514 466.058 505.699 465.901 L 505.699 465.901 L 507.516 465.843 L 507.516 465.179 L 507.516 465.179 Q 507.516 463.919 506.974 463.318 L 506.974 463.318 L 506.974 463.318 Q 506.432 462.718 505.24 462.718 L 505.24 462.718 L 505.24 462.718 Q 503.902 462.718 502.213 463.538 L 502.213 463.538 L 501.715 462.298 L 501.715 462.298 Q 502.506 461.868 503.448 461.624 L 503.448 461.624 L 503.448 461.624 Q 504.391 461.38 505.338 461.38 L 505.338 461.38 L 505.338 461.38 Q 507.252 461.38 508.175 462.229 L 508.175 462.229 L 508.175 462.229 Q 509.098 463.079 509.098 464.954 L 509.098 464.954 L 509.098 472.259 L 509.098 472.259 Z  M 504.234 471.116 L 504.234 471.116 L 504.234 471.116 Q 505.748 471.116 506.612 470.286 L 506.612 470.286 L 506.612 470.286 Q 507.477 469.456 507.477 467.962 L 507.477 467.962 L 507.477 466.995 L 505.855 467.063 L 505.855 467.063 Q 503.922 467.132 503.067 467.664 L 503.067 467.664 L 503.067 467.664 Q 502.213 468.196 502.213 469.319 L 502.213 469.319 L 502.213 469.319 Q 502.213 470.198 502.745 470.657 L 502.745 470.657 L 502.745 470.657 Q 503.277 471.116 504.234 471.116 Z  M 517.32 461.36 L 517.32 461.36 L 517.32 461.36 Q 518.033 461.36 518.6 461.478 L 518.6 461.478 L 518.375 462.981 L 518.375 462.981 Q 517.711 462.835 517.203 462.835 L 517.203 462.835 L 517.203 462.835 Q 515.904 462.835 514.981 463.89 L 514.981 463.89 L 514.981 463.89 Q 514.059 464.944 514.059 466.517 L 514.059 466.517 L 514.059 472.259 L 512.438 472.259 L 512.438 461.556 L 513.775 461.556 L 513.961 463.538 L 514.039 463.538 L 514.039 463.538 Q 514.635 462.493 515.475 461.927 L 515.475 461.927 L 515.475 461.927 Q 516.314 461.36 517.32 461.36 Z  M 529.84 466.897 L 529.84 466.897 L 529.84 466.897 Q 529.84 469.515 528.521 470.984 L 528.521 470.984 L 528.521 470.984 Q 527.203 472.454 524.879 472.454 L 524.879 472.454 L 524.879 472.454 Q 523.443 472.454 522.33 471.78 L 522.33 471.78 L 522.33 471.78 Q 521.217 471.106 520.611 469.847 L 520.611 469.847 L 520.611 469.847 Q 520.006 468.587 520.006 466.897 L 520.006 466.897 L 520.006 466.897 Q 520.006 464.28 521.314 462.82 L 521.314 462.82 L 521.314 462.82 Q 522.623 461.36 524.947 461.36 L 524.947 461.36 L 524.947 461.36 Q 527.193 461.36 528.517 462.854 L 528.517 462.854 L 528.517 462.854 Q 529.84 464.349 529.84 466.897 Z  M 521.686 466.897 L 521.686 466.897 L 521.686 466.897 Q 521.686 468.948 522.506 470.022 L 522.506 470.022 L 522.506 470.022 Q 523.326 471.097 524.918 471.097 L 524.918 471.097 L 524.918 471.097 Q 526.51 471.097 527.335 470.027 L 527.335 470.027 L 527.335 470.027 Q 528.16 468.958 528.16 466.897 L 528.16 466.897 L 528.16 466.897 Q 528.16 464.856 527.335 463.797 L 527.335 463.797 L 527.335 463.797 Q 526.51 462.737 524.898 462.737 L 524.898 462.737 L 524.898 462.737 Q 523.307 462.737 522.496 463.782 L 522.496 463.782 L 522.496 463.782 Q 521.686 464.827 521.686 466.897 Z  M 534.303 457.063 L 534.303 472.259 L 532.682 472.259 L 532.682 457.063 L 534.303 457.063 L 534.303 457.063 Z " fill-rule="evenodd" fill="rgb(0,0,0)"/></g><g><rect x="651" y="447" width="90" height="35" transform="matrix(1,0,0,1,0,0)" fill="rgb(221,217,216)"/><path d=" M 685.388 464.983 L 685.388 464.983 L 685.388 464.983 Q 685.388 468.519 683.469 470.389 L 683.469 470.389 L 683.469 470.389 Q 681.55 472.259 677.946 472.259 L 677.946 472.259 L 673.991 472.259 L 673.991 457.981 L 678.366 457.981 L 678.366 457.981 Q 681.696 457.981 683.542 459.827 L 683.542 459.827 L 683.542 459.827 Q 685.388 461.673 685.388 464.983 Z  M 683.63 465.042 L 683.63 465.042 L 683.63 465.042 Q 683.63 462.249 682.229 460.833 L 682.229 460.833 L 682.229 460.833 Q 680.827 459.417 678.063 459.417 L 678.063 459.417 L 675.651 459.417 L 675.651 470.823 L 677.673 470.823 L 677.673 470.823 Q 680.642 470.823 682.136 469.363 L 682.136 469.363 L 682.136 469.363 Q 683.63 467.903 683.63 465.042 Z  M 696.11 472.259 L 694.909 472.259 L 694.587 470.735 L 694.509 470.735 L 694.509 470.735 Q 693.708 471.741 692.912 472.098 L 692.912 472.098 L 692.912 472.098 Q 692.116 472.454 690.925 472.454 L 690.925 472.454 L 690.925 472.454 Q 689.333 472.454 688.43 471.634 L 688.43 471.634 L 688.43 471.634 Q 687.526 470.813 687.526 469.3 L 687.526 469.3 L 687.526 469.3 Q 687.526 466.058 692.712 465.901 L 692.712 465.901 L 694.528 465.843 L 694.528 465.179 L 694.528 465.179 Q 694.528 463.919 693.986 463.318 L 693.986 463.318 L 693.986 463.318 Q 693.444 462.718 692.253 462.718 L 692.253 462.718 L 692.253 462.718 Q 690.915 462.718 689.226 463.538 L 689.226 463.538 L 688.728 462.298 L 688.728 462.298 Q 689.519 461.868 690.461 461.624 L 690.461 461.624 L 690.461 461.624 Q 691.403 461.38 692.351 461.38 L 692.351 461.38 L 692.351 461.38 Q 694.265 461.38 695.188 462.229 L 695.188 462.229 L 695.188 462.229 Q 696.11 463.079 696.11 464.954 L 696.11 464.954 L 696.11 472.259 L 696.11 472.259 Z  M 691.247 471.116 L 691.247 471.116 L 691.247 471.116 Q 692.761 471.116 693.625 470.286 L 693.625 470.286 L 693.625 470.286 Q 694.489 469.456 694.489 467.962 L 694.489 467.962 L 694.489 466.995 L 692.868 467.063 L 692.868 467.063 Q 690.935 467.132 690.08 467.664 L 690.08 467.664 L 690.08 467.664 Q 689.226 468.196 689.226 469.319 L 689.226 469.319 L 689.226 469.319 Q 689.226 470.198 689.758 470.657 L 689.758 470.657 L 689.758 470.657 Q 690.29 471.116 691.247 471.116 Z  M 703.688 472.259 L 701.794 472.259 L 697.731 461.556 L 699.47 461.556 L 701.774 467.903 L 701.774 467.903 Q 702.556 470.13 702.692 470.794 L 702.692 470.794 L 702.771 470.794 L 702.771 470.794 Q 702.878 470.276 703.449 468.65 L 703.449 468.65 L 703.449 468.65 Q 704.021 467.024 706.013 461.556 L 706.013 461.556 L 707.751 461.556 L 703.688 472.259 L 703.688 472.259 Z  M 713.991 472.454 L 713.991 472.454 L 713.991 472.454 Q 711.618 472.454 710.246 471.009 L 710.246 471.009 L 710.246 471.009 Q 708.874 469.563 708.874 466.995 L 708.874 466.995 L 708.874 466.995 Q 708.874 464.407 710.148 462.884 L 710.148 462.884 L 710.148 462.884 Q 711.423 461.36 713.571 461.36 L 713.571 461.36 L 713.571 461.36 Q 715.583 461.36 716.755 462.684 L 716.755 462.684 L 716.755 462.684 Q 717.927 464.007 717.927 466.175 L 717.927 466.175 L 717.927 467.2 L 710.554 467.2 L 710.554 467.2 Q 710.603 469.085 711.506 470.062 L 711.506 470.062 L 711.506 470.062 Q 712.409 471.038 714.05 471.038 L 714.05 471.038 L 714.05 471.038 Q 715.778 471.038 717.468 470.315 L 717.468 470.315 L 717.468 471.761 L 717.468 471.761 Q 716.608 472.132 715.842 472.293 L 715.842 472.293 L 715.842 472.293 Q 715.075 472.454 713.991 472.454 Z  M 713.552 462.718 L 713.552 462.718 L 713.552 462.718 Q 712.263 462.718 711.496 463.558 L 711.496 463.558 L 711.496 463.558 Q 710.729 464.397 710.593 465.882 L 710.593 465.882 L 716.188 465.882 L 716.188 465.882 Q 716.188 464.349 715.505 463.533 L 715.505 463.533 L 715.505 463.533 Q 714.821 462.718 713.552 462.718 Z " fill-rule="evenodd" fill="rgb(0,0,0)"/></g></g><g style="isolation:isolate"><path d=" M 508.092 134.544 L 508.092 134.544 Q 503.916 134.544 500.604 133.428 L 500.604 133.428 L 500.604 133.428 Q 497.292 132.312 493.476 129.936 L 493.476 129.936 L 493.476 129.936 Q 494.124 125.904 494.124 119.712 L 494.124 119.712 L 494.124 119.712 Q 495.78 119.28 498.012 119.28 L 498.012 119.28 L 498.012 119.28 Q 498.3 125.04 500.928 128.064 L 500.928 128.064 L 500.928 128.064 Q 503.556 131.088 509.1 131.088 L 509.1 131.088 L 509.1 131.088 Q 513.78 131.088 516.048 129.036 L 516.048 129.036 L 516.048 129.036 Q 518.316 126.984 518.316 123.6 L 518.316 123.6 L 518.316 123.6 Q 518.316 120.792 516.876 118.848 L 516.876 118.848 L 516.876 118.848 Q 515.436 116.904 513.348 115.644 L 513.348 115.644 L 513.348 115.644 Q 511.26 114.384 507.516 112.656 L 507.516 112.656 L 507.516 112.656 Q 503.196 110.568 500.604 108.912 L 500.604 108.912 L 500.604 108.912 Q 498.012 107.256 496.176 104.484 L 496.176 104.484 L 496.176 104.484 Q 494.34 101.712 494.34 97.536 L 494.34 97.536 L 494.34 97.536 Q 494.34 91.488 498.228 88.032 L 498.228 88.032 L 498.228 88.032 Q 502.116 84.576 508.812 84.576 L 508.812 84.576 L 508.812 84.576 Q 512.34 84.576 515.58 85.476 L 515.58 85.476 L 515.58 85.476 Q 518.82 86.376 520.836 87.744 L 520.836 87.744 L 520.836 87.744 Q 520.836 94.152 521.268 97.248 L 521.268 97.248 L 521.268 97.248 Q 519.684 97.896 517.236 97.896 L 517.236 97.896 L 517.236 97.896 Q 516.228 91.992 514.212 89.868 L 514.212 89.868 L 514.212 89.868 Q 512.196 87.744 508.74 87.744 L 508.74 87.744 L 508.74 87.744 Q 504.924 87.744 502.764 89.616 L 502.764 89.616 L 502.764 89.616 Q 500.604 91.488 500.604 94.872 L 500.604 94.872 L 500.604 94.872 Q 500.604 97.68 502.08 99.696 L 502.08 99.696 L 502.08 99.696 Q 503.556 101.712 505.68 103.008 L 505.68 103.008 L 505.68 103.008 Q 507.804 104.304 511.548 106.176 L 511.548 106.176 L 511.548 106.176 Q 515.796 108.192 518.352 109.848 L 518.352 109.848 L 518.352 109.848 Q 520.908 111.504 522.708 114.168 L 522.708 114.168 L 522.708 114.168 Q 524.508 116.832 524.508 120.72 L 524.508 120.72 L 524.508 120.72 Q 524.508 124.464 522.744 127.596 L 522.744 127.596 L 522.744 127.596 Q 520.98 130.728 517.272 132.636 L 517.272 132.636 L 517.272 132.636 Q 513.564 134.544 508.092 134.544 L 508.092 134.544 L 508.092 134.544 Z  M 557.556 126.336 L 557.556 126.336 Q 558.132 126.696 558.672 127.344 L 558.672 127.344 L 558.672 127.344 Q 559.212 127.992 559.284 128.568 L 559.284 128.568 L 559.284 128.568 Q 556.836 131.736 553.704 133.14 L 553.704 133.14 L 553.704 133.14 Q 550.572 134.544 546.468 134.544 L 546.468 134.544 L 546.468 134.544 Q 541.5 134.544 538.08 132.276 L 538.08 132.276 L 538.08 132.276 Q 534.66 130.008 532.932 126.12 L 532.932 126.12 L 532.932 126.12 Q 531.204 122.232 531.204 117.408 L 531.204 117.408 L 531.204 117.408 Q 531.204 112.728 533.04 108.84 L 533.04 108.84 L 533.04 108.84 Q 534.876 104.952 538.26 102.612 L 538.26 102.612 L 538.26 102.612 Q 541.644 100.272 546.108 100.272 L 546.108 100.272 L 546.108 100.272 Q 552.66 100.272 555.864 104.34 L 555.864 104.34 L 555.864 104.34 Q 559.068 108.408 559.572 115.176 L 559.572 115.176 L 559.572 115.176 Q 559.284 116.616 558.492 117.624 L 558.492 117.624 L 558.492 117.624 Q 545.82 117.624 538.332 117.984 L 538.332 117.984 L 538.332 117.984 Q 538.692 123.528 541.104 127.02 L 541.104 127.02 L 541.104 127.02 Q 543.516 130.512 548.772 130.512 L 548.772 130.512 L 548.772 130.512 Q 551.22 130.512 553.524 129.432 L 553.524 129.432 L 553.524 129.432 Q 555.828 128.352 557.556 126.336 L 557.556 126.336 L 557.556 126.336 Z  M 545.46 103.728 L 545.46 103.728 Q 542.58 103.728 540.564 106.176 L 540.564 106.176 L 540.564 106.176 Q 538.548 108.624 538.26 114.384 L 538.26 114.384 L 552.084 114.384 L 552.084 114.384 Q 552.084 109.56 550.32 106.644 L 550.32 106.644 L 550.32 106.644 Q 548.556 103.728 545.46 103.728 L 545.46 103.728 L 545.46 103.728 Z  M 591.684 126.336 L 591.684 126.336 Q 592.26 126.696 592.8 127.344 L 592.8 127.344 L 592.8 127.344 Q 593.34 127.992 593.412 128.568 L 593.412 128.568 L 593.412 128.568 Q 590.964 131.736 587.832 133.14 L 587.832 133.14 L 587.832 133.14 Q 584.7 134.544 580.596 134.544 L 580.596 134.544 L 580.596 134.544 Q 575.628 134.544 572.208 132.276 L 572.208 132.276 L 572.208 132.276 Q 568.788 130.008 567.06 126.12 L 567.06 126.12 L 567.06 126.12 Q 565.332 122.232 565.332 117.408 L 565.332 117.408 L 565.332 117.408 Q 565.332 112.728 567.168 108.84 L 567.168 108.84 L 567.168 108.84 Q 569.004 104.952 572.388 102.612 L 572.388 102.612 L 572.388 102.612 Q 575.772 100.272 580.236 100.272 L 580.236 100.272 L 580.236 100.272 Q 586.788 100.272 589.992 104.34 L 589.992 104.34 L 589.992 104.34 Q 593.196 108.408 593.7 115.176 L 593.7 115.176 L 593.7 115.176 Q 593.412 116.616 592.62 117.624 L 592.62 117.624 L 592.62 117.624 Q 579.948 117.624 572.46 117.984 L 572.46 117.984 L 572.46 117.984 Q 572.82 123.528 575.232 127.02 L 575.232 127.02 L 575.232 127.02 Q 577.644 130.512 582.9 130.512 L 582.9 130.512 L 582.9 130.512 Q 585.348 130.512 587.652 129.432 L 587.652 129.432 L 587.652 129.432 Q 589.956 128.352 591.684 126.336 L 591.684 126.336 L 591.684 126.336 Z  M 579.588 103.728 L 579.588 103.728 Q 576.708 103.728 574.692 106.176 L 574.692 106.176 L 574.692 106.176 Q 572.676 108.624 572.388 114.384 L 572.388 114.384 L 586.212 114.384 L 586.212 114.384 Q 586.212 109.56 584.448 106.644 L 584.448 106.644 L 584.448 106.644 Q 582.684 103.728 579.588 103.728 L 579.588 103.728 L 579.588 103.728 Z  M 636.612 131.016 L 636.612 131.016 Q 636.972 132.096 636.972 134.112 L 636.972 134.112 L 636.972 134.112 Q 633.876 133.896 629.124 133.896 L 629.124 133.896 L 629.124 133.896 Q 626.172 133.896 621.996 134.04 L 621.996 134.04 L 621.996 134.04 Q 621.492 134.112 620.556 134.112 L 620.556 134.112 L 620.556 134.112 Q 620.556 132.024 620.916 131.016 L 620.916 131.016 L 620.916 131.016 Q 623.58 131.016 624.732 129.648 L 624.732 129.648 L 624.732 129.648 Q 625.884 128.28 625.884 124.752 L 625.884 124.752 L 625.884 113.808 L 625.884 113.808 Q 625.884 109.056 624.12 107.04 L 624.12 107.04 L 624.12 107.04 Q 622.356 105.024 619.188 105.024 L 619.188 105.024 L 619.188 105.024 Q 617.172 105.024 615.3 106.248 L 615.3 106.248 L 615.3 106.248 Q 613.428 107.472 612.24 110.208 L 612.24 110.208 L 612.24 110.208 Q 611.052 112.944 611.052 117.048 L 611.052 117.048 L 611.052 124.752 L 611.052 124.752 Q 611.052 128.352 612.132 129.684 L 612.132 129.684 L 612.132 129.684 Q 613.212 131.016 616.02 131.016 L 616.02 131.016 L 616.02 131.016 Q 616.38 132.096 616.38 134.112 L 616.38 134.112 L 616.38 134.112 Q 610.332 133.896 607.812 133.896 L 607.812 133.896 L 607.812 133.896 Q 602.34 133.896 599.244 134.112 L 599.244 134.112 L 599.244 134.112 Q 599.244 132.024 599.604 131.016 L 599.604 131.016 L 599.604 131.016 Q 602.412 131.016 603.492 129.684 L 603.492 129.684 L 603.492 129.684 Q 604.572 128.352 604.572 124.752 L 604.572 124.752 L 604.572 110.496 L 604.572 110.496 Q 604.572 108.624 604.176 107.58 L 604.176 107.58 L 604.176 107.58 Q 603.78 106.536 602.628 105.996 L 602.628 105.996 L 602.628 105.996 Q 601.476 105.456 599.172 105.384 L 599.172 105.384 L 599.172 105.384 Q 599.172 103.728 599.82 102.72 L 599.82 102.72 L 599.82 102.72 Q 602.052 102.576 604.932 101.856 L 604.932 101.856 L 604.932 101.856 Q 607.812 101.136 609.468 100.272 L 609.468 100.272 L 609.468 100.272 Q 611.052 100.776 611.052 103.44 L 611.052 103.44 L 611.052 103.44 Q 611.052 105.744 610.548 107.688 L 610.548 107.688 L 610.548 107.688 Q 610.692 107.472 610.944 106.932 L 610.944 106.932 L 610.944 106.932 Q 611.196 106.392 611.628 105.816 L 611.628 105.816 L 611.628 105.816 Q 613.068 103.8 615.84 102.216 L 615.84 102.216 L 615.84 102.216 Q 618.612 100.632 622.068 100.632 L 622.068 100.632 L 622.068 100.632 Q 626.604 100.632 629.484 103.44 L 629.484 103.44 L 629.484 103.44 Q 632.364 106.248 632.364 112.368 L 632.364 112.368 L 632.364 124.752 L 632.364 124.752 Q 632.364 128.352 633.372 129.684 L 633.372 129.684 L 633.372 129.684 Q 634.38 131.016 636.612 131.016 L 636.612 131.016 L 636.612 131.016 Z  M 219.948 134.544 L 219.948 134.544 Q 215.772 134.544 212.46 133.428 L 212.46 133.428 L 212.46 133.428 Q 209.148 132.312 205.332 129.936 L 205.332 129.936 L 205.332 129.936 Q 205.98 125.904 205.98 119.712 L 205.98 119.712 L 205.98 119.712 Q 207.636 119.28 209.868 119.28 L 209.868 119.28 L 209.868 119.28 Q 210.156 125.04 212.784 128.064 L 212.784 128.064 L 212.784 128.064 Q 215.412 131.088 220.956 131.088 L 220.956 131.088 L 220.956 131.088 Q 225.636 131.088 227.904 129.036 L 227.904 129.036 L 227.904 129.036 Q 230.172 126.984 230.172 123.6 L 230.172 123.6 L 230.172 123.6 Q 230.172 120.792 228.732 118.848 L 228.732 118.848 L 228.732 118.848 Q 227.292 116.904 225.204 115.644 L 225.204 115.644 L 225.204 115.644 Q 223.116 114.384 219.372 112.656 L 219.372 112.656 L 219.372 112.656 Q 215.052 110.568 212.46 108.912 L 212.46 108.912 L 212.46 108.912 Q 209.868 107.256 208.032 104.484 L 208.032 104.484 L 208.032 104.484 Q 206.196 101.712 206.196 97.536 L 206.196 97.536 L 206.196 97.536 Q 206.196 91.488 210.084 88.032 L 210.084 88.032 L 210.084 88.032 Q 213.972 84.576 220.668 84.576 L 220.668 84.576 L 220.668 84.576 Q 224.196 84.576 227.436 85.476 L 227.436 85.476 L 227.436 85.476 Q 230.676 86.376 232.692 87.744 L 232.692 87.744 L 232.692 87.744 Q 232.692 94.152 233.124 97.248 L 233.124 97.248 L 233.124 97.248 Q 231.54 97.896 229.092 97.896 L 229.092 97.896 L 229.092 97.896 Q 228.084 91.992 226.068 89.868 L 226.068 89.868 L 226.068 89.868 Q 224.052 87.744 220.596 87.744 L 220.596 87.744 L 220.596 87.744 Q 216.78 87.744 214.62 89.616 L 214.62 89.616 L 214.62 89.616 Q 212.46 91.488 212.46 94.872 L 212.46 94.872 L 212.46 94.872 Q 212.46 97.68 213.936 99.696 L 213.936 99.696 L 213.936 99.696 Q 215.412 101.712 217.536 103.008 L 217.536 103.008 L 217.536 103.008 Q 219.66 104.304 223.404 106.176 L 223.404 106.176 L 223.404 106.176 Q 227.652 108.192 230.208 109.848 L 230.208 109.848 L 230.208 109.848 Q 232.764 111.504 234.564 114.168 L 234.564 114.168 L 234.564 114.168 Q 236.364 116.832 236.364 120.72 L 236.364 120.72 L 236.364 120.72 Q 236.364 124.464 234.6 127.596 L 234.6 127.596 L 234.6 127.596 Q 232.836 130.728 229.128 132.636 L 229.128 132.636 L 229.128 132.636 Q 225.42 134.544 219.948 134.544 L 219.948 134.544 L 219.948 134.544 Z  M 255.156 134.544 L 255.156 134.544 Q 250.836 134.544 248.82 132.348 L 248.82 132.348 L 248.82 132.348 Q 246.804 130.152 246.804 125.256 L 246.804 125.256 L 246.804 105.744 L 246.804 105.744 Q 244.644 105.024 241.62 104.808 L 241.62 104.808 L 241.62 104.808 Q 241.62 103.152 242.268 101.64 L 242.268 101.64 L 246.804 101.64 L 246.804 92.136 L 246.804 92.136 Q 249.612 91.344 252.132 89.256 L 252.132 89.256 L 252.132 89.256 Q 252.852 89.616 253.068 90.228 L 253.068 90.228 L 253.068 90.228 Q 253.284 90.84 253.284 93 L 253.284 93 L 253.284 101.64 L 262.644 101.64 L 262.644 101.64 Q 262.644 103.152 261.996 104.808 L 261.996 104.808 L 261.996 104.808 Q 256.668 105.024 253.284 105.744 L 253.284 105.744 L 253.284 123.744 L 253.284 123.744 Q 253.284 130.656 257.46 130.656 L 257.46 130.656 L 257.46 130.656 Q 258.9 130.656 260.016 130.224 L 260.016 130.224 L 260.016 130.224 Q 261.132 129.792 262.212 128.928 L 262.212 128.928 L 262.212 128.928 Q 263.148 130.008 263.292 131.304 L 263.292 131.304 L 263.292 131.304 Q 262.068 132.672 259.728 133.608 L 259.728 133.608 L 259.728 133.608 Q 257.388 134.544 255.156 134.544 L 255.156 134.544 L 255.156 134.544 Z  M 289.212 100.92 L 289.212 100.92 Q 291.948 100.92 294.18 102.648 L 294.18 102.648 L 294.18 102.648 Q 293.676 105.96 293.676 111.144 L 293.676 111.144 L 293.676 111.144 Q 291.732 111.792 289.572 111.792 L 289.572 111.792 L 289.572 111.792 Q 289.428 108.552 288.528 107.364 L 288.528 107.364 L 288.528 107.364 Q 287.628 106.176 286.044 106.176 L 286.044 106.176 L 286.044 106.176 Q 284.748 106.176 283.308 107.58 L 283.308 107.58 L 283.308 107.58 Q 281.868 108.984 280.896 111.36 L 280.896 111.36 L 280.896 111.36 Q 279.924 113.736 279.924 116.4 L 279.924 116.4 L 279.924 123.312 L 279.924 123.312 Q 279.924 126.408 280.572 128.028 L 280.572 128.028 L 280.572 128.028 Q 281.22 129.648 282.552 130.26 L 282.552 130.26 L 282.552 130.26 Q 283.884 130.872 286.332 131.016 L 286.332 131.016 L 286.332 131.016 Q 286.692 132.024 286.692 134.112 L 286.692 134.112 L 286.692 134.112 Q 283.38 133.896 277.62 133.896 L 277.62 133.896 L 277.62 133.896 Q 270.924 133.896 268.116 134.112 L 268.116 134.112 L 268.116 134.112 Q 268.116 132.024 268.476 131.016 L 268.476 131.016 L 268.476 131.016 Q 271.356 130.872 272.4 129.612 L 272.4 129.612 L 272.4 129.612 Q 273.444 128.352 273.444 124.752 L 273.444 124.752 L 273.444 110.496 L 273.444 110.496 Q 273.444 108.624 273.048 107.58 L 273.048 107.58 L 273.048 107.58 Q 272.652 106.536 271.5 105.996 L 271.5 105.996 L 271.5 105.996 Q 270.348 105.456 268.044 105.384 L 268.044 105.384 L 268.044 105.384 Q 268.044 103.728 268.692 102.72 L 268.692 102.72 L 268.692 102.72 Q 270.924 102.576 273.804 101.856 L 273.804 101.856 L 273.804 101.856 Q 276.684 101.136 278.34 100.272 L 278.34 100.272 L 278.34 100.272 Q 279.924 100.776 279.924 103.44 L 279.924 103.44 L 279.924 103.44 Q 279.924 105.888 279.492 108.012 L 279.492 108.012 L 279.492 108.012 Q 279.06 110.136 278.988 110.496 L 278.988 110.496 L 278.988 110.496 Q 279.132 110.064 279.564 108.768 L 279.564 108.768 L 279.564 108.768 Q 279.996 107.472 280.5 106.752 L 280.5 106.752 L 280.5 106.752 Q 284.172 100.92 289.212 100.92 L 289.212 100.92 L 289.212 100.92 Z  M 314.772 134.544 L 314.772 134.544 Q 309.876 134.544 306.204 132.42 L 306.204 132.42 L 306.204 132.42 Q 302.532 130.296 300.516 126.408 L 300.516 126.408 L 300.516 126.408 Q 298.5 122.52 298.5 117.408 L 298.5 117.408 L 298.5 117.408 Q 298.5 112.584 300.588 108.66 L 300.588 108.66 L 300.588 108.66 Q 302.676 104.736 306.384 102.504 L 306.384 102.504 L 306.384 102.504 Q 310.092 100.272 314.772 100.272 L 314.772 100.272 L 314.772 100.272 Q 322.332 100.272 326.688 104.952 L 326.688 104.952 L 326.688 104.952 Q 331.044 109.632 331.044 117.408 L 331.044 117.408 L 331.044 117.408 Q 331.044 122.304 328.992 126.192 L 328.992 126.192 L 328.992 126.192 Q 326.94 130.08 323.232 132.312 L 323.232 132.312 L 323.232 132.312 Q 319.524 134.544 314.772 134.544 L 314.772 134.544 L 314.772 134.544 Z  M 315.348 131.088 L 315.348 131.088 Q 319.524 131.088 321.684 127.632 L 321.684 127.632 L 321.684 127.632 Q 323.844 124.176 323.844 118.272 L 323.844 118.272 L 323.844 118.272 Q 323.844 113.952 322.512 110.64 L 322.512 110.64 L 322.512 110.64 Q 321.18 107.328 318.948 105.528 L 318.948 105.528 L 318.948 105.528 Q 316.716 103.728 314.052 103.728 L 314.052 103.728 L 314.052 103.728 Q 310.02 103.728 307.896 107.04 L 307.896 107.04 L 307.896 107.04 Q 305.772 110.352 305.772 115.896 L 305.772 115.896 L 305.772 115.896 Q 305.772 123.096 308.328 127.092 L 308.328 127.092 L 308.328 127.092 Q 310.884 131.088 315.348 131.088 L 315.348 131.088 L 315.348 131.088 Z  M 373.956 131.016 L 373.956 131.016 Q 374.316 132.096 374.316 134.112 L 374.316 134.112 L 374.316 134.112 Q 371.22 133.896 366.468 133.896 L 366.468 133.896 L 366.468 133.896 Q 363.516 133.896 359.34 134.04 L 359.34 134.04 L 359.34 134.04 Q 358.836 134.112 357.9 134.112 L 357.9 134.112 L 357.9 134.112 Q 357.9 132.024 358.26 131.016 L 358.26 131.016 L 358.26 131.016 Q 360.924 131.016 362.076 129.648 L 362.076 129.648 L 362.076 129.648 Q 363.228 128.28 363.228 124.752 L 363.228 124.752 L 363.228 113.808 L 363.228 113.808 Q 363.228 109.056 361.464 107.04 L 361.464 107.04 L 361.464 107.04 Q 359.7 105.024 356.532 105.024 L 356.532 105.024 L 356.532 105.024 Q 354.516 105.024 352.644 106.248 L 352.644 106.248 L 352.644 106.248 Q 350.772 107.472 349.584 110.208 L 349.584 110.208 L 349.584 110.208 Q 348.396 112.944 348.396 117.048 L 348.396 117.048 L 348.396 124.752 L 348.396 124.752 Q 348.396 128.352 349.476 129.684 L 349.476 129.684 L 349.476 129.684 Q 350.556 131.016 353.364 131.016 L 353.364 131.016 L 353.364 131.016 Q 353.724 132.096 353.724 134.112 L 353.724 134.112 L 353.724 134.112 Q 347.676 133.896 345.156 133.896 L 345.156 133.896 L 345.156 133.896 Q 339.684 133.896 336.588 134.112 L 336.588 134.112 L 336.588 134.112 Q 336.588 132.024 336.948 131.016 L 336.948 131.016 L 336.948 131.016 Q 339.756 131.016 340.836 129.684 L 340.836 129.684 L 340.836 129.684 Q 341.916 128.352 341.916 124.752 L 341.916 124.752 L 341.916 110.496 L 341.916 110.496 Q 341.916 108.624 341.52 107.58 L 341.52 107.58 L 341.52 107.58 Q 341.124 106.536 339.972 105.996 L 339.972 105.996 L 339.972 105.996 Q 338.82 105.456 336.516 105.384 L 336.516 105.384 L 336.516 105.384 Q 336.516 103.728 337.164 102.72 L 337.164 102.72 L 337.164 102.72 Q 339.396 102.576 342.276 101.856 L 342.276 101.856 L 342.276 101.856 Q 345.156 101.136 346.812 100.272 L 346.812 100.272 L 346.812 100.272 Q 348.396 100.776 348.396 103.44 L 348.396 103.44 L 348.396 103.44 Q 348.396 105.744 347.892 107.688 L 347.892 107.688 L 347.892 107.688 Q 348.036 107.472 348.288 106.932 L 348.288 106.932 L 348.288 106.932 Q 348.54 106.392 348.972 105.816 L 348.972 105.816 L 348.972 105.816 Q 350.412 103.8 353.184 102.216 L 353.184 102.216 L 353.184 102.216 Q 355.956 100.632 359.412 100.632 L 359.412 100.632 L 359.412 100.632 Q 363.948 100.632 366.828 103.44 L 366.828 103.44 L 366.828 103.44 Q 369.708 106.248 369.708 112.368 L 369.708 112.368 L 369.708 124.752 L 369.708 124.752 Q 369.708 128.352 370.716 129.684 L 370.716 129.684 L 370.716 129.684 Q 371.724 131.016 373.956 131.016 L 373.956 131.016 L 373.956 131.016 Z  M 397.212 129.36 L 397.212 129.36 Q 402.108 129.36 404.916 130.152 L 404.916 130.152 L 404.916 130.152 Q 407.724 130.944 408.984 132.672 L 408.984 132.672 L 408.984 132.672 Q 410.244 134.4 410.244 137.352 L 410.244 137.352 L 410.244 137.352 Q 410.244 140.664 407.904 144.048 L 407.904 144.048 L 407.904 144.048 Q 405.564 147.432 401.46 149.628 L 401.46 149.628 L 401.46 149.628 Q 397.356 151.824 392.388 151.824 L 392.388 151.824 L 392.388 151.824 Q 385.908 151.824 382.884 149.376 L 382.884 149.376 L 382.884 149.376 Q 379.86 146.928 379.86 142.104 L 379.86 142.104 L 379.86 142.104 Q 379.86 136.776 385.188 134.328 L 385.188 134.328 L 385.188 134.328 Q 383.244 133.68 382.488 132.42 L 382.488 132.42 L 382.488 132.42 Q 381.732 131.16 381.732 129 L 381.732 129 L 381.732 129 Q 381.732 125.04 385.548 121.368 L 385.548 121.368 L 385.548 121.368 Q 383.388 119.856 382.2 117.516 L 382.2 117.516 L 382.2 117.516 Q 381.012 115.176 381.012 112.224 L 381.012 112.224 L 381.012 112.224 Q 381.012 107.04 384.396 103.656 L 384.396 103.656 L 384.396 103.656 Q 387.78 100.272 393.972 100.272 L 393.972 100.272 L 393.972 100.272 Q 396.564 100.272 398.508 100.92 L 398.508 100.92 L 410.316 100.92 L 410.316 100.92 Q 410.82 102.648 410.82 105.384 L 410.82 105.384 L 410.82 105.384 Q 407.508 104.592 403.836 104.232 L 403.836 104.232 L 403.836 104.232 Q 405.492 105.888 406.32 107.976 L 406.32 107.976 L 406.32 107.976 Q 407.148 110.064 407.148 111.792 L 407.148 111.792 L 407.148 111.792 Q 407.148 117.048 403.692 120.468 L 403.692 120.468 L 403.692 120.468 Q 400.236 123.888 394.116 123.888 L 394.116 123.888 L 394.116 123.888 Q 391.092 123.888 388.572 122.952 L 388.572 122.952 L 388.572 122.952 Q 386.772 124.752 386.772 126.336 L 386.772 126.336 L 386.772 126.336 Q 386.772 127.704 387.492 128.316 L 387.492 128.316 L 387.492 128.316 Q 388.212 128.928 390.3 129.144 L 390.3 129.144 L 390.3 129.144 Q 392.388 129.36 397.212 129.36 L 397.212 129.36 L 397.212 129.36 Z  M 393.252 103.512 L 393.252 103.512 Q 390.516 103.512 389.076 105.78 L 389.076 105.78 L 389.076 105.78 Q 387.636 108.048 387.636 111.288 L 387.636 111.288 L 387.636 111.288 Q 387.636 115.752 389.58 118.164 L 389.58 118.164 L 389.58 118.164 Q 391.524 120.576 394.98 120.576 L 394.98 120.576 L 394.98 120.576 Q 397.428 120.576 398.904 118.56 L 398.904 118.56 L 398.904 118.56 Q 400.38 116.544 400.38 112.872 L 400.38 112.872 L 400.38 112.872 Q 400.38 108.912 398.472 106.212 L 398.472 106.212 L 398.472 106.212 Q 396.564 103.512 393.252 103.512 L 393.252 103.512 L 393.252 103.512 Z  M 394.116 148.008 L 394.116 148.008 Q 397.14 148.008 399.48 146.928 L 399.48 146.928 L 399.48 146.928 Q 401.82 145.848 403.044 144.048 L 403.044 144.048 L 403.044 144.048 Q 404.268 142.248 404.268 140.16 L 404.268 140.16 L 404.268 140.16 Q 404.268 138.216 403.332 137.172 L 403.332 137.172 L 403.332 137.172 Q 402.396 136.128 399.84 135.624 L 399.84 135.624 L 399.84 135.624 Q 397.284 135.12 392.388 135.12 L 392.388 135.12 L 392.388 135.12 Q 390.66 135.12 388.5 134.976 L 388.5 134.976 L 388.5 134.976 Q 387.132 136.128 386.592 137.424 L 386.592 137.424 L 386.592 137.424 Q 386.052 138.72 386.052 140.592 L 386.052 140.592 L 386.052 140.592 Q 386.052 144.336 387.924 146.172 L 387.924 146.172 L 387.924 146.172 Q 389.796 148.008 394.116 148.008 L 394.116 148.008 L 394.116 148.008 Z  M 416.292 134.112 L 416.292 134.112 Q 416.292 132.168 416.652 131.016 L 416.652 131.016 L 416.652 131.016 Q 419.532 131.016 420.576 129.684 L 420.576 129.684 L 420.576 129.684 Q 421.62 128.352 421.62 124.752 L 421.62 124.752 L 421.62 92.496 L 421.62 92.496 Q 421.62 90.624 421.26 89.544 L 421.26 89.544 L 421.26 89.544 Q 420.9 88.464 419.748 87.924 L 419.748 87.924 L 419.748 87.924 Q 418.596 87.384 416.22 87.384 L 416.22 87.384 L 416.22 87.384 Q 416.22 85.728 416.868 84.72 L 416.868 84.72 L 416.868 84.72 Q 418.668 84.72 421.98 83.928 L 421.98 83.928 L 421.98 83.928 Q 425.292 83.136 426.516 82.272 L 426.516 82.272 L 426.516 82.272 Q 428.1 82.776 428.1 85.152 L 428.1 85.152 L 428.1 124.752 L 428.1 124.752 Q 428.1 128.352 429.036 129.684 L 429.036 129.684 L 429.036 129.684 Q 429.972 131.016 432.348 131.016 L 432.348 131.016 L 432.348 131.016 Q 432.708 132.24 432.708 134.112 L 432.708 134.112 L 432.708 134.112 Q 428.964 133.896 424.572 133.896 L 424.572 133.896 L 424.572 133.896 Q 419.892 133.896 416.292 134.112 L 416.292 134.112 L 416.292 134.112 Z  M 465.9 100.92 L 465.9 100.92 Q 470.94 100.92 473.1 100.776 L 473.1 100.776 L 473.1 100.776 Q 473.1 102.864 472.668 103.872 L 472.668 103.872 L 472.668 103.872 Q 470.724 104.376 469.68 105.744 L 469.68 105.744 L 469.68 105.744 Q 468.636 107.112 466.836 111.36 L 466.836 111.36 L 456.252 136.56 L 456.252 136.56 Q 453.516 143.04 451.572 146.28 L 451.572 146.28 L 451.572 146.28 Q 449.628 149.52 447.864 150.672 L 447.864 150.672 L 447.864 150.672 Q 446.1 151.824 443.724 151.824 L 443.724 151.824 L 443.724 151.824 Q 440.484 151.824 438.324 150.168 L 438.324 150.168 L 438.324 150.168 Q 438.108 149.304 438.108 147.936 L 438.108 147.936 L 438.108 147.936 Q 438.108 146.352 438.396 144.912 L 438.396 144.912 L 438.396 144.912 Q 440.844 145.344 443.004 145.344 L 443.004 145.344 L 443.004 145.344 Q 447.612 145.344 450.276 141.096 L 450.276 141.096 L 450.276 141.096 Q 451.5 139.296 453.588 134.4 L 453.588 134.4 L 453.588 134.4 Q 449.7 125.616 443.796 112.728 L 443.796 112.728 L 443.796 112.728 Q 442.068 109.128 440.988 107.328 L 440.988 107.328 L 440.988 107.328 Q 439.908 105.528 438.972 104.844 L 438.972 104.844 L 438.972 104.844 Q 438.036 104.16 436.74 103.872 L 436.74 103.872 L 436.74 103.872 Q 436.308 102.576 436.308 100.776 L 436.308 100.776 L 436.308 100.776 Q 441.78 100.92 444.444 100.92 L 444.444 100.92 L 444.444 100.92 Q 448.116 100.92 454.02 100.776 L 454.02 100.776 L 454.02 100.776 Q 454.02 102.648 453.516 103.872 L 453.516 103.872 L 453.516 103.872 Q 451.068 104.232 449.988 104.988 L 449.988 104.988 L 449.988 104.988 Q 448.908 105.744 448.908 107.112 L 448.908 107.112 L 448.908 107.112 Q 448.908 108.624 450.42 111.792 L 450.42 111.792 L 450.42 111.792 Q 452.868 116.76 456.9 126.624 L 456.9 126.624 L 457.548 124.968 L 462.516 112.44 L 462.516 112.44 Q 463.74 109.344 463.74 107.688 L 463.74 107.688 L 463.74 107.688 Q 463.74 105.96 462.66 105.132 L 462.66 105.132 L 462.66 105.132 Q 461.58 104.304 459.276 103.872 L 459.276 103.872 L 459.276 103.872 Q 458.772 102.432 458.772 100.776 L 458.772 100.776 L 458.772 100.776 Q 461.004 100.92 465.9 100.92 L 465.9 100.92 L 465.9 100.92 Z " fill-rule="evenodd" fill="rgb(0,0,0)"/></g><g style="isolation:isolate"><g style="isolation:isolate"><circle vector-effect="non-scaling-stroke" cx="329" cy="411" r="19" fill="rgb(215,211,211)"/><line x1="329" y1="445" x2="329" y2="433" vector-effect="non-scaling-stroke" stroke-width="2" stroke="rgb(154,154,158)" stroke-linejoin="miter" stroke-linecap="square" stroke-miterlimit="3"/></g><g style="isolation:isolate"><line x1="350" y1="412" x2="490" y2="369" vector-effect="non-scaling-stroke" stroke-width="2" stroke="rgb(154,154,158)" stroke-linejoin="miter" stroke-linecap="square" stroke-miterlimit="3"/><circle vector-effect="non-scaling-stroke" cx="512" cy="369" r="19" fill="rgb(215,211,211)"/><line x1="512" y1="445" x2="512" y2="390" vector-effect="non-scaling-stroke" stroke-width="2" stroke="rgb(154,154,158)" stroke-linejoin="miter" stroke-linecap="square" stroke-miterlimit="3"/></g><g style="isolation:isolate"><line x1="145" y1="445" x2="145" y2="390" vector-effect="non-scaling-stroke" stroke-width="2" stroke="rgb(154,154,158)" stroke-linejoin="miter" stroke-linecap="square" stroke-miterlimit="3"/><circle vector-effect="non-scaling-stroke" cx="145" cy="369" r="19" fill="rgb(215,211,211)"/><line x1="166" y1="371" x2="308" y2="412" vector-effect="non-scaling-stroke" stroke-width="2" stroke="rgb(154,154,158)" stroke-linejoin="miter" stroke-linecap="square" stroke-miterlimit="3"/></g><g style="isolation:isolate"><line x1="166" y1="369" x2="308" y2="357" vector-effect="non-scaling-stroke" stroke-width="2" stroke="rgb(154,154,158)" stroke-linejoin="miter" stroke-linecap="square" stroke-miterlimit="3"/><circle vector-effect="non-scaling-stroke" cx="329.00000000000006" cy="358" r="19" fill="rgb(215,211,211)"/><line x1="329" y1="390" x2="329" y2="379" vector-effect="non-scaling-stroke" stroke-width="2" stroke="rgb(154,154,158)" stroke-linejoin="miter" stroke-linecap="square" stroke-miterlimit="3"/></g><g style="isolation:isolate"><line x1="696" y1="445" x2="696" y2="357" vector-effect="non-scaling-stroke" stroke-width="2" stroke="rgb(154,154,158)" stroke-linejoin="miter" stroke-linecap="square" stroke-miterlimit="3"/><line x1="533" y1="367" x2="675" y2="338" vector-effect="non-scaling-stroke" stroke-width="2" stroke="rgb(154,154,158)" stroke-linejoin="miter" stroke-linecap="square" stroke-miterlimit="3"/><circle vector-effect="non-scaling-stroke" cx="696" cy="336" r="19" fill="rgb(215,211,211)"/></g><g style="isolation:isolate"><line x1="490" y1="367" x2="166" y2="285" vector-effect="non-scaling-stroke" stroke-width="2" stroke="rgb(154,154,158)" stroke-linejoin="miter" stroke-linecap="square" stroke-miterlimit="3"/><line x1="145" y1="348" x2="145" y2="303" vector-effect="non-scaling-stroke" stroke-width="2" stroke="rgb(154,154,158)" stroke-linejoin="miter" stroke-linecap="square" stroke-miterlimit="3"/><circle vector-effect="non-scaling-stroke" cx="145" cy="282" r="19" fill="rgb(215,211,211)"/></g><g style="isolation:isolate"><line x1="512" y1="348" x2="512" y2="330" vector-effect="non-scaling-stroke" stroke-width="2" stroke="rgb(154,154,158)" stroke-linejoin="miter" stroke-linecap="square" stroke-miterlimit="3"/><circle vector-effect="non-scaling-stroke" cx="512" cy="309" r="19" fill="rgb(215,211,211)"/><line x1="533" y1="307" x2="675" y2="336" vector-effect="non-scaling-stroke" stroke-width="2" stroke="rgb(154,154,158)" stroke-linejoin="miter" stroke-linecap="square" stroke-miterlimit="3"/></g><g style="isolation:isolate"><line x1="329" y1="337" x2="329" y2="303" vector-effect="non-scaling-stroke" stroke-width="2" stroke="rgb(154,154,158)" stroke-linejoin="miter" stroke-linecap="square" stroke-miterlimit="3"/><line x1="350" y1="284" x2="491" y2="307" vector-effect="non-scaling-stroke" stroke-width="2" stroke="rgb(154,154,158)" stroke-linejoin="miter" stroke-linecap="square" stroke-miterlimit="3"/><circle vector-effect="non-scaling-stroke" cx="329" cy="282" r="19" fill="rgb(215,211,211)"/></g><g style="isolation:isolate"><line x1="350" y1="357" x2="490" y2="256" vector-effect="non-scaling-stroke" stroke-width="2" stroke="rgb(154,154,158)" stroke-linejoin="miter" stroke-linecap="square" stroke-miterlimit="3"/><line x1="512" y1="288" x2="512" y2="277" vector-effect="non-scaling-stroke" stroke-width="2" stroke="rgb(154,154,158)" stroke-linejoin="miter" stroke-linecap="square" stroke-miterlimit="3"/><circle vector-effect="non-scaling-stroke" cx="512" cy="256" r="19" fill="rgb(215,211,211)"/></g><g style="isolation:isolate"><line x1="166" y1="231" x2="308" y2="284" vector-effect="non-scaling-stroke" stroke-width="2" stroke="rgb(154,154,158)" stroke-linejoin="miter" stroke-linecap="square" stroke-miterlimit="3"/><circle vector-effect="non-scaling-stroke" cx="145" cy="231" r="19" fill="rgb(215,211,211)"/><line x1="145" y1="261" x2="145" y2="252" vector-effect="non-scaling-stroke" stroke-width="2" stroke="rgb(154,154,158)" stroke-linejoin="miter" stroke-linecap="square" stroke-miterlimit="3"/></g><g style="isolation:isolate"><line x1="695" y1="315" x2="695" y2="252" vector-effect="non-scaling-stroke" stroke-width="2" stroke="rgb(154,154,158)" stroke-linejoin="miter" stroke-linecap="square" stroke-miterlimit="3"/><line x1="533" y1="256" x2="673" y2="231" vector-effect="non-scaling-stroke" stroke-width="2" stroke="rgb(154,154,158)" stroke-linejoin="miter" stroke-linecap="square" stroke-miterlimit="3"/><circle vector-effect="non-scaling-stroke" cx="695.0000000000001" cy="231.00000000000003" r="19" fill="rgb(215,211,211)"/></g></g><g style="isolation:isolate"><path d=" M 692.373 238.759 L 692.158 237.323 L 692.07 237.323 L 692.07 237.323 Q 690.947 238.954 688.711 238.954 L 688.711 238.954 L 688.711 238.954 Q 686.611 238.954 685.444 237.519 L 685.444 237.519 L 685.444 237.519 Q 684.277 236.083 684.277 233.437 L 684.277 233.437 L 684.277 233.437 Q 684.277 230.79 685.449 229.325 L 685.449 229.325 L 685.449 229.325 Q 686.621 227.86 688.711 227.86 L 688.711 227.86 L 688.711 227.86 Q 690.889 227.86 692.051 229.442 L 692.051 229.442 L 692.178 229.442 L 692.109 228.671 L 692.07 227.919 L 692.07 223.563 L 693.691 223.563 L 693.691 238.759 L 692.373 238.759 L 692.373 238.759 Z  M 688.916 237.597 L 688.916 237.597 L 688.916 237.597 Q 690.576 237.597 691.323 236.693 L 691.323 236.693 L 691.323 236.693 Q 692.07 235.79 692.07 233.778 L 692.07 233.778 L 692.07 233.437 L 692.07 233.437 Q 692.07 231.161 691.313 230.189 L 691.313 230.189 L 691.313 230.189 Q 690.557 229.218 688.896 229.218 L 688.896 229.218 L 688.896 229.218 Q 687.471 229.218 686.714 230.326 L 686.714 230.326 L 686.714 230.326 Q 685.957 231.435 685.957 233.456 L 685.957 233.456 L 685.957 233.456 Q 685.957 235.507 686.709 236.552 L 686.709 236.552 L 686.709 236.552 Q 687.461 237.597 688.916 237.597 Z  M 702.393 224.481 L 702.393 238.759 L 700.811 238.759 L 700.811 228.583 L 700.811 228.583 Q 700.811 227.313 700.889 226.181 L 700.889 226.181 L 700.889 226.181 Q 700.684 226.386 700.43 226.61 L 700.43 226.61 L 700.43 226.61 Q 700.176 226.835 698.105 228.515 L 698.105 228.515 L 697.246 227.401 L 701.025 224.481 L 702.393 224.481 L 702.393 224.481 Z " fill-rule="evenodd" fill="rgb(139,139,139)"/><path d=" M 692.373 343.759 L 692.158 342.323 L 692.07 342.323 L 692.07 342.323 Q 690.947 343.954 688.711 343.954 L 688.711 343.954 L 688.711 343.954 Q 686.611 343.954 685.444 342.519 L 685.444 342.519 L 685.444 342.519 Q 684.277 341.083 684.277 338.437 L 684.277 338.437 L 684.277 338.437 Q 684.277 335.79 685.449 334.325 L 685.449 334.325 L 685.449 334.325 Q 686.621 332.86 688.711 332.86 L 688.711 332.86 L 688.711 332.86 Q 690.889 332.86 692.051 334.442 L 692.051 334.442 L 692.178 334.442 L 692.109 333.671 L 692.07 332.919 L 692.07 328.563 L 693.691 328.563 L 693.691 343.759 L 692.373 343.759 L 692.373 343.759 Z  M 688.916 342.597 L 688.916 342.597 L 688.916 342.597 Q 690.576 342.597 691.323 341.693 L 691.323 341.693 L 691.323 341.693 Q 692.07 340.79 692.07 338.778 L 692.07 338.778 L 692.07 338.437 L 692.07 338.437 Q 692.07 336.161 691.313 335.189 L 691.313 335.189 L 691.313 335.189 Q 690.557 334.218 688.896 334.218 L 688.896 334.218 L 688.896 334.218 Q 687.471 334.218 686.714 335.326 L 686.714 335.326 L 686.714 335.326 Q 685.957 336.435 685.957 338.456 L 685.957 338.456 L 685.957 338.456 Q 685.957 340.507 686.709 341.552 L 686.709 341.552 L 686.709 341.552 Q 687.461 342.597 688.916 342.597 Z  M 705.85 336.601 L 705.85 336.601 L 705.85 336.601 Q 705.85 340.302 704.683 342.128 L 704.683 342.128 L 704.683 342.128 Q 703.516 343.954 701.113 343.954 L 701.113 343.954 L 701.113 343.954 Q 698.809 343.954 697.607 342.084 L 697.607 342.084 L 697.607 342.084 Q 696.406 340.214 696.406 336.601 L 696.406 336.601 L 696.406 336.601 Q 696.406 332.87 697.568 331.063 L 697.568 331.063 L 697.568 331.063 Q 698.73 329.257 701.113 329.257 L 701.113 329.257 L 701.113 329.257 Q 703.438 329.257 704.644 331.142 L 704.644 331.142 L 704.644 331.142 Q 705.85 333.026 705.85 336.601 Z  M 698.047 336.601 L 698.047 336.601 L 698.047 336.601 Q 698.047 339.716 698.779 341.137 L 698.779 341.137 L 698.779 341.137 Q 699.512 342.558 701.113 342.558 L 701.113 342.558 L 701.113 342.558 Q 702.734 342.558 703.462 341.117 L 703.462 341.117 L 703.462 341.117 Q 704.189 339.677 704.189 336.601 L 704.189 336.601 L 704.189 336.601 Q 704.189 333.524 703.462 332.094 L 703.462 332.094 L 703.462 332.094 Q 702.734 330.663 701.113 330.663 L 701.113 330.663 L 701.113 330.663 Q 699.512 330.663 698.779 332.074 L 698.779 332.074 L 698.779 332.074 Q 698.047 333.485 698.047 336.601 Z " fill-rule="evenodd" fill="rgb(139,139,139)"/><path d=" M 506.518 263.954 L 506.518 263.954 L 506.518 263.954 Q 504.193 263.954 502.919 262.523 L 502.919 262.523 L 502.919 262.523 Q 501.645 261.093 501.645 258.476 L 501.645 258.476 L 501.645 258.476 Q 501.645 255.79 502.938 254.325 L 502.938 254.325 L 502.938 254.325 Q 504.232 252.86 506.625 252.86 L 506.625 252.86 L 506.625 252.86 Q 507.396 252.86 508.168 253.026 L 508.168 253.026 L 508.168 253.026 Q 508.939 253.192 509.379 253.417 L 509.379 253.417 L 508.881 254.794 L 508.881 254.794 Q 508.344 254.579 507.709 254.438 L 507.709 254.438 L 507.709 254.438 Q 507.074 254.296 506.586 254.296 L 506.586 254.296 L 506.586 254.296 Q 503.324 254.296 503.324 258.456 L 503.324 258.456 L 503.324 258.456 Q 503.324 260.429 504.12 261.483 L 504.12 261.483 L 504.12 261.483 Q 504.916 262.538 506.479 262.538 L 506.479 262.538 L 506.479 262.538 Q 507.816 262.538 509.223 261.962 L 509.223 261.962 L 509.223 263.397 L 509.223 263.397 Q 508.148 263.954 506.518 263.954 Z  M 520.404 262.255 L 520.404 263.759 L 511.02 263.759 L 511.02 262.362 L 514.779 258.583 L 514.779 258.583 Q 516.498 256.845 517.045 256.103 L 517.045 256.103 L 517.045 256.103 Q 517.592 255.36 517.865 254.657 L 517.865 254.657 L 517.865 254.657 Q 518.139 253.954 518.139 253.144 L 518.139 253.144 L 518.139 253.144 Q 518.139 252.001 517.445 251.332 L 517.445 251.332 L 517.445 251.332 Q 516.752 250.663 515.521 250.663 L 515.521 250.663 L 515.521 250.663 Q 514.633 250.663 513.837 250.956 L 513.837 250.956 L 513.837 250.956 Q 513.041 251.249 512.064 252.021 L 512.064 252.021 L 511.205 250.917 L 511.205 250.917 Q 513.178 249.276 515.502 249.276 L 515.502 249.276 L 515.502 249.276 Q 517.514 249.276 518.656 250.307 L 518.656 250.307 L 518.656 250.307 Q 519.799 251.337 519.799 253.075 L 519.799 253.075 L 519.799 253.075 Q 519.799 254.433 519.037 255.761 L 519.037 255.761 L 519.037 255.761 Q 518.275 257.089 516.186 259.12 L 516.186 259.12 L 513.061 262.177 L 513.061 262.255 L 520.404 262.255 L 520.404 262.255 Z " fill-rule="evenodd" fill="rgb(139,139,139)"/><path d=" M 506.518 316.954 L 506.518 316.954 L 506.518 316.954 Q 504.193 316.954 502.919 315.523 L 502.919 315.523 L 502.919 315.523 Q 501.645 314.093 501.645 311.476 L 501.645 311.476 L 501.645 311.476 Q 501.645 308.79 502.938 307.325 L 502.938 307.325 L 502.938 307.325 Q 504.232 305.86 506.625 305.86 L 506.625 305.86 L 506.625 305.86 Q 507.396 305.86 508.168 306.026 L 508.168 306.026 L 508.168 306.026 Q 508.939 306.192 509.379 306.417 L 509.379 306.417 L 508.881 307.794 L 508.881 307.794 Q 508.344 307.579 507.709 307.438 L 507.709 307.438 L 507.709 307.438 Q 507.074 307.296 506.586 307.296 L 506.586 307.296 L 506.586 307.296 Q 503.324 307.296 503.324 311.456 L 503.324 311.456 L 503.324 311.456 Q 503.324 313.429 504.12 314.483 L 504.12 314.483 L 504.12 314.483 Q 504.916 315.538 506.479 315.538 L 506.479 315.538 L 506.479 315.538 Q 507.816 315.538 509.223 314.962 L 509.223 314.962 L 509.223 316.397 L 509.223 316.397 Q 508.148 316.954 506.518 316.954 Z  M 517.025 302.481 L 517.025 316.759 L 515.443 316.759 L 515.443 306.583 L 515.443 306.583 Q 515.443 305.313 515.521 304.181 L 515.521 304.181 L 515.521 304.181 Q 515.316 304.386 515.063 304.61 L 515.063 304.61 L 515.063 304.61 Q 514.809 304.835 512.738 306.515 L 512.738 306.515 L 511.879 305.401 L 515.658 302.481 L 517.025 302.481 L 517.025 302.481 Z " fill-rule="evenodd" fill="rgb(139,139,139)"/><path d=" M 506.518 376.954 L 506.518 376.954 L 506.518 376.954 Q 504.193 376.954 502.919 375.523 L 502.919 375.523 L 502.919 375.523 Q 501.645 374.093 501.645 371.476 L 501.645 371.476 L 501.645 371.476 Q 501.645 368.79 502.938 367.325 L 502.938 367.325 L 502.938 367.325 Q 504.232 365.86 506.625 365.86 L 506.625 365.86 L 506.625 365.86 Q 507.396 365.86 508.168 366.026 L 508.168 366.026 L 508.168 366.026 Q 508.939 366.192 509.379 366.417 L 509.379 366.417 L 508.881 367.794 L 508.881 367.794 Q 508.344 367.579 507.709 367.438 L 507.709 367.438 L 507.709 367.438 Q 507.074 367.296 506.586 367.296 L 506.586 367.296 L 506.586 367.296 Q 503.324 367.296 503.324 371.456 L 503.324 371.456 L 503.324 371.456 Q 503.324 373.429 504.12 374.483 L 504.12 374.483 L 504.12 374.483 Q 504.916 375.538 506.479 375.538 L 506.479 375.538 L 506.479 375.538 Q 507.816 375.538 509.223 374.962 L 509.223 374.962 L 509.223 376.397 L 509.223 376.397 Q 508.148 376.954 506.518 376.954 Z  M 520.482 369.601 L 520.482 369.601 L 520.482 369.601 Q 520.482 373.302 519.315 375.128 L 519.315 375.128 L 519.315 375.128 Q 518.148 376.954 515.746 376.954 L 515.746 376.954 L 515.746 376.954 Q 513.441 376.954 512.24 375.084 L 512.24 375.084 L 512.24 375.084 Q 511.039 373.214 511.039 369.601 L 511.039 369.601 L 511.039 369.601 Q 511.039 365.87 512.201 364.063 L 512.201 364.063 L 512.201 364.063 Q 513.363 362.257 515.746 362.257 L 515.746 362.257 L 515.746 362.257 Q 518.07 362.257 519.276 364.142 L 519.276 364.142 L 519.276 364.142 Q 520.482 366.026 520.482 369.601 Z  M 512.68 369.601 L 512.68 369.601 L 512.68 369.601 Q 512.68 372.716 513.412 374.137 L 513.412 374.137 L 513.412 374.137 Q 514.145 375.558 515.746 375.558 L 515.746 375.558 L 515.746 375.558 Q 517.367 375.558 518.095 374.117 L 518.095 374.117 L 518.095 374.117 Q 518.822 372.677 518.822 369.601 L 518.822 369.601 L 518.822 369.601 Q 518.822 366.524 518.095 365.094 L 518.095 365.094 L 518.095 365.094 Q 517.367 363.663 515.746 363.663 L 515.746 363.663 L 515.746 363.663 Q 514.145 363.663 513.412 365.074 L 513.412 365.074 L 513.412 365.074 Q 512.68 366.485 512.68 369.601 Z " fill-rule="evenodd" fill="rgb(139,139,139)"/><path d=" M 322.854 279.38 L 322.854 279.38 L 322.854 279.38 Q 324.963 279.38 326.13 280.82 L 326.13 280.82 L 326.13 280.82 Q 327.297 282.261 327.297 284.897 L 327.297 284.897 L 327.297 284.897 Q 327.297 287.534 326.12 288.994 L 326.12 288.994 L 326.12 288.994 Q 324.943 290.454 322.854 290.454 L 322.854 290.454 L 322.854 290.454 Q 321.809 290.454 320.944 290.068 L 320.944 290.068 L 320.944 290.068 Q 320.08 289.683 319.494 288.882 L 319.494 288.882 L 319.377 288.882 L 319.035 290.259 L 317.873 290.259 L 317.873 275.063 L 319.494 275.063 L 319.494 278.755 L 319.494 278.755 Q 319.494 279.995 319.416 280.981 L 319.416 280.981 L 319.494 280.981 L 319.494 280.981 Q 320.627 279.38 322.854 279.38 Z  M 322.619 280.737 L 322.619 280.737 L 322.619 280.737 Q 320.959 280.737 320.227 281.689 L 320.227 281.689 L 320.227 281.689 Q 319.494 282.642 319.494 284.897 L 319.494 284.897 L 319.494 284.897 Q 319.494 287.153 320.246 288.125 L 320.246 288.125 L 320.246 288.125 Q 320.998 289.097 322.658 289.097 L 322.658 289.097 L 322.658 289.097 Q 324.152 289.097 324.885 288.008 L 324.885 288.008 L 324.885 288.008 Q 325.617 286.919 325.617 284.878 L 325.617 284.878 L 325.617 284.878 Q 325.617 282.788 324.885 281.763 L 324.885 281.763 L 324.885 281.763 Q 324.152 280.737 322.619 280.737 Z  M 338.771 288.755 L 338.771 290.259 L 329.387 290.259 L 329.387 288.862 L 333.146 285.083 L 333.146 285.083 Q 334.865 283.345 335.412 282.603 L 335.412 282.603 L 335.412 282.603 Q 335.959 281.86 336.232 281.157 L 336.232 281.157 L 336.232 281.157 Q 336.506 280.454 336.506 279.644 L 336.506 279.644 L 336.506 279.644 Q 336.506 278.501 335.813 277.832 L 335.813 277.832 L 335.813 277.832 Q 335.119 277.163 333.889 277.163 L 333.889 277.163 L 333.889 277.163 Q 333 277.163 332.204 277.456 L 332.204 277.456 L 332.204 277.456 Q 331.408 277.749 330.432 278.521 L 330.432 278.521 L 329.572 277.417 L 329.572 277.417 Q 331.545 275.776 333.869 275.776 L 333.869 275.776 L 333.869 275.776 Q 335.881 275.776 337.023 276.807 L 337.023 276.807 L 337.023 276.807 Q 338.166 277.837 338.166 279.575 L 338.166 279.575 L 338.166 279.575 Q 338.166 280.933 337.404 282.261 L 337.404 282.261 L 337.404 282.261 Q 336.643 283.589 334.553 285.62 L 334.553 285.62 L 331.428 288.677 L 331.428 288.755 L 338.771 288.755 L 338.771 288.755 Z " fill-rule="evenodd" fill="rgb(139,139,139)"/><path d=" M 322.854 353.88 L 322.854 353.88 L 322.854 353.88 Q 324.963 353.88 326.13 355.32 L 326.13 355.32 L 326.13 355.32 Q 327.297 356.761 327.297 359.397 L 327.297 359.397 L 327.297 359.397 Q 327.297 362.034 326.12 363.494 L 326.12 363.494 L 326.12 363.494 Q 324.943 364.954 322.854 364.954 L 322.854 364.954 L 322.854 364.954 Q 321.809 364.954 320.944 364.568 L 320.944 364.568 L 320.944 364.568 Q 320.08 364.183 319.494 363.382 L 319.494 363.382 L 319.377 363.382 L 319.035 364.759 L 317.873 364.759 L 317.873 349.563 L 319.494 349.563 L 319.494 353.255 L 319.494 353.255 Q 319.494 354.495 319.416 355.481 L 319.416 355.481 L 319.494 355.481 L 319.494 355.481 Q 320.627 353.88 322.854 353.88 Z  M 322.619 355.237 L 322.619 355.237 L 322.619 355.237 Q 320.959 355.237 320.227 356.189 L 320.227 356.189 L 320.227 356.189 Q 319.494 357.142 319.494 359.397 L 319.494 359.397 L 319.494 359.397 Q 319.494 361.653 320.246 362.625 L 320.246 362.625 L 320.246 362.625 Q 320.998 363.597 322.658 363.597 L 322.658 363.597 L 322.658 363.597 Q 324.152 363.597 324.885 362.508 L 324.885 362.508 L 324.885 362.508 Q 325.617 361.419 325.617 359.378 L 325.617 359.378 L 325.617 359.378 Q 325.617 357.288 324.885 356.263 L 324.885 356.263 L 324.885 356.263 Q 324.152 355.237 322.619 355.237 Z  M 335.393 350.481 L 335.393 364.759 L 333.811 364.759 L 333.811 354.583 L 333.811 354.583 Q 333.811 353.313 333.889 352.181 L 333.889 352.181 L 333.889 352.181 Q 333.684 352.386 333.43 352.61 L 333.43 352.61 L 333.43 352.61 Q 333.176 352.835 331.105 354.515 L 331.105 354.515 L 330.246 353.401 L 334.025 350.481 L 335.393 350.481 L 335.393 350.481 Z " fill-rule="evenodd" fill="rgb(139,139,139)"/><path d=" M 322.854 407.88 L 322.854 407.88 L 322.854 407.88 Q 324.963 407.88 326.13 409.32 L 326.13 409.32 L 326.13 409.32 Q 327.297 410.761 327.297 413.397 L 327.297 413.397 L 327.297 413.397 Q 327.297 416.034 326.12 417.494 L 326.12 417.494 L 326.12 417.494 Q 324.943 418.954 322.854 418.954 L 322.854 418.954 L 322.854 418.954 Q 321.809 418.954 320.944 418.568 L 320.944 418.568 L 320.944 418.568 Q 320.08 418.183 319.494 417.382 L 319.494 417.382 L 319.377 417.382 L 319.035 418.759 L 317.873 418.759 L 317.873 403.563 L 319.494 403.563 L 319.494 407.255 L 319.494 407.255 Q 319.494 408.495 319.416 409.481 L 319.416 409.481 L 319.494 409.481 L 319.494 409.481 Q 320.627 407.88 322.854 407.88 Z  M 322.619 409.237 L 322.619 409.237 L 322.619 409.237 Q 320.959 409.237 320.227 410.189 L 320.227 410.189 L 320.227 410.189 Q 319.494 411.142 319.494 413.397 L 319.494 413.397 L 319.494 413.397 Q 319.494 415.653 320.246 416.625 L 320.246 416.625 L 320.246 416.625 Q 320.998 417.597 322.658 417.597 L 322.658 417.597 L 322.658 417.597 Q 324.152 417.597 324.885 416.508 L 324.885 416.508 L 324.885 416.508 Q 325.617 415.419 325.617 413.378 L 325.617 413.378 L 325.617 413.378 Q 325.617 411.288 324.885 410.263 L 324.885 410.263 L 324.885 410.263 Q 324.152 409.237 322.619 409.237 Z  M 338.85 411.601 L 338.85 411.601 L 338.85 411.601 Q 338.85 415.302 337.683 417.128 L 337.683 417.128 L 337.683 417.128 Q 336.516 418.954 334.113 418.954 L 334.113 418.954 L 334.113 418.954 Q 331.809 418.954 330.607 417.084 L 330.607 417.084 L 330.607 417.084 Q 329.406 415.214 329.406 411.601 L 329.406 411.601 L 329.406 411.601 Q 329.406 407.87 330.568 406.063 L 330.568 406.063 L 330.568 406.063 Q 331.73 404.257 334.113 404.257 L 334.113 404.257 L 334.113 404.257 Q 336.438 404.257 337.644 406.142 L 337.644 406.142 L 337.644 406.142 Q 338.85 408.026 338.85 411.601 Z  M 331.047 411.601 L 331.047 411.601 L 331.047 411.601 Q 331.047 414.716 331.779 416.137 L 331.779 416.137 L 331.779 416.137 Q 332.512 417.558 334.113 417.558 L 334.113 417.558 L 334.113 417.558 Q 335.734 417.558 336.462 416.117 L 336.462 416.117 L 336.462 416.117 Q 337.189 414.677 337.189 411.601 L 337.189 411.601 L 337.189 411.601 Q 337.189 408.524 336.462 407.094 L 336.462 407.094 L 336.462 407.094 Q 335.734 405.663 334.113 405.663 L 334.113 405.663 L 334.113 405.663 Q 332.512 405.663 331.779 407.074 L 331.779 407.074 L 331.779 407.074 Q 331.047 408.485 331.047 411.601 Z " fill-rule="evenodd" fill="rgb(139,139,139)"/><path d=" M 142.223 238.759 L 141.021 238.759 L 140.699 237.235 L 140.621 237.235 L 140.621 237.235 Q 139.82 238.241 139.024 238.598 L 139.024 238.598 L 139.024 238.598 Q 138.229 238.954 137.037 238.954 L 137.037 238.954 L 137.037 238.954 Q 135.445 238.954 134.542 238.134 L 134.542 238.134 L 134.542 238.134 Q 133.639 237.313 133.639 235.8 L 133.639 235.8 L 133.639 235.8 Q 133.639 232.558 138.824 232.401 L 138.824 232.401 L 140.641 232.343 L 140.641 231.679 L 140.641 231.679 Q 140.641 230.419 140.099 229.818 L 140.099 229.818 L 140.099 229.818 Q 139.557 229.218 138.365 229.218 L 138.365 229.218 L 138.365 229.218 Q 137.027 229.218 135.338 230.038 L 135.338 230.038 L 134.84 228.798 L 134.84 228.798 Q 135.631 228.368 136.573 228.124 L 136.573 228.124 L 136.573 228.124 Q 137.516 227.88 138.463 227.88 L 138.463 227.88 L 138.463 227.88 Q 140.377 227.88 141.3 228.729 L 141.3 228.729 L 141.3 228.729 Q 142.223 229.579 142.223 231.454 L 142.223 231.454 L 142.223 238.759 L 142.223 238.759 Z  M 137.359 237.616 L 137.359 237.616 L 137.359 237.616 Q 138.873 237.616 139.737 236.786 L 139.737 236.786 L 139.737 236.786 Q 140.602 235.956 140.602 234.462 L 140.602 234.462 L 140.602 233.495 L 138.98 233.563 L 138.98 233.563 Q 137.047 233.632 136.192 234.164 L 136.192 234.164 L 136.192 234.164 Q 135.338 234.696 135.338 235.819 L 135.338 235.819 L 135.338 235.819 Q 135.338 236.698 135.87 237.157 L 135.87 237.157 L 135.87 237.157 Q 136.402 237.616 137.359 237.616 Z  M 154.205 237.255 L 154.205 238.759 L 144.82 238.759 L 144.82 237.362 L 148.58 233.583 L 148.58 233.583 Q 150.299 231.845 150.846 231.103 L 150.846 231.103 L 150.846 231.103 Q 151.393 230.36 151.666 229.657 L 151.666 229.657 L 151.666 229.657 Q 151.939 228.954 151.939 228.144 L 151.939 228.144 L 151.939 228.144 Q 151.939 227.001 151.246 226.332 L 151.246 226.332 L 151.246 226.332 Q 150.553 225.663 149.322 225.663 L 149.322 225.663 L 149.322 225.663 Q 148.434 225.663 147.638 225.956 L 147.638 225.956 L 147.638 225.956 Q 146.842 226.249 145.865 227.021 L 145.865 227.021 L 145.006 225.917 L 145.006 225.917 Q 146.979 224.276 149.303 224.276 L 149.303 224.276 L 149.303 224.276 Q 151.314 224.276 152.457 225.307 L 152.457 225.307 L 152.457 225.307 Q 153.6 226.337 153.6 228.075 L 153.6 228.075 L 153.6 228.075 Q 153.6 229.433 152.838 230.761 L 152.838 230.761 L 152.838 230.761 Q 152.076 232.089 149.986 234.12 L 149.986 234.12 L 146.861 237.177 L 146.861 237.255 L 154.205 237.255 L 154.205 237.255 Z " fill-rule="evenodd" fill="rgb(139,139,139)"/><path d=" M 142.223 289.759 L 141.021 289.759 L 140.699 288.235 L 140.621 288.235 L 140.621 288.235 Q 139.82 289.241 139.024 289.598 L 139.024 289.598 L 139.024 289.598 Q 138.229 289.954 137.037 289.954 L 137.037 289.954 L 137.037 289.954 Q 135.445 289.954 134.542 289.134 L 134.542 289.134 L 134.542 289.134 Q 133.639 288.313 133.639 286.8 L 133.639 286.8 L 133.639 286.8 Q 133.639 283.558 138.824 283.401 L 138.824 283.401 L 140.641 283.343 L 140.641 282.679 L 140.641 282.679 Q 140.641 281.419 140.099 280.818 L 140.099 280.818 L 140.099 280.818 Q 139.557 280.218 138.365 280.218 L 138.365 280.218 L 138.365 280.218 Q 137.027 280.218 135.338 281.038 L 135.338 281.038 L 134.84 279.798 L 134.84 279.798 Q 135.631 279.368 136.573 279.124 L 136.573 279.124 L 136.573 279.124 Q 137.516 278.88 138.463 278.88 L 138.463 278.88 L 138.463 278.88 Q 140.377 278.88 141.3 279.729 L 141.3 279.729 L 141.3 279.729 Q 142.223 280.579 142.223 282.454 L 142.223 282.454 L 142.223 289.759 L 142.223 289.759 Z  M 137.359 288.616 L 137.359 288.616 L 137.359 288.616 Q 138.873 288.616 139.737 287.786 L 139.737 287.786 L 139.737 287.786 Q 140.602 286.956 140.602 285.462 L 140.602 285.462 L 140.602 284.495 L 138.98 284.563 L 138.98 284.563 Q 137.047 284.632 136.192 285.164 L 136.192 285.164 L 136.192 285.164 Q 135.338 285.696 135.338 286.819 L 135.338 286.819 L 135.338 286.819 Q 135.338 287.698 135.87 288.157 L 135.87 288.157 L 135.87 288.157 Q 136.402 288.616 137.359 288.616 Z  M 150.826 275.481 L 150.826 289.759 L 149.244 289.759 L 149.244 279.583 L 149.244 279.583 Q 149.244 278.313 149.322 277.181 L 149.322 277.181 L 149.322 277.181 Q 149.117 277.386 148.863 277.61 L 148.863 277.61 L 148.863 277.61 Q 148.609 277.835 146.539 279.515 L 146.539 279.515 L 145.68 278.401 L 149.459 275.481 L 150.826 275.481 L 150.826 275.481 Z " fill-rule="evenodd" fill="rgb(139,139,139)"/><path d=" M 142.223 376.759 L 141.021 376.759 L 140.699 375.235 L 140.621 375.235 L 140.621 375.235 Q 139.82 376.241 139.024 376.598 L 139.024 376.598 L 139.024 376.598 Q 138.229 376.954 137.037 376.954 L 137.037 376.954 L 137.037 376.954 Q 135.445 376.954 134.542 376.134 L 134.542 376.134 L 134.542 376.134 Q 133.639 375.313 133.639 373.8 L 133.639 373.8 L 133.639 373.8 Q 133.639 370.558 138.824 370.401 L 138.824 370.401 L 140.641 370.343 L 140.641 369.679 L 140.641 369.679 Q 140.641 368.419 140.099 367.818 L 140.099 367.818 L 140.099 367.818 Q 139.557 367.218 138.365 367.218 L 138.365 367.218 L 138.365 367.218 Q 137.027 367.218 135.338 368.038 L 135.338 368.038 L 134.84 366.798 L 134.84 366.798 Q 135.631 366.368 136.573 366.124 L 136.573 366.124 L 136.573 366.124 Q 137.516 365.88 138.463 365.88 L 138.463 365.88 L 138.463 365.88 Q 140.377 365.88 141.3 366.729 L 141.3 366.729 L 141.3 366.729 Q 142.223 367.579 142.223 369.454 L 142.223 369.454 L 142.223 376.759 L 142.223 376.759 Z  M 137.359 375.616 L 137.359 375.616 L 137.359 375.616 Q 138.873 375.616 139.737 374.786 L 139.737 374.786 L 139.737 374.786 Q 140.602 373.956 140.602 372.462 L 140.602 372.462 L 140.602 371.495 L 138.98 371.563 L 138.98 371.563 Q 137.047 371.632 136.192 372.164 L 136.192 372.164 L 136.192 372.164 Q 135.338 372.696 135.338 373.819 L 135.338 373.819 L 135.338 373.819 Q 135.338 374.698 135.87 375.157 L 135.87 375.157 L 135.87 375.157 Q 136.402 375.616 137.359 375.616 Z  M 154.283 369.601 L 154.283 369.601 L 154.283 369.601 Q 154.283 373.302 153.116 375.128 L 153.116 375.128 L 153.116 375.128 Q 151.949 376.954 149.547 376.954 L 149.547 376.954 L 149.547 376.954 Q 147.242 376.954 146.041 375.084 L 146.041 375.084 L 146.041 375.084 Q 144.84 373.214 144.84 369.601 L 144.84 369.601 L 144.84 369.601 Q 144.84 365.87 146.002 364.063 L 146.002 364.063 L 146.002 364.063 Q 147.164 362.257 149.547 362.257 L 149.547 362.257 L 149.547 362.257 Q 151.871 362.257 153.077 364.142 L 153.077 364.142 L 153.077 364.142 Q 154.283 366.026 154.283 369.601 Z  M 146.48 369.601 L 146.48 369.601 L 146.48 369.601 Q 146.48 372.716 147.213 374.137 L 147.213 374.137 L 147.213 374.137 Q 147.945 375.558 149.547 375.558 L 149.547 375.558 L 149.547 375.558 Q 151.168 375.558 151.896 374.117 L 151.896 374.117 L 151.896 374.117 Q 152.623 372.677 152.623 369.601 L 152.623 369.601 L 152.623 369.601 Q 152.623 366.524 151.896 365.094 L 151.896 365.094 L 151.896 365.094 Q 151.168 363.663 149.547 363.663 L 149.547 363.663 L 149.547 363.663 Q 147.945 363.663 147.213 365.074 L 147.213 365.074 L 147.213 365.074 Q 146.48 366.485 146.48 369.601 Z " fill-rule="evenodd" fill="rgb(139,139,139)"/></g></g></svg>